<?xml version="1.0" standalone="no"?>
<!DOCTYPE svg PUBLIC "-//W3C//DTD SVG 1.1//EN" "http://www.w3.org/Graphics/SVG/1.1/DTD/svg11.dtd" >
<svg xmlns="http://www.w3.org/2000/svg" xmlns:xlink="http://www.w3.org/1999/xlink" version="1.1">
<metadata>
Created by FontForge 20170731 at Wed May 28 11:00:49 2014
 By Aleksey,,,
Copyright (c) 2014 by Electronic Arts. All rights reserved.
</metadata>
<defs>
<font id="TheSimsSansSC-Bold" horiz-adv-x="640" >
  <font-face 
    font-family="The Sims Sans SC"
    font-weight="700"
    font-stretch="normal"
    units-per-em="1000"
    panose-1="2 0 8 3 2 0 0 2 0 3"
    ascent="750"
    descent="-250"
    x-height="597"
    cap-height="700"
    bbox="-113 -264 1054 944"
    underline-thickness="50"
    underline-position="-150"
    unicode-range="U+000D-2122"
  />
<missing-glyph horiz-adv-x="300" 
 />
    <glyph glyph-name=".notdef" horiz-adv-x="300" 
 />
    <glyph glyph-name=".null" horiz-adv-x="0" 
 />
    <glyph glyph-name="nonmarkingreturn" unicode="&#xd;" horiz-adv-x="300" 
 />
    <glyph glyph-name="NULL" horiz-adv-x="0" 
 />
    <glyph glyph-name="NULL" horiz-adv-x="0" 
 />
    <glyph glyph-name="space" unicode=" " horiz-adv-x="300" 
 />
    <glyph glyph-name="exclam" unicode="!" horiz-adv-x="295" 
d="M227 78q0 -34 -23.5 -57t-56.5 -23q-34 0 -57 23t-23 57q0 33 23 56.5t57 23.5q33 0 56.5 -23.5t23.5 -56.5zM216 223l-135 -38l-9 515l154 25z" />
    <glyph glyph-name="quotedbl" unicode="&#x22;" horiz-adv-x="480" 
d="M155 445h-100l10 255h140zM385 445h-100l10 255h140z" />
    <glyph glyph-name="numbersign" unicode="#" horiz-adv-x="685" 
d="M612 410h-98l-16 -110h112l-33 -115h-96l-26 -185h-115l26 185h-100l-26 -185h-115l26 185h-111l33 115h95l16 110h-109l33 115h92l25 175h115l-25 -175h100l25 175h115l-25 -175h115zM383 300l16 110h-100l-16 -110h100z" />
    <glyph glyph-name="dollar" unicode="$" horiz-adv-x="550" 
d="M339 421q67 -20 101 -49.5t49 -57.5q17 -33 17 -68q0 -45 -13.5 -79.5t-36 -59.5t-52 -41.5t-61.5 -24.5v-80l-125 -27v101q-44 5 -76.5 18t-54.5 26q-26 15 -44 32l85 108q22 -20 45 -30t42.5 -14.5t34 -5t20.5 -0.5t19 1.5t26.5 7.5t23.5 17t10 31q0 18 -7 29t-23 20
t-42 18t-63 23q-36 13 -65 27t-50 33t-32 45.5t-11 65.5q0 32 12 61.5t33 53.5t51 42.5t66 27.5v74l125 27v-98q35 -6 62.5 -18t46.5 -23q22 -14 37 -29l-81 -101q-27 29 -61 41.5t-65 10.5t-52 -17.5t-21 -42.5q0 -18 10.5 -29t28 -18.5t41 -14t50.5 -13.5z" />
    <glyph glyph-name="percent" unicode="%" horiz-adv-x="870" 
d="M403 542q0 -35 -14 -66t-38.5 -54t-57.5 -36.5t-70 -13.5t-70 13.5t-57.5 36.5t-38.5 54t-14 66t14 66t38.5 54t57.5 36.5t70 13.5t70 -13.5t57.5 -36.5t38.5 -54t14 -66zM144 542q0 -33 23.5 -56t55.5 -23q33 0 56 23t23 56q0 32 -23 55.5t-56 23.5q-32 0 -55.5 -23.5
t-23.5 -55.5zM646 360q37 0 70 -13.5t57.5 -36.5t38.5 -54t14 -66t-14 -66t-38.5 -54t-57.5 -36.5t-70 -13.5t-70 13.5t-57.5 36.5t-38.5 54t-14 66t14 66t38.5 54t57.5 36.5t70 13.5zM646 111q33 0 56 23t23 56q0 32 -23 55.5t-56 23.5q-32 0 -55.5 -23.5t-23.5 -55.5
q0 -33 23.5 -56t55.5 -23zM682 725l-400 -725h-120l420 725h100z" />
    <glyph glyph-name="ampersand" unicode="&#x26;" horiz-adv-x="760" 
d="M556 0q-10 12 -22 26q-11 12 -25.5 28.5t-31.5 36.5q-11 -11 -21.5 -19.5t-18.5 -16.5q-36 -33 -86.5 -52.5t-102.5 -18t-99.5 28.5t-76.5 87q-21 43 -25 87t10.5 84t48.5 75t90 60q-41 36 -52.5 88t6 101t62 83.5t115.5 34.5q23 0 56 -7t64 -26.5t52.5 -53.5t21.5 -88
q0 -28 -10 -51.5t-26.5 -43t-37.5 -36.5t-44 -31q19 -22 40.5 -46t44.5 -50l101 87l84 -95q-13 -13 -29 -27q-14 -12 -31 -28.5t-37 -34.5q32 -37 61 -69.5t52 -57.5q26 -29 48 -55h-181zM327 603q-16 -1 -27 -8q-10 -6 -18 -19t-8 -36q0 -20 15 -38t29 -32q2 1 3.5 2t3.5 2
q7 3 17 9t19.5 15t16.5 20.5t7 26.5q0 29 -17 43.5t-41 14.5zM214 156q14 -21 35.5 -28.5t46 -3t50 20.5t48.5 41q-28 32 -55 63t-52 58q-21 -10 -41 -26t-33 -35.5t-14.5 -42.5t15.5 -47z" />
    <glyph glyph-name="quotesingle" unicode="'" horiz-adv-x="240" 
d="M155 445h-100l10 255h140l-50 -255v0z" />
    <glyph glyph-name="parenleft" unicode="(" horiz-adv-x="340" 
d="M228 -235q-94 91 -148 221t-54 284q0 77 14.5 148.5t41.5 135t65 119.5t85 101l77 -70q-80 -83 -126.5 -194t-46.5 -242q0 -129 43.5 -239.5t120.5 -192.5z" />
    <glyph glyph-name="parenright" unicode=")" horiz-adv-x="340" 
d="M40 -164q77 82 120.5 192.5t43.5 239.5q0 131 -46.5 242t-126.5 194l77 70q47 -45 85 -101t65 -119.5t41.5 -135t14.5 -148.5q0 -154 -54 -284t-148 -221z" />
    <glyph glyph-name="asterisk" unicode="*" horiz-adv-x="465" 
d="M424 558l-88 -47l88 -47l-55 -96l-85 52l3 -99h-110l2 99l-84 -52l-55 96l87 47l-87 47l55 96l84 -52l-2 99h110l-3 -99l85 52l55 -96v0z" />
    <glyph glyph-name="plus" unicode="+" 
d="M580 414v-125h-195v-195h-125v195h-200v125h200v200h125v-200h195v0z" />
    <glyph glyph-name="comma" unicode="," horiz-adv-x="345" 
d="M137 -125h-111l90 300l169 25z" />
    <glyph glyph-name="hyphen" unicode="-" horiz-adv-x="370" 
d="M50 288v125h270v-125h-270z" />
    <glyph glyph-name="period" unicode="." horiz-adv-x="280" 
d="M220 78q0 -34 -23.5 -57t-56.5 -23t-56.5 23t-23.5 57q0 33 23.5 56.5t56.5 23.5t56.5 -23.5t23.5 -56.5z" />
    <glyph glyph-name="slash" unicode="/" horiz-adv-x="295" 
d="M349 705l-277 -718h-126l276 718h127z" />
    <glyph glyph-name="zero" unicode="0" horiz-adv-x="650" 
d="M325 -14q-12 0 -37 2.5t-55 14t-61.5 34.5t-57.5 63.5t-42.5 102t-16.5 148.5t16.5 148.5t42.5 102t57.5 63.5t61.5 34.5t55 14t37 2.5t37 -2.5t55 -14t61.5 -34.5t57.5 -63.5t42.5 -102t16.5 -148.5q0 -88 -16.5 -149t-42.5 -101.5t-57.5 -63.5t-61.5 -34.5t-55 -14
t-37 -2.5zM325 573q-38 0 -61 -20t-36.5 -51.5t-18 -71t-4.5 -77.5t4.5 -77.5t18 -71t36.5 -51.5t61 -20q37 0 60.5 20t37 51.5t18 71t4.5 77.5t-4.5 77.5t-18 71t-37 51.5t-60.5 20z" />
    <glyph glyph-name="one" unicode="1" horiz-adv-x="345" 
d="M115 549h-95l50 151h195v-700h-150v549z" />
    <glyph glyph-name="two" unicode="2" horiz-adv-x="625" 
d="M574 145l-38 -145h-490q51 61 93 111q18 21 36 42.5t33 39.5t26 31t16 18q10 12 33.5 37.5t46.5 57.5t41 66.5t18 66.5q0 28 -10 47.5t-25 30.5t-34 16t-37 5q-12 0 -27 -5t-29 -15.5t-23.5 -27t-9.5 -39.5q0 -20 4.5 -33.5t11 -23.5t15.5 -16.5t18 -12.5l-85 -112
q-32 20 -57 48q-21 24 -38.5 59t-17.5 83q0 51 18.5 94.5t50.5 75.5t76.5 50.5t97.5 18.5q49 0 94.5 -14t81 -43t56.5 -73.5t21 -106.5q0 -45 -20.5 -90.5t-46.5 -85t-52 -69t-36 -42.5q-5 -7 -15 -18.5t-22 -25.5h225z" />
    <glyph glyph-name="three" unicode="3" horiz-adv-x="600" 
d="M244 414l45 1q19 0 36 6.5t29.5 17.5t19.5 25.5t7 31.5q0 16 -7 31t-19.5 26t-29.5 17.5t-36 6.5t-36 -6.5t-29.5 -17.5t-19.5 -26t-7 -31l-141 13q0 48 18.5 85.5t50 63.5t74 40t90.5 14t90.5 -16t74 -44t50 -64.5t18.5 -76.5q0 -45 -21 -83.5t-58 -66.5q45 -27 71 -69
t26 -98q0 -42 -19.5 -79.5t-53.5 -65.5t-80 -44.5t-98 -16.5t-97.5 16.5t-79.5 44.5t-53.5 65.5t-19.5 79.5l145 25q0 -19 8 -36t22.5 -29.5t33.5 -19.5t41 -7t41 7t33 19.5t22.5 29.5t8.5 36q0 18 -7 33.5t-20 27.5t-30 19.5t-37 9.5h-11h-44z" />
    <glyph glyph-name="four" unicode="4" horiz-adv-x="655" 
d="M570 130h-70v-130h-149v130h-315v132l329 438h135v-438h108zM351 262v188l-141 -188h141z" />
    <glyph glyph-name="five" unicode="5" horiz-adv-x="595" 
d="M238 443q64 15 119.5 5t96.5 -38.5t64 -73.5t23 -99t-22.5 -100t-60 -79t-87.5 -51.5t-104 -18.5t-96 14t-71 31q-33 19 -58 45l111 107q11 -16 29 -27q14 -10 36 -18t51 -8q25 0 47 6.5t38 19t25.5 31t9.5 43.5q0 43 -24.5 65.5t-66 27t-95.5 -6.5t-114 -33v415h400
l-38 -144h-213v-113v0z" />
    <glyph glyph-name="six" unicode="6" horiz-adv-x="625" 
d="M277 457q44 20 95 14.5t95 -33.5t73.5 -76t29.5 -112q0 -53 -14 -92.5t-36.5 -68.5t-51 -48t-58 -30.5t-57 -16t-47.5 -4.5q-18 0 -43.5 5.5t-53.5 18t-55.5 32.5t-49 48.5t-35 67t-13.5 88.5q0 42 10.5 83.5t28 81.5t40 76t46.5 68q55 74 125 141h198q-48 -35 -89.5 -77
t-72.5 -79q-36 -43 -65 -87zM315 135q23 0 43 8.5t35 23.5t24 35t9 43t-9 42.5t-24 34t-35.5 23t-43.5 8.5t-43 -8.5t-35 -23t-23.5 -34t-8.5 -42.5t9 -43t24 -35t35 -23.5t43 -8.5z" />
    <glyph glyph-name="seven" unicode="7" horiz-adv-x="610" 
d="M370 552h-309l40 148h464l-228 -700h-162z" />
    <glyph glyph-name="eight" unicode="8" horiz-adv-x="600" 
d="M448 368q47 -26 74.5 -69t27.5 -100q0 -43 -19.5 -80.5t-53.5 -65.5t-79.5 -44t-97.5 -16t-98 16t-80 44t-53.5 65.5t-19.5 80.5q0 55 26 97t70 69q-36 26 -57 66t-21 92q0 48 18.5 85.5t50 63.5t74 40t90.5 14t90.5 -16t74 -44t50 -64.5t18.5 -76.5q0 -45 -23 -86.5
t-62 -70.5zM300 603q-19 0 -36 -6.5t-29.5 -17.5t-19.5 -26t-7 -31q0 -17 7 -31.5t19.5 -25.5t29.5 -17.5t36 -6.5q38 0 65 23.5t27 57.5q0 16 -7.5 31t-20 26t-29 17.5t-35.5 6.5zM300 123q22 0 41 7t33 19.5t22.5 29.5t8.5 36t-8.5 36t-22.5 29.5t-33 19.5t-41 7t-41 -7
t-33.5 -19.5t-22.5 -29.5t-8 -36t8 -36t22.5 -29.5t33.5 -19.5t41 -7z" />
    <glyph glyph-name="nine" unicode="9" horiz-adv-x="625" 
d="M349 243q-44 -20 -95 -14.5t-95 33.5t-73.5 76t-29.5 112q0 53 14 92.5t36.5 68.5t51 48t58 30.5t57 16t47.5 4.5q18 0 43.5 -5.5t53.5 -18t55.5 -32.5t49 -48.5t35 -67.5t13.5 -88q0 -42 -11 -84t-28.5 -81.5t-40 -76t-45.5 -67.5q-55 -74 -125 -141h-198q48 34 89 76.5
t72 79.5q36 43 66 87zM311 564q-23 0 -43 -8.5t-35 -23t-24 -34.5t-9 -43t9 -43t24 -34.5t35.5 -23t43.5 -8.5t43 8.5t35 23t23.5 34.5t8.5 43t-9 43t-24 34.5t-35 23t-43 8.5z" />
    <glyph glyph-name="colon" unicode=":" horiz-adv-x="280" 
d="M220 78q0 -34 -23.5 -57t-56.5 -23t-56.5 23t-23.5 57q0 33 23.5 56.5t56.5 23.5t56.5 -23.5t23.5 -56.5zM220 380q0 -33 -23.5 -56.5t-56.5 -23.5t-56.5 23.5t-23.5 56.5t23.5 56.5t56.5 23.5t56.5 -23.5t23.5 -56.5z" />
    <glyph glyph-name="semicolon" unicode=";" horiz-adv-x="280" 
d="M220 380q0 -33 -23.5 -56.5t-56.5 -23.5t-56.5 23.5t-23.5 56.5t23.5 56.5t56.5 23.5t56.5 -23.5t23.5 -56.5zM98 -125h-111l90 300l169 25z" />
    <glyph glyph-name="less" unicode="&#x3c;" horiz-adv-x="600" 
d="M553 -5l-506 220v82l506 220v-132l-342 -129l342 -129v-132z" />
    <glyph glyph-name="equal" unicode="=" horiz-adv-x="620" 
d="M570 414h-520v125h520v-125zM570 163h-520v125h520v-125z" />
    <glyph glyph-name="greater" unicode="&#x3e;" horiz-adv-x="600" 
d="M47 127l342 129l-342 129v132l506 -220v-82l-506 -220v132z" />
    <glyph glyph-name="question" unicode="?" horiz-adv-x="500" 
d="M322 516q0 35 -24 51.5t-57 16.5q-29 0 -55 -14.5t-49 -44.5l-112 75q20 31 52 57q27 22 68.5 40t101.5 18q55 0 96 -19t68.5 -47.5t41.5 -63t14 -65.5q0 -37 -9 -62.5t-22.5 -43.5t-30 -31.5t-31.5 -25.5q-10 -8 -20.5 -15.5t-19.5 -17t-14.5 -22t-5.5 -30.5v-48
l-140 -40v111q0 11 1 28t8.5 36.5t25 39.5t50.5 37q11 6 22.5 11t20.5 13.5t14.5 21.5t5.5 34zM326 78q0 -34 -23.5 -57t-56.5 -23t-56.5 23t-23.5 57q0 33 23.5 56.5t56.5 23.5t56.5 -23.5t23.5 -56.5z" />
    <glyph glyph-name="at" unicode="@" horiz-adv-x="820" 
d="M432 64q46 0 81 8t59 18q28 11 48 27l38 -52q-39 -35 -94 -58.5t-133 -23.5q-95 0 -166 33.5t-119 86t-72 116.5t-24 126q0 61 23.5 126.5t70.5 118.5t117 87.5t164 34.5q66 0 128 -20.5t110 -60t77 -96t29 -128.5q0 -70 -20.5 -121t-54 -84.5t-76.5 -50t-89 -16.5
q-17 0 -28.5 6t-19 15.5t-11.5 19.5t-5 18q-18 -28 -52 -43t-69 -11q-17 2 -42.5 13t-48.5 34t-37 59.5t-8 90.5q7 55 27 92t47.5 59.5t60.5 32.5t65 10t55 -10.5t37 -23.5q17 -15 26 -33l11 61h87l-23 -115q-5 -23 -9.5 -45.5l-8.5 -42.5t-7.5 -35.5t-4.5 -22.5
q-5 -17 2.5 -27t17.5 -10q5 0 20.5 5.5t32.5 22t30 47.5t13 82q0 39 -12.5 81.5t-43 78t-81.5 58.5t-128 23q-72 0 -123.5 -25.5t-85.5 -67t-50 -93t-16 -102.5q0 -69 27 -120.5t69 -85t92.5 -50.5t96.5 -17zM482 299q9 18 11 36t-2 34t-14 29t-25 21q-31 17 -65.5 4.5
t-53.5 -47.5q-9 -18 -11 -37t2 -36.5t14 -31.5t26 -22q15 -8 32 -7.5t33 7t30 19.5t23 31z" />
    <glyph glyph-name="A" unicode="A" 
d="M476 0l-44 140h-224l-44 -140h-161l243 700h148l243 -700h-161zM246 260h148l-74 233z" />
    <glyph glyph-name="B" unicode="B" horiz-adv-x="560" 
d="M392 368q38 -10 69 -32q26 -19 48 -52.5t22 -88.5q0 -91 -66 -143t-198 -52h-215v700h195q52 0 99.5 -9.5t83.5 -32t57.5 -60.5t21.5 -95q0 -25 -11.5 -49.5t-28.5 -43.5t-37.5 -30.5t-39.5 -11.5zM202 572v-157h65q38 0 61.5 20.5t23.5 54.5q0 26 -10.5 42t-25.5 25
t-32.5 12t-30.5 3h-51zM261 128q19 0 38.5 4t35.5 14t26.5 25.5t10.5 38.5q0 21 -9.5 36.5t-24.5 26.5t-33.5 16.5t-37.5 5.5h-65v-167h59z" />
    <glyph glyph-name="C" unicode="C" horiz-adv-x="645" 
d="M617 84q-47 -46 -107.5 -72t-129.5 -26q-72 0 -136 27t-111.5 75.5t-75 115.5t-27.5 147q0 76 27.5 142.5t75 116t111.5 78t136 28.5q69 0 129.5 -26t106.5 -72l-105 -96q-26 22 -58 34t-67 12q-41 0 -77.5 -17.5t-63.5 -47.5t-43 -69t-16 -81q0 -46 16 -85t43 -68
t63.5 -45.5t77.5 -16.5q33 0 62.5 10.5t53.5 29.5z" />
    <glyph glyph-name="D" unicode="D" horiz-adv-x="675" 
d="M295 700q72 0 136 -27.5t111.5 -75t75 -111.5t27.5 -136t-27.5 -136t-75 -111.5t-111.5 -75t-136 -27.5h-235v700h235zM262 135q46 0 87 16t72 45t48.5 68t17.5 86q0 46 -17.5 85.5t-48.5 68.5t-72 45t-87 16h-52v-430h52z" />
    <glyph glyph-name="E" unicode="E" horiz-adv-x="540" 
d="M500 140l-40 -140h-400v700h385l40 -140h-275v-135h190v-140h-190v-145h290z" />
    <glyph glyph-name="F" unicode="F" horiz-adv-x="480" 
d="M211 390h190v-140h-190v-250h-150v700h363l42 -145h-255v-165z" />
    <glyph glyph-name="G" unicode="G" horiz-adv-x="740" 
d="M686 412v-361q-9 -6 -36.5 -17.5t-65 -22t-82 -18.5t-86.5 -8q-89 0 -160 28.5t-121.5 78t-77.5 116t-27 142.5t29.5 142.5t81.5 116t122.5 78t152.5 28.5q34 0 69 -6.5t68.5 -19t64.5 -30t57 -39.5l-92 -112q-51 39 -100 54t-94 11t-83 -24t-66 -50.5t-44 -69t-16 -79.5
q0 -48 19 -89.5t52 -71.5t77.5 -47.5t94.5 -17.5q60 0 113 25v133h-180l37 130h293z" />
    <glyph glyph-name="H" unicode="H" horiz-adv-x="690" 
d="M627 700v-700h-150v292h-265v-292h-150v700h150v-278h265v278h150z" />
    <glyph glyph-name="I" unicode="I" horiz-adv-x="275" 
d="M212 0h-150v700h150v-700z" />
    <glyph glyph-name="J" unicode="J" horiz-adv-x="415" 
d="M355 235q0 -61 -17 -104t-44 -72t-61 -45.5t-68 -23.5t-64.5 -6.5t-50.5 5.5l-42 149q40 -11 70 -11.5t51 6t35 19t23 26.5q19 33 18 84v438h150v-465z" />
    <glyph glyph-name="K" unicode="K" 
d="M629 0h-182l-237 322v-322h-150v700h150v-337l232 337h180l-254 -354z" />
    <glyph glyph-name="L" unicode="L" horiz-adv-x="480" 
d="M461 145l-41 -145h-360v700h150v-555h251z" />
    <glyph glyph-name="M" unicode="M" horiz-adv-x="805" 
d="M134 700h144l124 -450l123 450h145l120 -700h-154l-57 355l-99 -355h-157l-99 355l-56 -355h-153z" />
    <glyph glyph-name="N" unicode="N" horiz-adv-x="745" 
d="M685 700v-700h-164l-311 472v-472h-150v700h150l325 -479v479h150z" />
    <glyph glyph-name="O" unicode="O" horiz-adv-x="800" 
d="M400 717q76 0 143.5 -28.5t118 -78t79.5 -116t29 -142.5t-29 -142.5t-79.5 -116t-118 -78t-143.5 -28.5q-77 0 -144.5 28.5t-117.5 78t-79 116t-29 142.5t29 142.5t79 116t117.5 78t144.5 28.5zM400 132q44 0 83 17t68.5 47t46.5 70t17 86t-17 86t-46.5 70t-68.5 47
t-83 17q-45 0 -84 -17t-68 -47t-46 -70t-17 -86t17 -86t46 -70t68 -47t84 -17z" />
    <glyph glyph-name="P" unicode="P" horiz-adv-x="560" 
d="M280 700q46 0 92.5 -10.5t84 -36.5t60.5 -69t23 -109q0 -54 -21.5 -95t-57 -69t-80.5 -42t-91 -14h-80v-255h-150v700h220zM265 390q15 0 36 2t39.5 10.5t31.5 25.5t13 47t-13 47t-31.5 25.5t-39.5 10.5t-36 2h-55v-170h55z" />
    <glyph glyph-name="Q" unicode="Q" horiz-adv-x="805" 
d="M639 0l-42 41q-43 -26 -93 -41t-104 -15q-77 0 -144.5 28.5t-117.5 78t-79 116t-29 142.5t29 142.5t79 116t117.5 78t144.5 28.5q76 0 143.5 -28.5t118 -78t79.5 -116t29 -142.5q0 -64 -21 -121.5t-59 -104.5l131 -124h-182zM185 350q0 -46 17 -86t46 -70t68 -47t84 -17
t88 19l-106 104l115 56l83 -79q17 26 26 56.5t9 63.5q0 46 -17 86t-46.5 70t-68.5 47t-83 17q-45 0 -84 -17t-68 -47t-46 -70t-17 -86z" />
    <glyph glyph-name="R" unicode="R" horiz-adv-x="620" 
d="M256 275h-46v-275h-150v700h220q46 0 92.5 -10.5t84 -36.5t60.5 -69t23 -109q0 -34 -10.5 -61.5t-29 -49t-43.5 -37.5t-53 -27l206 -300h-182zM210 375h55q15 0 36 4.5t39.5 15.5t31.5 30.5t13 49.5t-13 47t-31.5 25.5t-39.5 10.5t-36 2h-55v-185z" />
    <glyph glyph-name="S" unicode="S" horiz-adv-x="580" 
d="M438 526q-30 33 -68.5 46.5t-72 10.5t-57 -21.5t-23.5 -49.5q0 -20 11.5 -34t31 -24t45.5 -18t56 -17q74 -22 111.5 -55t54.5 -64q19 -37 19 -76q0 -66 -24 -112t-61.5 -75t-84 -42t-91.5 -13q-63 0 -110 13t-79 29q-37 18 -63 43l94 120q24 -23 48 -34.5t44.5 -16
t36 -4.5h22.5t22.5 2t31.5 9.5t28.5 20.5t12.5 36q0 22 -8 35.5t-26 23t-46.5 19.5t-69.5 26q-40 15 -72.5 31t-55.5 38t-35.5 52.5t-12.5 75.5t19.5 84t53.5 68.5t80.5 46.5t101.5 17t96.5 -12.5t70.5 -27.5q33 -18 57 -40z" />
    <glyph glyph-name="T" unicode="T" horiz-adv-x="540" 
d="M520 555h-175v-555h-150v555h-185l40 145h470v-145z" />
    <glyph glyph-name="U" unicode="U" horiz-adv-x="695" 
d="M342 -15q-41 0 -90.5 8.5t-92 34.5t-71 75.5t-28.5 131.5v465h156v-435q0 -38 13 -67q11 -26 37 -46.5t76 -20.5q55 0 83 20.5t40 46.5q14 29 14 67v435h156v-455q0 -86 -30.5 -137.5t-75 -78.5t-95.5 -35.5t-92 -8.5z" />
    <glyph glyph-name="V" unicode="V" horiz-adv-x="670" 
d="M652 700l-243 -700h-148l-244 700h162l156 -493l156 493h161z" />
    <glyph glyph-name="W" unicode="W" horiz-adv-x="865" 
d="M651 0h-135l-83 355l-83 -355h-135l-194 700h158l107 -385l79 385h136l80 -385l106 385h158l-194 -700v0z" />
    <glyph glyph-name="X" unicode="X" horiz-adv-x="725" 
d="M523 0l-161 246l-161 -246h-182l254 369l-229 331h182l136 -203l135 203h182l-228 -331l254 -369h-182z" />
    <glyph glyph-name="Y" unicode="Y" 
d="M630 700l-303 -700h-163l115 265l-268 435h176l162 -273l118 273h163z" />
    <glyph glyph-name="Z" unicode="Z" horiz-adv-x="680" 
d="M656 140l-40 -140h-592l356 560h-344l40 140h568l-358 -560h370z" />
    <glyph glyph-name="bracketleft" unicode="[" horiz-adv-x="315" 
d="M255 -214h-203v970h200v-90h-89v-790h92v-90v0z" />
    <glyph glyph-name="backslash" unicode="\" horiz-adv-x="295" 
d="M-54 705h127l276 -718h-126l-277 718v0z" />
    <glyph glyph-name="bracketright" unicode="]" horiz-adv-x="315" 
d="M60 -214v90h92v790h-89v90h200v-970h-203z" />
    <glyph glyph-name="asciicircum" unicode="^" horiz-adv-x="550" 
d="M48 340l176 360h102l176 -360h-117l-110 245l-111 -245h-116z" />
    <glyph glyph-name="underscore" unicode="_" horiz-adv-x="500" 
d="M0 -126v75h500v-75h-500z" />
    <glyph glyph-name="grave" unicode="`" horiz-adv-x="230" 
d="M106 742l98 -148h-121l-129 148h152z" />
    <glyph glyph-name="a" unicode="a" horiz-adv-x="555" 
d="M401 0l-36 116h-174l-37 -116h-151l207 597h135l207 -597h-151zM328 232l-50 158l-51 -158h101z" />
    <glyph glyph-name="b" unicode="b" horiz-adv-x="490" 
d="M369 312q26 -11 47 -30q17 -17 32 -43.5t15 -68.5q0 -56 -24.5 -89.5t-60 -51.5t-74.5 -23.5t-68 -5.5h-186v597h169q105 0 165.5 -41.5t60.5 -126.5q0 -31 -12 -53t-26 -36q-17 -17 -38 -28zM190 360h41q29 0 48.5 15t19.5 41q0 10 -3.5 20.5t-12 19t-23 14t-35.5 5.5
h-35v-115zM231 122q16 0 31 3.5t27 10.5t19 18.5t7 27.5q0 9 -4 20t-13.5 20.5t-24.5 16t-37 6.5h-46v-123h41z" />
    <glyph glyph-name="c" unicode="c" horiz-adv-x="565" 
d="M537 78q-39 -42 -92 -66t-115 -24q-64 0 -118.5 23t-95 64.5t-63.5 98.5t-23 125q0 64 23.5 121t64 99t95.5 66.5t117 24.5t114.5 -24.5t91.5 -66.5l-99 -89q-20 19 -46.5 29.5t-56.5 10.5q-33 0 -61.5 -13.5t-50 -36.5t-34 -54t-12.5 -66t12 -66t33 -54t50 -36.5
t63 -13.5q28 0 52 9t44 26z" />
    <glyph glyph-name="d" unicode="d" horiz-adv-x="590" 
d="M263 597q66 0 120.5 -25t94 -66t61 -95.5t21.5 -112.5q0 -55 -20.5 -108.5t-59.5 -95.5t-94.5 -68t-125.5 -26h-200v597h203zM237 128q41 0 74.5 14.5t57 38t36.5 54t13 63.5q0 31 -12 62t-35 55t-57 39t-77 15h-37v-341h37z" />
    <glyph glyph-name="e" unicode="e" horiz-adv-x="480" 
d="M406 0h-346v597h333l38 -132h-231v-96h158v-132h-158v-105h243z" />
    <glyph glyph-name="f" unicode="f" horiz-adv-x="425" 
d="M199 0h-140v597h315l39 -136h-214v-121h158v-133h-158v-207z" />
    <glyph glyph-name="g" unicode="g" horiz-adv-x="645" 
d="M451 234h-155l38 124h257v-312q-18 -11 -45 -21.5t-58.5 -19t-64.5 -13.5t-63 -5q-72 0 -132.5 23.5t-104.5 64.5t-68.5 98t-24.5 125q0 66 26 123t71 99t105 65.5t128 23.5q62 0 120.5 -22t105.5 -64l-88 -106q-29 28 -67 43.5t-78 15.5q-38 0 -70.5 -14t-57.5 -38.5
t-39 -57t-14 -69.5q0 -39 16 -72t42.5 -57t61 -37t71.5 -13q46 0 88 20v96z" />
    <glyph glyph-name="h" unicode="h" horiz-adv-x="605" 
d="M545 0h-141v242h-204v-242h-140v597h140v-231h204v231h141v-597v0z" />
    <glyph glyph-name="i" unicode="i" horiz-adv-x="260" 
d="M200 0h-140v597h140v-597z" />
    <glyph glyph-name="j" unicode="j" horiz-adv-x="370" 
d="M313 597v-394q0 -73 -28 -118.5t-69 -68.5t-87.5 -27.5t-82.5 4.5l-40 141q26 -8 55.5 -12t54 3.5t40.5 30.5t16 70v371h141z" />
    <glyph glyph-name="k" unicode="k" horiz-adv-x="565" 
d="M332 296l223 -296h-172l-184 251v-251h-141v597h141v-262l180 262h169z" />
    <glyph glyph-name="l" unicode="l" horiz-adv-x="425" 
d="M371 0h-312v597h141v-461h210z" />
    <glyph glyph-name="m" unicode="m" horiz-adv-x="685" 
d="M674 0h-141l-44 280l-78 -280h-137l-78 280l-44 -280h-140l101 597h133l97 -366l96 366h133l102 -597v0z" />
    <glyph glyph-name="n" unicode="n" horiz-adv-x="650" 
d="M592 0h-148l-246 373v-373h-140v597h136l258 -379v379h140v-597z" />
    <glyph glyph-name="o" unicode="o" horiz-adv-x="690" 
d="M345 612q65 0 122.5 -24.5t100 -66.5t67.5 -99t25 -121q0 -65 -25 -121.5t-67.5 -98.5t-100 -66.5t-122.5 -24.5t-122.5 24.5t-100.5 66.5t-67.5 98.5t-24.5 121.5q0 64 24.5 121t67.5 99t100.5 66.5t122.5 24.5zM345 126q35 0 66 13.5t54 37.5t36.5 56t13.5 68t-13.5 68
t-36.5 55.5t-54 37.5t-66 14t-66 -14t-54 -37.5t-36.5 -55.5t-13.5 -68t13.5 -68t36.5 -56t54 -37.5t66 -13.5z" />
    <glyph glyph-name="p" unicode="p" horiz-adv-x="494" 
d="M251 597q27 0 65.5 -6.5t73.5 -27t59.5 -59t24.5 -102.5q0 -44 -17 -79t-46.5 -60t-68.5 -38t-83 -13h-59v-212h-140v597h191zM238 340q9 0 24.5 0.5t30.5 6t26 18t11 37.5t-11.5 38t-26.5 18.5t-30.5 6t-23.5 0.5h-38v-125h38z" />
    <glyph glyph-name="q" unicode="q" horiz-adv-x="690" 
d="M539 0l-33 32q-35 -21 -76 -32.5t-86 -11.5q-65 0 -122.5 24.5t-100.5 66.5t-67.5 98.5t-24.5 121.5q0 64 24.5 121t67.5 99t100.5 66.5t122.5 24.5t122.5 -24.5t100 -66.5t67.5 -99t25 -121q0 -53 -17 -100.5t-46 -86.5l117 -112h-174zM344 124q29 0 59 11l-87 85
l110 54l65 -62q23 38 23 87q0 36 -13.5 68t-36.5 55.5t-54 37.5t-66 14t-66 -14t-54 -37.5t-36.5 -55.5t-13.5 -68t13.5 -68t36.5 -56t54 -37.5t66 -13.5z" />
    <glyph glyph-name="r" unicode="r" horiz-adv-x="550" 
d="M540 0h-171l-142 228h-27v-228h-140v597h191q35 0 74.5 -8t72.5 -30t54.5 -59.5t21.5 -97.5q0 -42 -17 -70.5t-37 -45.5q-24 -20 -54 -33zM238 327q12 0 28 2.5t30.5 11t24.5 23t10 38.5t-10.5 37t-25.5 19t-31 6.5t-26 0.5h-38v-138h38z" />
    <glyph glyph-name="s" unicode="s" horiz-adv-x="510" 
d="M463 537l-84 -105q-11 15 -27 27q-14 10 -34 18.5t-48 8.5q-34 0 -50.5 -17t-16.5 -36q0 -28 32 -42t83 -29q28 -8 56.5 -22.5t51 -35.5t37 -48.5t14.5 -62.5q0 -48 -16.5 -86.5t-46.5 -65.5t-71.5 -41.5t-90.5 -14.5q-56 0 -97.5 12t-68.5 27q-33 17 -54 39l88 112
q12 -15 30 -26q14 -10 35.5 -17.5t49.5 -7.5q27 0 43.5 6t25.5 14t11.5 16.5t2.5 13.5q0 13 -4 21.5t-16.5 17t-36 17.5t-63.5 24q-27 10 -53.5 22t-48.5 30.5t-35.5 47t-13.5 70.5q0 40 17.5 74.5t47.5 59.5t69.5 39t84.5 14q48 0 85 -11.5t62 -25.5q29 -17 50 -37z" />
    <glyph glyph-name="t" unicode="t" horiz-adv-x="475" 
d="M306 0h-141v461h-156l38 136h404v-136h-145v-461z" />
    <glyph glyph-name="u" unicode="u" horiz-adv-x="610" 
d="M200 597v-369q0 -20 5 -39t16 -33t30 -22.5t46 -8.5q30 0 51.5 8.5t35 22.5t20 32.5t6.5 39.5v369h145v-386q0 -40 -12.5 -80t-41.5 -72t-78 -52t-121 -20q-75 0 -122.5 19.5t-75.5 50t-38.5 69t-10.5 77.5v394h145z" />
    <glyph glyph-name="v" unicode="v" horiz-adv-x="575" 
d="M354 0h-134l-207 597h151l123 -390l124 390h151z" />
    <glyph glyph-name="w" unicode="w" horiz-adv-x="730" 
d="M553 0h-125l-63 267l-62 -267h-125l-165 597h148l81 -293l60 293h127l60 -293l81 293h148z" />
    <glyph glyph-name="x" unicode="x" horiz-adv-x="630" 
d="M615 0h-170l-130 197l-130 -197h-170l216 314l-195 283h171l108 -162l108 162h171l-195 -283z" />
    <glyph glyph-name="y" unicode="y" horiz-adv-x="560" 
d="M292 0h-153l99 228l-228 369h165l129 -217l94 217h152z" />
    <glyph glyph-name="z" unicode="z" horiz-adv-x="595" 
d="M534 0h-512l296 465h-282l38 132h492l-297 -465h303z" />
    <glyph glyph-name="braceleft" unicode="{" horiz-adv-x="320" 
d="M211 366q0 -38 -19 -58t-57 -29q38 -10 57 -30t19 -58v-245q0 -19 7.5 -30t17.5 -16q11 -7 25 -9h25v-80h-50q-19 0 -41 5.5t-40.5 19.5t-31 38t-12.5 62v239q0 29 -21.5 45t-78.5 16v85q57 0 78.5 16.5t21.5 45.5v238q0 37 12.5 61.5t31 38.5t40.5 19.5t41 5.5h50v-80
h-25q-14 -3 -25 -9q-10 -6 -17.5 -16.5t-7.5 -29.5v-245v0z" />
    <glyph glyph-name="bar" unicode="|" horiz-adv-x="235" 
d="M62 -20v720h111v-720h-111z" />
    <glyph glyph-name="braceright" unicode="}" horiz-adv-x="320" 
d="M109 611q0 19 -8 29.5t-17 16.5q-11 6 -25 9h-25v80h50q19 0 40.5 -5.5t40.5 -19.5t31.5 -38.5t12.5 -61.5v-238q0 -29 21.5 -45.5t78.5 -16.5v-85q-57 0 -78.5 -16t-21.5 -45v-239q0 -38 -12.5 -62t-31.5 -38t-40.5 -19.5t-40.5 -5.5h-50v80h25q14 2 25 9q9 5 17 16
t8 30v245q0 38 19 58t57 30q-38 9 -57 29t-19 58v245z" />
    <glyph glyph-name="asciitilde" unicode="~" horiz-adv-x="590" 
d="M64 262q11 24 29 43q15 16 38 29.5t57 13.5q30 0 59.5 -10.5t57 -23.5t52 -23.5t45.5 -10.5q18 0 34 11t28 25q14 16 26 36l36 -96q-14 -25 -32 -43q-16 -17 -39 -30t-54 -13q-29 0 -54.5 11t-50.5 23.5t-52 23.5t-60 11q-22 0 -37 -11.5t-26 -25.5q-12 -16 -21 -36
l-36 96v0z" />
    <glyph glyph-name="exclamdown" unicode="&#xa1;" horiz-adv-x="295" 
d="M67 645q0 34 23.5 57t56.5 23q34 0 57 -23t23 -57q0 -33 -23 -56.5t-57 -23.5q-33 0 -56.5 23.5t-23.5 56.5zM78 500l135 38l9 -515l-154 -25z" />
    <glyph glyph-name="sterling" unicode="&#xa3;" horiz-adv-x="560" 
d="M524 43q-15 -16 -33 -27q-16 -11 -38 -19t-48 -8q-27 0 -56 7t-57 15t-53.5 15t-45.5 7t-38 -6t-32 -14q-17 -9 -31 -20l-60 80q15 11 37 29.5t43 41.5t35.5 51t14.5 59q0 16 -4.5 31.5t-12.5 30.5h-112v63h75q-19 31 -34 63t-15 67q0 95 55.5 150.5t174.5 55.5
q101 0 157 -55.5t56 -168.5h-103q0 59 -29 90t-87 31q-29 0 -49.5 -8t-34 -21.5t-19.5 -32t-6 -38.5q0 -24 21 -58.5t42 -74.5h124v-63h-97q8 -26 8 -50q0 -38 -12 -66t-26 -47q-17 -22 -38 -37q5 2 15 5q8 2 21 3.5t33 1.5t38 -5t35.5 -11t33.5 -11t31 -5t27.5 5.5
t20.5 12.5q10 8 18 18z" />
    <glyph glyph-name="currency" unicode="&#xa4;" horiz-adv-x="685" 
d="M568 346q0 -51 -22 -97l98 -97l-107 -107l-97 98q-46 -22 -97 -22t-97 22l-97 -98l-107 107l98 97q-22 46 -22 97t22 97l-98 97l107 107l97 -98q46 22 97 22t97 -22l97 98l107 -107l-98 -97q22 -46 22 -97zM343 246q42 0 71 29t29 71t-29 71t-71 29t-71 -29t-29 -71
t29 -71t71 -29z" />
    <glyph glyph-name="yen" unicode="&#xa5;" 
d="M415 283h95v-85h-120v-56h120v-85h-120v-57h-140v57h-130v85h130v56h-130v85h105l-193 417h148l140 -331l140 331h148z" />
    <glyph glyph-name="section" unicode="&#xa7;" horiz-adv-x="665" 
d="M535 327q24 -23 37.5 -46t20.5 -45.5t9 -43.5t2 -40q0 -29 -15.5 -67t-48.5 -72.5t-84 -58.5t-121 -24q-71 0 -122.5 19.5t-85.5 42.5q-40 27 -66 62l101 112q25 -38 69.5 -63t105.5 -25q60 0 89.5 23t29.5 56q0 22 -5 33q-23 -16 -51 -24.5t-58 -8.5q-41 0 -76.5 15.5
t-61.5 41.5t-41.5 61.5t-15.5 76.5q0 10 1 14q-42 38 -61.5 81.5t-19.5 94.5q0 43 19.5 83.5t54 72t82.5 50.5t104 19q57 0 100 -11.5t72 -25.5q34 -17 59 -37l-85 -118q-14 15 -33 27q-17 11 -42 19.5t-60 8.5t-57.5 -9.5t-35 -23t-17.5 -28.5t-5 -27q0 -20 4 -33
q24 18 53.5 28t61.5 10q40 0 76 -15.5t62 -41.5t41.5 -62t15.5 -76v-13t-2 -12zM342 289q26 0 44.5 18.5t18.5 44.5t-18.5 44t-44.5 18t-44 -18t-18 -44t18 -44.5t44 -18.5z" />
    <glyph glyph-name="dieresis" unicode="&#xa8;" horiz-adv-x="330" 
d="M365 668q0 -31 -22 -53t-53 -22t-53 22t-22 53t22 53t53 22t53 -22t22 -53zM115 668q0 -31 -22 -53t-53 -22t-53 22t-22 53t22 53t53 22t53 -22t22 -53z" />
    <glyph glyph-name="guillemotleft" unicode="&#xab;" horiz-adv-x="550" 
d="M510 473l-124 -173l120 -173h-129l-116 173l120 173h129zM287 473l-124 -173l120 -173h-129l-116 173l120 173h129z" />
    <glyph glyph-name="uni00AD" unicode="&#xad;" horiz-adv-x="370" 
d="M50 288v125h270v-125h-270z" />
    <glyph glyph-name="macron" unicode="&#xaf;" horiz-adv-x="410" 
d="M50 328v85h310v-85h-310z" />
    <glyph glyph-name="degree" unicode="&#xb0;" horiz-adv-x="370" 
d="M185 700q30 0 56.5 -11t46 -30t31 -44.5t11.5 -54.5t-11.5 -54.5t-31 -44.5t-46 -30t-56.5 -11t-56.5 11t-46 30t-31 44.5t-11.5 54.5t11.5 54.5t31 44.5t46 30t56.5 11zM185 490q30 0 51.5 20.5t21.5 49.5t-21.5 49.5t-51.5 20.5t-51 -20.5t-21 -49.5t21 -49.5t51 -20.5
z" />
    <glyph glyph-name="acute" unicode="&#xb4;" horiz-adv-x="230" 
d="M276 742l-129 -148h-121l98 148h152z" />
    <glyph glyph-name="periodcentered" unicode="&#xb7;" horiz-adv-x="833" 
 />
    <glyph glyph-name="cedilla" unicode="&#xb8;" horiz-adv-x="300" 
d="M49 -153q16 -6 33 -10q14 -4 30 -7.5t28 -4.5q29 -2 42 8t13 30q0 19 -18 25t-39 5q-26 -1 -57 -8l-25 25l55 90h60l-40 -60q70 19 106 -5t36 -75q0 -42 -31 -66t-88 -24q-29 0 -52.5 5.5t-40.5 12.5q-20 8 -36 18z" />
    <glyph glyph-name="guillemotright" unicode="&#xbb;" horiz-adv-x="550" 
d="M40 473h129l120 -173l-116 -173h-129l120 173zM263 473h129l120 -173l-116 -173h-129l120 173z" />
    <glyph glyph-name="questiondown" unicode="&#xbf;" horiz-adv-x="500" 
d="M170.02 197.031q0 -34.998 23.999 -51.4971q23.998 -16.499 56.9961 -16.499q28.998 0 54.9971 14.5q25.998 14.499 48.9971 44.4971l111.993 -74.9951q-19.999 -30.999 -51.9971 -56.9971q-26.999 -21.999 -68.4961 -39.9971q-41.4971 -17.999 -101.494 -17.999
q-54.9961 0 -95.9941 18.999q-40.9971 18.998 -68.4951 47.4971q-27.499 28.498 -41.498 62.9961q-13.999 34.4971 -13.999 65.4951q0 36.998 9 62.4971q8.99902 25.498 22.498 43.4971t29.998 31.498t31.498 25.498q10 8 20.499 15.499q10.499 7.5 19.499 16.999
q8.99902 9.5 14.499 21.999t5.5 30.498v47.9971l139.991 39.998v-110.994q0 -10.999 -1 -27.998t-8.5 -36.498q-7.49902 -19.498 -24.998 -39.4971t-50.4971 -36.998q-10.999 -5.99902 -22.498 -10.999q-11.5 -5 -20.499 -13.499q-9 -8.5 -14.499 -21.499
q-5.5 -12.999 -5.5 -33.998zM166.02 635.005q0 33.998 23.499 56.9961q23.498 22.999 56.4961 22.999t56.4971 -22.999q23.498 -22.998 23.498 -56.9961q0 -32.998 -23.498 -56.4971q-23.499 -23.498 -56.4971 -23.498t-56.4961 23.498q-23.499 23.499 -23.499 56.4971z" />
    <glyph glyph-name="Agrave" unicode="&#xc0;" 
d="M314 898l98 -148h-121l-129 148h152zM476 0l-44 140h-224l-44 -140h-161l243 700h148l243 -700h-161zM246 260h148l-74 233z" />
    <glyph glyph-name="Aacute" unicode="&#xc1;" 
d="M506 898l-129 -148h-121l98 148h152zM476 0l-44 140h-224l-44 -140h-161l243 700h148l243 -700h-161zM246 260h148l-74 233z" />
    <glyph glyph-name="Acircumflex" unicode="&#xc2;" 
d="M249 909h142l118 -158h-129l-60 80l-60 -80h-128zM476 0l-44 140h-224l-44 -140h-161l243 700h148l243 -700h-161zM246 260h148l-74 233z" />
    <glyph glyph-name="Atilde" unicode="&#xc3;" 
d="M155 815q9 21 23 39q12 14 31.5 26.5t48.5 12.5q26 0 48 -9t42 -20.5t38 -20.5t36 -9q16 0 29 9t23 20q11 12 20 29l31 -82q-10 -21 -25 -38q-13 -14 -33 -25.5t-46 -11.5q-25 0 -44 9.5t-37 20.5t-38 20.5t-48 9.5q-19 0 -31.5 -10t-20.5 -22q-10 -14 -16 -31l-31 83v0z
M476 0l-44 140h-224l-44 -140h-161l243 700h148l243 -700h-161zM246 260h148l-74 233z" />
    <glyph glyph-name="Adieresis" unicode="&#xc4;" 
d="M520 828q0 -31 -22 -53t-53 -22t-53 22t-22 53t22 53t53 22t53 -22t22 -53zM270 828q0 -31 -22 -53t-53 -22t-53 22t-22 53t22 53t53 22t53 -22t22 -53zM476 0l-44 140h-224l-44 -140h-161l243 700h148l243 -700h-161zM246 260h148l-74 233z" />
    <glyph glyph-name="Aring" unicode="&#xc5;" 
d="M321 880q-21 0 -35 -14.5t-14 -34.5q0 -21 14.5 -34.5t34.5 -13.5t34 14t14 34t-14 34.5t-34 14.5zM321 724q-23 0 -42.5 8t-34 22.5t-23 34t-8.5 42.5q0 22 8.5 42t23 34.5t34 23t42.5 8.5q22 0 41.5 -8.5t34 -23.5t23 -34.5t8.5 -41.5q0 -23 -8.5 -42.5t-23 -33.5
t-34 -22.5t-41.5 -8.5zM476 0l-44 140h-224l-44 -140h-161l243 700h148l243 -700h-161zM246 260h148l-74 233z" />
    <glyph glyph-name="AE" unicode="&#xc6;" horiz-adv-x="940" 
d="M608 140h290l-40 -140h-400v268h-146l-139 -268h-167l372 700h465l40 -140h-275v-157h190v-140h-190v-123zM371 383h87v195z" />
    <glyph glyph-name="Ccedilla" unicode="&#xc7;" horiz-adv-x="645" 
d="M247 -153q16 -6 33 -10q14 -4 30 -7.5t28 -4.5q29 -2 42 8t13 30q0 19 -18 25t-39 5q-26 -1 -57 -8l-25 25l55 90h60l-40 -60q70 19 106 -5t36 -75q0 -42 -31 -66t-88 -24q-29 0 -52.5 5.5t-40.5 12.5q-20 8 -36 18zM617 84q-47 -46 -107.5 -72t-129.5 -26q-72 0 -136 27
t-111.5 75.5t-75 115.5t-27.5 147q0 76 27.5 142.5t75 116t111.5 78t136 28.5q69 0 129.5 -26t106.5 -72l-105 -96q-26 22 -58 34t-67 12q-41 0 -77.5 -17.5t-63.5 -47.5t-43 -69t-16 -81q0 -46 16 -85t43 -68t63.5 -45.5t77.5 -16.5q33 0 62.5 10.5t53.5 29.5z" />
    <glyph glyph-name="Egrave" unicode="&#xc8;" horiz-adv-x="540" 
d="M302 900l98 -148h-121l-129 148h152zM500 140l-40 -140h-400v700h385l40 -140h-275v-135h190v-140h-190v-145h290z" />
    <glyph glyph-name="Eacute" unicode="&#xc9;" horiz-adv-x="540" 
d="M406 898l-129 -148h-121l98 148h152zM500 140l-40 -140h-400v700h385l40 -140h-275v-135h190v-140h-190v-145h290z" />
    <glyph glyph-name="Ecircumflex" unicode="&#xca;" horiz-adv-x="540" 
d="M208 908h142l118 -158h-129l-60 80l-60 -80h-128zM500 140l-40 -140h-400v700h385l40 -140h-275v-135h190v-140h-190v-145h290z" />
    <glyph glyph-name="Edieresis" unicode="&#xcb;" horiz-adv-x="540" 
d="M465 826q0 -31 -22 -53t-53 -22t-53 22t-22 53t22 53t53 22t53 -22t22 -53zM215 826q0 -31 -22 -53t-53 -22t-53 22t-22 53t22 53t53 22t53 -22t22 -53zM500 140l-40 -140h-400v700h385l40 -140h-275v-135h190v-140h-190v-145h290z" />
    <glyph glyph-name="Igrave" unicode="&#xcc;" horiz-adv-x="275" 
d="M136 898l98 -148h-121l-129 148h152zM212 0h-150v700h150v-700z" />
    <glyph glyph-name="Iacute" unicode="&#xcd;" horiz-adv-x="275" 
d="M286 898l-129 -148h-121l98 148h152zM212 0h-150v700h150v-700z" />
    <glyph glyph-name="Icircumflex" unicode="&#xce;" horiz-adv-x="275" 
d="M61 908h142l118 -158h-129l-60 80l-60 -80h-128zM212 0h-150v700h150v-700z" />
    <glyph glyph-name="Idieresis" unicode="&#xcf;" horiz-adv-x="275" 
d="M334 824q0 -31 -22 -53t-53 -22t-53 22t-22 53t22 53t53 22t53 -22t22 -53zM84 824q0 -31 -22 -53t-53 -22t-53 22t-22 53t22 53t53 22t53 -22t22 -53zM212 0h-150v700h150v-700z" />
    <glyph glyph-name="Eth" unicode="&#xd0;" horiz-adv-x="685" 
d="M302 700q72 0 136 -27.5t111.5 -75t75 -111.5t27.5 -136t-27.5 -136t-75 -111.5t-111.5 -75t-136 -27.5h-235v300h-100l40 140h60v260h235zM269 135q47 0 88 16t71.5 45t48 68t17.5 86q0 46 -17.5 85.5t-48 68.5t-71.5 45t-88 16h-52v-125h118l-40 -140h-78v-165h52z" />
    <glyph glyph-name="Ntilde" unicode="&#xd1;" horiz-adv-x="745" 
d="M180 815q9 21 23 39q12 14 31.5 26.5t48.5 12.5q26 0 48 -9t42 -20.5t38 -20.5t36 -9q16 0 29 9t23 20q11 12 20 29l31 -82q-10 -21 -25 -38q-13 -14 -33 -25.5t-46 -11.5q-25 0 -44 9.5t-37 20.5t-38 20.5t-48 9.5q-19 0 -31.5 -10t-20.5 -22q-10 -14 -16 -31l-31 83v0z
M685 700v-700h-164l-311 472v-472h-150v700h150l325 -479v479h150z" />
    <glyph glyph-name="Ograve" unicode="&#xd2;" horiz-adv-x="800" 
d="M426 898l98 -148h-121l-129 148h152zM400 717q76 0 143.5 -28.5t118 -78t79.5 -116t29 -142.5t-29 -142.5t-79.5 -116t-118 -78t-143.5 -28.5q-77 0 -144.5 28.5t-117.5 78t-79 116t-29 142.5t29 142.5t79 116t117.5 78t144.5 28.5zM400 132q44 0 83 17t68.5 47t46.5 70
t17 86t-17 86t-46.5 70t-68.5 47t-83 17q-45 0 -84 -17t-68 -47t-46 -70t-17 -86t17 -86t46 -70t68 -47t84 -17z" />
    <glyph glyph-name="Oacute" unicode="&#xd3;" horiz-adv-x="800" 
d="M516 898l-129 -148h-121l98 148h152zM400 717q76 0 143.5 -28.5t118 -78t79.5 -116t29 -142.5t-29 -142.5t-79.5 -116t-118 -78t-143.5 -28.5q-77 0 -144.5 28.5t-117.5 78t-79 116t-29 142.5t29 142.5t79 116t117.5 78t144.5 28.5zM400 132q44 0 83 17t68.5 47t46.5 70
t17 86t-17 86t-46.5 70t-68.5 47t-83 17q-45 0 -84 -17t-68 -47t-46 -70t-17 -86t17 -86t46 -70t68 -47t84 -17z" />
    <glyph glyph-name="Ocircumflex" unicode="&#xd4;" horiz-adv-x="800" 
d="M328 908h142l118 -158h-129l-60 80l-60 -80h-128zM400 717q76 0 143.5 -28.5t118 -78t79.5 -116t29 -142.5t-29 -142.5t-79.5 -116t-118 -78t-143.5 -28.5q-77 0 -144.5 28.5t-117.5 78t-79 116t-29 142.5t29 142.5t79 116t117.5 78t144.5 28.5zM400 132q44 0 83 17
t68.5 47t46.5 70t17 86t-17 86t-46.5 70t-68.5 47t-83 17q-45 0 -84 -17t-68 -47t-46 -70t-17 -86t17 -86t46 -70t68 -47t84 -17z" />
    <glyph glyph-name="Otilde" unicode="&#xd5;" horiz-adv-x="800" 
d="M203 815q9 21 23 39q12 14 31.5 26.5t48.5 12.5q26 0 48 -9t42 -20.5t38 -20.5t36 -9q16 0 29 9t23 20q11 12 20 29l31 -82q-10 -21 -25 -38q-13 -14 -33 -25.5t-46 -11.5q-25 0 -44 9.5t-37 20.5t-38 20.5t-48 9.5q-19 0 -31.5 -10t-20.5 -22q-10 -14 -16 -31l-31 83v0z
M400 717q76 0 143.5 -28.5t118 -78t79.5 -116t29 -142.5t-29 -142.5t-79.5 -116t-118 -78t-143.5 -28.5q-77 0 -144.5 28.5t-117.5 78t-79 116t-29 142.5t29 142.5t79 116t117.5 78t144.5 28.5zM400 132q44 0 83 17t68.5 47t46.5 70t17 86t-17 86t-46.5 70t-68.5 47t-83 17
q-45 0 -84 -17t-68 -47t-46 -70t-17 -86t17 -86t46 -70t68 -47t84 -17z" />
    <glyph glyph-name="Odieresis" unicode="&#xd6;" horiz-adv-x="800" 
d="M600 824q0 -31 -22 -53t-53 -22t-53 22t-22 53t22 53t53 22t53 -22t22 -53zM350 824q0 -31 -22 -53t-53 -22t-53 22t-22 53t22 53t53 22t53 -22t22 -53zM400 717q76 0 143.5 -28.5t118 -78t79.5 -116t29 -142.5t-29 -142.5t-79.5 -116t-118 -78t-143.5 -28.5
q-77 0 -144.5 28.5t-117.5 78t-79 116t-29 142.5t29 142.5t79 116t117.5 78t144.5 28.5zM400 132q44 0 83 17t68.5 47t46.5 70t17 86t-17 86t-46.5 70t-68.5 47t-83 17q-45 0 -84 -17t-68 -47t-46 -70t-17 -86t17 -86t46 -70t68 -47t84 -17z" />
    <glyph glyph-name="multiply" unicode="&#xd7;" horiz-adv-x="555" 
d="M415 27l-138 138l-137 -138l-89 89l138 138l-141 141l88 88l141 -141l142 141l88 -88l-141 -141l138 -138z" />
    <glyph glyph-name="Oslash" unicode="&#xd8;" horiz-adv-x="800" 
d="M615 646q71 -50 113 -127t42 -170q0 -76 -29 -142.5t-79 -116t-117.5 -78t-144.5 -28.5q-63 0 -121 20l-17 -32h-126l44 84q-69 50 -109.5 126t-40.5 167q0 76 29 142.5t79.5 116t117.5 78t144 28.5q60 0 114 -18l18 34h127zM185 349q0 -47 17.5 -87.5t47.5 -70.5
l195 373q-23 5 -45 5q-45 0 -84 -17.5t-68 -47.5t-46 -70t-17 -85zM400 129q45 0 84 17t68 47t46 70t17 86q0 49 -19 91t-51 72l-198 -376q24 -7 53 -7z" />
    <glyph glyph-name="Ugrave" unicode="&#xd9;" horiz-adv-x="695" 
d="M386 898l98 -148h-121l-129 148h152zM342 -15q-41 0 -90.5 8.5t-92 34.5t-71 75.5t-28.5 131.5v465h156v-435q0 -38 13 -67q11 -26 37 -46.5t76 -20.5q55 0 83 20.5t40 46.5q14 29 14 67v435h156v-455q0 -86 -30.5 -137.5t-75 -78.5t-95.5 -35.5t-92 -8.5z" />
    <glyph glyph-name="Uacute" unicode="&#xda;" horiz-adv-x="695" 
d="M466 898l-129 -148h-121l98 148h152zM342 -15q-41 0 -90.5 8.5t-92 34.5t-71 75.5t-28.5 131.5v465h156v-435q0 -38 13 -67q11 -26 37 -46.5t76 -20.5q55 0 83 20.5t40 46.5q14 29 14 67v435h156v-455q0 -86 -30.5 -137.5t-75 -78.5t-95.5 -35.5t-92 -8.5z" />
    <glyph glyph-name="Ucircumflex" unicode="&#xdb;" horiz-adv-x="695" 
d="M272 908h142l118 -158h-129l-60 80l-60 -80h-128zM342 -15q-41 0 -90.5 8.5t-92 34.5t-71 75.5t-28.5 131.5v465h156v-435q0 -38 13 -67q11 -26 37 -46.5t76 -20.5q55 0 83 20.5t40 46.5q14 29 14 67v435h156v-455q0 -86 -30.5 -137.5t-75 -78.5t-95.5 -35.5t-92 -8.5z
" />
    <glyph glyph-name="Udieresis" unicode="&#xdc;" horiz-adv-x="695" 
d="M543 824q0 -31 -22 -53t-53 -22t-53 22t-22 53t22 53t53 22t53 -22t22 -53zM293 824q0 -31 -22 -53t-53 -22t-53 22t-22 53t22 53t53 22t53 -22t22 -53zM342 -15q-41 0 -90.5 8.5t-92 34.5t-71 75.5t-28.5 131.5v465h156v-435q0 -38 13 -67q11 -26 37 -46.5t76 -20.5
q55 0 83 20.5t40 46.5q14 29 14 67v435h156v-455q0 -86 -30.5 -137.5t-75 -78.5t-95.5 -35.5t-92 -8.5z" />
    <glyph glyph-name="Yacute" unicode="&#xdd;" 
d="M446 898l-129 -148h-121l98 148h152zM630 700l-303 -700h-163l115 265l-268 435h176l162 -273l118 273h163z" />
    <glyph glyph-name="Thorn" unicode="&#xde;" horiz-adv-x="570" 
d="M206 565q12 2 27 5q13 2 29 3.5t34 1.5q54 0 98 -17t75.5 -47t48.5 -72t17 -92t-14 -93.5t-43.5 -75.5t-76 -50t-110.5 -18q-36 0 -61 5q-13 2 -24 5v-120h-150v700h150v-135zM286 247q17 0 35 6.5t32.5 19t23.5 31t9 41.5t-8.5 40.5t-22 29t-30.5 17t-34 5.5t-32 -1.5
t-27 -3.5q-14 -2 -26 -4v-170q11 -3 23 -6q23 -5 57 -5z" />
    <glyph glyph-name="germandbls" unicode="&#xdf;" horiz-adv-x="655" 
d="M478 406q28 -8 53.5 -22.5t44 -37t29.5 -54t11 -74.5q0 -57 -22 -99.5t-56.5 -70.5t-77 -42t-83.5 -14q-48 0 -88 16t-71 40v-48h-140v329h-96l37 134h59q0 20 3.5 47t13 55t26 55.5t42.5 49t64 34.5t90 13q81 0 128 -22t71 -52t30.5 -60.5t6.5 -47.5q0 -46 -21.5 -77.5
t-53.5 -51.5zM367 131q44 0 73.5 24.5t29.5 72.5q0 42 -21.5 63.5t-51 30.5t-61.5 10t-53 1v112q57 0 88.5 16.5t31.5 57.5q0 29 -20.5 48.5t-61.5 19.5q-26 0 -43.5 -9.5t-28 -24.5t-15 -33.5t-6 -36.5t-1 -33.5t0.5 -24.5v-236l45 18q9 -38 31.5 -57t62.5 -19z" />
    <glyph glyph-name="agrave" unicode="&#xe0;" horiz-adv-x="555" 
d="M401 0l-36 116h-174l-37 -116h-151l207 597h135l207 -597h-151zM328 232l-50 158l-51 -158h101zM286 792l98 -148h-121l-129 148h152z" />
    <glyph glyph-name="aacute" unicode="&#xe1;" horiz-adv-x="555" 
d="M401 0l-36 116h-174l-37 -116h-151l207 597h135l207 -597h-151zM328 232l-50 158l-51 -158h101zM404 792l-129 -148h-121l98 148h152z" />
    <glyph glyph-name="acircumflex" unicode="&#xe2;" horiz-adv-x="555" 
d="M401 0l-36 116h-174l-37 -116h-151l207 597h135l207 -597h-151zM328 232l-50 158l-51 -158h101zM206 802h142l118 -158h-129l-60 80l-60 -80h-128z" />
    <glyph glyph-name="atilde" unicode="&#xe3;" horiz-adv-x="555" 
d="M401 0l-36 116h-174l-37 -116h-151l207 597h135l207 -597h-151zM328 232l-50 158l-51 -158h101zM92 709q9 21 23 39q12 14 31.5 26.5t48.5 12.5q26 0 48 -9t42 -20.5t38 -20.5t36 -9q16 0 29 9t23 20q11 12 20 29l31 -82q-10 -21 -25 -38q-13 -14 -33 -25.5t-46 -11.5
q-25 0 -44 9.5t-37 20.5t-38 20.5t-48 9.5q-19 0 -31.5 -10t-20.5 -22q-10 -14 -16 -31l-31 83v0z" />
    <glyph glyph-name="adieresis" unicode="&#xe4;" horiz-adv-x="555" 
d="M401 0l-36 116h-174l-37 -116h-151l207 597h135l207 -597h-151zM328 232l-50 158l-51 -158h101zM477 718q0 -31 -22 -53t-53 -22t-53 22t-22 53t22 53t53 22t53 -22t22 -53zM227 718q0 -31 -22 -53t-53 -22t-53 22t-22 53t22 53t53 22t53 -22t22 -53z" />
    <glyph glyph-name="aring" unicode="&#xe5;" horiz-adv-x="555" 
d="M401 0l-36 116h-174l-37 -116h-151l207 597h135l207 -597h-151zM328 232l-50 158l-51 -158h101zM279 799q-21 0 -35 -14.5t-14 -34.5q0 -21 14.5 -34.5t34.5 -13.5t34 14t14 34t-14 34.5t-34 14.5zM279 643q-23 0 -42.5 8t-34 22.5t-23 34t-8.5 42.5q0 22 8.5 42t23 34.5
t34 23t42.5 8.5q22 0 41.5 -8.5t34 -23.5t23 -34.5t8.5 -41.5q0 -23 -8.5 -42.5t-23 -33.5t-34 -22.5t-41.5 -8.5z" />
    <glyph glyph-name="ae" unicode="&#xe6;" horiz-adv-x="850" 
d="M578 132h243l-38 -132h-346v222h-145l-127 -222h-161l360 597h406l38 -132h-230v-111h158v-132h-158v-90zM355 332h82v143z" />
    <glyph glyph-name="ccedilla" unicode="&#xe7;" horiz-adv-x="565" 
d="M537 78q-39 -42 -92 -66t-115 -24q-64 0 -118.5 23t-95 64.5t-63.5 98.5t-23 125q0 64 23.5 121t64 99t95.5 66.5t117 24.5t114.5 -24.5t91.5 -66.5l-99 -89q-20 19 -46.5 29.5t-56.5 10.5q-33 0 -61.5 -13.5t-50 -36.5t-34 -54t-12.5 -66t12 -66t33 -54t50 -36.5
t63 -13.5q28 0 52 9t44 26zM195 -153q16 -6 33 -10q14 -4 30 -7.5t28 -4.5q29 -2 42 8t13 30q0 19 -18 25t-39 5q-26 -1 -57 -8l-25 25l55 90h60l-40 -60q70 19 106 -5t36 -75q0 -42 -31 -66t-88 -24q-29 0 -52.5 5.5t-40.5 12.5q-20 8 -36 18z" />
    <glyph glyph-name="egrave" unicode="&#xe8;" horiz-adv-x="480" 
d="M406 0h-346v597h333l38 -132h-231v-96h158v-132h-158v-105h243zM282 792l98 -148h-121l-129 148h152z" />
    <glyph glyph-name="eacute" unicode="&#xe9;" horiz-adv-x="480" 
d="M406 0h-346v597h333l38 -132h-231v-96h158v-132h-158v-105h243zM376 792l-129 -148h-121l98 148h152z" />
    <glyph glyph-name="ecircumflex" unicode="&#xea;" horiz-adv-x="480" 
d="M406 0h-346v597h333l38 -132h-231v-96h158v-132h-158v-105h243zM168 802h142l118 -158h-129l-60 80l-60 -80h-128z" />
    <glyph glyph-name="edieresis" unicode="&#xeb;" horiz-adv-x="480" 
d="M406 0h-346v597h333l38 -132h-231v-96h158v-132h-158v-105h243zM445 718q0 -31 -22 -53t-53 -22t-53 22t-22 53t22 53t53 22t53 -22t22 -53zM195 718q0 -31 -22 -53t-53 -22t-53 22t-22 53t22 53t53 22t53 -22t22 -53z" />
    <glyph glyph-name="igrave" unicode="&#xec;" horiz-adv-x="260" 
d="M200 0h-140v597h140v-597zM112 792l98 -148h-121l-129 148h152z" />
    <glyph glyph-name="iacute" unicode="&#xed;" horiz-adv-x="260" 
d="M200 0h-140v597h140v-597zM286 792l-129 -148h-121l98 148h152z" />
    <glyph glyph-name="icircumflex" unicode="&#xee;" horiz-adv-x="260" 
d="M200 0h-140v597h140v-597zM63 802h142l118 -158h-129l-60 80l-60 -80h-128z" />
    <glyph glyph-name="idieresis" unicode="&#xef;" horiz-adv-x="260" 
d="M200 0h-140v597h140v-597zM331 718q0 -31 -22 -53t-53 -22t-53 22t-22 53t22 53t53 22t53 -22t22 -53zM81 718q0 -31 -22 -53t-53 -22t-53 22t-22 53t22 53t53 22t53 -22t22 -53z" />
    <glyph glyph-name="eth" unicode="&#xf0;" horiz-adv-x="595" 
d="M267 597q66 0 120.5 -25t94 -66t61 -95.5t21.5 -112.5q0 -55 -20.5 -108.5t-59.5 -95.5t-94.5 -68t-125.5 -26h-200v240h-93l37 130h56v227h203zM241 128q41 0 74.5 14.5t57 38t36.5 54t13 63.5q0 31 -12 62t-35 55t-57 39t-77 15h-37v-99h108l-38 -130h-70v-112h37z" />
    <glyph glyph-name="ntilde" unicode="&#xf1;" horiz-adv-x="650" 
d="M592 0h-148l-246 373v-373h-140v597h136l258 -379v379h140v-597zM142 719q9 21 23 39q12 14 31.5 26.5t48.5 12.5q26 0 48 -9t42 -20.5t38 -20.5t36 -9q16 0 29 9t23 20q11 12 20 29l31 -82q-10 -21 -25 -38q-13 -14 -33 -25.5t-46 -11.5q-25 0 -44 9.5t-37 20.5
t-38 20.5t-48 9.5q-19 0 -31.5 -10t-20.5 -22q-10 -14 -16 -31l-31 83v0z" />
    <glyph glyph-name="ograve" unicode="&#xf2;" horiz-adv-x="690" 
d="M345 612q65 0 122.5 -24.5t100 -66.5t67.5 -99t25 -121q0 -65 -25 -121.5t-67.5 -98.5t-100 -66.5t-122.5 -24.5t-122.5 24.5t-100.5 66.5t-67.5 98.5t-24.5 121.5q0 64 24.5 121t67.5 99t100.5 66.5t122.5 24.5zM345 126q35 0 66 13.5t54 37.5t36.5 56t13.5 68t-13.5 68
t-36.5 55.5t-54 37.5t-66 14t-66 -14t-54 -37.5t-36.5 -55.5t-13.5 -68t13.5 -68t36.5 -56t54 -37.5t66 -13.5zM376 792l98 -148h-121l-129 148h152z" />
    <glyph glyph-name="oacute" unicode="&#xf3;" horiz-adv-x="690" 
d="M345 612q65 0 122.5 -24.5t100 -66.5t67.5 -99t25 -121q0 -65 -25 -121.5t-67.5 -98.5t-100 -66.5t-122.5 -24.5t-122.5 24.5t-100.5 66.5t-67.5 98.5t-24.5 121.5q0 64 24.5 121t67.5 99t100.5 66.5t122.5 24.5zM345 126q35 0 66 13.5t54 37.5t36.5 56t13.5 68t-13.5 68
t-36.5 55.5t-54 37.5t-66 14t-66 -14t-54 -37.5t-36.5 -55.5t-13.5 -68t13.5 -68t36.5 -56t54 -37.5t66 -13.5zM466 792l-129 -148h-121l98 148h152z" />
    <glyph glyph-name="ocircumflex" unicode="&#xf4;" horiz-adv-x="690" 
d="M345 612q65 0 122.5 -24.5t100 -66.5t67.5 -99t25 -121q0 -65 -25 -121.5t-67.5 -98.5t-100 -66.5t-122.5 -24.5t-122.5 24.5t-100.5 66.5t-67.5 98.5t-24.5 121.5q0 64 24.5 121t67.5 99t100.5 66.5t122.5 24.5zM345 126q35 0 66 13.5t54 37.5t36.5 56t13.5 68t-13.5 68
t-36.5 55.5t-54 37.5t-66 14t-66 -14t-54 -37.5t-36.5 -55.5t-13.5 -68t13.5 -68t36.5 -56t54 -37.5t66 -13.5zM273 802h142l118 -158h-129l-60 80l-60 -80h-128z" />
    <glyph glyph-name="otilde" unicode="&#xf5;" horiz-adv-x="690" 
d="M345 612q65 0 122.5 -24.5t100 -66.5t67.5 -99t25 -121q0 -65 -25 -121.5t-67.5 -98.5t-100 -66.5t-122.5 -24.5t-122.5 24.5t-100.5 66.5t-67.5 98.5t-24.5 121.5q0 64 24.5 121t67.5 99t100.5 66.5t122.5 24.5zM345 126q35 0 66 13.5t54 37.5t36.5 56t13.5 68t-13.5 68
t-36.5 55.5t-54 37.5t-66 14t-66 -14t-54 -37.5t-36.5 -55.5t-13.5 -68t13.5 -68t36.5 -56t54 -37.5t66 -13.5zM162 709q9 21 23 39q12 14 31.5 26.5t48.5 12.5q26 0 48 -9t42 -20.5t38 -20.5t36 -9q16 0 29 9t23 20q11 12 20 29l31 -82q-10 -21 -25 -38q-13 -14 -33 -25.5
t-46 -11.5q-25 0 -44 9.5t-37 20.5t-38 20.5t-48 9.5q-19 0 -31.5 -10t-20.5 -22q-10 -14 -16 -31l-31 83v0z" />
    <glyph glyph-name="odieresis" unicode="&#xf6;" horiz-adv-x="690" 
d="M345 612q65 0 122.5 -24.5t100 -66.5t67.5 -99t25 -121q0 -65 -25 -121.5t-67.5 -98.5t-100 -66.5t-122.5 -24.5t-122.5 24.5t-100.5 66.5t-67.5 98.5t-24.5 121.5q0 64 24.5 121t67.5 99t100.5 66.5t122.5 24.5zM345 126q35 0 66 13.5t54 37.5t36.5 56t13.5 68t-13.5 68
t-36.5 55.5t-54 37.5t-66 14t-66 -14t-54 -37.5t-36.5 -55.5t-13.5 -68t13.5 -68t36.5 -56t54 -37.5t66 -13.5zM547 718q0 -31 -22 -53t-53 -22t-53 22t-22 53t22 53t53 22t53 -22t22 -53zM297 718q0 -31 -22 -53t-53 -22t-53 22t-22 53t22 53t53 22t53 -22t22 -53z" />
    <glyph glyph-name="divide" unicode="&#xf7;" horiz-adv-x="580" 
d="M370 423q0 -33 -23.5 -56.5t-56.5 -23.5q-34 0 -57 23.5t-23 56.5t23 56.5t57 23.5q33 0 56.5 -23.5t23.5 -56.5zM370 63q0 -33 -23.5 -56.5t-56.5 -23.5q-34 0 -57 23.5t-23 56.5t23 56.5t57 23.5q33 0 56.5 -23.5t23.5 -56.5zM530 190v105h-480v-105h480z" />
    <glyph glyph-name="oslash" unicode="&#xf8;" horiz-adv-x="700" 
d="M351 605q65 0 122.5 -24.5t100 -66.5t67.5 -99t25 -121t-25 -120.5t-67.5 -99t-100 -67t-122.5 -24.5t-122.5 24.5t-100.5 67t-67.5 99t-24.5 120.5t24.5 121t67.5 99t100.5 66.5t122.5 24.5zM351 114q36 0 68 14t56 38.5t37.5 57.5t13.5 70t-13.5 70t-37.5 57.5
t-56 38.5t-68 14t-68 -14t-56 -38.5t-37.5 -57.5t-13.5 -70t13.5 -70t37.5 -57.5t56 -38.5t68 -14zM471 647h117l-361 -704h-116z" />
    <glyph glyph-name="ugrave" unicode="&#xf9;" horiz-adv-x="615" 
d="M200 597v-369q0 -20 5 -39t16 -33t30 -22.5t46 -8.5q30 0 51.5 8.5t35 22.5t20 32.5t6.5 39.5v369h145v-386q0 -40 -12.5 -80t-41.5 -72t-78 -52t-121 -20q-75 0 -122.5 19.5t-75.5 50t-38.5 69t-10.5 77.5v394h145zM330 792l98 -148h-121l-129 148h152z" />
    <glyph glyph-name="uacute" unicode="&#xfa;" horiz-adv-x="615" 
d="M200 597v-369q0 -20 5 -39t16 -33t30 -22.5t46 -8.5q30 0 51.5 8.5t35 22.5t20 32.5t6.5 39.5v369h145v-386q0 -40 -12.5 -80t-41.5 -72t-78 -52t-121 -20q-75 0 -122.5 19.5t-75.5 50t-38.5 69t-10.5 77.5v394h145zM421 792l-129 -148h-121l98 148h152z" />
    <glyph glyph-name="ucircumflex" unicode="&#xfb;" horiz-adv-x="615" 
d="M200 597v-369q0 -20 5 -39t16 -33t30 -22.5t46 -8.5q30 0 51.5 8.5t35 22.5t20 32.5t6.5 39.5v369h145v-386q0 -40 -12.5 -80t-41.5 -72t-78 -52t-121 -20q-75 0 -122.5 19.5t-75.5 50t-38.5 69t-10.5 77.5v394h145zM232 802h142l118 -158h-129l-60 80l-60 -80h-128z" />
    <glyph glyph-name="udieresis" unicode="&#xfc;" horiz-adv-x="615" 
d="M200 597v-369q0 -20 5 -39t16 -33t30 -22.5t46 -8.5q30 0 51.5 8.5t35 22.5t20 32.5t6.5 39.5v369h145v-386q0 -40 -12.5 -80t-41.5 -72t-78 -52t-121 -20q-75 0 -122.5 19.5t-75.5 50t-38.5 69t-10.5 77.5v394h145zM503 718q0 -31 -22 -53t-53 -22t-53 22t-22 53t22 53
t53 22t53 -22t22 -53zM253 718q0 -31 -22 -53t-53 -22t-53 22t-22 53t22 53t53 22t53 -22t22 -53z" />
    <glyph glyph-name="yacute" unicode="&#xfd;" horiz-adv-x="615" 
d="M292 0h-153l99 228l-228 369h165l129 -217l94 217h152zM416 792l-129 -148h-121l98 148h152z" />
    <glyph glyph-name="thorn" unicode="&#xfe;" horiz-adv-x="650" 
d="M355 541q58 0 105.5 -22t82 -60t53.5 -89t19 -109t-22 -109t-60 -89t-89 -60t-109 -22q-45 0 -79.5 15.5t-60.5 41.5v-191l-140 -31v888l128 28v-278q30 40 72.5 63.5t99.5 23.5zM327 121q30 0 56 11t45.5 30.5t30.5 45.5t11 56t-11 56t-30.5 45.5t-45.5 30.5t-56 11
t-56 -11t-45.5 -30.5t-30.5 -45.5t-11 -56t11 -56t30.5 -45.5t45.5 -30.5t56 -11z" />
    <glyph glyph-name="ydieresis" unicode="&#xff;" horiz-adv-x="565" 
d="M292 0h-153l99 228l-228 369h165l129 -217l94 217h152zM505 718q0 -31 -22 -53t-53 -22t-53 22t-22 53t22 53t53 22t53 -22t22 -53zM255 718q0 -31 -22 -53t-53 -22t-53 22t-22 53t22 53t53 22t53 -22t22 -53z" />
    <glyph glyph-name="Amacron" unicode="&#x100;" 
d="M476 0l-44 140h-224l-44 -140h-161l243 700h148l243 -700h-161zM246 260h148l-74 233zM165 758v85h310v-85h-310z" />
    <glyph glyph-name="amacron" unicode="&#x101;" horiz-adv-x="555" 
d="M401 0l-36 116h-174l-37 -116h-151l207 597h135l207 -597h-151zM328 232l-50 158l-51 -158h101zM124 668v85h310v-85h-310z" />
    <glyph glyph-name="Abreve" unicode="&#x102;" 
d="M476 0l-44 140h-224l-44 -140h-161l243 700h148l243 -700h-161zM246 260h148l-74 233zM220 899q1 -21 12 -38q9 -14 29.5 -25.5t58.5 -11.5t57.5 11.5t29.5 25.5q11 17 13 38h75q-3 -42 -22 -75q-17 -29 -52.5 -52t-100.5 -23q-66 0 -101 23t-52 52q-19 33 -22 75h75z
" />
    <glyph glyph-name="abreve" unicode="&#x103;" horiz-adv-x="555" 
d="M401 0l-36 116h-174l-37 -116h-151l207 597h135l207 -597h-151zM328 232l-50 158l-51 -158h101zM179 791q1 -21 12 -38q9 -14 29.5 -25.5t58.5 -11.5t57.5 11.5t29.5 25.5q11 17 13 38h75q-3 -42 -22 -75q-17 -29 -52.5 -52t-100.5 -23q-66 0 -101 23t-52 52
q-19 33 -22 75h75z" />
    <glyph glyph-name="Aogonek" unicode="&#x104;" 
d="M476 0l-44 140h-224l-44 -140h-161l243 700h148l243 -700h-161zM246 260h148l-74 233zM620 0q-19 -4 -43.5 -10.5t-46 -18t-36.5 -29.5t-15 -45q0 -16 8 -33.5t30 -17.5q24 0 52.5 8.5t57.5 22.5l20 -50q-34 -24 -72 -37.5t-80 -13.5q-22 0 -41.5 8.5t-34.5 23t-23.5 35
t-8.5 44.5q0 42 22 69t56 43.5t75 24.5t80 12v-36z" />
    <glyph glyph-name="aogonek" unicode="&#x105;" horiz-adv-x="555" 
d="M401 0l-36 116h-174l-37 -116h-151l207 597h135l207 -597h-151zM328 232l-50 158l-51 -158h101zM538 0q-19 -4 -43.5 -10.5t-46 -18t-36.5 -29.5t-15 -45q0 -16 8 -33.5t30 -17.5q24 0 52.5 8.5t57.5 22.5l20 -50q-34 -24 -72 -37.5t-80 -13.5q-22 0 -41.5 8.5t-34.5 23
t-23.5 35t-8.5 44.5q0 42 22 69t56 43.5t75 24.5t80 12v-36z" />
    <glyph glyph-name="Cacute" unicode="&#x106;" horiz-adv-x="645" 
d="M617 84q-47 -46 -107.5 -72t-129.5 -26q-72 0 -136 27t-111.5 75.5t-75 115.5t-27.5 147q0 76 27.5 142.5t75 116t111.5 78t136 28.5q69 0 129.5 -26t106.5 -72l-105 -96q-26 22 -58 34t-67 12q-41 0 -77.5 -17.5t-63.5 -47.5t-43 -69t-16 -81q0 -46 16 -85t43 -68
t63.5 -45.5t77.5 -16.5q33 0 62.5 10.5t53.5 29.5zM476 898l-129 -148h-121l98 148h152z" />
    <glyph glyph-name="cacute" unicode="&#x107;" horiz-adv-x="565" 
d="M537 78q-39 -42 -92 -66t-115 -24q-64 0 -118.5 23t-95 64.5t-63.5 98.5t-23 125q0 64 23.5 121t64 99t95.5 66.5t117 24.5t114.5 -24.5t91.5 -66.5l-99 -89q-20 19 -46.5 29.5t-56.5 10.5q-33 0 -61.5 -13.5t-50 -36.5t-34 -54t-12.5 -66t12 -66t33 -54t50 -36.5
t63 -13.5q28 0 52 9t44 26zM406 802l-129 -148h-121l98 148h152z" />
    <glyph glyph-name="Ccircumflex" unicode="&#x108;" horiz-adv-x="645" 
d="M617 84q-47 -46 -107.5 -72t-129.5 -26q-72 0 -136 27t-111.5 75.5t-75 115.5t-27.5 147q0 76 27.5 142.5t75 116t111.5 78t136 28.5q69 0 129.5 -26t106.5 -72l-105 -96q-26 22 -58 34t-67 12q-41 0 -77.5 -17.5t-63.5 -47.5t-43 -69t-16 -81q0 -46 16 -85t43 -68
t63.5 -45.5t77.5 -16.5q33 0 62.5 10.5t53.5 29.5zM288 908h142l118 -158h-129l-60 80l-60 -80h-128z" />
    <glyph glyph-name="ccircumflex" unicode="&#x109;" horiz-adv-x="565" 
d="M537 78q-39 -42 -92 -66t-115 -24q-64 0 -118.5 23t-95 64.5t-63.5 98.5t-23 125q0 64 23.5 121t64 99t95.5 66.5t117 24.5t114.5 -24.5t91.5 -66.5l-99 -89q-20 19 -46.5 29.5t-56.5 10.5q-33 0 -61.5 -13.5t-50 -36.5t-34 -54t-12.5 -66t12 -66t33 -54t50 -36.5
t63 -13.5q28 0 52 9t44 26zM238 802h142l118 -158h-129l-60 80l-60 -80h-128z" />
    <glyph glyph-name="Cdotaccent" unicode="&#x10a;" horiz-adv-x="645" 
d="M617 84q-47 -46 -107.5 -72t-129.5 -26q-72 0 -136 27t-111.5 75.5t-75 115.5t-27.5 147q0 76 27.5 142.5t75 116t111.5 78t136 28.5q69 0 129.5 -26t106.5 -72l-105 -96q-26 22 -58 34t-67 12q-41 0 -77.5 -17.5t-63.5 -47.5t-43 -69t-16 -81q0 -46 16 -85t43 -68
t63.5 -45.5t77.5 -16.5q33 0 62.5 10.5t53.5 29.5zM446 817q0 -34 -23.5 -57t-56.5 -23t-56.5 23t-23.5 57q0 33 23.5 56.5t56.5 23.5t56.5 -23.5t23.5 -56.5z" />
    <glyph glyph-name="cdotaccent" unicode="&#x10b;" horiz-adv-x="565" 
d="M537 78q-39 -42 -92 -66t-115 -24q-64 0 -118.5 23t-95 64.5t-63.5 98.5t-23 125q0 64 23.5 121t64 99t95.5 66.5t117 24.5t114.5 -24.5t91.5 -66.5l-99 -89q-20 19 -46.5 29.5t-56.5 10.5q-33 0 -61.5 -13.5t-50 -36.5t-34 -54t-12.5 -66t12 -66t33 -54t50 -36.5
t63 -13.5q28 0 52 9t44 26zM390 731q0 -34 -23.5 -57t-56.5 -23t-56.5 23t-23.5 57q0 33 23.5 56.5t56.5 23.5t56.5 -23.5t23.5 -56.5z" />
    <glyph glyph-name="Ccaron" unicode="&#x10c;" horiz-adv-x="645" 
d="M617 84q-47 -46 -107.5 -72t-129.5 -26q-72 0 -136 27t-111.5 75.5t-75 115.5t-27.5 147q0 76 27.5 142.5t75 116t111.5 78t136 28.5q69 0 129.5 -26t106.5 -72l-105 -96q-26 22 -58 34t-67 12q-41 0 -77.5 -17.5t-63.5 -47.5t-43 -69t-16 -81q0 -46 16 -85t43 -68
t63.5 -45.5t77.5 -16.5q33 0 62.5 10.5t53.5 29.5zM161 908h128l60 -80l60 80h129l-118 -158h-142z" />
    <glyph glyph-name="ccaron" unicode="&#x10d;" horiz-adv-x="565" 
d="M537 78q-39 -42 -92 -66t-115 -24q-64 0 -118.5 23t-95 64.5t-63.5 98.5t-23 125q0 64 23.5 121t64 99t95.5 66.5t117 24.5t114.5 -24.5t91.5 -66.5l-99 -89q-20 19 -46.5 29.5t-56.5 10.5q-33 0 -61.5 -13.5t-50 -36.5t-34 -54t-12.5 -66t12 -66t33 -54t50 -36.5
t63 -13.5q28 0 52 9t44 26zM121 822h128l60 -80l60 80h129l-118 -158h-142z" />
    <glyph glyph-name="Dcaron" unicode="&#x10e;" horiz-adv-x="675" 
d="M295 700q72 0 136 -27.5t111.5 -75t75 -111.5t27.5 -136t-27.5 -136t-75 -111.5t-111.5 -75t-136 -27.5h-235v700h235zM262 135q46 0 87 16t72 45t48.5 68t17.5 86q0 46 -17.5 85.5t-48.5 68.5t-72 45t-87 16h-52v-430h52zM90 908h128l60 -80l60 80h129l-118 -158h-142z
" />
    <glyph glyph-name="dcaron" unicode="&#x10f;" horiz-adv-x="590" 
d="M263 597q66 0 120.5 -25t94 -66t61 -95.5t21.5 -112.5q0 -55 -20.5 -108.5t-59.5 -95.5t-94.5 -68t-125.5 -26h-200v597h203zM237 128q41 0 74.5 14.5t57 38t36.5 54t13 63.5q0 31 -12 62t-35 55t-57 39t-77 15h-37v-341h37zM71 812h128l60 -80l60 80h129l-118 -158h-142
z" />
    <glyph glyph-name="Dcroat" unicode="&#x110;" horiz-adv-x="685" 
d="M302 700q72 0 136 -27.5t111.5 -75t75 -111.5t27.5 -136t-27.5 -136t-75 -111.5t-111.5 -75t-136 -27.5h-235v300h-100l40 140h60v260h235zM269 135q47 0 88 16t71.5 45t48 68t17.5 86q0 46 -17.5 85.5t-48 68.5t-71.5 45t-88 16h-52v-125h118l-40 -140h-78v-165h52z" />
    <glyph glyph-name="dcroat" unicode="&#x111;" horiz-adv-x="595" 
d="M267 597q66 0 120.5 -25t94 -66t61 -95.5t21.5 -112.5q0 -55 -20.5 -108.5t-59.5 -95.5t-94.5 -68t-125.5 -26h-200v240h-93l37 130h56v227h203zM241 128q41 0 74.5 14.5t57 38t36.5 54t13 63.5q0 31 -12 62t-35 55t-57 39t-77 15h-37v-99h108l-38 -130h-70v-112h37z" />
    <glyph glyph-name="Emacron" unicode="&#x112;" horiz-adv-x="540" 
d="M500 140l-40 -140h-400v700h385l40 -140h-275v-135h190v-140h-190v-145h290zM112 758v85h310v-85h-310z" />
    <glyph glyph-name="emacron" unicode="&#x113;" horiz-adv-x="480" 
d="M406 0h-346v597h333l38 -132h-231v-96h158v-132h-158v-105h243zM78 668v85h310v-85h-310z" />
    <glyph glyph-name="Edotaccent" unicode="&#x116;" horiz-adv-x="540" 
d="M500 140l-40 -140h-400v700h385l40 -140h-275v-135h190v-140h-190v-145h290zM340 817q0 -34 -23.5 -57t-56.5 -23t-56.5 23t-23.5 57q0 33 23.5 56.5t56.5 23.5t56.5 -23.5t23.5 -56.5z" />
    <glyph glyph-name="edotaccent" unicode="&#x117;" horiz-adv-x="480" 
d="M406 0h-346v597h333l38 -132h-231v-96h158v-132h-158v-105h243zM310 731q0 -34 -23.5 -57t-56.5 -23t-56.5 23t-23.5 57q0 33 23.5 56.5t56.5 23.5t56.5 -23.5t23.5 -56.5z" />
    <glyph glyph-name="Eogonek" unicode="&#x118;" horiz-adv-x="540" 
d="M500 140l-40 -140h-400v700h385l40 -140h-275v-135h190v-140h-190v-145h290zM459 0q-19 -4 -43.5 -10.5t-46 -18t-36.5 -29.5t-15 -45q0 -16 8 -33.5t30 -17.5q24 0 52.5 8.5t57.5 22.5l20 -50q-34 -24 -72 -37.5t-80 -13.5q-22 0 -41.5 8.5t-34.5 23t-23.5 35t-8.5 44.5
q0 42 22 69t56 43.5t75 24.5t80 12v-36z" />
    <glyph glyph-name="eogonek" unicode="&#x119;" horiz-adv-x="480" 
d="M406 0h-346v597h333l38 -132h-231v-96h158v-132h-158v-105h243zM406 0q-19 -4 -43.5 -10.5t-46 -18t-36.5 -29.5t-15 -45q0 -16 8 -33.5t30 -17.5q24 0 52.5 8.5t57.5 22.5l20 -50q-34 -24 -72 -37.5t-80 -13.5q-22 0 -41.5 8.5t-34.5 23t-23.5 35t-8.5 44.5q0 42 22 69
t56 43.5t75 24.5t80 12v-36z" />
    <glyph glyph-name="Ecaron" unicode="&#x11a;" horiz-adv-x="540" 
d="M500 140l-40 -140h-400v700h385l40 -140h-275v-135h190v-140h-190v-145h290zM61 908h128l60 -80l60 80h129l-118 -158h-142z" />
    <glyph glyph-name="ecaron" unicode="&#x11b;" horiz-adv-x="480" 
d="M406 0h-346v597h333l38 -132h-231v-96h158v-132h-158v-105h243zM41 822h128l60 -80l60 80h129l-118 -158h-142z" />
    <glyph glyph-name="Gcircumflex" unicode="&#x11c;" horiz-adv-x="740" 
d="M686 412v-361q-9 -6 -36.5 -17.5t-65 -22t-82 -18.5t-86.5 -8q-89 0 -160 28.5t-121.5 78t-77.5 116t-27 142.5t29.5 142.5t81.5 116t122.5 78t152.5 28.5q34 0 69 -6.5t68.5 -19t64.5 -30t57 -39.5l-92 -112q-51 39 -100 54t-94 11t-83 -24t-66 -50.5t-44 -69t-16 -79.5
q0 -48 19 -89.5t52 -71.5t77.5 -47.5t94.5 -17.5q60 0 113 25v133h-180l37 130h293zM328 908h142l118 -158h-129l-60 80l-60 -80h-128z" />
    <glyph glyph-name="gcircumflex" unicode="&#x11d;" horiz-adv-x="645" 
d="M451 234h-155l38 124h257v-312q-18 -11 -45 -21.5t-58.5 -19t-64.5 -13.5t-63 -5q-72 0 -132.5 23.5t-104.5 64.5t-68.5 98t-24.5 125q0 66 26 123t71 99t105 65.5t128 23.5q62 0 120.5 -22t105.5 -64l-88 -106q-29 28 -67 43.5t-78 15.5q-38 0 -70.5 -14t-57.5 -38.5
t-39 -57t-14 -69.5q0 -39 16 -72t42.5 -57t61 -37t71.5 -13q46 0 88 20v96zM278 802h142l118 -158h-129l-60 80l-60 -80h-128z" />
    <glyph glyph-name="Gbreve" unicode="&#x11e;" horiz-adv-x="740" 
d="M686 412v-361q-9 -6 -36.5 -17.5t-65 -22t-82 -18.5t-86.5 -8q-89 0 -160 28.5t-121.5 78t-77.5 116t-27 142.5t29.5 142.5t81.5 116t122.5 78t152.5 28.5q34 0 69 -6.5t68.5 -19t64.5 -30t57 -39.5l-92 -112q-51 39 -100 54t-94 11t-83 -24t-66 -50.5t-44 -69t-16 -79.5
q0 -48 19 -89.5t52 -71.5t77.5 -47.5t94.5 -17.5q60 0 113 25v133h-180l37 130h293zM305 899q1 -21 12 -38q9 -14 29.5 -25.5t58.5 -11.5t57.5 11.5t29.5 25.5q11 17 13 38h75q-3 -42 -22 -75q-17 -29 -52.5 -52t-100.5 -23q-66 0 -101 23t-52 52q-19 33 -22 75h75z" />
    <glyph glyph-name="gbreve" unicode="&#x11f;" horiz-adv-x="645" 
d="M451 234h-155l38 124h257v-312q-18 -11 -45 -21.5t-58.5 -19t-64.5 -13.5t-63 -5q-72 0 -132.5 23.5t-104.5 64.5t-68.5 98t-24.5 125q0 66 26 123t71 99t105 65.5t128 23.5q62 0 120.5 -22t105.5 -64l-88 -106q-29 28 -67 43.5t-78 15.5q-38 0 -70.5 -14t-57.5 -38.5
t-39 -57t-14 -69.5q0 -39 16 -72t42.5 -57t61 -37t71.5 -13q46 0 88 20v96zM249 791q1 -21 12 -38q9 -14 29.5 -25.5t58.5 -11.5t57.5 11.5t29.5 25.5q11 17 13 38h75q-3 -42 -22 -75q-17 -29 -52.5 -52t-100.5 -23q-66 0 -101 23t-52 52q-19 33 -22 75h75z" />
    <glyph glyph-name="Gdotaccent" unicode="&#x120;" horiz-adv-x="740" 
d="M686 412v-361q-9 -6 -36.5 -17.5t-65 -22t-82 -18.5t-86.5 -8q-89 0 -160 28.5t-121.5 78t-77.5 116t-27 142.5t29.5 142.5t81.5 116t122.5 78t152.5 28.5q34 0 69 -6.5t68.5 -19t64.5 -30t57 -39.5l-92 -112q-51 39 -100 54t-94 11t-83 -24t-66 -50.5t-44 -69t-16 -79.5
q0 -48 19 -89.5t52 -71.5t77.5 -47.5t94.5 -17.5q60 0 113 25v133h-180l37 130h293zM486 817q0 -34 -23.5 -57t-56.5 -23t-56.5 23t-23.5 57q0 33 23.5 56.5t56.5 23.5t56.5 -23.5t23.5 -56.5z" />
    <glyph glyph-name="gdotaccent" unicode="&#x121;" horiz-adv-x="645" 
d="M451 234h-155l38 124h257v-312q-18 -11 -45 -21.5t-58.5 -19t-64.5 -13.5t-63 -5q-72 0 -132.5 23.5t-104.5 64.5t-68.5 98t-24.5 125q0 66 26 123t71 99t105 65.5t128 23.5q62 0 120.5 -22t105.5 -64l-88 -106q-29 28 -67 43.5t-78 15.5q-38 0 -70.5 -14t-57.5 -38.5
t-39 -57t-14 -69.5q0 -39 16 -72t42.5 -57t61 -37t71.5 -13q46 0 88 20v96zM420 731q0 -34 -23.5 -57t-56.5 -23t-56.5 23t-23.5 57q0 33 23.5 56.5t56.5 23.5t56.5 -23.5t23.5 -56.5z" />
    <glyph glyph-name="uni0122" unicode="&#x122;" horiz-adv-x="740" 
d="M686 412v-361q-9 -6 -36.5 -17.5t-65 -22t-82 -18.5t-86.5 -8q-89 0 -160 28.5t-121.5 78t-77.5 116t-27 142.5t29.5 142.5t81.5 116t122.5 78t152.5 28.5q34 0 69 -6.5t68.5 -19t64.5 -30t57 -39.5l-92 -112q-51 39 -100 54t-94 11t-83 -24t-66 -50.5t-44 -69t-16 -79.5
q0 -48 19 -89.5t52 -71.5t77.5 -47.5t94.5 -17.5q60 0 113 25v133h-180l37 130h293zM319 -153q16 -6 33 -10q14 -4 30 -7.5t28 -4.5q29 -2 42 8t13 30q0 19 -18 25t-39 5q-26 -1 -57 -8l-25 25l55 90h60l-40 -60q70 19 106 -5t36 -75q0 -42 -31 -66t-88 -24q-29 0 -52.5 5.5
t-40.5 12.5q-20 8 -36 18z" />
    <glyph glyph-name="uni0123" unicode="&#x123;" horiz-adv-x="645" 
d="M451 234h-155l38 124h257v-312q-18 -11 -45 -21.5t-58.5 -19t-64.5 -13.5t-63 -5q-72 0 -132.5 23.5t-104.5 64.5t-68.5 98t-24.5 125q0 66 26 123t71 99t105 65.5t128 23.5q62 0 120.5 -22t105.5 -64l-88 -106q-29 28 -67 43.5t-78 15.5q-38 0 -70.5 -14t-57.5 -38.5
t-39 -57t-14 -69.5q0 -39 16 -72t42.5 -57t61 -37t71.5 -13q46 0 88 20v96zM269 -153q16 -6 33 -10q14 -4 30 -7.5t28 -4.5q29 -2 42 8t13 30q0 19 -18 25t-39 5q-26 -1 -57 -8l-25 25l55 90h60l-40 -60q70 19 106 -5t36 -75q0 -42 -31 -66t-88 -24q-29 0 -52.5 5.5
t-40.5 12.5q-20 8 -36 18z" />
    <glyph glyph-name="Hcircumflex" unicode="&#x124;" horiz-adv-x="690" 
d="M627 700v-700h-150v292h-265v-292h-150v700h150v-278h265v278h150zM268 908h142l118 -158h-129l-60 80l-60 -80h-128z" />
    <glyph glyph-name="hcircumflex" unicode="&#x125;" horiz-adv-x="605" 
d="M545 0h-141v242h-204v-242h-140v597h140v-231h204v231h141v-597v0zM228 802h142l118 -158h-129l-60 80l-60 -80h-128z" />
    <glyph glyph-name="Itilde" unicode="&#x128;" horiz-adv-x="275" 
d="M212 0h-150v700h150v-700zM-47 819q9 21 23 39q12 14 31.5 26.5t48.5 12.5q26 0 48 -9t42 -20.5t38 -20.5t36 -9q16 0 29 9t23 20q11 12 20 29l31 -82q-10 -21 -25 -38q-13 -14 -33 -25.5t-46 -11.5q-25 0 -44 9.5t-37 20.5t-38 20.5t-48 9.5q-19 0 -31.5 -10t-20.5 -22
q-10 -14 -16 -31l-31 83v0z" />
    <glyph glyph-name="itilde" unicode="&#x129;" horiz-adv-x="260" 
d="M200 0h-140v597h140v-597zM-55 714q9 21 23 39q12 14 31.5 26.5t48.5 12.5q26 0 48 -9t42 -20.5t38 -20.5t36 -9q16 0 29 9t23 20q11 12 20 29l31 -82q-10 -21 -25 -38q-13 -14 -33 -25.5t-46 -11.5q-25 0 -44 9.5t-37 20.5t-38 20.5t-48 9.5q-19 0 -31.5 -10t-20.5 -22
q-10 -14 -16 -31l-31 83v0z" />
    <glyph glyph-name="Imacron" unicode="&#x12a;" horiz-adv-x="275" 
d="M212 0h-150v700h150v-700zM-17 758v85h310v-85h-310z" />
    <glyph glyph-name="imacron" unicode="&#x12b;" horiz-adv-x="260" 
d="M200 0h-140v597h140v-597zM-25 668v85h310v-85h-310z" />
    <glyph glyph-name="Iogonek" unicode="&#x12e;" horiz-adv-x="275" 
d="M212 0h-150v700h150v-700zM213 0q-19 -4 -43.5 -10.5t-46 -18t-36.5 -29.5t-15 -45q0 -16 8 -33.5t30 -17.5q24 0 52.5 8.5t57.5 22.5l20 -50q-34 -24 -72 -37.5t-80 -13.5q-22 0 -41.5 8.5t-34.5 23t-23.5 35t-8.5 44.5q0 42 22 69t56 43.5t75 24.5t80 12v-36z" />
    <glyph glyph-name="iogonek" unicode="&#x12f;" horiz-adv-x="260" 
d="M200 0h-140v597h140v-597zM201 0q-19 -4 -43.5 -10.5t-46 -18t-36.5 -29.5t-15 -45q0 -16 8 -33.5t30 -17.5q24 0 52.5 8.5t57.5 22.5l20 -50q-34 -24 -72 -37.5t-80 -13.5q-22 0 -41.5 8.5t-34.5 23t-23.5 35t-8.5 44.5q0 42 22 69t56 43.5t75 24.5t80 12v-36z" />
    <glyph glyph-name="Idotaccent" unicode="&#x130;" horiz-adv-x="275" 
d="M212 0h-150v700h150v-700zM217 817q0 -34 -23.5 -57t-56.5 -23t-56.5 23t-23.5 57q0 33 23.5 56.5t56.5 23.5t56.5 -23.5t23.5 -56.5z" />
    <glyph glyph-name="dotlessi" unicode="&#x131;" horiz-adv-x="260" 
d="M200 0h-140v597h140v-597z" />
    <glyph glyph-name="Jcircumflex" unicode="&#x134;" horiz-adv-x="415" 
d="M355 235q0 -61 -17 -104t-44 -72t-61 -45.5t-68 -23.5t-64.5 -6.5t-50.5 5.5l-42 149q40 -11 70 -11.5t51 6t35 19t23 26.5q19 33 18 84v438h150v-465zM208 908h142l118 -158h-129l-60 80l-60 -80h-128z" />
    <glyph glyph-name="jcircumflex" unicode="&#x135;" horiz-adv-x="370" 
d="M313 597v-394q0 -73 -28 -118.5t-69 -68.5t-87.5 -27.5t-82.5 4.5l-40 141q26 -8 55.5 -12t54 3.5t40.5 30.5t16 70v371h141zM168 802h142l118 -158h-129l-60 80l-60 -80h-128z" />
    <glyph glyph-name="uni0136" unicode="&#x136;" 
d="M629 0h-182l-237 322v-322h-150v700h150v-337l232 337h180l-254 -354zM219 -153q16 -6 33 -10q14 -4 30 -7.5t28 -4.5q29 -2 42 8t13 30q0 19 -18 25t-39 5q-26 -1 -57 -8l-25 25l55 90h60l-40 -60q70 19 106 -5t36 -75q0 -42 -31 -66t-88 -24q-29 0 -52.5 5.5
t-40.5 12.5q-20 8 -36 18z" />
    <glyph glyph-name="uni0137" unicode="&#x137;" horiz-adv-x="565" 
d="M332 296l223 -296h-172l-184 251v-251h-141v597h141v-262l180 262h169zM189 -153q16 -6 33 -10q14 -4 30 -7.5t28 -4.5q29 -2 42 8t13 30q0 19 -18 25t-39 5q-26 -1 -57 -8l-25 25l55 90h60l-40 -60q70 19 106 -5t36 -75q0 -42 -31 -66t-88 -24q-29 0 -52.5 5.5
t-40.5 12.5q-20 8 -36 18z" />
    <glyph glyph-name="kgreenlandic" unicode="&#x138;" horiz-adv-x="565" 
d="M332 296l223 -296h-172l-184 251v-251h-141v597h141v-262l180 262h169z" />
    <glyph glyph-name="Lacute" unicode="&#x139;" horiz-adv-x="480" 
d="M461 145l-41 -145h-360v700h150v-555h251zM296 898l-129 -148h-121l98 148h152z" />
    <glyph glyph-name="lacute" unicode="&#x13a;" horiz-adv-x="425" 
d="M371 0h-312v597h141v-461h210zM306 802l-129 -148h-121l98 148h152z" />
    <glyph glyph-name="uni013B" unicode="&#x13b;" horiz-adv-x="480" 
d="M461 145l-41 -145h-360v700h150v-555h251zM149 -153q16 -6 33 -10q14 -4 30 -7.5t28 -4.5q29 -2 42 8t13 30q0 19 -18 25t-39 5q-26 -1 -57 -8l-25 25l55 90h60l-40 -60q70 19 106 -5t36 -75q0 -42 -31 -66t-88 -24q-29 0 -52.5 5.5t-40.5 12.5q-20 8 -36 18z" />
    <glyph glyph-name="uni013C" unicode="&#x13c;" horiz-adv-x="425" 
d="M371 0h-312v597h141v-461h210zM119 -153q16 -6 33 -10q14 -4 30 -7.5t28 -4.5q29 -2 42 8t13 30q0 19 -18 25t-39 5q-26 -1 -57 -8l-25 25l55 90h60l-40 -60q70 19 106 -5t36 -75q0 -42 -31 -66t-88 -24q-29 0 -52.5 5.5t-40.5 12.5q-20 8 -36 18z" />
    <glyph glyph-name="Lcaron" unicode="&#x13d;" horiz-adv-x="480" 
d="M461 145l-41 -145h-360v700h150v-555h251zM395 445h-100l10 255h140l-50 -255v0z" />
    <glyph glyph-name="lcaron" unicode="&#x13e;" horiz-adv-x="425" 
d="M371 0h-312v597h141v-461h210zM365 343h-100l10 255h140l-50 -255v0z" />
    <glyph glyph-name="Lslash" unicode="&#x141;" horiz-adv-x="480" 
d="M451 145l-41 -145h-360v174l-48 -46v138l48 45v389h150v-247l152 144v-138l-152 -144v-170h251z" />
    <glyph glyph-name="lslash" unicode="&#x142;" horiz-adv-x="425" 
d="M188 136h210l-39 -136h-312v162l-45 -42v133l45 42v302h141v-168l133 126v-133l-133 -126v-160v0z" />
    <glyph glyph-name="Nacute" unicode="&#x143;" horiz-adv-x="745" 
d="M685 700v-700h-164l-311 472v-472h-150v700h150l325 -479v479h150zM496 898l-129 -148h-121l98 148h152z" />
    <glyph glyph-name="nacute" unicode="&#x144;" horiz-adv-x="650" 
d="M592 0h-148l-246 373v-373h-140v597h136l258 -379v379h140v-597zM416 802l-129 -148h-121l98 148h152z" />
    <glyph glyph-name="uni0145" unicode="&#x145;" horiz-adv-x="745" 
d="M685 700v-700h-164l-311 472v-472h-150v700h150l325 -479v479h150zM269 -153q16 -6 33 -10q14 -4 30 -7.5t28 -4.5q29 -2 42 8t13 30q0 19 -18 25t-39 5q-26 -1 -57 -8l-25 25l55 90h60l-40 -60q70 19 106 -5t36 -75q0 -42 -31 -66t-88 -24q-29 0 -52.5 5.5t-40.5 12.5
q-20 8 -36 18z" />
    <glyph glyph-name="uni0146" unicode="&#x146;" horiz-adv-x="650" 
d="M592 0h-148l-246 373v-373h-140v597h136l258 -379v379h140v-597zM219 -153q16 -6 33 -10q14 -4 30 -7.5t28 -4.5q29 -2 42 8t13 30q0 19 -18 25t-39 5q-26 -1 -57 -8l-25 25l55 90h60l-40 -60q70 19 106 -5t36 -75q0 -42 -31 -66t-88 -24q-29 0 -52.5 5.5t-40.5 12.5
q-20 8 -36 18z" />
    <glyph glyph-name="Ncaron" unicode="&#x147;" horiz-adv-x="745" 
d="M685 700v-700h-164l-311 472v-472h-150v700h150l325 -479v479h150zM171 908h128l60 -80l60 80h129l-118 -158h-142z" />
    <glyph glyph-name="ncaron" unicode="&#x148;" horiz-adv-x="650" 
d="M592 0h-148l-246 373v-373h-140v597h136l258 -379v379h140v-597zM131 822h128l60 -80l60 80h129l-118 -158h-142z" />
    <glyph glyph-name="Eng" unicode="&#x14a;" horiz-adv-x="740" 
d="M683 700v-751q0 -37 -4.5 -75t-26.5 -68.5t-67.5 -49.5t-126.5 -19l-41 126q37 0 60.5 5.5t37 16t18.5 26.5t5 38v46l-330 477v-472h-150v700h150l325 -479v479h150z" />
    <glyph glyph-name="eng" unicode="&#x14b;" horiz-adv-x="650" 
d="M592 597v-649q0 -37 -5 -75t-26.5 -68.5t-67 -49.5t-126.5 -19l-41 126q37 -2 61.5 3t39 16.5t20 28t5.5 38.5v47l-254 378v-373h-140v597h136l258 -379v379h140z" />
    <glyph glyph-name="Omacron" unicode="&#x14c;" horiz-adv-x="800" 
d="M400 717q76 0 143.5 -28.5t118 -78t79.5 -116t29 -142.5t-29 -142.5t-79.5 -116t-118 -78t-143.5 -28.5q-77 0 -144.5 28.5t-117.5 78t-79 116t-29 142.5t29 142.5t79 116t117.5 78t144.5 28.5zM400 132q44 0 83 17t68.5 47t46.5 70t17 86t-17 86t-46.5 70t-68.5 47
t-83 17q-45 0 -84 -17t-68 -47t-46 -70t-17 -86t17 -86t46 -70t68 -47t84 -17zM248 758v85h310v-85h-310z" />
    <glyph glyph-name="omacron" unicode="&#x14d;" horiz-adv-x="690" 
d="M345 612q65 0 122.5 -24.5t100 -66.5t67.5 -99t25 -121q0 -65 -25 -121.5t-67.5 -98.5t-100 -66.5t-122.5 -24.5t-122.5 24.5t-100.5 66.5t-67.5 98.5t-24.5 121.5q0 64 24.5 121t67.5 99t100.5 66.5t122.5 24.5zM345 126q35 0 66 13.5t54 37.5t36.5 56t13.5 68t-13.5 68
t-36.5 55.5t-54 37.5t-66 14t-66 -14t-54 -37.5t-36.5 -55.5t-13.5 -68t13.5 -68t36.5 -56t54 -37.5t66 -13.5zM190 668v85h310v-85h-310z" />
    <glyph glyph-name="Ohungarumlaut" unicode="&#x150;" horiz-adv-x="800" 
d="M400 717q76 0 143.5 -28.5t118 -78t79.5 -116t29 -142.5t-29 -142.5t-79.5 -116t-118 -78t-143.5 -28.5q-77 0 -144.5 28.5t-117.5 78t-79 116t-29 142.5t29 142.5t79 116t117.5 78t144.5 28.5zM400 132q44 0 83 17t68.5 47t46.5 70t17 86t-17 86t-46.5 70t-68.5 47
t-83 17q-45 0 -84 -17t-68 -47t-46 -70t-17 -86t17 -86t46 -70t68 -47t84 -17zM244 755l38 148h136l-88 -148h-86zM419 755l66 148h142l-115 -148h-93z" />
    <glyph glyph-name="ohungarumlaut" unicode="&#x151;" horiz-adv-x="690" 
d="M345 612q65 0 122.5 -24.5t100 -66.5t67.5 -99t25 -121q0 -65 -25 -121.5t-67.5 -98.5t-100 -66.5t-122.5 -24.5t-122.5 24.5t-100.5 66.5t-67.5 98.5t-24.5 121.5q0 64 24.5 121t67.5 99t100.5 66.5t122.5 24.5zM345 126q35 0 66 13.5t54 37.5t36.5 56t13.5 68t-13.5 68
t-36.5 55.5t-54 37.5t-66 14t-66 -14t-54 -37.5t-36.5 -55.5t-13.5 -68t13.5 -68t36.5 -56t54 -37.5t66 -13.5zM184 645l38 148h136l-88 -148h-86zM359 645l66 148h142l-115 -148h-93z" />
    <glyph glyph-name="Racute" unicode="&#x154;" horiz-adv-x="620" 
d="M256 275h-46v-275h-150v700h220q46 0 92.5 -10.5t84 -36.5t60.5 -69t23 -109q0 -34 -10.5 -61.5t-29 -49t-43.5 -37.5t-53 -27l206 -300h-182zM210 375h55q15 0 36 4.5t39.5 15.5t31.5 30.5t13 49.5t-13 47t-31.5 25.5t-39.5 10.5t-36 2h-55v-185zM366 898l-129 -148
h-121l98 148h152z" />
    <glyph glyph-name="racute" unicode="&#x155;" horiz-adv-x="550" 
d="M540 0h-171l-142 228h-27v-228h-140v597h191q35 0 74.5 -8t72.5 -30t54.5 -59.5t21.5 -97.5q0 -42 -17 -70.5t-37 -45.5q-24 -20 -54 -33zM238 327q12 0 28 2.5t30.5 11t24.5 23t10 38.5t-10.5 37t-25.5 19t-31 6.5t-26 0.5h-38v-138h38zM356 802l-129 -148h-121l98 148
h152z" />
    <glyph glyph-name="uni0156" unicode="&#x156;" horiz-adv-x="620" 
d="M256 275h-46v-275h-150v700h220q46 0 92.5 -10.5t84 -36.5t60.5 -69t23 -109q0 -34 -10.5 -61.5t-29 -49t-43.5 -37.5t-53 -27l206 -300h-182zM210 375h55q15 0 36 4.5t39.5 15.5t31.5 30.5t13 49.5t-13 47t-31.5 25.5t-39.5 10.5t-36 2h-55v-185zM209 -153q16 -6 33 -10
q14 -4 30 -7.5t28 -4.5q29 -2 42 8t13 30q0 19 -18 25t-39 5q-26 -1 -57 -8l-25 25l55 90h60l-40 -60q70 19 106 -5t36 -75q0 -42 -31 -66t-88 -24q-29 0 -52.5 5.5t-40.5 12.5q-20 8 -36 18z" />
    <glyph glyph-name="uni0157" unicode="&#x157;" horiz-adv-x="550" 
d="M540 0h-171l-142 228h-27v-228h-140v597h191q35 0 74.5 -8t72.5 -30t54.5 -59.5t21.5 -97.5q0 -42 -17 -70.5t-37 -45.5q-24 -20 -54 -33zM238 327q12 0 28 2.5t30.5 11t24.5 23t10 38.5t-10.5 37t-25.5 19t-31 6.5t-26 0.5h-38v-138h38zM189 -153q16 -6 33 -10
q14 -4 30 -7.5t28 -4.5q29 -2 42 8t13 30q0 19 -18 25t-39 5q-26 -1 -57 -8l-25 25l55 90h60l-40 -60q70 19 106 -5t36 -75q0 -42 -31 -66t-88 -24q-29 0 -52.5 5.5t-40.5 12.5q-20 8 -36 18z" />
    <glyph glyph-name="Rcaron" unicode="&#x158;" horiz-adv-x="620" 
d="M256 275h-46v-275h-150v700h220q46 0 92.5 -10.5t84 -36.5t60.5 -69t23 -109q0 -34 -10.5 -61.5t-29 -49t-43.5 -37.5t-53 -27l206 -300h-182zM210 375h55q15 0 36 4.5t39.5 15.5t31.5 30.5t13 49.5t-13 47t-31.5 25.5t-39.5 10.5t-36 2h-55v-185zM80 908h128l60 -80
l60 80h129l-118 -158h-142z" />
    <glyph glyph-name="rcaron" unicode="&#x159;" horiz-adv-x="550" 
d="M540 0h-171l-142 228h-27v-228h-140v597h191q35 0 74.5 -8t72.5 -30t54.5 -59.5t21.5 -97.5q0 -42 -17 -70.5t-37 -45.5q-24 -20 -54 -33zM238 327q12 0 28 2.5t30.5 11t24.5 23t10 38.5t-10.5 37t-25.5 19t-31 6.5t-26 0.5h-38v-138h38zM61 822h128l60 -80l60 80h129
l-118 -158h-142z" />
    <glyph glyph-name="Sacute" unicode="&#x15a;" horiz-adv-x="580" 
d="M438 526q-30 33 -68.5 46.5t-72 10.5t-57 -21.5t-23.5 -49.5q0 -20 11.5 -34t31 -24t45.5 -18t56 -17q74 -22 111.5 -55t54.5 -64q19 -37 19 -76q0 -66 -24 -112t-61.5 -75t-84 -42t-91.5 -13q-63 0 -110 13t-79 29q-37 18 -63 43l94 120q24 -23 48 -34.5t44.5 -16
t36 -4.5h22.5t22.5 2t31.5 9.5t28.5 20.5t12.5 36q0 22 -8 35.5t-26 23t-46.5 19.5t-69.5 26q-40 15 -72.5 31t-55.5 38t-35.5 52.5t-12.5 75.5t19.5 84t53.5 68.5t80.5 46.5t101.5 17t96.5 -12.5t70.5 -27.5q33 -18 57 -40zM416 898l-129 -148h-121l98 148h152z" />
    <glyph glyph-name="sacute" unicode="&#x15b;" horiz-adv-x="510" 
d="M463 537l-84 -105q-11 15 -27 27q-14 10 -34 18.5t-48 8.5q-34 0 -50.5 -17t-16.5 -36q0 -28 32 -42t83 -29q28 -8 56.5 -22.5t51 -35.5t37 -48.5t14.5 -62.5q0 -48 -16.5 -86.5t-46.5 -65.5t-71.5 -41.5t-90.5 -14.5q-56 0 -97.5 12t-68.5 27q-33 17 -54 39l88 112
q12 -15 30 -26q14 -10 35.5 -17.5t49.5 -7.5q27 0 43.5 6t25.5 14t11.5 16.5t2.5 13.5q0 13 -4 21.5t-16.5 17t-36 17.5t-63.5 24q-27 10 -53.5 22t-48.5 30.5t-35.5 47t-13.5 70.5q0 40 17.5 74.5t47.5 59.5t69.5 39t84.5 14q48 0 85 -11.5t62 -25.5q29 -17 50 -37z
M366 802l-129 -148h-121l98 148h152z" />
    <glyph glyph-name="Scircumflex" unicode="&#x15c;" horiz-adv-x="580" 
d="M438 526q-30 33 -68.5 46.5t-72 10.5t-57 -21.5t-23.5 -49.5q0 -20 11.5 -34t31 -24t45.5 -18t56 -17q74 -22 111.5 -55t54.5 -64q19 -37 19 -76q0 -66 -24 -112t-61.5 -75t-84 -42t-91.5 -13q-63 0 -110 13t-79 29q-37 18 -63 43l94 120q24 -23 48 -34.5t44.5 -16
t36 -4.5h22.5t22.5 2t31.5 9.5t28.5 20.5t12.5 36q0 22 -8 35.5t-26 23t-46.5 19.5t-69.5 26q-40 15 -72.5 31t-55.5 38t-35.5 52.5t-12.5 75.5t19.5 84t53.5 68.5t80.5 46.5t101.5 17t96.5 -12.5t70.5 -27.5q33 -18 57 -40zM218 908h142l118 -158h-129l-60 80l-60 -80h-128
z" />
    <glyph glyph-name="scircumflex" unicode="&#x15d;" horiz-adv-x="510" 
d="M463 537l-84 -105q-11 15 -27 27q-14 10 -34 18.5t-48 8.5q-34 0 -50.5 -17t-16.5 -36q0 -28 32 -42t83 -29q28 -8 56.5 -22.5t51 -35.5t37 -48.5t14.5 -62.5q0 -48 -16.5 -86.5t-46.5 -65.5t-71.5 -41.5t-90.5 -14.5q-56 0 -97.5 12t-68.5 27q-33 17 -54 39l88 112
q12 -15 30 -26q14 -10 35.5 -17.5t49.5 -7.5q27 0 43.5 6t25.5 14t11.5 16.5t2.5 13.5q0 13 -4 21.5t-16.5 17t-36 17.5t-63.5 24q-27 10 -53.5 22t-48.5 30.5t-35.5 47t-13.5 70.5q0 40 17.5 74.5t47.5 59.5t69.5 39t84.5 14q48 0 85 -11.5t62 -25.5q29 -17 50 -37z
M188 802h142l118 -158h-129l-60 80l-60 -80h-128z" />
    <glyph glyph-name="Scedilla" unicode="&#x15e;" horiz-adv-x="580" 
d="M438 526q-30 33 -68.5 46.5t-72 10.5t-57 -21.5t-23.5 -49.5q0 -20 11.5 -34t31 -24t45.5 -18t56 -17q74 -22 111.5 -55t54.5 -64q19 -37 19 -76q0 -66 -24 -112t-61.5 -75t-84 -42t-91.5 -13q-63 0 -110 13t-79 29q-37 18 -63 43l94 120q24 -23 48 -34.5t44.5 -16
t36 -4.5h22.5t22.5 2t31.5 9.5t28.5 20.5t12.5 36q0 22 -8 35.5t-26 23t-46.5 19.5t-69.5 26q-40 15 -72.5 31t-55.5 38t-35.5 52.5t-12.5 75.5t19.5 84t53.5 68.5t80.5 46.5t101.5 17t96.5 -12.5t70.5 -27.5q33 -18 57 -40zM209 -153q16 -6 33 -10q14 -4 30 -7.5t28 -4.5
q29 -2 42 8t13 30q0 19 -18 25t-39 5q-26 -1 -57 -8l-25 25l55 90h60l-40 -60q70 19 106 -5t36 -75q0 -42 -31 -66t-88 -24q-29 0 -52.5 5.5t-40.5 12.5q-20 8 -36 18z" />
    <glyph glyph-name="scedilla" unicode="&#x15f;" horiz-adv-x="510" 
d="M463 537l-84 -105q-11 15 -27 27q-14 10 -34 18.5t-48 8.5q-34 0 -50.5 -17t-16.5 -36q0 -28 32 -42t83 -29q28 -8 56.5 -22.5t51 -35.5t37 -48.5t14.5 -62.5q0 -48 -16.5 -86.5t-46.5 -65.5t-71.5 -41.5t-90.5 -14.5q-56 0 -97.5 12t-68.5 27q-33 17 -54 39l88 112
q12 -15 30 -26q14 -10 35.5 -17.5t49.5 -7.5q27 0 43.5 6t25.5 14t11.5 16.5t2.5 13.5q0 13 -4 21.5t-16.5 17t-36 17.5t-63.5 24q-27 10 -53.5 22t-48.5 30.5t-35.5 47t-13.5 70.5q0 40 17.5 74.5t47.5 59.5t69.5 39t84.5 14q48 0 85 -11.5t62 -25.5q29 -17 50 -37z
M169 -153q16 -6 33 -10q14 -4 30 -7.5t28 -4.5q29 -2 42 8t13 30q0 19 -18 25t-39 5q-26 -1 -57 -8l-25 25l55 90h60l-40 -60q70 19 106 -5t36 -75q0 -42 -31 -66t-88 -24q-29 0 -52.5 5.5t-40.5 12.5q-20 8 -36 18z" />
    <glyph glyph-name="Scaron" unicode="&#x160;" horiz-adv-x="580" 
d="M111 918h128l60 -80l60 80h129l-118 -158h-142zM438 526q-30 33 -68.5 46.5t-72 10.5t-57 -21.5t-23.5 -49.5q0 -20 11.5 -34t31 -24t45.5 -18t56 -17q74 -22 111.5 -55t54.5 -64q19 -37 19 -76q0 -66 -24 -112t-61.5 -75t-84 -42t-91.5 -13q-63 0 -110 13t-79 29
q-37 18 -63 43l94 120q24 -23 48 -34.5t44.5 -16t36 -4.5h22.5t22.5 2t31.5 9.5t28.5 20.5t12.5 36q0 22 -8 35.5t-26 23t-46.5 19.5t-69.5 26q-40 15 -72.5 31t-55.5 38t-35.5 52.5t-12.5 75.5t19.5 84t53.5 68.5t80.5 46.5t101.5 17t96.5 -12.5t70.5 -27.5q33 -18 57 -40z
" />
    <glyph glyph-name="scaron" unicode="&#x161;" horiz-adv-x="505" 
d="M463 537l-84 -105q-11 15 -27 27q-14 10 -34 18.5t-48 8.5q-34 0 -50.5 -17t-16.5 -36q0 -28 32 -42t83 -29q28 -8 56.5 -22.5t51 -35.5t37 -48.5t14.5 -62.5q0 -48 -16.5 -86.5t-46.5 -65.5t-71.5 -41.5t-90.5 -14.5q-56 0 -97.5 12t-68.5 27q-33 17 -54 39l88 112
q12 -15 30 -26q14 -10 35.5 -17.5t49.5 -7.5q27 0 43.5 6t25.5 14t11.5 16.5t2.5 13.5q0 13 -4 21.5t-16.5 17t-36 17.5t-63.5 24q-27 10 -53.5 22t-48.5 30.5t-35.5 47t-13.5 70.5q0 40 17.5 74.5t47.5 59.5t69.5 39t84.5 14q48 0 85 -11.5t62 -25.5q29 -17 50 -37zM61 812
h128l60 -80l60 80h129l-118 -158h-142z" />
    <glyph glyph-name="uni0162" unicode="&#x162;" horiz-adv-x="540" 
d="M520 555h-175v-555h-150v555h-185l40 145h470v-145zM179 -153q16 -6 33 -10q14 -4 30 -7.5t28 -4.5q29 -2 42 8t13 30q0 19 -18 25t-39 5q-26 -1 -57 -8l-25 25l55 90h60l-40 -60q70 19 106 -5t36 -75q0 -42 -31 -66t-88 -24q-29 0 -52.5 5.5t-40.5 12.5q-20 8 -36 18z
" />
    <glyph glyph-name="uni0163" unicode="&#x163;" horiz-adv-x="470" 
d="M306 0h-141v461h-156l38 136h404v-136h-145v-461zM149 -153q16 -6 33 -10q14 -4 30 -7.5t28 -4.5q29 -2 42 8t13 30q0 19 -18 25t-39 5q-26 -1 -57 -8l-25 25l55 90h60l-40 -60q70 19 106 -5t36 -75q0 -42 -31 -66t-88 -24q-29 0 -52.5 5.5t-40.5 12.5q-20 8 -36 18z" />
    <glyph glyph-name="Tcaron" unicode="&#x164;" horiz-adv-x="540" 
d="M520 555h-175v-555h-150v555h-185l40 145h470v-145zM83 908h128l60 -80l60 80h129l-118 -158h-142z" />
    <glyph glyph-name="tcaron" unicode="&#x165;" horiz-adv-x="470" 
d="M306 0h-141v461h-156l38 136h404v-136h-145v-461zM51 812h128l60 -80l60 80h129l-118 -158h-142z" />
    <glyph glyph-name="Tbar" unicode="&#x166;" horiz-adv-x="540" 
d="M93 288v125h350v-125h-350zM520 555h-175v-555h-150v555h-185l40 145h470v-145z" />
    <glyph glyph-name="tbar" unicode="&#x167;" horiz-adv-x="470" 
d="M63 208v120h350v-120h-350zM306 0h-141v461h-156l38 136h404v-136h-145v-461z" />
    <glyph glyph-name="Utilde" unicode="&#x168;" horiz-adv-x="695" 
d="M342 -15q-41 0 -90.5 8.5t-92 34.5t-71 75.5t-28.5 131.5v465h156v-435q0 -38 13 -67q11 -26 37 -46.5t76 -20.5q55 0 83 20.5t40 46.5q14 29 14 67v435h156v-455q0 -86 -30.5 -137.5t-75 -78.5t-95.5 -35.5t-92 -8.5zM158 819q9 21 23 39q12 14 31.5 26.5t48.5 12.5
q26 0 48 -9t42 -20.5t38 -20.5t36 -9q16 0 29 9t23 20q11 12 20 29l31 -82q-10 -21 -25 -38q-13 -14 -33 -25.5t-46 -11.5q-25 0 -44 9.5t-37 20.5t-38 20.5t-48 9.5q-19 0 -31.5 -10t-20.5 -22q-10 -14 -16 -31l-31 83v0z" />
    <glyph glyph-name="utilde" unicode="&#x169;" horiz-adv-x="615" 
d="M200 597v-369q0 -20 5 -39t16 -33t30 -22.5t46 -8.5q30 0 51.5 8.5t35 22.5t20 32.5t6.5 39.5v369h145v-386q0 -40 -12.5 -80t-41.5 -72t-78 -52t-121 -20q-75 0 -122.5 19.5t-75.5 50t-38.5 69t-10.5 77.5v394h145zM118 714q9 21 23 39q12 14 31.5 26.5t48.5 12.5
q26 0 48 -9t42 -20.5t38 -20.5t36 -9q16 0 29 9t23 20q11 12 20 29l31 -82q-10 -21 -25 -38q-13 -14 -33 -25.5t-46 -11.5q-25 0 -44 9.5t-37 20.5t-38 20.5t-48 9.5q-19 0 -31.5 -10t-20.5 -22q-10 -14 -16 -31l-31 83v0z" />
    <glyph glyph-name="Umacron" unicode="&#x16a;" horiz-adv-x="695" 
d="M342 -15q-41 0 -90.5 8.5t-92 34.5t-71 75.5t-28.5 131.5v465h156v-435q0 -38 13 -67q11 -26 37 -46.5t76 -20.5q55 0 83 20.5t40 46.5q14 29 14 67v435h156v-455q0 -86 -30.5 -137.5t-75 -78.5t-95.5 -35.5t-92 -8.5zM188 758v85h310v-85h-310z" />
    <glyph glyph-name="umacron" unicode="&#x16b;" horiz-adv-x="615" 
d="M200 597v-369q0 -20 5 -39t16 -33t30 -22.5t46 -8.5q30 0 51.5 8.5t35 22.5t20 32.5t6.5 39.5v369h145v-386q0 -40 -12.5 -80t-41.5 -72t-78 -52t-121 -20q-75 0 -122.5 19.5t-75.5 50t-38.5 69t-10.5 77.5v394h145zM148 668v85h310v-85h-310z" />
    <glyph glyph-name="Ubreve" unicode="&#x16c;" horiz-adv-x="695" 
d="M342 -15q-41 0 -90.5 8.5t-92 34.5t-71 75.5t-28.5 131.5v465h156v-435q0 -38 13 -67q11 -26 37 -46.5t76 -20.5q55 0 83 20.5t40 46.5q14 29 14 67v435h156v-455q0 -86 -30.5 -137.5t-75 -78.5t-95.5 -35.5t-92 -8.5zM245 899q1 -21 12 -38q9 -14 29.5 -25.5t58.5 -11.5
t57.5 11.5t29.5 25.5q11 17 13 38h75q-3 -42 -22 -75q-17 -29 -52.5 -52t-100.5 -23q-66 0 -101 23t-52 52q-19 33 -22 75h75z" />
    <glyph glyph-name="ubreve" unicode="&#x16d;" horiz-adv-x="615" 
d="M200 597v-369q0 -20 5 -39t16 -33t30 -22.5t46 -8.5q30 0 51.5 8.5t35 22.5t20 32.5t6.5 39.5v369h145v-386q0 -40 -12.5 -80t-41.5 -72t-78 -52t-121 -20q-75 0 -122.5 19.5t-75.5 50t-38.5 69t-10.5 77.5v394h145zM203 791q1 -21 12 -38q9 -14 29.5 -25.5t58.5 -11.5
t57.5 11.5t29.5 25.5q11 17 13 38h75q-3 -42 -22 -75q-17 -29 -52.5 -52t-100.5 -23q-66 0 -101 23t-52 52q-19 33 -22 75h75z" />
    <glyph glyph-name="Uring" unicode="&#x16e;" horiz-adv-x="695" 
d="M342 -15q-41 0 -90.5 8.5t-92 34.5t-71 75.5t-28.5 131.5v465h156v-435q0 -38 13 -67q11 -26 37 -46.5t76 -20.5q55 0 83 20.5t40 46.5q14 29 14 67v435h156v-455q0 -86 -30.5 -137.5t-75 -78.5t-95.5 -35.5t-92 -8.5zM345 880q-21 0 -35 -14.5t-14 -34.5
q0 -21 14.5 -34.5t34.5 -13.5t34 14t14 34t-14 34.5t-34 14.5zM345 724q-23 0 -42.5 8t-34 22.5t-23 34t-8.5 42.5q0 22 8.5 42t23 34.5t34 23t42.5 8.5q22 0 41.5 -8.5t34 -23.5t23 -34.5t8.5 -41.5q0 -23 -8.5 -42.5t-23 -33.5t-34 -22.5t-41.5 -8.5z" />
    <glyph glyph-name="uring" unicode="&#x16f;" horiz-adv-x="615" 
d="M200 597v-369q0 -20 5 -39t16 -33t30 -22.5t46 -8.5q30 0 51.5 8.5t35 22.5t20 32.5t6.5 39.5v369h145v-386q0 -40 -12.5 -80t-41.5 -72t-78 -52t-121 -20q-75 0 -122.5 19.5t-75.5 50t-38.5 69t-10.5 77.5v394h145zM301 800q-21 0 -35 -14.5t-14 -34.5q0 -21 14.5 -34.5
t34.5 -13.5t34 14t14 34t-14 34.5t-34 14.5zM301 644q-23 0 -42.5 8t-34 22.5t-23 34t-8.5 42.5q0 22 8.5 42t23 34.5t34 23t42.5 8.5q22 0 41.5 -8.5t34 -23.5t23 -34.5t8.5 -41.5q0 -23 -8.5 -42.5t-23 -33.5t-34 -22.5t-41.5 -8.5z" />
    <glyph glyph-name="Uhungarumlaut" unicode="&#x170;" horiz-adv-x="695" 
d="M342 -15q-41 0 -90.5 8.5t-92 34.5t-71 75.5t-28.5 131.5v465h156v-435q0 -38 13 -67q11 -26 37 -46.5t76 -20.5q55 0 83 20.5t40 46.5q14 29 14 67v435h156v-455q0 -86 -30.5 -137.5t-75 -78.5t-95.5 -35.5t-92 -8.5zM194 755l38 148h136l-88 -148h-86zM369 755l66 148
h142l-115 -148h-93z" />
    <glyph glyph-name="uhungarumlaut" unicode="&#x171;" horiz-adv-x="615" 
d="M200 597v-369q0 -20 5 -39t16 -33t30 -22.5t46 -8.5q30 0 51.5 8.5t35 22.5t20 32.5t6.5 39.5v369h145v-386q0 -40 -12.5 -80t-41.5 -72t-78 -52t-121 -20q-75 0 -122.5 19.5t-75.5 50t-38.5 69t-10.5 77.5v394h145zM144 645l38 148h136l-88 -148h-86zM319 645l66 148
h142l-115 -148h-93z" />
    <glyph glyph-name="Uogonek" unicode="&#x172;" horiz-adv-x="695" 
d="M342 -15q-41 0 -90.5 8.5t-92 34.5t-71 75.5t-28.5 131.5v465h156v-435q0 -38 13 -67q11 -26 37 -46.5t76 -20.5q55 0 83 20.5t40 46.5q14 29 14 67v435h156v-455q0 -86 -30.5 -137.5t-75 -78.5t-95.5 -35.5t-92 -8.5zM448 -2q-19 -4 -43.5 -10.5t-46 -18t-36.5 -29.5
t-15 -45q0 -16 8 -33.5t30 -17.5q24 0 52.5 8.5t57.5 22.5l20 -50q-34 -24 -72 -37.5t-80 -13.5q-22 0 -41.5 8.5t-34.5 23t-23.5 35t-8.5 44.5q0 42 22 69t56 43.5t75 24.5t80 12v-36z" />
    <glyph glyph-name="uogonek" unicode="&#x173;" horiz-adv-x="615" 
d="M200 597v-369q0 -20 5 -39t16 -33t30 -22.5t46 -8.5q30 0 51.5 8.5t35 22.5t20 32.5t6.5 39.5v369h145v-386q0 -40 -12.5 -80t-41.5 -72t-78 -52t-121 -20q-75 0 -122.5 19.5t-75.5 50t-38.5 69t-10.5 77.5v394h145zM422 5q-19 -4 -43.5 -10.5t-46 -18t-36.5 -29.5
t-15 -45q0 -16 8 -33.5t30 -17.5q24 0 52.5 8.5t57.5 22.5l20 -50q-34 -24 -72 -37.5t-80 -13.5q-22 0 -41.5 8.5t-34.5 23t-23.5 35t-8.5 44.5q0 42 22 69t56 43.5t75 24.5t80 12v-36z" />
    <glyph glyph-name="Ydieresis" unicode="&#x178;" 
d="M535 824q0 -31 -22 -53t-53 -22t-53 22t-22 53t22 53t53 22t53 -22t22 -53zM285 824q0 -31 -22 -53t-53 -22t-53 22t-22 53t22 53t53 22t53 -22t22 -53zM630 700l-303 -700h-163l115 265l-268 435h176l162 -273l118 273h163z" />
    <glyph glyph-name="Zacute" unicode="&#x179;" horiz-adv-x="680" 
d="M656 140l-40 -140h-592l356 560h-344l40 140h568l-358 -560h370zM466 898l-129 -148h-121l98 148h152z" />
    <glyph glyph-name="zacute" unicode="&#x17a;" horiz-adv-x="595" 
d="M534 0h-512l296 465h-282l38 132h492l-297 -465h303zM406 802l-129 -148h-121l98 148h152z" />
    <glyph glyph-name="Zdotaccent" unicode="&#x17b;" horiz-adv-x="680" 
d="M656 140l-40 -140h-592l356 560h-344l40 140h568l-358 -560h370zM410 817q0 -34 -23.5 -57t-56.5 -23t-56.5 23t-23.5 57q0 33 23.5 56.5t56.5 23.5t56.5 -23.5t23.5 -56.5z" />
    <glyph glyph-name="zdotaccent" unicode="&#x17c;" horiz-adv-x="595" 
d="M534 0h-512l296 465h-282l38 132h492l-297 -465h303zM380 731q0 -34 -23.5 -57t-56.5 -23t-56.5 23t-23.5 57q0 33 23.5 56.5t56.5 23.5t56.5 -23.5t23.5 -56.5z" />
    <glyph glyph-name="Zcaron" unicode="&#x17d;" horiz-adv-x="680" 
d="M180 908h128l60 -80l60 80h129l-118 -158h-142zM656 140l-40 -140h-592l356 560h-344l40 140h568l-358 -560h370z" />
    <glyph glyph-name="zcaron" unicode="&#x17e;" horiz-adv-x="595" 
d="M534 0h-512l296 465h-282l38 132h492l-297 -465h303zM120 802h128l60 -80l60 80h129l-118 -158h-142z" />
    <glyph glyph-name="circumflex" unicode="&#x2c6;" horiz-adv-x="280" 
d="M68 752h142l118 -158h-129l-60 80l-60 -80h-128z" />
    <glyph glyph-name="caron" unicode="&#x2c7;" horiz-adv-x="280" 
d="M-49 752h128l60 -80l60 80h129l-118 -158h-142z" />
    <glyph glyph-name="breve" unicode="&#x2d8;" horiz-adv-x="310" 
d="M55 743q1 -21 12 -38q9 -14 29.5 -25.5t58.5 -11.5t57.5 11.5t29.5 25.5q11 17 13 38h75q-3 -42 -22 -75q-17 -29 -52.5 -52t-100.5 -23q-66 0 -101 23t-52 52q-19 33 -22 75h75z" />
    <glyph glyph-name="dotaccent" unicode="&#x2d9;" horiz-adv-x="460" 
d="M310 661q0 -34 -23.5 -57t-56.5 -23t-56.5 23t-23.5 57q0 33 23.5 56.5t56.5 23.5t56.5 -23.5t23.5 -56.5z" />
    <glyph glyph-name="ring" unicode="&#x2da;" horiz-adv-x="270" 
d="M136 750q-21 0 -35 -14.5t-14 -34.5q0 -21 14.5 -34.5t34.5 -13.5t34 14t14 34t-14 34.5t-34 14.5zM136 594q-23 0 -42.5 8t-34 22.5t-23 34t-8.5 42.5q0 22 8.5 42t23 34.5t34 23t42.5 8.5q22 0 41.5 -8.5t34 -23.5t23 -34.5t8.5 -41.5q0 -23 -8.5 -42.5t-23 -33.5
t-34 -22.5t-41.5 -8.5z" />
    <glyph glyph-name="ogonek" unicode="&#x2db;" horiz-adv-x="275" 
d="M258 0q-19 -4 -43.5 -10.5t-46 -18t-36.5 -29.5t-15 -45q0 -16 8 -33.5t30 -17.5q24 0 52.5 8.5t57.5 22.5l20 -50q-34 -24 -72 -37.5t-80 -13.5q-22 0 -41.5 8.5t-34.5 23t-23.5 35t-8.5 44.5q0 42 22 69t56 43.5t75 24.5t80 12v-36z" />
    <glyph glyph-name="tilde" unicode="&#x2dc;" horiz-adv-x="310" 
d="M-28 659q9 21 23 39q12 14 31.5 26.5t48.5 12.5q26 0 48 -9t42 -20.5t38 -20.5t36 -9q16 0 29 9t23 20q11 12 20 29l31 -82q-10 -21 -25 -38q-13 -14 -33 -25.5t-46 -11.5q-25 0 -44 9.5t-37 20.5t-38 20.5t-48 9.5q-19 0 -31.5 -10t-20.5 -22q-10 -14 -16 -31l-31 83v0z
" />
    <glyph glyph-name="hungarumlaut" unicode="&#x2dd;" horiz-adv-x="280" 
d="M-26 599l38 148h136l-88 -148h-86zM149 599l66 148h142l-115 -148h-93z" />
    <glyph glyph-name="tonos" unicode="&#x384;" horiz-adv-x="260" 
d="M192 545h-125v165h125v-165v0z" />
    <glyph glyph-name="dieresistonos" unicode="&#x385;" horiz-adv-x="400" 
d="M400 718q0 -31 -22 -53t-53 -22t-53 22t-22 53t22 53t53 22t53 -22t22 -53zM150 718q0 -31 -22 -53t-53 -22t-53 22t-22 53t22 53t53 22t53 -22t22 -53zM386 944l-129 -148h-121l98 148h152z" />
    <glyph glyph-name="Alphatonos" unicode="&#x386;" 
d="M476 0l-44 140h-224l-44 -140h-161l243 700h148l243 -700h-161zM246 260h148l-74 233zM227 744l-129 -148h-121l98 148h152z" />
    <glyph glyph-name="Epsilontonos" unicode="&#x388;" horiz-adv-x="635" 
d="M610 140l-40 -140h-400v700h385l40 -140h-275v-135h190v-140h-190v-145h290zM187 744l-129 -148h-121l98 148h152z" />
    <glyph glyph-name="Etatonos" unicode="&#x389;" horiz-adv-x="810" 
d="M747 700v-700h-150v292h-265v-292h-150v700h150v-278h265v278h150zM187 744l-129 -148h-121l98 148h152z" />
    <glyph glyph-name="Iotatonos" unicode="&#x38a;" horiz-adv-x="395" 
d="M332 0h-150v700h150v-700zM187 744l-129 -148h-121l98 148h152z" />
    <glyph glyph-name="Omicrontonos" unicode="&#x38c;" horiz-adv-x="800" 
d="M400 717q76 0 143.5 -28.5t118 -78t79.5 -116t29 -142.5t-29 -142.5t-79.5 -116t-118 -78t-143.5 -28.5q-77 0 -144.5 28.5t-117.5 78t-79 116t-29 142.5t29 142.5t79 116t117.5 78t144.5 28.5zM400 132q44 0 83 17t68.5 47t46.5 70t17 86t-17 86t-46.5 70t-68.5 47
t-83 17q-45 0 -84 -17t-68 -47t-46 -70t-17 -86t17 -86t46 -70t68 -47t84 -17zM187 744l-129 -148h-121l98 148h152z" />
    <glyph glyph-name="Upsilontonos" unicode="&#x38e;" horiz-adv-x="800" 
d="M790 700l-303 -700h-163l115 265l-268 435h176l162 -273l118 273h163zM187 744l-129 -148h-121l98 148h152z" />
    <glyph glyph-name="Omegatonos" unicode="&#x38f;" horiz-adv-x="830" 
d="M812 130l-37 -130h-303v175q36 7 66 25t52.5 44t35 59t12.5 70q0 42 -16.5 78.5t-44.5 64t-65.5 43.5t-80.5 16t-81 -16t-66 -43.5t-44.5 -64t-16.5 -78.5q0 -35 11 -66t31 -56.5t47.5 -44t59.5 -27.5v-179h-288l-37 130h173q-67 42 -106.5 106.5t-39.5 148.5
q0 70 28 131t76.5 106.5t113.5 72t139 26.5t139 -26.5t113 -72t76 -106.5t28 -131q0 -83 -39.5 -148t-105.5 -107h170zM227 744l-129 -148h-121l98 148h152z" />
    <glyph glyph-name="iotadieresistonos" unicode="&#x390;" horiz-adv-x="260" 
d="M200 0h-140v597h140v-597zM331 718q0 -31 -22 -53t-53 -22t-53 22t-22 53t22 53t53 22t53 -22t22 -53zM81 718q0 -31 -22 -53t-53 -22t-53 22t-22 53t22 53t53 22t53 -22t22 -53zM316 942l-129 -148h-121l98 148h152z" />
    <glyph glyph-name="Alpha" unicode="&#x391;" 
d="M476 0l-44 140h-224l-44 -140h-161l243 700h148l243 -700h-161zM246 260h148l-74 233z" />
    <glyph glyph-name="Beta" unicode="&#x392;" horiz-adv-x="560" 
d="M392 368q38 -10 69 -32q26 -19 48 -52.5t22 -88.5q0 -91 -66 -143t-198 -52h-215v700h195q52 0 99.5 -9.5t83.5 -32t57.5 -60.5t21.5 -95q0 -25 -11.5 -49.5t-28.5 -43.5t-37.5 -30.5t-39.5 -11.5zM202 572v-157h65q38 0 61.5 20.5t23.5 54.5q0 26 -10.5 42t-25.5 25
t-32.5 12t-30.5 3h-51zM261 128q19 0 38.5 4t35.5 14t26.5 25.5t10.5 38.5q0 21 -9.5 36.5t-24.5 26.5t-33.5 16.5t-37.5 5.5h-65v-167h59z" />
    <glyph glyph-name="Gamma" unicode="&#x393;" horiz-adv-x="495" 
d="M485 560h-275v-560h-150v700h385z" />
    <glyph glyph-name="uni0394" unicode="&#x394;" horiz-adv-x="740" 
d="M731 0h-722l361 738l361 -738v0zM231 130h278l-139 312l-139 -312v0z" />
    <glyph glyph-name="Epsilon" unicode="&#x395;" horiz-adv-x="535" 
d="M500 140l-40 -140h-400v700h385l40 -140h-275v-135h190v-140h-190v-145h290z" />
    <glyph glyph-name="Zeta" unicode="&#x396;" horiz-adv-x="680" 
d="M656 140l-40 -140h-592l356 560h-344l40 140h568l-358 -560h370z" />
    <glyph glyph-name="Eta" unicode="&#x397;" horiz-adv-x="690" 
d="M627 700v-700h-150v292h-265v-292h-150v700h150v-278h265v278h150z" />
    <glyph glyph-name="Theta" unicode="&#x398;" horiz-adv-x="800" 
d="M400 715q76 0 143.5 -28.5t118 -78t79.5 -116t29 -142.5t-29 -142.5t-79.5 -116t-118 -78t-143.5 -28.5q-77 0 -144 28.5t-117.5 78t-79.5 116t-29 142.5t29 142.5t79.5 116t117.5 78t144 28.5zM400 130q45 0 84 17t68 47t46 70t17 86t-17 86t-46 70t-68 47t-84 17
t-84 -17t-68 -47t-46 -70t-17 -86t17 -86t46 -70t68 -47t84 -17zM570 287h-350v125h350v-125z" />
    <glyph glyph-name="Iota" unicode="&#x399;" horiz-adv-x="275" 
d="M212 0h-150v700h150v-700z" />
    <glyph glyph-name="Kappa" unicode="&#x39a;" 
d="M629 0h-182l-237 322v-322h-150v700h150v-337l232 337h180l-254 -354z" />
    <glyph glyph-name="Lambda" unicode="&#x39b;" horiz-adv-x="670" 
d="M652 0.0429688l-243 699.957h-148l-244 -699.957h162l156 492.97l156 -492.97h161z" />
    <glyph glyph-name="Mu" unicode="&#x39c;" horiz-adv-x="805" 
d="M134 700h144l124 -450l123 450h145l120 -700h-154l-57 355l-99 -355h-157l-99 355l-56 -355h-153z" />
    <glyph glyph-name="Nu" unicode="&#x39d;" horiz-adv-x="745" 
d="M685 700v-700h-164l-311 472v-472h-150v700h150l325 -479v479h150z" />
    <glyph glyph-name="Xi" unicode="&#x39e;" horiz-adv-x="695" 
d="M82 700h523v-140h-563zM70 140h582l-40 -140h-542v140zM215 400h255v-140h-255v140z" />
    <glyph glyph-name="Omicron" unicode="&#x39f;" horiz-adv-x="800" 
d="M400 717q76 0 143.5 -28.5t118 -78t79.5 -116t29 -142.5t-29 -142.5t-79.5 -116t-118 -78t-143.5 -28.5q-77 0 -144.5 28.5t-117.5 78t-79 116t-29 142.5t29 142.5t79 116t117.5 78t144.5 28.5zM400 132q44 0 83 17t68.5 47t46.5 70t17 86t-17 86t-46.5 70t-68.5 47
t-83 17q-45 0 -84 -17t-68 -47t-46 -70t-17 -86t17 -86t46 -70t68 -47t84 -17z" />
    <glyph glyph-name="Pi" unicode="&#x3a0;" horiz-adv-x="725" 
d="M665 700v-700h-150v560h-305v-560h-150l-1 700h1h604h1z" />
    <glyph glyph-name="Rho" unicode="&#x3a1;" horiz-adv-x="560" 
d="M280 700q46 0 92.5 -10.5t84 -36.5t60.5 -69t23 -109q0 -54 -21.5 -95t-57 -69t-80.5 -42t-91 -14h-80v-255h-150v700h220zM265 390q15 0 36 2t39.5 10.5t31.5 25.5t13 47t-13 47t-31.5 25.5t-39.5 10.5t-36 2h-55v-170h55z" />
    <glyph glyph-name="Sigma" unicode="&#x3a3;" horiz-adv-x="665" 
d="M626 140l-40 -140h-572l281 374l-261 326h542l40 -140h-297l137 -184l-168 -236h338z" />
    <glyph glyph-name="Tau" unicode="&#x3a4;" horiz-adv-x="540" 
d="M520 555h-175v-555h-150v555h-185l40 145h470v-145z" />
    <glyph glyph-name="Upsilon" unicode="&#x3a5;" 
d="M630 700l-303 -700h-163l115 265l-268 435h176l162 -273l118 273h163z" />
    <glyph glyph-name="Phi" unicode="&#x3a6;" horiz-adv-x="855" 
d="M828 353q0 -68 -25.5 -116.5t-70 -81t-104.5 -49.5t-130 -20v-86h-140v81q-69 4 -129.5 21.5t-105 50.5t-70 82.5t-25.5 117.5q0 67 25.5 115.5t70 81t105 49.5t129.5 20v81h140v-81q70 -3 130 -20t104.5 -49.5t70 -81t25.5 -115.5zM183 353q0 -39 13.5 -64.5t37 -41
t55.5 -22.5t69 -9v268q-37 -2 -69 -8t-55.5 -20t-37 -39t-13.5 -64zM498 216q37 2 69.5 9t55.5 22.5t36.5 41t13.5 64.5t-13.5 64t-36.5 39t-55.5 20t-69.5 8v-268z" />
    <glyph glyph-name="Chi" unicode="&#x3a7;" horiz-adv-x="725" 
d="M523 0l-161 246l-161 -246h-182l254 369l-229 331h182l136 -203l135 203h182l-228 -331l254 -369h-182z" />
    <glyph glyph-name="Psi" unicode="&#x3a8;" horiz-adv-x="833" 
d="M777 700v-285q0 -86 -30.5 -139t-75 -82t-95.5 -39t-92 -10h-2v-145h-140v145h-5q-41 0 -90.5 10t-92 38t-71 79t-28.5 133v295h156v-275q0 -40 13 -72q11 -27 37 -49.5t76 -22.5h5v419h140v-419h2q55 0 83 22.5t40 49.5q14 32 14 72v275h156z" />
    <glyph glyph-name="uni03A9" unicode="&#x3a9;" horiz-adv-x="820" 
d="M792 130l-37 -130h-303v175q36 7 66 25t52.5 44t35 59t12.5 70q0 42 -16.5 78.5t-44.5 64t-65.5 43.5t-80.5 16t-81 -16t-66 -43.5t-44.5 -64t-16.5 -78.5q0 -35 11 -66t31 -56.5t47.5 -44t59.5 -27.5v-179h-288l-37 130h173q-67 42 -106.5 106.5t-39.5 148.5
q0 70 28 131t76.5 106.5t113.5 72t139 26.5t139 -26.5t113 -72t76 -106.5t28 -131q0 -83 -39.5 -148t-105.5 -107h170z" />
    <glyph glyph-name="Iotadieresis" unicode="&#x3aa;" horiz-adv-x="275" 
d="M334 824q0 -31 -22 -53t-53 -22t-53 22t-22 53t22 53t53 22t53 -22t22 -53zM84 824q0 -31 -22 -53t-53 -22t-53 22t-22 53t22 53t53 22t53 -22t22 -53zM212 0h-150v700h150v-700z" />
    <glyph glyph-name="Upsilondieresis" unicode="&#x3ab;" 
d="M535 824q0 -31 -22 -53t-53 -22t-53 22t-22 53t22 53t53 22t53 -22t22 -53zM285 824q0 -31 -22 -53t-53 -22t-53 22t-22 53t22 53t53 22t53 -22t22 -53zM630 700l-303 -700h-163l115 265l-268 435h176l162 -273l118 273h163z" />
    <glyph glyph-name="alphatonos" unicode="&#x3ac;" horiz-adv-x="555" 
d="M401 0l-36 116h-174l-37 -116h-151l207 597h135l207 -597h-151zM328 232l-50 158l-51 -158h101zM406 792l-129 -148h-121l98 148h152z" />
    <glyph glyph-name="epsilontonos" unicode="&#x3ad;" horiz-adv-x="480" 
d="M406 0h-346v597h333l38 -132h-231v-96h158v-132h-158v-105h243zM366 792l-129 -148h-121l98 148h152z" />
    <glyph glyph-name="etatonos" unicode="&#x3ae;" horiz-adv-x="605" 
d="M545 0h-141v242h-204v-242h-140v597h140v-231h204v231h141v-597v0zM416 792l-129 -148h-121l98 148h152z" />
    <glyph glyph-name="iotatonos" unicode="&#x3af;" horiz-adv-x="260" 
d="M200 0h-140v597h140v-597zM286 792l-129 -148h-121l98 148h152z" />
    <glyph glyph-name="upsilondieresistonos" unicode="&#x3b0;" horiz-adv-x="565" 
d="M292 0h-153l99 228l-228 369h165l129 -217l94 217h152zM505 718q0 -31 -22 -53t-53 -22t-53 22t-22 53t22 53t53 22t53 -22t22 -53zM255 718q0 -31 -22 -53t-53 -22t-53 22t-22 53t22 53t53 22t53 -22t22 -53zM496 942l-129 -148h-121l98 148h152z" />
    <glyph glyph-name="alpha" unicode="&#x3b1;" horiz-adv-x="555" 
d="M401 0l-36 116h-174l-37 -116h-151l207 597h135l207 -597h-151zM328 232l-50 158l-51 -158h101z" />
    <glyph glyph-name="beta" unicode="&#x3b2;" horiz-adv-x="490" 
d="M369 312q26 -11 47 -30q17 -17 32 -43.5t15 -68.5q0 -56 -24.5 -89.5t-60 -51.5t-74.5 -23.5t-68 -5.5h-186v597h169q105 0 165.5 -41.5t60.5 -126.5q0 -31 -12 -53t-26 -36q-17 -17 -38 -28zM190 360h41q29 0 48.5 15t19.5 41q0 10 -3.5 20.5t-12 19t-23 14t-35.5 5.5
h-35v-115zM231 122q16 0 31 3.5t27 10.5t19 18.5t7 27.5q0 9 -4 20t-13.5 20.5t-24.5 16t-37 6.5h-46v-123h41z" />
    <glyph glyph-name="gamma" unicode="&#x3b3;" horiz-adv-x="470" 
d="M208 457v-457h-148v597h360l40 -140h-252z" />
    <glyph glyph-name="delta" unicode="&#x3b4;" horiz-adv-x="590" 
d="M577 0h-574l292 614l282 -614v0zM193 120h197l-97 230l-100 -230v0z" />
    <glyph glyph-name="epsilon" unicode="&#x3b5;" horiz-adv-x="480" 
d="M406 0h-346v597h333l38 -132h-231v-96h158v-132h-158v-105h243z" />
    <glyph glyph-name="zeta" unicode="&#x3b6;" horiz-adv-x="595" 
d="M534 0h-512l296 465h-282l38 132h492l-297 -465h303z" />
    <glyph glyph-name="eta" unicode="&#x3b7;" horiz-adv-x="605" 
d="M545 0h-141v242h-204v-242h-140v597h140v-231h204v231h141v-597v0z" />
    <glyph glyph-name="theta" unicode="&#x3b8;" horiz-adv-x="685" 
d="M457 236h-230v125h230v-125zM342 611q65 0 122.5 -24.5t100 -66.5t67.5 -99t25 -121q0 -65 -25 -121.5t-67.5 -98.5t-100 -66.5t-122.5 -24.5t-122.5 24.5t-100.5 66.5t-67.5 98.5t-24.5 121.5q0 64 24.5 121t67.5 99t100.5 66.5t122.5 24.5zM342 125q35 0 66 13.5
t54 37.5t36.5 56t13.5 68t-13.5 68t-36.5 56t-54 37.5t-66 13.5t-66 -13.5t-54 -37.5t-36.5 -56t-13.5 -68t13.5 -68t36.5 -56t54 -37.5t66 -13.5z" />
    <glyph glyph-name="iota" unicode="&#x3b9;" horiz-adv-x="260" 
d="M200 0h-140v597h140v-597z" />
    <glyph glyph-name="kappa" unicode="&#x3ba;" horiz-adv-x="565" 
d="M332 296l223 -296h-172l-184 251v-251h-141v597h141v-262l180 262h169z" />
    <glyph glyph-name="lambda" unicode="&#x3bb;" horiz-adv-x="555" 
d="M401 0l-123 390l-124 -390h-151l207 597h135l207 -597h-151v0z" />
    <glyph glyph-name="uni03BC" unicode="&#x3bc;" horiz-adv-x="685" 
d="M674 0h-141l-44 280l-78 -280h-137l-78 280l-44 -280h-140l101 597h133l97 -366l96 366h133l102 -597v0z" />
    <glyph glyph-name="nu" unicode="&#x3bd;" horiz-adv-x="650" 
d="M592 0h-148l-246 373v-373h-140v597h136l258 -379v379h140v-597z" />
    <glyph glyph-name="xi" unicode="&#x3be;" horiz-adv-x="630" 
d="M80 597h463v-140h-503zM68 140h522l-40 -140h-482v140zM203 373h215v-140h-215v140z" />
    <glyph glyph-name="omicron" unicode="&#x3bf;" horiz-adv-x="690" 
d="M345 612q65 0 122.5 -24.5t100 -66.5t67.5 -99t25 -121q0 -65 -25 -121.5t-67.5 -98.5t-100 -66.5t-122.5 -24.5t-122.5 24.5t-100.5 66.5t-67.5 98.5t-24.5 121.5q0 64 24.5 121t67.5 99t100.5 66.5t122.5 24.5zM345 126q35 0 66 13.5t54 37.5t36.5 56t13.5 68t-13.5 68
t-36.5 55.5t-54 37.5t-66 14t-66 -14t-54 -37.5t-36.5 -55.5t-13.5 -68t13.5 -68t36.5 -56t54 -37.5t66 -13.5z" />
    <glyph glyph-name="pi" unicode="&#x3c0;" horiz-adv-x="665" 
d="M610 597v-1v-596h-150v457h-254v-457h-150l-1 597h555z" />
    <glyph glyph-name="rho" unicode="&#x3c1;" horiz-adv-x="495" 
d="M251 597q27 0 65.5 -6.5t73.5 -27t59.5 -59t24.5 -102.5q0 -44 -17 -79t-46.5 -60t-68.5 -38t-83 -13h-59v-212h-140v597h191zM238 340q9 0 24.5 0.5t30.5 6t26 18t11 37.5t-11.5 38t-26.5 18.5t-30.5 6t-23.5 0.5h-38v-125h38z" />
    <glyph glyph-name="sigma1" unicode="&#x3c2;" horiz-adv-x="495" 
d="M251 597q27 0 65.5 -6.5t73.5 -27t59.5 -59t24.5 -102.5q0 -44 -17 -79t-46.5 -60t-68.5 -38t-83 -13h-59v-212h-140v597h191zM238 340q9 0 24.5 0.5t30.5 6t26 18t11 37.5t-11.5 38t-26.5 18.5t-30.5 6t-23.5 0.5h-38v-125h38z" />
    <glyph glyph-name="sigma" unicode="&#x3c3;" horiz-adv-x="629" 
d="M552 0h-539l247 312l-229 285h511l40 -139h-268l107 -144l-124 -174h295z" />
    <glyph glyph-name="tau" unicode="&#x3c4;" horiz-adv-x="470" 
d="M306 0h-141v461h-156l38 136h404v-136h-145v-461z" />
    <glyph glyph-name="upsilon" unicode="&#x3c5;" horiz-adv-x="560" 
d="M292 0h-153l99 228l-228 369h165l129 -217l94 217h152z" />
    <glyph glyph-name="phi" unicode="&#x3c6;" horiz-adv-x="735" 
d="M709 301q0 -58 -20.5 -100t-57.5 -70t-87 -42.5t-110 -17.5v-71h-133v67q-59 3 -109.5 18.5t-87.5 44t-57.5 71t-20.5 100.5q0 57 20.5 99t57.5 70t87.5 42.5t109.5 17.5v67h133v-67q60 -3 110 -17.5t87 -42.5t57.5 -70t20.5 -99zM303 401q-32 -2 -55.5 -5t-38.5 -13
t-22.5 -29.5t-7.5 -52.5t7.5 -53t22.5 -31t38.5 -15.5t55.5 -5.5v205zM432 196q32 1 56.5 5.5t40.5 15.5t24 31t8 53t-8 52.5t-24 29.5t-40.5 13t-56.5 5v-205z" />
    <glyph glyph-name="chi" unicode="&#x3c7;" horiz-adv-x="630" 
d="M615 0h-170l-130 197l-130 -197h-170l216 314l-195 283h171l108 -162l108 162h171l-195 -283z" />
    <glyph glyph-name="psi" unicode="&#x3c8;" horiz-adv-x="735" 
d="M680 597v-243q0 -73 -25 -118t-62.5 -70t-80.5 -33.5t-78 -8.5h-2v-124h-138v124h-5q-35 0 -76 8.5t-76.5 32.5t-59 67t-23.5 113v252h148v-225q0 -11 1.5 -31t9.5 -39t25 -33t49 -14h7v342h138v-342h4q37 0 56.5 14t28.5 33t10 39t1 31v225h148z" />
    <glyph glyph-name="omega" unicode="&#x3c9;" horiz-adv-x="705" 
d="M679 127l-36 -126h-255v169q55 11 90 52t35 98q0 32 -12.5 59.5t-34 48t-50.5 32.5t-62 12t-62 -12t-50.5 -32.5t-34 -48.5t-12.5 -60q0 -26 8 -50t22.5 -43.5t34.5 -33.5t44 -21v-170h-240l-37 126h129q-48 35 -77 83t-29 119q0 59 24 111t65 91t96.5 61.5t118.5 22.5
t118 -22.5t96.5 -61.5t65 -91t23.5 -111q0 -69 -29 -118t-76 -84h127z" />
    <glyph glyph-name="iotadieresis" unicode="&#x3ca;" horiz-adv-x="260" 
d="M200 0h-140v597h140v-597zM331 718q0 -31 -22 -53t-53 -22t-53 22t-22 53t22 53t53 22t53 -22t22 -53zM81 718q0 -31 -22 -53t-53 -22t-53 22t-22 53t22 53t53 22t53 -22t22 -53z" />
    <glyph glyph-name="upsilondieresis" unicode="&#x3cb;" horiz-adv-x="565" 
d="M292 0h-153l99 228l-228 369h165l129 -217l94 217h152zM505 718q0 -31 -22 -53t-53 -22t-53 22t-22 53t22 53t53 22t53 -22t22 -53zM255 718q0 -31 -22 -53t-53 -22t-53 22t-22 53t22 53t53 22t53 -22t22 -53z" />
    <glyph glyph-name="omicrontonos" unicode="&#x3cc;" horiz-adv-x="690" 
d="M345 612q65 0 122.5 -24.5t100 -66.5t67.5 -99t25 -121q0 -65 -25 -121.5t-67.5 -98.5t-100 -66.5t-122.5 -24.5t-122.5 24.5t-100.5 66.5t-67.5 98.5t-24.5 121.5q0 64 24.5 121t67.5 99t100.5 66.5t122.5 24.5zM345 126q35 0 66 13.5t54 37.5t36.5 56t13.5 68t-13.5 68
t-36.5 55.5t-54 37.5t-66 14t-66 -14t-54 -37.5t-36.5 -55.5t-13.5 -68t13.5 -68t36.5 -56t54 -37.5t66 -13.5zM446 792l-129 -148h-121l98 148h152z" />
    <glyph glyph-name="upsilontonos" unicode="&#x3cd;" horiz-adv-x="560" 
d="M292 0h-153l99 228l-228 369h165l129 -217l94 217h152zM406 792l-129 -148h-121l98 148h152z" />
    <glyph glyph-name="omegatonos" unicode="&#x3ce;" horiz-adv-x="705" 
d="M679 127l-36 -126h-255v169q55 11 90 52t35 98q0 32 -12.5 59.5t-34 48t-50.5 32.5t-62 12t-62 -12t-50.5 -32.5t-34 -48.5t-12.5 -60q0 -26 8 -50t22.5 -43.5t34.5 -33.5t44 -21v-170h-240l-37 126h129q-48 35 -77 83t-29 119q0 59 24 111t65 91t96.5 61.5t118.5 22.5
t118 -22.5t96.5 -61.5t65 -91t23.5 -111q0 -69 -29 -118t-76 -84h127zM436 792l-129 -148h-121l98 148h152z" />
    <glyph glyph-name="uni0401" unicode="&#x401;" horiz-adv-x="525" 
d="M496 140l-40 -140h-400v700h385l40 -140h-275v-135h190v-140h-190v-145h290zM465 826q0 -31 -22 -53t-53 -22t-53 22t-22 53t22 53t53 22t53 -22t22 -53zM215 826q0 -31 -22 -53t-53 -22t-53 22t-22 53t22 53t53 22t53 -22t22 -53z" />
    <glyph glyph-name="uni0402" unicode="&#x402;" horiz-adv-x="760" 
d="M488 411q52 0 96 -16.5t76.5 -49.5t51 -82t18.5 -113q0 -69 -19.5 -128t-59 -101.5t-99.5 -66.5t-142 -24v118q86 0 133 46.5t47 155.5q0 51 -16 82t-46 44t-72.5 8t-95.5 -24v-260h-150v555h-185l40 145h470v-145h-175v-162q26 8 58.5 13t69.5 5z" />
    <glyph glyph-name="uni0403" unicode="&#x403;" horiz-adv-x="500" 
d="M485 560h-275v-560h-150v700h385zM456 898l-129 -148h-121l98 148h152z" />
    <glyph glyph-name="uni0404" unicode="&#x404;" horiz-adv-x="645" 
d="M377 130q56 0 98 22t68 60l144 -52q-42 -79 -120.5 -127t-189.5 -48q-84 0 -150 28.5t-111.5 78t-69.5 116t-24 142.5t24 142.5t69.5 116t111.5 78t150 28.5q111 0 189.5 -48t120.5 -127l-140 -51q-25 38 -66.5 59.5t-103.5 21.5q-44 0 -77.5 -11t-58 -31t-40 -47.5
t-23.5 -60.5h224v-140h-222q9 -33 26.5 -60.5t42 -47.5t57 -31t71.5 -11z" />
    <glyph glyph-name="uni0405" unicode="&#x405;" horiz-adv-x="580" 
d="M438 526q-30 33 -68.5 46.5t-72 10.5t-57 -21.5t-23.5 -49.5q0 -20 11.5 -34t31 -24t45.5 -18t56 -17q74 -22 111.5 -55t54.5 -64q19 -37 19 -76q0 -66 -24 -112t-61.5 -75t-84 -42t-91.5 -13q-63 0 -110 13t-79 29q-37 18 -63 43l94 120q24 -23 48 -34.5t44.5 -16
t36 -4.5h22.5t22.5 2t31.5 9.5t28.5 20.5t12.5 36q0 22 -8 35.5t-26 23t-46.5 19.5t-69.5 26q-40 15 -72.5 31t-55.5 38t-35.5 52.5t-12.5 75.5t19.5 84t53.5 68.5t80.5 46.5t101.5 17t96.5 -12.5t70.5 -27.5q33 -18 57 -40z" />
    <glyph glyph-name="uni0406" unicode="&#x406;" horiz-adv-x="275" 
d="M212 0h-150v700h150v-700z" />
    <glyph glyph-name="uni0407" unicode="&#x407;" horiz-adv-x="330" 
d="M212 0h-150v700h150v-700zM364 824q0 -31 -22 -53t-53 -22t-53 22t-22 53t22 53t53 22t53 -22t22 -53zM114 824q0 -31 -22 -53t-53 -22t-53 22t-22 53t22 53t53 22t53 -22t22 -53z" />
    <glyph glyph-name="uni0408" unicode="&#x408;" horiz-adv-x="415" 
d="M355 235q0 -61 -17 -104t-44 -72t-61 -45.5t-68 -23.5t-64.5 -6.5t-50.5 5.5l-42 149q40 -11 70 -11.5t51 6t35 19t23 26.5q19 33 18 84v438h150v-465z" />
    <glyph glyph-name="uni0409" unicode="&#x409;" horiz-adv-x="1003" 
d="M719 420q49 0 94.5 -13t79.5 -39.5t54.5 -66t20.5 -91.5q0 -53 -20.5 -92t-54.5 -65.5t-79.5 -39.5t-94.5 -13h-230v560h-150q-9 -98 -16 -180q-3 -35 -6.5 -70l-6.5 -65t-5 -52t-3 -32q-7 -68 -34 -115t-68.5 -72.5t-93.5 -29t-109 14.5l45 135q20 -6 39.5 -6t36.5 8
q24 13 33 46q3 14 7.5 45.5t9 73.5t9 91t8.5 98q10 114 20 250h434v-280h80zM699 128q19 0 38.5 4t35.5 14t26 25.5t10 38.5t-10 38.5t-26 25.5t-35.5 14t-38.5 4h-60v-164h60z" />
    <glyph glyph-name="uni040A" unicode="&#x40a;" horiz-adv-x="940" 
d="M664 420q50 0 95 -13t79.5 -39.5t55 -66t20.5 -91.5q0 -53 -20.5 -92t-55 -65.5t-79.5 -39.5t-95 -13h-69h-150v292h-250v-292h-150v700h150v-278h250v278h150v-280h69zM644 128q19 0 38.5 4t35.5 14t26.5 25.5t10.5 38.5t-10.5 38.5t-26.5 25.5t-35.5 14t-38.5 4h-49
v-164h49z" />
    <glyph glyph-name="uni040B" unicode="&#x40b;" horiz-adv-x="700" 
d="M469 435q95 0 140.5 -56t45.5 -169v-210h-142v200q0 16 -3.5 34t-13.5 33t-29 25t-50 10q-40 0 -60 -24t-27 -57v-221h-150v555h-185l40 145h470v-145h-175v-184q24 29 60.5 46.5t78.5 17.5z" />
    <glyph glyph-name="uni040C" unicode="&#x40c;" 
d="M629 0h-182l-237 322v-322h-150v700h150v-337l232 337h180l-254 -354zM466 898l-129 -148h-121l98 148h152z" />
    <glyph glyph-name="uni040E" unicode="&#x40e;" 
d="M630 700l-303 -700h-163l115 265l-268 435h176l162 -273l118 273h163zM225 893q1 -21 12 -38q9 -14 29.5 -25.5t58.5 -11.5t57.5 11.5t29.5 25.5q11 17 13 38h75q-3 -42 -22 -75q-17 -29 -52.5 -52t-100.5 -23q-66 0 -101 23t-52 52q-19 33 -22 75h75z" />
    <glyph glyph-name="uni040F" unicode="&#x40f;" horiz-adv-x="735" 
d="M680 700v-700h-239v-150h-150v150h-236v700h150v-560h325v560h150z" />
    <glyph glyph-name="uni0410" unicode="&#x410;" 
d="M476 0l-44 140h-224l-44 -140h-161l243 700h148l243 -700h-161zM246 260h148l-74 233z" />
    <glyph glyph-name="uni0411" unicode="&#x411;" horiz-adv-x="560" 
d="M284 420q49 0 94.5 -13t79.5 -39.5t54.5 -66t20.5 -91.5q0 -53 -20.5 -92t-54.5 -65.5t-79.5 -39.5t-94.5 -13h-230v700h405l40 -140h-295v-140h80zM264 128q19 0 38.5 4t35.5 14t26 25.5t10 38.5t-10 38.5t-26 25.5t-35.5 14t-38.5 4h-60v-164h60z" />
    <glyph glyph-name="uni0412" unicode="&#x412;" horiz-adv-x="560" 
d="M392 368q38 -10 69 -32q26 -19 48 -52.5t22 -88.5q0 -91 -66 -143t-198 -52h-215v700h195q52 0 99.5 -9.5t83.5 -32t57.5 -60.5t21.5 -95q0 -25 -11.5 -49.5t-28.5 -43.5t-37.5 -30.5t-39.5 -11.5zM202 572v-157h65q38 0 61.5 20.5t23.5 54.5q0 26 -10.5 42t-25.5 25
t-32.5 12t-30.5 3h-51zM261 128q19 0 38.5 4t35.5 14t26.5 25.5t10.5 38.5q0 21 -9.5 36.5t-24.5 26.5t-33.5 16.5t-37.5 5.5h-65v-167h59z" />
    <glyph glyph-name="uni0413" unicode="&#x413;" horiz-adv-x="495" 
d="M485 560h-275v-560h-150v700h385z" />
    <glyph glyph-name="uni0414" unicode="&#x414;" horiz-adv-x="755" 
d="M727 -115h-150v115h-400v-115h-150v255h89q9 11 23 35t29 63q14 36 25 78t19 90q10 60 15 127t5 142v25h420v-560h75v-255zM502 140v420h-133q-4 -77 -13.5 -140.5t-21.5 -115.5t-26.5 -92.5t-29.5 -71.5h224z" />
    <glyph glyph-name="uni0415" unicode="&#x415;" horiz-adv-x="538" 
d="M500 140l-40 -140h-400v700h385l40 -140h-275v-135h190v-140h-190v-145h290z" />
    <glyph glyph-name="uni0416" unicode="&#x416;" horiz-adv-x="1065" 
d="M664 290h-57v-290h-150v290h-56l-206 -290h-182l261 346l-249 354h176l191 -280h65v280h150v-280h66l191 280h176l-249 -354l261 -346h-182z" />
    <glyph glyph-name="uni0417" unicode="&#x417;" horiz-adv-x="580" 
d="M240 414l45 1q19 0 36 6.5t29.5 17.5t19.5 25.5t7 31.5q0 16 -7 31t-19.5 26t-29.5 17.5t-36 6.5t-36 -6.5t-29.5 -17.5t-19.5 -26t-7 -31l-141 13q0 48 18.5 85.5t50 63.5t74 40t90.5 14t90.5 -16t74 -44t50 -64.5t18.5 -76.5q0 -45 -21 -83.5t-58 -66.5q45 -27 71 -69
t26 -98q0 -42 -19.5 -79.5t-53.5 -65.5t-80 -44.5t-98 -16.5t-97.5 16.5t-79.5 44.5t-53.5 65.5t-19.5 79.5l145 25q0 -19 8 -36t22.5 -29.5t33.5 -19.5t41 -7t41 7t33 19.5t22.5 29.5t8.5 36q0 18 -7 33.5t-20 27.5t-30 19.5t-37 9.5h-11h-44z" />
    <glyph glyph-name="uni0418" unicode="&#x418;" horiz-adv-x="745" 
d="M60.042 700v-700h163.99l310.98 472v-472h149.991v700h-149.991l-324.98 -479v479h-149.99z" />
    <glyph glyph-name="uni0419" unicode="&#x419;" horiz-adv-x="745" 
d="M60.042 700v-700h163.99l310.98 472v-472h149.991v700h-149.991l-324.98 -479v479h-149.99zM255 883q1 -21 12 -38q9 -14 29.5 -25.5t58.5 -11.5t57.5 11.5t29.5 25.5q11 17 13 38h75q-3 -42 -22 -75q-17 -29 -52.5 -52t-100.5 -23q-66 0 -101 23t-52 52q-19 33 -22 75
h75z" />
    <glyph glyph-name="uni041A" unicode="&#x41a;" 
d="M629 0h-182l-237 322v-322h-150v700h150v-337l232 337h180l-254 -354z" />
    <glyph glyph-name="uni041B" unicode="&#x41b;" horiz-adv-x="700" 
d="M341 560q-9 -98 -17 -180q-3 -35 -6.5 -70t-6 -65t-4.5 -52t-3 -32q-8 -68 -35 -115t-68.5 -72.5t-93.5 -29t-109 14.5l45 135q20 -6 40 -6t36 8q26 14 33 46q3 14 7.5 45.5t9 73.5t9 91t8.5 98q10 114 20 250h434v-700h-150v560h-149z" />
    <glyph glyph-name="uni041C" unicode="&#x41c;" horiz-adv-x="805" 
d="M134 700h144l124 -450l123 450h145l120 -700h-154l-57 355l-99 -355h-157l-99 355l-56 -355h-153z" />
    <glyph glyph-name="uni041D" unicode="&#x41d;" horiz-adv-x="690" 
d="M627 700v-700h-150v292h-265v-292h-150v700h150v-278h265v278h150z" />
    <glyph glyph-name="uni041E" unicode="&#x41e;" horiz-adv-x="800" 
d="M400 717q76 0 143.5 -28.5t118 -78t79.5 -116t29 -142.5t-29 -142.5t-79.5 -116t-118 -78t-143.5 -28.5q-77 0 -144.5 28.5t-117.5 78t-79 116t-29 142.5t29 142.5t79 116t117.5 78t144.5 28.5zM400 132q44 0 83 17t68.5 47t46.5 70t17 86t-17 86t-46.5 70t-68.5 47
t-83 17q-45 0 -84 -17t-68 -47t-46 -70t-17 -86t17 -86t46 -70t68 -47t84 -17z" />
    <glyph glyph-name="uni041F" unicode="&#x41f;" horiz-adv-x="725" 
d="M665 700v-700h-150v560h-305v-560h-150l-1 700h1h604h1z" />
    <glyph glyph-name="uni0420" unicode="&#x420;" horiz-adv-x="560" 
d="M280 700q46 0 92.5 -10.5t84 -36.5t60.5 -69t23 -109q0 -54 -21.5 -95t-57 -69t-80.5 -42t-91 -14h-80v-255h-150v700h220zM265 390q15 0 36 2t39.5 10.5t31.5 25.5t13 47t-13 47t-31.5 25.5t-39.5 10.5t-36 2h-55v-170h55z" />
    <glyph glyph-name="uni0421" unicode="&#x421;" horiz-adv-x="645" 
d="M617 84q-47 -46 -107.5 -72t-129.5 -26q-72 0 -136 27t-111.5 75.5t-75 115.5t-27.5 147q0 76 27.5 142.5t75 116t111.5 78t136 28.5q69 0 129.5 -26t106.5 -72l-105 -96q-26 22 -58 34t-67 12q-41 0 -77.5 -17.5t-63.5 -47.5t-43 -69t-16 -81q0 -46 16 -85t43 -68
t63.5 -45.5t77.5 -16.5q33 0 62.5 10.5t53.5 29.5z" />
    <glyph glyph-name="uni0422" unicode="&#x422;" horiz-adv-x="540" 
d="M520 555h-175v-555h-150v555h-185l40 145h470v-145z" />
    <glyph glyph-name="uni0423" unicode="&#x423;" 
d="M630 700l-303 -700h-163l115 265l-268 435h176l162 -273l118 273h163z" />
    <glyph glyph-name="uni0424" unicode="&#x424;" horiz-adv-x="855" 
d="M828 353q0 -68 -25.5 -116.5t-70 -81t-104.5 -49.5t-130 -20v-86h-140v81q-69 4 -129.5 21.5t-105 50.5t-70 82.5t-25.5 117.5q0 67 25.5 115.5t70 81t105 49.5t129.5 20v81h140v-81q70 -3 130 -20t104.5 -49.5t70 -81t25.5 -115.5zM183 353q0 -39 13.5 -64.5t37 -41
t55.5 -22.5t69 -9v268q-37 -2 -69 -8t-55.5 -20t-37 -39t-13.5 -64zM498 216q37 2 69.5 9t55.5 22.5t36.5 41t13.5 64.5t-13.5 64t-36.5 39t-55.5 20t-69.5 8v-268z" />
    <glyph glyph-name="uni0425" unicode="&#x425;" horiz-adv-x="725" 
d="M523 0l-161 246l-161 -246h-182l254 369l-229 331h182l136 -203l135 203h182l-228 -331l254 -369h-182z" />
    <glyph glyph-name="uni0426" unicode="&#x426;" horiz-adv-x="795" 
d="M748 140v-290h-150v150h-540v700h150v-560h315v560h150v-560h75z" />
    <glyph glyph-name="uni0427" unicode="&#x427;" horiz-adv-x="610" 
d="M551 700v-700h-150v289q-24 -29 -60.5 -46.5t-78.5 -17.5q-47 0 -86 14t-67 42t-43 70.5t-15 98.5v250h142v-240q0 -16 5 -34t17.5 -33.5t33.5 -25.5t52 -10q27 0 46 11t31 29t17.5 40t5.5 44v219h150z" />
    <glyph glyph-name="uni0428" unicode="&#x428;" horiz-adv-x="1020" 
d="M960 700v-700h-900v700h150v-560h225v560h150v-560h225v560h150z" />
    <glyph glyph-name="uni0429" unicode="&#x429;" horiz-adv-x="1080" 
d="M1035 140v-290h-150v150h-825v700h150v-560h225v560h150v-560h225v560h150v-560h75z" />
    <glyph glyph-name="uni042A" unicode="&#x42a;" horiz-adv-x="735" 
d="M450 420q50 0 95 -13t79.5 -39.5t55 -66t20.5 -91.5q0 -53 -20.5 -92t-55 -65.5t-79.5 -39.5t-95 -13h-229v560h-175l-40 140h365v-280h79zM430 128q19 0 38.5 4t35.5 14t26.5 25.5t10.5 38.5t-10.5 38.5t-26.5 25.5t-35.5 14t-38.5 4h-59v-164h59z" />
    <glyph glyph-name="uni042B" unicode="&#x42b;" horiz-adv-x="795" 
d="M289 420q49 0 94.5 -13t79.5 -39.5t54.5 -66t20.5 -91.5q0 -53 -20.5 -92t-54.5 -65.5t-79.5 -39.5t-94.5 -13h-230v700h150v-280h80zM269 128q19 0 38.5 4t35.5 14t26 25.5t10 38.5t-10 38.5t-26 25.5t-35.5 14t-38.5 4h-60v-164h60zM588 0v700h150v-700h-150z" />
    <glyph glyph-name="uni042C" unicode="&#x42c;" horiz-adv-x="570" 
d="M290 420q49 0 94.5 -13t79.5 -39.5t54.5 -66t20.5 -91.5q0 -53 -20.5 -92t-54.5 -65.5t-79.5 -39.5t-94.5 -13h-230v700h150v-280h80zM270 128q19 0 38.5 4t35.5 14t26 25.5t10 38.5t-10 38.5t-26 25.5t-35.5 14t-38.5 4h-60v-164h60z" />
    <glyph glyph-name="uni042D" unicode="&#x42d;" horiz-adv-x="645" 
d="M263 715q72 0 136 -28.5t111.5 -78t75 -116t27.5 -142.5q0 -80 -27.5 -147t-75 -115.5t-111.5 -75.5t-136 -27q-69 0 -129.5 26t-107.5 72l115 94q24 -19 53.5 -29.5t61.5 -10.5q33 0 63 10.5t54.5 29t43 45t28.5 58.5h-202v140h203q-11 31 -29.5 58t-43 46.5t-54.5 31
t-63 11.5q-35 0 -66.5 -12t-57.5 -34l-105 96q46 46 106.5 72t129.5 26z" />
    <glyph glyph-name="uni042E" unicode="&#x42e;" horiz-adv-x="1085" 
d="M684 716q76 0 143.5 -28.5t118 -78t79.5 -116t29 -142.5t-29 -142.5t-79.5 -116t-118 -78t-143.5 -28.5q-67 0 -127.5 22.5t-108.5 61.5t-81 92.5t-46 116.5h-112v-279h-150v700h150v-271h113q14 61 47.5 114t81 91t107.5 60t126 22zM684 131q45 0 84 17t68 47t46 70
t17 86t-17 86t-46 70t-68 47t-84 17t-84 -17t-68 -47t-46 -70t-17 -86t17 -86t46 -70t68 -47t84 -17z" />
    <glyph glyph-name="uni042F" unicode="&#x42f;" horiz-adv-x="620" 
d="M364.016 275h45.9971v-275h149.991v700h-219.986q-45.998 0 -92.4951 -10.5t-83.9941 -36.5q-37.498 -26 -60.4971 -69q-22.998 -43 -22.998 -109q0 -34 10.499 -61.5t28.998 -49t43.498 -37.5q24.998 -16 52.9961 -27l-205.987 -300h181.989zM410.013 375h-54.9961
q-14.999 0 -35.998 4.5t-39.498 15.5t-31.498 30.5t-12.999 49.5t12.999 47t31.498 25.5t39.498 10.5t35.998 2h54.9961v-185z" />
    <glyph glyph-name="uni0430" unicode="&#x430;" horiz-adv-x="555" 
d="M401 0l-36 116h-174l-37 -116h-151l207 597h135l207 -597h-151zM328 232l-50 158l-51 -158h101z" />
    <glyph glyph-name="uni0431" unicode="&#x431;" horiz-adv-x="540" 
d="M273 385q49 0 93 -10.5t76 -33.5t51 -60t19 -89q0 -53 -19 -89.5t-51 -59t-76 -33t-93 -10.5h-220v597h385l36 -135h-271v-77h70zM253 128q19 0 37 1.5t32 7.5t22.5 19t8.5 36t-8.5 36t-22.5 19.5t-32 8t-37 1.5h-50v-129h50z" />
    <glyph glyph-name="uni0432" unicode="&#x432;" horiz-adv-x="490" 
d="M369 312q26 -11 47 -30q17 -17 32 -43.5t15 -68.5q0 -56 -24.5 -89.5t-60 -51.5t-74.5 -23.5t-68 -5.5h-186v597h169q105 0 165.5 -41.5t60.5 -126.5q0 -31 -12 -53t-26 -36q-17 -17 -38 -28zM190 360h41q29 0 48.5 15t19.5 41q0 10 -3.5 20.5t-12 19t-23 14t-35.5 5.5
h-35v-115zM231 122q16 0 31 3.5t27 10.5t19 18.5t7 27.5q0 9 -4 20t-13.5 20.5t-24.5 16t-37 6.5h-46v-123h41z" />
    <glyph glyph-name="uni0433" unicode="&#x433;" horiz-adv-x="435" 
d="M389 535l36 -125h-231v-410h-140v535h335z" />
    <glyph glyph-name="uni0434" unicode="&#x434;" horiz-adv-x="715" 
d="M678 140v-255h-150v115h-340v-115h-150v255h66q8 8 22 25.5t28 46.5q19 38 31 90t18.5 106t9 104.5t2.5 84.5h405v-457h58zM475 467h-131q-2 -15 -4 -39t-4 -49.5t-5 -48.5t-6 -36q-20 -86 -56 -154h206v327z" />
    <glyph glyph-name="uni0435" unicode="&#x435;" horiz-adv-x="480" 
d="M406 0h-346v597h333l38 -132h-231v-96h158v-132h-158v-105h243z" />
    <glyph glyph-name="uni0436" unicode="&#x436;" horiz-adv-x="860" 
d="M630 293l222 -293h-168l-172 241h-13v-241h-139v241h-12l-172 -241h-168l222 293l-213 304h163l160 -235h20v235h139v-235h22l160 235h162l-213 -304v0z" />
    <glyph glyph-name="uni0437" unicode="&#x437;" horiz-adv-x="505" 
d="M252 -8q-44 0 -83.5 14t-68.5 38.5t-46 57t-17 69.5v6l136 24v-10q0 -28 23.5 -48t55.5 -20q33 0 56.5 20t23.5 48q0 26 -21 45q-19 19 -50 22h-53l-1 103l45 1q29 0 49 18q20 17 20 41t-20 42q-20 17 -49 17q-28 0 -48 -17q-20 -18 -20 -42v-9l-133 13v7q0 81 60 130
q27 23 63 34.5t78 11.5q83 0 142 -51q29 -24 44 -56q16 -34 16 -67q0 -35 -15.5 -67.5t-44.5 -56.5q36 -25 55.5 -60.5t19.5 -78.5q0 -37 -17 -69.5t-46.5 -57t-69 -38.5t-84.5 -14z" />
    <glyph glyph-name="uni0438" unicode="&#x438;" horiz-adv-x="650" 
d="M58.0361 0h147.991l245.984 373v-373h139.992v597h-135.992l-257.984 -379v379h-139.991v-597z" />
    <glyph glyph-name="uni0439" unicode="&#x439;" horiz-adv-x="650" 
d="M58.0361 0h147.991l245.984 373v-373h139.992v597h-135.992l-257.984 -379v379h-139.991v-597zM229 791q1 -21 12 -38q9 -14 29.5 -25.5t58.5 -11.5t57.5 11.5t29.5 25.5q11 17 13 38h75q-3 -42 -22 -75q-17 -29 -52.5 -52t-100.5 -23q-66 0 -101 23t-52 52
q-19 33 -22 75h75z" />
    <glyph glyph-name="uni043A" unicode="&#x43a;" horiz-adv-x="565" 
d="M332 296l223 -296h-172l-184 251v-251h-141v597h141v-262l180 262h169z" />
    <glyph glyph-name="uni043B" unicode="&#x43b;" horiz-adv-x="600" 
d="M545 597v-597h-145v467h-140q-3 -37 -7 -86.5t-7.5 -94.5t-6 -78t-2.5 -38q-7 -58 -38 -104t-79 -69q-38 -20 -82 -20h-13v139q11 -4 21 -2.5t18 5.5q14 8 26 24.5t14 38.5q0 4 2 24t4.5 50t5 67t5.5 75q6 89 14 199h410z" />
    <glyph glyph-name="uni043C" unicode="&#x43c;" horiz-adv-x="685" 
d="M674 0h-141l-44 280l-78 -280h-137l-78 280l-44 -280h-140l101 597h133l97 -366l96 366h133l102 -597v0z" />
    <glyph glyph-name="uni043D" unicode="&#x43d;" horiz-adv-x="605" 
d="M545 0h-141v242h-204v-242h-140v597h140v-231h204v231h141v-597v0z" />
    <glyph glyph-name="uni043E" unicode="&#x43e;" horiz-adv-x="690" 
d="M345 612q65 0 122.5 -24.5t100 -66.5t67.5 -99t25 -121q0 -65 -25 -121.5t-67.5 -98.5t-100 -66.5t-122.5 -24.5t-122.5 24.5t-100.5 66.5t-67.5 98.5t-24.5 121.5q0 64 24.5 121t67.5 99t100.5 66.5t122.5 24.5zM345 126q35 0 66 13.5t54 37.5t36.5 56t13.5 68t-13.5 68
t-36.5 55.5t-54 37.5t-66 14t-66 -14t-54 -37.5t-36.5 -55.5t-13.5 -68t13.5 -68t36.5 -56t54 -37.5t66 -13.5z" />
    <glyph glyph-name="uni043F" unicode="&#x43f;" horiz-adv-x="660" 
d="M57 597h545v-597h-150v457h-243v-457h-150l-2 597v0z" />
    <glyph glyph-name="uni0440" unicode="&#x440;" horiz-adv-x="494" 
d="M251 597q27 0 65.5 -6.5t73.5 -27t59.5 -59t24.5 -102.5q0 -44 -17 -79t-46.5 -60t-68.5 -38t-83 -13h-59v-212h-140v597h191zM238 340q9 0 24.5 0.5t30.5 6t26 18t11 37.5t-11.5 38t-26.5 18.5t-30.5 6t-23.5 0.5h-38v-125h38z" />
    <glyph glyph-name="uni0441" unicode="&#x441;" horiz-adv-x="565" 
d="M537 78q-39 -42 -92 -66t-115 -24q-64 0 -118.5 23t-95 64.5t-63.5 98.5t-23 125q0 64 23.5 121t64 99t95.5 66.5t117 24.5t114.5 -24.5t91.5 -66.5l-99 -89q-20 19 -46.5 29.5t-56.5 10.5q-33 0 -61.5 -13.5t-50 -36.5t-34 -54t-12.5 -66t12 -66t33 -54t50 -36.5
t63 -13.5q28 0 52 9t44 26z" />
    <glyph glyph-name="uni0442" unicode="&#x442;" horiz-adv-x="470" 
d="M306 0h-141v461h-156l38 136h404v-136h-145v-461z" />
    <glyph glyph-name="uni0443" unicode="&#x443;" horiz-adv-x="590" 
d="M292 0h-153l99 228l-228 369h165l129 -217l94 217h152z" />
    <glyph glyph-name="uni0444" unicode="&#x444;" horiz-adv-x="735" 
d="M709 301q0 -58 -20.5 -100t-57.5 -70t-87 -42.5t-110 -17.5v-71h-133v67q-59 3 -109.5 18.5t-87.5 44t-57.5 71t-20.5 100.5q0 57 20.5 99t57.5 70t87.5 42.5t109.5 17.5v67h133v-67q60 -3 110 -17.5t87 -42.5t57.5 -70t20.5 -99zM303 401q-32 -2 -55.5 -5t-38.5 -13
t-22.5 -29.5t-7.5 -52.5t7.5 -53t22.5 -31t38.5 -15.5t55.5 -5.5v205zM432 196q32 1 56.5 5.5t40.5 15.5t24 31t8 53t-8 52.5t-24 29.5t-40.5 13t-56.5 5v-205z" />
    <glyph glyph-name="uni0445" unicode="&#x445;" horiz-adv-x="630" 
d="M615 0h-170l-130 197l-130 -197h-170l216 314l-195 283h171l108 -162l108 162h171l-195 -283z" />
    <glyph glyph-name="uni0446" unicode="&#x446;" horiz-adv-x="710" 
d="M670 140v-290h-150v150h-470v597h150v-457h245v457h150v-457h75v0z" />
    <glyph glyph-name="uni0447" unicode="&#x447;" horiz-adv-x="595" 
d="M540 597v-597h-150v224q-24 -29 -58 -46.5t-76 -17.5q-95 0 -148 56t-53 169v212h142v-202q0 -16 3.5 -34t14 -33.5t30 -25.5t50.5 -10q27 0 45 11t29 29t16 40t5 44v181h150z" />
    <glyph glyph-name="uni0448" unicode="&#x448;" horiz-adv-x="885" 
d="M827 597v-597h-770v597h150v-457h160v457h150v-457h160v457h150z" />
    <glyph glyph-name="uni0449" unicode="&#x449;" horiz-adv-x="930" 
d="M900 140v-260h-150v120h-695v597h150v-457h160v457h150v-457h160v457h150v-457h75z" />
    <glyph glyph-name="uni044A" unicode="&#x44a;" horiz-adv-x="695" 
d="M420 395q50 0 93.5 -11.5t76 -36t51.5 -62.5t19 -90q0 -53 -19 -90t-51.5 -60t-76 -34t-93.5 -11h-224v457h-155l-40 140h345v-202h74zM400 128q19 0 37 2t32 8.5t23 20t9 36.5t-9 37t-23 22t-32 10.5t-37 2.5h-54v-139h54z" />
    <glyph glyph-name="uni044B" unicode="&#x44b;" horiz-adv-x="780" 
d="M573 0v597h150v-597h-150zM281 395q50 0 93.5 -11.5t76 -36t51.5 -62.5t19 -90q0 -53 -19 -90t-51.5 -60t-76 -34t-93.5 -11h-224v597h150v-202h74zM261 128q19 0 37 2t32 8.5t23 20t9 36.5t-9 37t-23 22t-32 10.5t-37 2.5h-54v-139h54z" />
    <glyph glyph-name="uni044C" unicode="&#x44c;" horiz-adv-x="555" 
d="M280 395q50 0 93.5 -11.5t76 -36t51.5 -62.5t19 -90q0 -53 -19 -90t-51.5 -60t-76 -34t-93.5 -11h-224v597h150v-202h74zM260 128q19 0 37 2t32 8.5t23 20t9 36.5t-9 37t-23 22t-32 10.5t-37 2.5h-54v-139h54z" />
    <glyph glyph-name="uni044D" unicode="&#x44d;" horiz-adv-x="575" 
d="M241 607q62 0 117 -24.5t95.5 -66.5t64 -99t23.5 -121q0 -68 -23 -125t-63.5 -98.5t-95 -64.5t-118.5 -23q-62 0 -115 24t-92 66l107 87q41 -35 95 -35q52 0 91.5 29.5t56.5 76.5h-199v125h199q-17 48 -57 78.5t-91 30.5q-29 0 -55.5 -10.5t-46.5 -29.5l-99 89
q39 42 91.5 66.5t114.5 24.5z" />
    <glyph glyph-name="uni044E" unicode="&#x44e;" horiz-adv-x="935" 
d="M589 612q65 0 122.5 -24.5t100 -66.5t67.5 -99t25 -121q0 -65 -25 -121.5t-67.5 -98.5t-100 -66.5t-122.5 -24.5q-56 0 -106.5 18t-91 50.5t-69 76.5t-40.5 96h-86v-231h-141v597h141v-225h87q12 52 40.5 96t69 76t90.5 50t106 18zM589 126q35 0 66 13.5t54 37.5t36.5 56
t13.5 68t-13.5 68t-36.5 56t-54 37.5t-66 13.5t-66 -13.5t-54 -37.5t-36.5 -56t-13.5 -68t13.5 -68t36.5 -56t54 -37.5t66 -13.5z" />
    <glyph glyph-name="uni044F" unicode="&#x44f;" horiz-adv-x="550" 
d="M10.0332 0h170.989l141.991 228h26.998v-228h139.992v597h-190.988q-34.998 0 -74.4961 -8q-39.4971 -8 -72.4951 -30t-54.4971 -59.5q-21.498 -37.5 -21.498 -97.5q0 -42 16.999 -70.5t36.9971 -45.5q23.999 -20 53.9971 -33zM312.015 327q-11.999 0 -27.998 2.5
t-30.498 11q-14.5 8.5 -24.499 23t-9.99902 38.5t10.499 37t25.498 19q15 6 30.998 6.5q16 0.5 25.999 0.5h37.9971v-138h-37.9971z" />
    <glyph glyph-name="uni0451" unicode="&#x451;" horiz-adv-x="480" 
d="M406 0h-346v597h333l38 -132h-231v-96h158v-132h-158v-105h243zM445 718q0 -31 -22 -53t-53 -22t-53 22t-22 53t22 53t53 22t53 -22t22 -53zM195 718q0 -31 -22 -53t-53 -22t-53 22t-22 53t22 53t53 22t53 -22t22 -53z" />
    <glyph glyph-name="uni0452" unicode="&#x452;" horiz-adv-x="600" 
d="M360 535q88 0 137 -56t49 -169v-361q0 -37 -5 -75t-26.5 -68.5t-67 -49.5t-126.5 -19l-36 126q37 0 60.5 6.5t37 18t18.5 27t5 34.5v351q0 16 -3.5 34t-14 33t-30 25t-50.5 10q-28 0 -51.5 -19t-25.5 -61v-322h-140v562h-62v88h62v34l135 30v-64h155v-88h-155v-95
q21 30 55.5 49t78.5 19z" />
    <glyph glyph-name="uni0453" unicode="&#x453;" horiz-adv-x="435" 
d="M389 535l36 -125h-231v-410h-140v535h335zM376 742l-129 -148h-121l98 148h152z" />
    <glyph glyph-name="uni0454" unicode="&#x454;" horiz-adv-x="575" 
d="M334.015 607q-61.9961 0 -116.993 -24.5q-54.9961 -24.5 -95.4941 -66.5q-40.4971 -42 -63.9961 -99q-23.498 -57 -23.498 -121q0 -68 22.998 -125q22.999 -57 63.4961 -98.5q40.498 -41.5 94.9941 -64.5q54.4971 -23 118.493 -23q61.9961 0 114.993 24t91.9941 66
l-106.993 87q-40.998 -35 -94.9941 -35q-51.9971 0 -91.4951 29.5q-39.4971 29.5 -56.4961 76.5h198.988v125h-198.988q16.999 48 56.9961 78.5q39.998 30.5 90.9951 30.5q28.998 0 55.4961 -10.5q26.499 -10.5 46.4971 -29.5l98.9941 89q-38.9971 42 -91.4941 66.5
t-114.493 24.5z" />
    <glyph glyph-name="uni0455" unicode="&#x455;" horiz-adv-x="445" 
d="M463 537l-84 -105q-11 15 -27 27q-14 10 -34 18.5t-48 8.5q-34 0 -50.5 -17t-16.5 -36q0 -28 32 -42t83 -29q28 -8 56.5 -22.5t51 -35.5t37 -48.5t14.5 -62.5q0 -48 -16.5 -86.5t-46.5 -65.5t-71.5 -41.5t-90.5 -14.5q-56 0 -97.5 12t-68.5 27q-33 17 -54 39l88 112
q12 -15 30 -26q14 -10 35.5 -17.5t49.5 -7.5q27 0 43.5 6t25.5 14t11.5 16.5t2.5 13.5q0 13 -4 21.5t-16.5 17t-36 17.5t-63.5 24q-27 10 -53.5 22t-48.5 30.5t-35.5 47t-13.5 70.5q0 40 17.5 74.5t47.5 59.5t69.5 39t84.5 14q48 0 85 -11.5t62 -25.5q29 -17 50 -37z" />
    <glyph glyph-name="uni0456" unicode="&#x456;" horiz-adv-x="260" 
d="M200 0h-140v597h140v-597z" />
    <glyph glyph-name="uni0457" unicode="&#x457;" horiz-adv-x="260" 
d="M200 0h-140v597h140v-597zM332 718q0 -31 -22 -53t-53 -22t-53 22t-22 53t22 53t53 22t53 -22t22 -53zM82 718q0 -31 -22 -53t-53 -22t-53 22t-22 53t22 53t53 22t53 -22t22 -53z" />
    <glyph glyph-name="uni0458" unicode="&#x458;" horiz-adv-x="370" 
d="M313 597v-394q0 -73 -28 -118.5t-69 -68.5t-87.5 -27.5t-82.5 4.5l-40 141q26 -8 55.5 -12t54 3.5t40.5 30.5t16 70v371h141z" />
    <glyph glyph-name="uni0459" unicode="&#x459;" horiz-adv-x="815" 
d="M582 337q60 0 100 -13t64 -35.5t34 -53t10 -64.5q0 -39 -15 -70.5t-42 -54t-64 -34.5t-80 -12h-219v405h-123q-3 -38 -6.5 -77.5t-6.5 -73t-5 -57t-3 -27.5q-7 -59 -37.5 -105t-78.5 -69q-37 -19 -82 -19h-13v138q11 -3 21 -2t18 5q14 8 25 24.5t13 39.5q0 4 2 21.5
t4.5 43t5.5 57t6 63.5q7 75 15 168h390v-198h67zM584 117q4 0 13.5 2.5t19.5 8.5t17 15.5t7 23.5q0 16 -6.5 26.5t-15.5 17t-19 9t-16 2.5h-69v-105h69z" />
    <glyph glyph-name="uni045A" unicode="&#x45a;" horiz-adv-x="820" 
d="M587 337q60 0 100 -13t64 -35.5t34 -53t10 -64.5q0 -39 -15 -70.5t-42 -54t-64 -34.5t-80 -12h-57h-145v213h-195v-213h-145v536h145v-203h195v203h145v-199h50zM589 117q4 0 13.5 2.5t19.5 8.5t17 15.5t7 23.5q0 16 -6.5 26.5t-15.5 17t-19 9t-16 2.5h-52v-105h52z" />
    <glyph glyph-name="uni045B" unicode="&#x45b;" horiz-adv-x="655" 
d="M429 382q95 0 140.5 -56t45.5 -169v-157h-142v147q0 16 -3.5 34t-13.5 33t-29 25t-50 10q-40 0 -60 -24t-27 -57v-168h-150v452h-145l40 145h400v-145h-145v-134q24 29 60.5 46.5t78.5 17.5z" />
    <glyph glyph-name="uni045C" unicode="&#x45c;" horiz-adv-x="565" 
d="M332 296l223 -296h-172l-184 251v-251h-141v597h141v-262l180 262h169zM436 792l-129 -148h-121l98 148h152z" />
    <glyph glyph-name="uni045E" unicode="&#x45e;" horiz-adv-x="590" 
d="M292 0h-153l99 228l-228 369h165l129 -217l94 217h152zM195 743q1 -21 12 -38q9 -14 29.5 -25.5t58.5 -11.5t57.5 11.5t29.5 25.5q11 17 13 38h75q-3 -42 -22 -75q-17 -29 -52.5 -52t-100.5 -23q-66 0 -101 23t-52 52q-19 33 -22 75h75z" />
    <glyph glyph-name="uni045F" unicode="&#x45f;" horiz-adv-x="670" 
d="M620 597v-597h-210v-120h-150v120h-210v597h150v-457h270v457h150v0z" />
    <glyph glyph-name="uni2015" unicode="&#x2015;" horiz-adv-x="800" 
d="M80 318h640v-80h-640v80z" />
    <glyph glyph-name="quoteleft" unicode="&#x2018;" horiz-adv-x="315" 
d="M56 700h146l79 -248h-100z" />
    <glyph glyph-name="quoteright" unicode="&#x2019;" horiz-adv-x="310" 
d="M129 452h-100l79 248h146z" />
    <glyph glyph-name="quotedblleft" unicode="&#x201c;" horiz-adv-x="535" 
d="M281 700h146l79 -248h-100zM56 700h146l79 -248h-100z" />
    <glyph glyph-name="quotedblright" unicode="&#x201d;" horiz-adv-x="535" 
d="M129 452h-100l79 248h146l-125 -248v0zM354 452h-100l79 248h146l-125 -248v0z" />
    <glyph glyph-name="bullet" unicode="&#x2022;" horiz-adv-x="475" 
d="M70 444q0 35 13 65.5t35.5 53t53 35.5t65.5 13t65.5 -13t53.5 -35.5t36 -53t13 -65.5t-13 -65.5t-36 -53.5t-53.5 -36t-65.5 -13t-65.5 13t-53 36t-35.5 53.5t-13 65.5z" />
    <glyph glyph-name="ellipsis" unicode="&#x2026;" horiz-adv-x="780" 
d="M220 78q0 -34 -23.5 -57t-56.5 -23t-56.5 23t-23.5 57q0 33 23.5 56.5t56.5 23.5t56.5 -23.5t23.5 -56.5zM470 78q0 -34 -23.5 -57t-56.5 -23t-56.5 23t-23.5 57q0 33 23.5 56.5t56.5 23.5t56.5 -23.5t23.5 -56.5zM720 78q0 -34 -23.5 -57t-56.5 -23t-56.5 23t-23.5 57
q0 33 23.5 56.5t56.5 23.5t56.5 -23.5t23.5 -56.5z" />
    <glyph glyph-name="guilsinglleft" unicode="&#x2039;" horiz-adv-x="313" 
d="M287 473l-124 -173l120 -173h-129l-116 173l120 173h129z" />
    <glyph glyph-name="guilsinglright" unicode="&#x203a;" horiz-adv-x="320" 
d="M169 473l120 -173l-116 -173h-129l120 173l-124 173h129z" />
    <glyph glyph-name="fraction" unicode="&#x2044;" horiz-adv-x="280" 
d="M-27 -13h-86l420 718h86l-420 -718v0z" />
    <glyph glyph-name="Euro" unicode="&#x20ac;" horiz-adv-x="750" 
d="M699 86q-47 -46 -107.5 -72t-129.5 -26q-56 0 -107 16t-93.5 46t-75 72.5t-51.5 95.5h-91l-32 112h101q-1 6 -1 11.5v11.5v13.5t1 13.5h-69l-32 113h127q19 49 51.5 90.5t74.5 71.5t92 46.5t105 16.5q69 0 129.5 -26t106.5 -72l-105 -96q-26 22 -58 34t-67 12
q-55 0 -95.5 -21t-66.5 -56h174l32 -113h-247q-1 -6 -1 -12v-13v-12t1 -13h190l32 -112h-181q26 -36 67 -57t95 -21q33 0 62.5 10.5t53.5 29.5z" />
    <glyph glyph-name="trademark" unicode="&#x2122;" horiz-adv-x="854" 
d="M376 617h-112v-317h-86v317h-116v83h314v-83zM444 700h83l70 -257l71 257h83l68 -400h-88l-32 203l-57 -203h-90l-56 203l-32 -203h-88z" />
    </font>
</defs>
</svg>
