<?xml version="1.0" standalone="no"?>
<!DOCTYPE svg PUBLIC "-//W3C//DTD SVG 1.1//EN" "http://www.w3.org/Graphics/SVG/1.1/DTD/svg11.dtd" >
<svg xmlns="http://www.w3.org/2000/svg" xmlns:xlink="http://www.w3.org/1999/xlink" version="1.1">
<metadata>
Created by FontForge 20170731 at Wed May 28 11:00:52 2014
 By Aleksey,,,
Copyright (c) 2014 by Electronic Arts. All rights reserved.
</metadata>
<defs>
<font id="TheSimsSansSC" horiz-adv-x="595" >
  <font-face 
    font-family="The Sims Sans SC"
    font-weight="400"
    font-stretch="normal"
    units-per-em="1000"
    panose-1="2 0 5 3 2 0 0 2 0 4"
    ascent="750"
    descent="-250"
    x-height="597"
    cap-height="700"
    bbox="-107 -260.45 1012 952"
    underline-thickness="50"
    underline-position="-150"
    unicode-range="U+000D-2122"
  />
<missing-glyph horiz-adv-x="280" 
 />
    <glyph glyph-name=".notdef" horiz-adv-x="280" 
 />
    <glyph glyph-name=".null" horiz-adv-x="0" 
 />
    <glyph glyph-name="nonmarkingreturn" unicode="&#xd;" horiz-adv-x="280" 
 />
    <glyph glyph-name="NULL" horiz-adv-x="0" 
 />
    <glyph glyph-name="NULL" horiz-adv-x="0" 
 />
    <glyph glyph-name="space" unicode=" " horiz-adv-x="280" 
 />
    <glyph glyph-name="exclam" unicode="!" horiz-adv-x="252" 
d="M60 62q0 27 19 46.5t47 19.5q27 0 46.5 -19.5t19.5 -46.5t-19.5 -46.5t-46.5 -19.5q-28 0 -47 19.5t-19 46.5zM77 699l98 16v-503l-88 -24z" />
    <glyph glyph-name="quotedbl" unicode="&#x22;" horiz-adv-x="430" 
d="M120 455h-70l10 245h100zM350 455h-70l10 245h100z" />
    <glyph glyph-name="numbersign" unicode="#" horiz-adv-x="675" 
d="M502 425l-21 -138h120l-26 -90h-109l-31 -197h-85l31 197h-140l-31 -197h-85l31 197h-118l26 90h107l21 138h-118l26 90h106l29 185h85l-29 -185h140l29 185h85l-29 -185h121l-26 -90h-109zM417 425h-140l-21 -138h140z" />
    <glyph glyph-name="dollar" unicode="$" horiz-adv-x="490" 
d="M450 215q0 -26 -10.5 -52.5t-30 -50t-47 -41t-61.5 -26.5v-76l-90 -19v90q-33 4 -61 13t-50.5 21t-38 24.5t-22.5 22.5l62 77q14 -18 35 -31q18 -11 44.5 -20.5t64.5 -9.5q37 0 58 10.5t31.5 24.5t13.5 27.5t3 19.5q0 9 -1 20t-8.5 23.5t-24.5 25t-49 23.5q-17 6 -28 10
t-19.5 7t-16.5 5.5t-20 6.5q-13 4 -33.5 14t-40 28.5t-33.5 46t-14 68.5q0 68 42 112.5t106 57.5v74l90 19v-90q33 -5 58 -16t42 -22q20 -13 35 -28l-61 -74q-20 20 -51.5 34.5t-66.5 14.5q-41 0 -68 -23.5t-27 -54.5t20.5 -48t47.5 -27q27 -11 47.5 -17t43.5 -17
q12 -5 33.5 -15t42.5 -29.5t37 -51.5t16 -81z" />
    <glyph glyph-name="percent" unicode="%" horiz-adv-x="845" 
d="M381 537q0 -35 -13.5 -65t-36.5 -52t-54 -35t-66 -13t-66 13t-54 35t-36.5 52t-13.5 65q0 34 13.5 64t36.5 52.5t54 35.5t66 13t66 -13t54 -35.5t36.5 -52.5t13.5 -64zM118 537q0 -39 27 -66t66 -27q19 0 36 7t29.5 20t20 29.5t7.5 36.5q0 19 -7.5 36t-20 29.5t-29.5 20
t-36 7.5q-20 0 -36.5 -7.5t-29.5 -20t-20 -29.5t-7 -36zM634 350q35 0 66 -13t54 -35.5t36.5 -52.5t13.5 -64t-13.5 -64t-36.5 -52.5t-54 -35.5t-66 -13t-66 13t-54 35.5t-36.5 52.5t-13.5 64t13.5 64t36.5 52.5t54 35.5t66 13zM634 92q19 0 36 7t29.5 20t20 29.5t7.5 36.5
q0 19 -7.5 36t-20 29.5t-29.5 20t-36 7.5q-20 0 -36.5 -7.5t-29.5 -20t-20 -29.5t-7 -36q0 -39 27 -66t66 -27zM659 715l-399 -715h-97l411 715h85z" />
    <glyph glyph-name="ampersand" unicode="&#x26;" horiz-adv-x="720" 
d="M570 0l-108 114l-73 -70q-18 -17 -40 -29q-19 -11 -45 -19.5t-57 -8.5q-42 0 -79.5 16t-65 43.5t-43.5 65t-16 79.5q0 61 29 110.5t80 74.5l40 23l-30 32q-19 23 -32 50.5t-13 58.5q0 35 13.5 66t37 54.5t55.5 37t68 13.5t68 -13t56 -36t38 -54t14 -66q0 -46 -27 -83
t-65 -60l-37 -22q28 -29 60 -63t66 -69l114 109l64 -68l-113 -108q28 -29 54.5 -56.5t49 -50.5t39.5 -41.5t28 -29.5h-130zM291 620q-18 0 -32 -6.5t-23.5 -17t-15 -23.5t-5.5 -26q0 -22 8 -39t27 -37q3 -4 7 -8t7 -8q4 -4 8 -9l43 22q20 11 34.5 28.5t14.5 45.5
q0 35 -20.5 56.5t-52.5 21.5zM398 182l-140 148l-60 -37q-25 -14 -39 -39.5t-14 -57.5q0 -47 30 -77.5t74 -30.5q20 0 36.5 7t30.5 15q15 10 29 22z" />
    <glyph glyph-name="quotesingle" unicode="'" horiz-adv-x="195" 
d="M122 455h-70l10 245h100z" />
    <glyph glyph-name="parenleft" unicode="(" horiz-adv-x="300" 
d="M96 270q0 -137 46.5 -255.5t124.5 -207.5l-38 -37q-47 45 -84 100t-63.5 119t-40.5 134.5t-14 146.5q0 154 56 281.5t150 218.5l39 -36q-79 -89 -127.5 -207t-48.5 -257z" />
    <glyph glyph-name="parenright" unicode=")" horiz-adv-x="300" 
d="M203 270q0 139 -48 257t-127 207l39 36q94 -91 150 -218.5t56 -281.5q0 -76 -14 -146.5t-40.5 -134.5t-64 -119t-83.5 -100l-39 37q78 89 124.5 207.5t46.5 255.5z" />
    <glyph glyph-name="asterisk" unicode="*" horiz-adv-x="435" 
d="M360 384l-108 66l2 -127h-75l2 127l-108 -66l-38 65l112 61l-112 62l38 65l108 -66l-2 127h75l-2 -127l108 66l37 -65l-112 -62l112 -61z" />
    <glyph glyph-name="plus" unicode="+" horiz-adv-x="610" 
d="M555 315h-212v-201h-75v201h-213v75h213v204h75v-204h212v-75z" />
    <glyph glyph-name="comma" unicode="," horiz-adv-x="291" 
d="M119 162l117 17l-138 -320h-76z" />
    <glyph glyph-name="hyphen" unicode="-" horiz-adv-x="370" 
d="M50 313v75h270v-75h-270z" />
    <glyph glyph-name="period" unicode="." horiz-adv-x="245" 
d="M56 62q0 27 19 46.5t47 19.5q27 0 46.5 -19.5t19.5 -46.5t-19.5 -46.5t-46.5 -19.5q-28 0 -47 19.5t-19 46.5z" />
    <glyph glyph-name="slash" unicode="/" horiz-adv-x="270" 
d="M37 -13h-81l276 718h82z" />
    <glyph glyph-name="zero" unicode="0" horiz-adv-x="640" 
d="M320 -8q-12 0 -37 2.5t-55 13.5t-61.5 33.5t-57.5 63t-42.5 101.5t-16.5 148t16.5 148t42.5 101.5t57.5 63.5t61.5 34t55 13.5t37 2.5t37 -2.5t55 -14t61.5 -34t57.5 -63t42.5 -101.5t16.5 -148q0 -88 -16.5 -148.5t-42.5 -101t-57.5 -63t-61.5 -33.5t-55 -13.5t-37 -2.5
zM320 625q-46 0 -78.5 -24.5t-53.5 -63t-30.5 -86.5t-9.5 -95t9.5 -95t30.5 -86t53.5 -62t78.5 -24t78.5 24t53.5 62t30.5 86t9.5 95t-9.5 95t-30.5 86.5t-53.5 63t-78.5 24.5z" />
    <glyph glyph-name="one" unicode="1" horiz-adv-x="265" 
d="M97 602h-79l32 98h145v-700h-98v602z" />
    <glyph glyph-name="two" unicode="2" horiz-adv-x="585" 
d="M146 298q-9 8 -26.5 24.5t-34 40t-29 53t-12.5 63.5q0 40 15 81.5t44.5 75t74 54.5t104.5 21t104 -22t73 -56t43.5 -75t14.5 -80t-14.5 -75.5t-33.5 -67t-38.5 -53t-28.5 -32.5q-3 -4 -11 -12.5t-19 -20t-23.5 -25t-24.5 -26.5q-29 -32 -64 -68h279l-24 -98h-474
q77 84 139 153q27 29 52.5 57t46.5 51t35 38t17 18q5 6 19.5 22.5t29.5 39t27 49t12 50.5t-9 48.5t-26.5 43.5t-43 31t-58.5 12t-58.5 -11.5t-43.5 -30.5t-27.5 -42.5t-9.5 -48.5t10.5 -44.5t24.5 -33.5q15 -17 35 -29z" />
    <glyph glyph-name="three" unicode="3" horiz-adv-x="565" 
d="M140 211q0 -36 17 -60t40.5 -38.5t48 -20.5t39.5 -6t39 5t46.5 18t38.5 34t16 54q0 31 -13 53.5t-33.5 37.5t-46 22t-49.5 7h-34v92h40q30 0 51.5 8.5t35 23t19.5 32.5t6 37q0 28 -12.5 48.5t-30.5 33.5t-39 19.5t-39 6.5t-39.5 -7.5t-40 -22t-31.5 -36.5t-13 -52l-96 9
q0 30 9.5 65t34 66t68 51.5t111.5 20.5q44 0 84.5 -15t71.5 -41.5t49.5 -63.5t18.5 -81q0 -38 -15 -66t-33 -47q-21 -22 -47 -37q30 -13 55 -35q21 -19 38.5 -50t17.5 -77q0 -44 -18.5 -82.5t-50 -67t-74.5 -45t-92 -16.5q-50 0 -93.5 14.5t-77 41.5t-53.5 65t-22 85z" />
    <glyph glyph-name="four" unicode="4" horiz-adv-x="605" 
d="M534 150h-79v-150h-98v150h-326v100l322 450h102v-452h108zM357 247v295l-207 -295h207z" />
    <glyph glyph-name="five" unicode="5" horiz-adv-x="550" 
d="M454 700l-26 -98h-248v-174q15 7 44.5 13t65.5 5t73 -11t68 -34t50.5 -65t19.5 -104q0 -53 -14.5 -92t-38 -66t-52.5 -44t-58 -26t-55 -12.5t-42 -3.5q-54 0 -108.5 23.5t-95.5 68.5l72 73q18 -18 39 -32q18 -12 41 -22t49 -10q28 0 57 5.5t53 21t39 43.5t15 73
q0 56 -29 84.5t-75 35t-104 -6.5t-116 -40v395h376z" />
    <glyph glyph-name="six" unicode="6" horiz-adv-x="590" 
d="M218 440q42 30 97 31t105 -24.5t84.5 -75.5t34.5 -121t-23.5 -120.5t-60.5 -80.5t-82 -45t-88 -14q-40 0 -82 16t-76 48.5t-55.5 81t-21.5 114.5q0 42 11 83.5t28.5 81.5t40 76t46.5 68q55 74 127 141h146q-49 -41 -93 -85q-38 -38 -76.5 -84t-61.5 -91zM294 89
q30 0 57 11.5t47 31.5t31.5 47t11.5 57t-11.5 57t-31.5 46.5t-47 31t-57 11.5t-57 -11.5t-46.5 -31t-31 -46.5t-11.5 -57t11.5 -57t31 -47t46.5 -31.5t57 -11.5z" />
    <glyph glyph-name="seven" unicode="7" horiz-adv-x="570" 
d="M80 700h450l-258 -700h-111l238 608h-344z" />
    <glyph glyph-name="eight" unicode="8" horiz-adv-x="570" 
d="M421 375q48 -29 77 -73.5t29 -98.5q0 -43 -19 -81t-52 -66t-77 -44.5t-94 -16.5t-94 16.5t-77 44.5t-52 66t-19 81q0 54 28.5 98.5t76.5 73.5q-38 27 -60.5 66.5t-22.5 86.5q0 40 17 76t47 62t70 41.5t86 15.5q45 0 85 -15.5t70 -41.5t47.5 -62t17.5 -76q0 -47 -23 -86.5
t-61 -66.5zM285 631q-26 0 -48 -8.5t-38.5 -22.5t-26 -33t-9.5 -41t9.5 -41t26 -33.5t38.5 -22.5t48 -8q25 0 47.5 8t39 22.5t26 33.5t9.5 41t-9.5 41t-26 33t-39 22.5t-47.5 8.5zM285 97q29 0 54.5 9t44.5 24.5t30 36t11 44.5t-11 44.5t-30 36t-44.5 24.5t-54.5 9t-54.5 -9
t-44.5 -24.5t-30 -36t-11 -44.5t11 -44.5t30 -36t44.5 -24.5t54.5 -9z" />
    <glyph glyph-name="nine" unicode="9" horiz-adv-x="590" 
d="M372 260q-42 -30 -97 -31t-105 24.5t-84.5 75.5t-34.5 121t23.5 120.5t60.5 80.5t82 45t88 14q40 0 82 -16t76 -48.5t55.5 -81t21.5 -114.5q0 -42 -11 -84t-29 -81.5t-40.5 -76t-46.5 -67.5q-55 -74 -126 -141h-146q49 41 93 85q38 38 76.5 83.5t61.5 91.5zM296 611
q-31 0 -57.5 -11.5t-46.5 -31.5t-31.5 -47t-11.5 -57t11.5 -57t31.5 -46.5t46.5 -31t57.5 -11.5q30 0 57 11.5t46.5 31t31 46.5t11.5 57t-11.5 57t-31 47t-46.5 31.5t-57 11.5z" />
    <glyph glyph-name="colon" unicode=":" horiz-adv-x="240" 
d="M54 62q0 27 19 46.5t47 19.5q27 0 46.5 -19.5t19.5 -46.5t-19.5 -46.5t-46.5 -19.5q-28 0 -47 19.5t-19 46.5zM54 360q0 27 19 46.5t47 19.5q27 0 46.5 -19.5t19.5 -46.5t-19.5 -46.5t-46.5 -19.5q-28 0 -47 19.5t-19 46.5z" />
    <glyph glyph-name="semicolon" unicode=";" horiz-adv-x="240" 
d="M55 360q0 27 19 46.5t47 19.5q27 0 46.5 -19.5t19.5 -46.5t-19.5 -46.5t-46.5 -19.5q-28 0 -47 19.5t-19 46.5zM73 162l117 17l-138 -320h-76z" />
    <glyph glyph-name="less" unicode="&#x3c;" horiz-adv-x="600" 
d="M552 -9l-506 227v68l506 227v-82l-404 -179l404 -179v-82z" />
    <glyph glyph-name="equal" unicode="=" horiz-adv-x="620" 
d="M560 404h-500v75h500v-75zM560 217h-500v75h500v-75z" />
    <glyph glyph-name="greater" unicode="&#x3e;" horiz-adv-x="600" 
d="M46 73l404 179l-404 179v82l506 -227v-68l-506 -227v82z" />
    <glyph glyph-name="question" unicode="?" horiz-adv-x="475" 
d="M172 60q0 27 19 46.5t47 19.5q27 0 46.5 -19.5t19.5 -46.5t-19.5 -46.5t-46.5 -19.5q-28 0 -47 19.5t-19 46.5zM22 589q15 25 38 47t52 37.5t62 24.5t68 9q44 0 81.5 -14.5t64.5 -40t42.5 -59t15.5 -72.5t-8.5 -65t-21.5 -43.5t-28.5 -29t-28.5 -20.5q-21 -14 -35.5 -23
t-23.5 -18.5t-13 -23t-4 -35.5v-51l-98 -29v97q0 30 8.5 50.5t21 35.5t27 25t27.5 19q14 9 28 19.5t25 23t18 29t7 38.5q0 13 -5 28.5t-16.5 29t-31 23t-48.5 9.5q-39 0 -65.5 -12.5t-43.5 -26.5q-19 -17 -32 -38z" />
    <glyph glyph-name="at" unicode="@" horiz-adv-x="810" 
d="M607 505q-16 -71 -28 -130q-5 -25 -10.5 -50t-10 -46t-8 -36t-4.5 -21q-3 -14 1.5 -20.5t12.5 -7.5t18 2t17 6q14 7 32.5 18.5t34.5 32.5t27 54t11 83q0 72 -29.5 120t-72 76t-90 39.5t-82.5 11.5q-26 0 -59 -6t-67 -20.5t-66.5 -37.5t-57.5 -56.5t-40.5 -78.5
t-15.5 -103t15.5 -103t41 -78.5t57.5 -56t65.5 -36.5t65 -20t55.5 -6q53 0 90.5 9.5t62.5 20.5q29 13 48 31l32 -43q-22 -23 -55 -41q-29 -15 -72.5 -27.5t-105.5 -12.5q-76 0 -143.5 26t-118 73.5t-80 114t-29.5 147.5q0 82 29.5 149.5t80 116t118.5 75t145 26.5
q71 0 133 -22t107.5 -62.5t71.5 -98t26 -127.5q0 -71 -22 -120.5t-55.5 -81t-75 -46t-80.5 -14.5q-23 0 -33.5 12.5t-13.5 28.5q-4 18 -1 42q-11 -24 -29 -41q-16 -14 -40.5 -24.5t-59.5 -4.5q-48 7 -75.5 31.5t-40.5 54.5t-14.5 61.5t2.5 52.5q9 50 28 83.5t44.5 53.5
t55 27.5t59.5 5.5q42 -3 65 -18.5t34 -32.5q13 -20 17 -45l18 90h64zM491 294q8 23 7.5 45.5t-8.5 42t-22.5 34t-33.5 20.5q-20 7 -40 4t-38 -14t-32 -28.5t-22 -40.5t-7 -45.5t9 -42t22 -34t34 -20.5q19 -7 39.5 -4t38 14t31.5 28.5t22 40.5z" />
    <glyph glyph-name="A" unicode="A" 
d="M486 0l-53 155h-271l-53 -155h-106l241 700h1h105h1l241 -700h-106zM193 245h209l-104 302z" />
    <glyph glyph-name="B" unicode="B" horiz-adv-x="505" 
d="M356 364q63 -20 92 -69.5t29 -109.5q0 -47 -17.5 -81.5t-47 -57.5t-68 -34.5t-79.5 -11.5h-215v700h200q20 0 54 -6t67 -25.5t57 -57.5t24 -101q0 -28 -8.5 -50.5t-22 -40.5t-30.5 -32t-35 -23zM148 612v-210h107q14 0 31.5 5.5t32.5 18t25.5 33t10.5 51.5q0 35 -12 55.5
t-28.5 31t-34.5 13t-30 2.5h-102zM245 86q40 0 66 9.5t41 25.5t21 35t6 39q0 18 -5 39.5t-19.5 39.5t-40.5 30.5t-69 12.5h-97v-231h97z" />
    <glyph glyph-name="C" unicode="C" horiz-adv-x="640" 
d="M382 80q47 0 87 17t71 47l74 -61q-47 -46 -107.5 -72t-129.5 -26q-72 0 -136 27t-111.5 75.5t-75 115.5t-27.5 147q0 76 27.5 142.5t75 116t111.5 78t136 28.5q69 0 129.5 -26t106.5 -72l-68 -63q-32 32 -73 50.5t-90 18.5q-53 0 -99.5 -21.5t-81.5 -58t-55 -86
t-20 -105.5t20 -105.5t55 -86.5t81.5 -58.5t99.5 -21.5z" />
    <glyph glyph-name="D" unicode="D" horiz-adv-x="610" 
d="M234 700q85 0 150 -31t109.5 -80.5t67.5 -112t23 -126.5q0 -90 -33.5 -156t-85 -109t-113 -64t-118.5 -21h-175v700h175zM234 91q45 0 90 17t82 50t60 81.5t23 110.5q0 71 -28 120.5t-67 81t-81 45.5t-69 14h-87v-520h77z" />
    <glyph glyph-name="E" unicode="E" horiz-adv-x="510" 
d="M471 88l-25 -88h-387v700h372l25 -88h-299v-212h209v-86h-209v-226h314z" />
    <glyph glyph-name="F" unicode="F" horiz-adv-x="440" 
d="M157 380h208v-88h-208v-292h-98v700h346l26 -88h-274v-232z" />
    <glyph glyph-name="G" unicode="G" horiz-adv-x="715" 
d="M658 396v-307q-41 -45 -113 -73t-158 -28q-77 0 -142.5 28.5t-113.5 78t-75.5 116t-27.5 142.5q0 67 27 132.5t75.5 117.5t116.5 83.5t150 31.5q78 0 138.5 -25t111.5 -70l-62 -74q-53 43 -107.5 59.5t-105 11.5t-94 -28.5t-76 -59.5t-51 -82t-18.5 -97q0 -57 21 -106.5
t55.5 -86t80 -57.5t94.5 -21q107 0 174 53v173h-207l26 88h281z" />
    <glyph glyph-name="H" unicode="H" horiz-adv-x="650" 
d="M592 700v-700h-98v312h-337v-312h-98v700h98v-298h337v298h98z" />
    <glyph glyph-name="I" unicode="I" horiz-adv-x="215" 
d="M157 700v-700h-100v700h100v0z" />
    <glyph glyph-name="J" unicode="J" horiz-adv-x="390" 
d="M331 235q0 -61 -16 -104t-42 -72t-58.5 -45.5t-65 -23.5t-62.5 -6.5t-50 5.5l-31 109q41 -14 81.5 -14t73 17.5t52.5 53.5t20 95v450h98v-465z" />
    <glyph glyph-name="K" unicode="K" horiz-adv-x="540" 
d="M411 0l-255 351v-351h-98v700h98v-335l253 335h122l-266 -344l271 -356h-125z" />
    <glyph glyph-name="L" unicode="L" horiz-adv-x="460" 
d="M453 88l-25 -88h-370v700h98v-612h297z" />
    <glyph glyph-name="M" unicode="M" horiz-adv-x="780" 
d="M131 700h110l148 -545l147 545h111l120 -700h-110l-76 482l-139 -482h-106l-140 482l-75 -482h-109z" />
    <glyph glyph-name="N" unicode="N" horiz-adv-x="690" 
d="M633 700v-700h-129l-346 559v-559h-100v700h120l355 -562v562h100z" />
    <glyph glyph-name="O" unicode="O" horiz-adv-x="785" 
d="M392 719q76 0 142.5 -28.5t116.5 -78t79 -116t29 -142.5t-29 -142.5t-79 -116t-116.5 -78t-142.5 -28.5t-143 28.5t-116.5 78t-78.5 116t-29 142.5t29 142.5t78.5 116t116.5 78t143 28.5zM392 84q56 0 105 21t86 57.5t58 86t21 105.5t-21 105.5t-58 86.5t-86 58.5
t-105 21.5t-105 -21.5t-86 -58.5t-58 -86.5t-21 -105.5t21 -105.5t58 -86t86 -57.5t105 -21z" />
    <glyph glyph-name="P" unicode="P" horiz-adv-x="505" 
d="M254 700q51 0 94 -14t74 -41t48 -67t17 -93q0 -54 -19 -94.5t-51.5 -67.5t-77 -40.5t-95.5 -13.5h-87v-269h-98v700h195zM228 358q18 0 45.5 1.5t54 13t45.5 37.5t19 75q0 44 -16.5 69.5t-41 38t-53.5 16t-53 3.5h-71v-254h71z" />
    <glyph glyph-name="Q" unicode="Q" horiz-adv-x="785" 
d="M759 354q0 -74 -27 -138t-75 -114l95 -102h-126l-39 45q-43 -27 -92 -41.5t-103 -14.5q-76 0 -143 28.5t-116.5 78t-78.5 116t-29 142.5t29 142.5t78.5 116t116.5 78t143 28.5t142.5 -28.5t116.5 -78t79 -116t29 -142.5zM392 84q35 0 68.5 9t62.5 25l-85 99l78 38l76 -82
q32 35 51 81.5t19 99.5q0 56 -21 105.5t-58 86.5t-86 58.5t-105 21.5t-105 -21.5t-86 -58.5t-58 -86.5t-21 -105.5t21 -105.5t58 -86t86 -57.5t105 -21z" />
    <glyph glyph-name="R" unicode="R" horiz-adv-x="555" 
d="M427 0l-184 284h-1h-87v-284h-98v700h195q51 0 94 -13.5t74 -40t48 -66t17 -92.5q0 -78 -37.5 -124t-98.5 -65l197 -299h-119zM155 368h71q18 0 45.5 0.5t54 10.5t45.5 35t19 74q0 44 -16.5 69t-41 37t-53.5 15t-53 3h-71v-244z" />
    <glyph glyph-name="S" unicode="S" horiz-adv-x="530" 
d="M417 570q-17 15 -38 26q-18 10 -43.5 18t-57.5 8q-25 0 -47 -7.5t-38.5 -20.5t-26.5 -32t-10 -41q0 -23 7.5 -38.5t19.5 -26.5t27.5 -18.5t31.5 -14.5l108 -40q78 -31 112 -78.5t34 -121.5q0 -37 -18 -72.5t-49 -63.5t-73 -45.5t-91 -17.5q-39 0 -76.5 8.5t-68.5 22
t-54 28.5t-34 29l62 76q19 -21 42.5 -34t46.5 -20.5t44 -10t36 -2.5q66 0 101 31.5t35 75.5q0 32 -12.5 53t-29.5 34t-35.5 20.5t-31.5 12.5t-29.5 10.5t-30.5 10.5q-18 6 -35 12q-14 5 -37 15.5t-45 31t-38.5 51.5t-16.5 77t17.5 82.5t48.5 62t71.5 39.5t87.5 14t82.5 -11
t60.5 -25q29 -16 50 -35z" />
    <glyph glyph-name="T" unicode="T" horiz-adv-x="485" 
d="M467 610h-181v-610h-98v610h-181l25 90h435v-90z" />
    <glyph glyph-name="U" unicode="U" horiz-adv-x="620" 
d="M561 700v-455q0 -65 -13.5 -113.5t-43.5 -80.5t-77.5 -48.5t-116.5 -17.5q-47 0 -92.5 8.5t-80.5 35.5t-56.5 78.5t-21.5 137.5v455h100v-485q1 -39 17 -70q7 -13 17.5 -25.5t27 -22.5t38.5 -16t51 -6t51 6t38.5 16t27 22.5t17.5 25.5q16 31 17 70v485h100z" />
    <glyph glyph-name="V" unicode="V" horiz-adv-x="630" 
d="M615 700l-247 -700h-106l-247 700h106l194 -575l194 575h106z" />
    <glyph glyph-name="W" unicode="W" horiz-adv-x="835" 
d="M715 700h106l-199 -700h-106l-95 462l-99 -462h-106l-201 700h106l140 -490l105 490h112l100 -485l137 485v0z" />
    <glyph glyph-name="X" unicode="X" horiz-adv-x="650" 
d="M273 381l-214 319h111l156 -246l159 246h112l-216 -319l255 -381h-115l-195 303l-197 -303h-115z" />
    <glyph glyph-name="Y" unicode="Y" horiz-adv-x="580" 
d="M272 276l-258 424h109l193 -324l142 324h107l-307 -700h-107z" />
    <glyph glyph-name="Z" unicode="Z" 
d="M573 90l-26 -90h-526l369 610h-339l26 90h473l-371 -610h394z" />
    <glyph glyph-name="bracketleft" unicode="[" horiz-adv-x="270" 
d="M110 721v-836h94v-62h-164v960h164v-62h-94z" />
    <glyph glyph-name="backslash" unicode="\" horiz-adv-x="320" 
d="M63 705l276 -718h-81l-277 718h82z" />
    <glyph glyph-name="bracketright" unicode="]" horiz-adv-x="270" 
d="M66 721v62h164v-960h-164v62h94v836h-94z" />
    <glyph glyph-name="asciicircum" unicode="^" horiz-adv-x="550" 
d="M131 340h-83l176 360h102l176 -360h-84l-143 290l-144 -290v0z" />
    <glyph glyph-name="underscore" unicode="_" horiz-adv-x="500" 
d="M0 -126v75h500v-75h-500z" />
    <glyph glyph-name="grave" unicode="`" horiz-adv-x="176" 
d="M61 742l93 -148h-66l-129 148h102z" />
    <glyph glyph-name="a" unicode="a" horiz-adv-x="515" 
d="M513 0h-105l-44 129h-213l-45 -129h-104l206 597h99zM182 219h150l-75 219z" />
    <glyph glyph-name="b" unicode="b" horiz-adv-x="445" 
d="M329 312q25 -11 45 -30q17 -17 31 -46t14 -74q0 -32 -11 -61t-34 -51.5t-57.5 -36t-81.5 -13.5h-187v597h174q19 0 48.5 -5.5t58 -23t49 -50.5t20.5 -87q0 -32 -11 -54.5t-24 -36.5q-15 -17 -34 -28zM146 350h80q27 0 51 20t24 61q0 24 -6.5 39t-17.5 23.5t-25.5 11.5
t-29.5 3h-76v-158zM223 87q18 0 35.5 3.5t31.5 13t22.5 25.5t8.5 41q0 36 -13.5 55t-31 27.5t-34.5 9.5t-24 1h-72v-176h77z" />
    <glyph glyph-name="c" unicode="c" horiz-adv-x="555" 
d="M322 -10q-60 0 -114.5 22.5t-96.5 64.5q-42 44 -64.5 101t-22.5 123q0 63 22.5 119t64.5 101q43 45 97 68t114 23q57 0 109 -21.5t93 -62.5l6 -6l-69 -63l-5 6q-53 55 -129 55q-42 0 -79.5 -17t-65.5 -46.5t-44 -69t-16 -84.5t16 -84.5t44 -69.5t65.5 -47t79.5 -17
q73 0 125 50l5 5l74 -60l-7 -6q-41 -41 -93 -62.5t-109 -21.5z" />
    <glyph glyph-name="d" unicode="d" horiz-adv-x="535" 
d="M211 597q77 0 133.5 -28t93 -72t54.5 -97t18 -102q0 -58 -15.5 -102.5t-40.5 -77.5t-57 -56t-65.5 -36.5t-65 -19.5t-55.5 -6h-153v597h153zM211 92q35 0 71 13.5t65.5 39.5t48.5 64.5t19 88.5q0 52 -20.5 91t-50 65.5t-63.5 39.5t-61 13h-65v-415h56z" />
    <glyph glyph-name="e" unicode="e" horiz-adv-x="455" 
d="M392 0h-335v597h323l25 -89h-251v-160h174v-87h-174v-172h264z" />
    <glyph glyph-name="f" unicode="f" horiz-adv-x="395" 
d="M156 0h-97v597h302l25 -89h-230v-177h173v-89h-173v-242z" />
    <glyph glyph-name="g" unicode="g" horiz-adv-x="620" 
d="M561 526l-62 -74q-21 17 -46 31q-21 12 -50 22t-61 10q-39 0 -77 -16t-68 -44.5t-48.5 -67.5t-18.5 -86q0 -52 19 -92.5t48.5 -68t64.5 -42t68 -14.5q35 0 60.5 6t42.5 14q20 9 34 20v132h-174l26 89h247v-266q-22 -26 -55 -45q-29 -17 -73 -30.5t-105 -13.5
q-65 0 -121 24.5t-97 66.5t-64.5 98.5t-23.5 121.5q0 57 22.5 113t63.5 100t99.5 71t129.5 27q52 0 92 -13.5t69 -29.5q33 -19 58 -43z" />
    <glyph glyph-name="h" unicode="h" horiz-adv-x="570" 
d="M514 0h-97v259h-264v-259h-97v597h97v-247h264v247h97v-597z" />
    <glyph glyph-name="i" unicode="i" horiz-adv-x="210" 
d="M154 0h-99v597h99v-597z" />
    <glyph glyph-name="j" unicode="j" horiz-adv-x="350" 
d="M293 597v-394q0 -60 -20.5 -104t-56 -71t-82.5 -36t-100 0l-31 110q32 -12 66 -15t62 8.5t46 40t18 79.5v382h98z" />
    <glyph glyph-name="k" unicode="k" horiz-adv-x="480" 
d="M477 0h-124l-200 275v-275h-97v597h97v-262l198 262h122l-227 -294z" />
    <glyph glyph-name="l" unicode="l" horiz-adv-x="410" 
d="M378 0h-321v597h97v-508h249z" />
    <glyph glyph-name="m" unicode="m" horiz-adv-x="670" 
d="M658 0h-106l-62 370l-105 -370h-101l-105 370l-62 -370h-105l101 597h107l114 -432l115 432h106z" />
    <glyph glyph-name="n" unicode="n" horiz-adv-x="605" 
d="M549 0h-119l-275 444v-444h-99v597h112l282 -447v447h99v-597z" />
    <glyph glyph-name="o" unicode="o" horiz-adv-x="675" 
d="M337 613q64 0 121 -24.5t99.5 -66.5t67 -99t24.5 -121q0 -65 -24.5 -121.5t-67 -98.5t-99.5 -66.5t-121 -24.5q-65 0 -122 24.5t-99 66.5t-66.5 98.5t-24.5 121.5q0 64 24.5 121t66.5 99t99 66.5t122 24.5zM337 86q45 0 84.5 17t69 46.5t46.5 69t17 84.5t-17 84.5
t-46.5 69t-69 46.5t-84.5 17t-84.5 -17t-69 -46.5t-46.5 -69t-17 -84.5t17 -84.5t46.5 -69t69 -46.5t84.5 -17z" />
    <glyph glyph-name="p" unicode="p" horiz-adv-x="445" 
d="M228 597q55 0 93.5 -16t62.5 -42.5t34.5 -60t10.5 -67.5q0 -35 -11.5 -68.5t-36.5 -60t-64.5 -43t-96.5 -16.5h-64v-223h-98v597h170zM214 313q65 0 93 25t28 73q0 51 -31 74t-98 23h-50v-195h58z" />
    <glyph glyph-name="q" unicode="q" horiz-adv-x="675" 
d="M525 0l-30 35q-35 -21 -75.5 -32.5t-84.5 -11.5q-65 0 -122 24.5t-99 66.5t-66.5 98.5t-24.5 121.5q0 64 24.5 121t66.5 99t99 66.5t122 24.5q64 0 121 -24.5t99.5 -66.5t67 -99t24.5 -121q0 -61 -21.5 -114t-59.5 -95l86 -93h-127zM335 86q52 0 96 23l-71 82l80 38
l61 -66q24 29 37.5 64.5t13.5 75.5q0 45 -17 84.5t-46.5 69t-69 46.5t-84.5 17t-84.5 -17t-69 -46.5t-46.5 -69t-17 -84.5t17 -84.5t46.5 -69t69 -46.5t84.5 -17z" />
    <glyph glyph-name="r" unicode="r" horiz-adv-x="495" 
d="M486 0h-118l-153 236h-60v-236h-98v597h170q54 0 92.5 -15.5t62.5 -41t35.5 -58.5t11.5 -69q0 -60 -26 -99t-83 -62zM226 321q57 0 82.5 21.5t25.5 70.5q0 32 -11.5 51t-29.5 28.5t-41 12.5t-46 3h-51v-187h71z" />
    <glyph glyph-name="s" unicode="s" horiz-adv-x="465" 
d="M360 469q-20 20 -51.5 34t-64.5 14q-40 0 -67 -23t-27 -53t20.5 -47t46.5 -27t46 -16t43 -17q12 -5 33 -14.5t42 -29t36.5 -50.5t15.5 -80q0 -30 -14.5 -61t-41 -56t-63.5 -40.5t-81 -15.5q-38 0 -72 8.5t-60.5 21t-45 26.5t-25.5 25l60 76q15 -17 35 -30
q17 -11 43.5 -20.5t63.5 -9.5q36 0 56.5 10.5t31 24t13.5 26.5t3 19q0 9 -1 20t-8.5 23t-24 24.5t-47.5 23.5q-17 6 -28 9.5t-19 6.5t-16 5.5t-20 6.5t-32 14t-39 28t-33 45t-14 67q0 39 15.5 71t42 54.5t61.5 34.5t75 12q42 0 73.5 -10.5t53.5 -23.5q26 -15 44 -33z" />
    <glyph glyph-name="t" unicode="t" horiz-adv-x="430" 
d="M257 0h-97v506h-153l25 91h375v-91h-150v-506z" />
    <glyph glyph-name="u" unicode="u" horiz-adv-x="545" 
d="M273 -10q-17 0 -36.5 1.5t-39 5.5t-38.5 11.5t-35 20.5q-68 53 -68 185v386h99v-411q-1 -14 3 -27q3 -11 9 -24.5t18 -25.5q30 -31 88 -31t88 31q11 12 17 25.5t9 24.5q3 13 3 27v411h99v-386q0 -133 -68 -185q-33 -26 -73.5 -32.5t-74.5 -6.5z" />
    <glyph glyph-name="v" unicode="v" horiz-adv-x="545" 
d="M322 0h-99l-211 597h105l155 -460l155 460h105z" />
    <glyph glyph-name="w" unicode="w" horiz-adv-x="715" 
d="M534 0h-100l-73 353l-76 -353h-100l-172 597h105l109 -382l82 382h106l77 -377l107 377h104z" />
    <glyph glyph-name="x" unicode="x" horiz-adv-x="575" 
d="M561 0h-115l-157 245l-159 -245h-116l221 324l-183 273h111l126 -197l127 197h112l-184 -273z" />
    <glyph glyph-name="y" unicode="y" horiz-adv-x="510" 
d="M236 0h-107l104 237l-219 360h109l154 -260l114 260h106z" />
    <glyph glyph-name="z" unicode="z" horiz-adv-x="525" 
d="M504 91l-26 -91h-457l307 506h-278l26 91h415l-310 -506h323z" />
    <glyph glyph-name="braceleft" unicode="{" horiz-adv-x="300" 
d="M180 399q0 -8 -1 -20t-7 -25t-18.5 -25t-34.5 -19q22 -7 34.5 -18.5t18.5 -24t7 -24.5t1 -19v-245q0 -45 18.5 -60t56.5 -15h10v-55h-21q-40 0 -65 10.5t-39.5 27.5t-19.5 38.5t-5 43.5v255q0 26 -15.5 38.5t-34.5 17.5q-22 5 -50 4v55q28 -1 50 4q19 5 34.5 17.5
t15.5 38.5v255q0 22 5 43.5t19.5 38.5t39.5 27.5t65 10.5h21v-55h-10q-38 0 -56.5 -15t-18.5 -60v-245v0z" />
    <glyph glyph-name="bar" unicode="|" horiz-adv-x="195" 
d="M63 700h70v-720h-70v720v0z" />
    <glyph glyph-name="braceright" unicode="}" horiz-adv-x="300" 
d="M120 399v245q0 45 -18.5 60t-56.5 15h-10v55h21q40 0 65 -10.5t39.5 -27.5t19.5 -38.5t5 -43.5v-255q0 -26 15.5 -38.5t34.5 -17.5q22 -5 50 -4v-55q-28 1 -50 -4q-19 -5 -34.5 -17.5t-15.5 -38.5v-255q0 -22 -5 -43.5t-19.5 -38.5t-39.5 -27.5t-65 -10.5h-21v55h10
q38 0 56.5 15t18.5 60v245q0 7 1 19t7 24.5t18.5 24t34.5 18.5q-22 7 -34.5 19t-18.5 25t-7 25t-1 20z" />
    <glyph glyph-name="asciitilde" unicode="~" horiz-adv-x="580" 
d="M59 289q11 24 29 43q15 16 38 29.5t57 13.5q30 0 59.5 -10.5t57 -23.5t52 -23.5t45.5 -10.5q18 0 34 11t28 25q14 16 26 36l36 -66q-14 -25 -32 -43q-16 -17 -39 -30t-54 -13q-29 0 -54.5 11t-50.5 23.5t-52 23.5t-60 11q-22 0 -37 -11.5t-26 -25.5q-12 -16 -21 -36
l-36 66v0z" />
    <glyph glyph-name="exclamdown" unicode="&#xa1;" horiz-adv-x="260" 
d="M62 649q0 27 19 46.5t47 19.5q27 0 46.5 -19.5t19.5 -46.5t-19.5 -46.5t-46.5 -19.5q-28 0 -47 19.5t-19 46.5zM89 523l88 -24v-503l-98 16z" />
    <glyph glyph-name="sterling" unicode="&#xa3;" horiz-adv-x="560" 
d="M522 42q-15 -16 -33 -27q-16 -11 -38 -19t-48 -8q-27 0 -56 7t-57 15t-53.5 15t-45.5 7t-38.5 -6t-32.5 -13q-17 -9 -32 -19l-53 74q15 11 36 30t40 43t32.5 52.5t13.5 59.5q0 17 -5.5 33.5t-14.5 33.5h-106v53h75q-18 31 -33 65.5t-15 78.5q0 36 14.5 71.5t43.5 63
t71.5 45t99.5 17.5q50 0 89.5 -12.5t67 -39.5t42 -69.5t14.5 -102.5h-95q0 67 -33 104t-91 37q-29 0 -51.5 -9.5t-38.5 -25.5t-24 -38t-8 -47q0 -30 21 -65t42 -73h137v-53h-113q10 -26 10 -55q0 -38 -12.5 -68.5t-26.5 -50.5q-17 -25 -38 -42q7 2 18 4q9 2 23 3t34 1t40 -5
t39 -11t37 -11t33 -5t28.5 5.5t23.5 12.5q11 8 21 18z" />
    <glyph glyph-name="currency" unicode="&#xa4;" horiz-adv-x="640" 
d="M545 325q0 -33 -9 -63t-26 -56l86 -86l-71 -70l-85 85q-26 -17 -56.5 -26t-63.5 -9t-63.5 9t-56.5 26l-85 -85l-71 70l85 86q-16 26 -25 56t-9 63t9 63.5t25 56.5l-85 85l71 71l85 -85q54 34 120 34t120 -34l85 85l71 -71l-86 -85q17 -26 26 -56.5t9 -63.5zM320 195
q27 0 50.5 10.5t41.5 28t28 41t10 50.5t-10 50.5t-28 41.5t-41.5 28t-50.5 10t-50.5 -10t-41.5 -28t-28 -41.5t-10 -50.5t10 -50.5t28 -41t41.5 -28t50.5 -10.5z" />
    <glyph glyph-name="yen" unicode="&#xa5;" horiz-adv-x="605" 
d="M381 277h97v-75h-125v-61h125v-75h-125v-66h-100v66h-125v75h125v61h-125v75h97l-195 423h101l172 -376l172 376h101z" />
    <glyph glyph-name="section" unicode="&#xa7;" horiz-adv-x="590" 
d="M456 333q38 -30 57 -70.5t19 -95.5q0 -47 -20 -88t-54 -72.5t-77.5 -49.5t-89.5 -18q-47 0 -85 10t-67.5 25t-49.5 32t-31 30l62 85q40 -42 82.5 -61t86.5 -19q33 0 60 10t46 27t29.5 39t10.5 45q0 24 -7.5 44t-19.5 36q-22 -20 -50 -31.5t-60 -11.5q-33 0 -62 12.5
t-51 34.5t-34.5 51t-12.5 62q0 19 5 39q-27 26 -48 62.5t-21 90.5q0 45 19.5 83.5t51.5 66t74.5 43t89.5 15.5t82.5 -13t60.5 -28q29 -18 50 -41l-60 -84q-17 19 -37 35q-18 14 -42.5 25t-56.5 11q-31 0 -56 -8.5t-42.5 -23.5t-27 -34.5t-9.5 -41.5q0 -23 6.5 -41.5
t17.5 -33.5q44 38 103 38q33 0 62.5 -12.5t51 -34.5t34 -51t12.5 -62v-13.5t-2 -12.5zM228 359q0 -29 20.5 -49.5t49.5 -20.5t49.5 20.5t20.5 49.5t-20.5 49.5t-49.5 20.5t-49.5 -20.5t-20.5 -49.5z" />
    <glyph glyph-name="dieresis" unicode="&#xa8;" horiz-adv-x="325" 
d="M-18 668q0 25 17 42.5t43 17.5q25 0 42.5 -17.5t17.5 -42.5t-17.5 -42.5t-42.5 -17.5q-26 0 -43 17.5t-17 42.5zM222 668q0 25 17 42.5t43 17.5q25 0 42.5 -17.5t17.5 -42.5t-17.5 -42.5t-42.5 -17.5q-26 0 -43 17.5t-17 42.5z" />
    <glyph glyph-name="guillemotleft" unicode="&#xab;" horiz-adv-x="833" 
d="M482 473l-124 -173l120 -173h-89l-116 173l120 173h89zM259 473l-124 -173l120 -173h-89l-116 173l120 173h89z" />
    <glyph glyph-name="uni00AD" unicode="&#xad;" horiz-adv-x="370" 
d="M50 313v75h270v-75h-270z" />
    <glyph glyph-name="macron" unicode="&#xaf;" horiz-adv-x="400" 
d="M50 348v65h300v-65h-300z" />
    <glyph glyph-name="degree" unicode="&#xb0;" horiz-adv-x="370" 
d="M185 700q30 0 56.5 -11t46 -30t31 -44.5t11.5 -54.5t-11.5 -54.5t-31 -44.5t-46 -30t-56.5 -11t-56.5 11t-46 30t-31 44.5t-11.5 54.5t11.5 54.5t31 44.5t46 30t56.5 11zM185 480q35 0 58.5 23.5t23.5 56.5t-23.5 56.5t-58.5 23.5t-59 -23.5t-24 -56.5t24 -56.5t59 -23.5
z" />
    <glyph glyph-name="acute" unicode="&#xb4;" horiz-adv-x="833" 
d="M183 742l-129 -148h-66l93 148h102z" />
    <glyph glyph-name="periodcentered" unicode="&#xb7;" horiz-adv-x="833" 
 />
    <glyph glyph-name="cedilla" unicode="&#xb8;" horiz-adv-x="833" 
d="M48 -157q20 -7 38 -13q16 -5 34 -9.5t32 -5.5q33 -2 48 10t15 38q0 23 -20.5 31t-44.5 7q-29 -1 -65 -10l-22 22l53 87h51l-43 -64q36 10 63 8.5t45.5 -11.5t28 -28.5t9.5 -43.5q0 -40 -30.5 -64t-85.5 -24q-28 0 -50.5 5t-39.5 12q-19 8 -36 18z" />
    <glyph glyph-name="guillemotright" unicode="&#xbb;" horiz-adv-x="833" 
d="M139 473l120 -173l-116 -173h-89l120 173l-124 173h89zM362 473l120 -173l-116 -173h-89l120 173l-124 173h89z" />
    <glyph glyph-name="questiondown" unicode="&#xbf;" horiz-adv-x="475" 
d="M301 641q0 -27 -19 -46.5t-47 -19.5q-27 0 -46.5 19.5t-19.5 46.5t19.5 46.5t46.5 19.5q28 0 47 -19.5t19 -46.5zM368 168q-13 -22 -32 -39q-17 -14 -44 -26t-65 -12q-29 0 -48.5 9.5t-31 23t-16.5 29t-5 28.5q0 22 7 38.5t18 29t25 23t28 19.5q13 9 27.5 19t27 25
t21 35.5t8.5 50.5v97l-98 -29v-51q0 -22 -4 -35.5t-13 -23t-23.5 -19t-35.5 -22.5q-14 -9 -29 -20.5t-28 -29t-21.5 -43.5t-8.5 -65t15.5 -72.5t42.5 -59t64.5 -40t81.5 -14.5q35 0 68 9t62 24.5t52 37t38 47.5z" />
    <glyph glyph-name="Agrave" unicode="&#xc0;" 
d="M271 898l93 -148h-66l-129 148h102zM486 0l-53 155h-271l-53 -155h-106l241 700h1h105h1l241 -700h-106zM193 245h209l-104 302z" />
    <glyph glyph-name="Aacute" unicode="&#xc1;" 
d="M408 898l-129 -148h-66l93 148h102zM486 0l-53 155h-271l-53 -155h-106l241 700h1h105h1l241 -700h-106zM193 245h209l-104 302z" />
    <glyph glyph-name="Acircumflex" unicode="&#xc2;" 
d="M253 908h92l118 -158h-84l-80 115l-80 -115h-83zM486 0l-53 155h-271l-53 -155h-106l241 700h1h105h1l241 -700h-106zM193 245h209l-104 302z" />
    <glyph glyph-name="Atilde" unicode="&#xc3;" 
d="M124 786q9 25 23 44q12 17 32 30.5t49 13.5q26 0 49 -10.5t43.5 -22.5t39 -22.5t36.5 -10.5q16 0 29 10t23 22q11 14 20 32l31 -63q-10 -24 -25 -42q-13 -16 -32.5 -28.5t-46.5 -12.5q-26 0 -45 10.5t-37.5 23t-39 23t-48.5 10.5q-19 0 -32 -11t-21 -25q-10 -16 -16 -35
l-32 64v0zM486 0l-53 155h-271l-53 -155h-106l241 700h1h105h1l241 -700h-106zM193 245h209l-104 302z" />
    <glyph glyph-name="Adieresis" unicode="&#xc4;" 
d="M117 818q0 25 17 42.5t43 17.5q25 0 42.5 -17.5t17.5 -42.5t-17.5 -42.5t-42.5 -17.5q-26 0 -43 17.5t-17 42.5zM357 818q0 25 17 42.5t43 17.5q25 0 42.5 -17.5t17.5 -42.5t-17.5 -42.5t-42.5 -17.5q-26 0 -43 17.5t-17 42.5zM486 0l-53 155h-271l-53 -155h-106l241 700
h1h105h1l241 -700h-106zM193 245h209l-104 302z" />
    <glyph glyph-name="Aring" unicode="&#xc5;" 
d="M300 875q-23 0 -39 -15.5t-16 -38.5t16 -38t39 -15q21 0 36.5 15.5t15.5 37.5t-15 38t-37 16zM299 722q-21 0 -39 7.5t-31.5 21t-21.5 32t-8 39.5q0 42 29 71t71 29q21 0 39 -8t31.5 -21.5t21.5 -32t8 -38.5q0 -21 -8 -39.5t-21.5 -32t-31.5 -21t-39 -7.5zM486 0l-53 155
h-271l-53 -155h-106l241 700h1h105h1l241 -700h-106zM193 245h209l-104 302z" />
    <glyph glyph-name="AE" unicode="&#xc6;" horiz-adv-x="885" 
d="M538 88h314l-25 -88h-387v300h-172l-160 -300h-106l375 700h435l25 -88h-299v-226h214v-86h-214v-212zM309 375h131v244z" />
    <glyph glyph-name="Ccedilla" unicode="&#xc7;" horiz-adv-x="640" 
d="M288 -161q20 -7 38 -13q16 -5 34 -9.5t32 -5.5q33 -2 48 10t15 38q0 23 -20.5 31t-44.5 7q-29 -1 -65 -10l-22 22l53 87h51l-43 -64q36 10 63 8.5t45.5 -11.5t28 -28.5t9.5 -43.5q0 -40 -30.5 -64t-85.5 -24q-28 0 -50.5 5t-39.5 12q-19 8 -36 18zM382 80q47 0 87 17
t71 47l74 -61q-47 -46 -107.5 -72t-129.5 -26q-72 0 -136 27t-111.5 75.5t-75 115.5t-27.5 147q0 76 27.5 142.5t75 116t111.5 78t136 28.5q69 0 129.5 -26t106.5 -72l-68 -63q-32 32 -73 50.5t-90 18.5q-53 0 -99.5 -21.5t-81.5 -58t-55 -86t-20 -105.5t20 -105.5t55 -86.5
t81.5 -58.5t99.5 -21.5z" />
    <glyph glyph-name="Egrave" unicode="&#xc8;" horiz-adv-x="534" 
d="M261 898l93 -148h-66l-129 148h102zM471 88l-25 -88h-387v700h372l25 -88h-299v-212h209v-86h-209v-226h314z" />
    <glyph glyph-name="Eacute" unicode="&#xc9;" horiz-adv-x="510" 
d="M368 898l-129 -148h-66l93 148h102zM471 88l-25 -88h-387v700h372l25 -88h-299v-212h209v-86h-209v-226h314z" />
    <glyph glyph-name="Ecircumflex" unicode="&#xca;" horiz-adv-x="510" 
d="M203 908h92l118 -158h-84l-80 115l-80 -115h-83zM471 88l-25 -88h-387v700h372l25 -88h-299v-212h209v-86h-209v-226h314z" />
    <glyph glyph-name="Edieresis" unicode="&#xcb;" horiz-adv-x="510" 
d="M77 810q0 25 17 42.5t43 17.5q25 0 42.5 -17.5t17.5 -42.5t-17.5 -42.5t-42.5 -17.5q-26 0 -43 17.5t-17 42.5zM317 810q0 25 17 42.5t43 17.5q25 0 42.5 -17.5t17.5 -42.5t-17.5 -42.5t-42.5 -17.5q-26 0 -43 17.5t-17 42.5zM471 88l-25 -88h-387v700h372l25 -88h-299
v-212h209v-86h-209v-226h314z" />
    <glyph glyph-name="Igrave" unicode="&#xcc;" horiz-adv-x="215" 
d="M92 898l93 -148h-66l-129 148h102zM157 700v-700h-100v700h100v0z" />
    <glyph glyph-name="Iacute" unicode="&#xcd;" horiz-adv-x="215" 
d="M228 898l-129 -148h-66l93 148h102zM157 700v-700h-100v700h100v0z" />
    <glyph glyph-name="Icircumflex" unicode="&#xce;" horiz-adv-x="215" 
d="M64 908h92l118 -158h-84l-80 115l-80 -115h-83zM157 700v-700h-100v700h100v0z" />
    <glyph glyph-name="Idieresis" unicode="&#xcf;" horiz-adv-x="215" 
d="M-72 810q0 25 17 42.5t43 17.5q25 0 42.5 -17.5t17.5 -42.5t-17.5 -42.5t-42.5 -17.5q-26 0 -43 17.5t-17 42.5zM168 810q0 25 17 42.5t43 17.5q25 0 42.5 -17.5t17.5 -42.5t-17.5 -42.5t-42.5 -17.5q-26 0 -43 17.5t-17 42.5zM157 700v-700h-100v700h100v0z" />
    <glyph glyph-name="Eth" unicode="&#xd0;" horiz-adv-x="620" 
d="M238 700q85 0 150 -31t109.5 -80.5t67.5 -112t23 -126.5q0 -90 -33.5 -156t-85 -109t-113 -64t-118.5 -21h-175v319h-79l26 90h53v291h175zM238 91q45 0 90 17t82 50t60 81.5t23 110.5q0 71 -28 120.5t-67 81t-81 45.5t-69 14h-87v-202h102l-25 -90h-77v-228h77z" />
    <glyph glyph-name="Ntilde" unicode="&#xd1;" horiz-adv-x="690" 
d="M164 786q9 25 23 44q12 17 32 30.5t49 13.5q26 0 49 -10.5t43.5 -22.5t39 -22.5t36.5 -10.5q16 0 29 10t23 22q11 14 20 32l31 -63q-10 -24 -25 -42q-13 -16 -32.5 -28.5t-46.5 -12.5q-26 0 -45 10.5t-37.5 23t-39 23t-48.5 10.5q-19 0 -32 -11t-21 -25q-10 -16 -16 -35
l-32 64v0zM633 700v-700h-129l-346 559v-559h-100v700h120l355 -562v562h100z" />
    <glyph glyph-name="Ograve" unicode="&#xd2;" horiz-adv-x="785" 
d="M411 898l93 -148h-66l-129 148h102zM392 719q76 0 142.5 -28.5t116.5 -78t79 -116t29 -142.5t-29 -142.5t-79 -116t-116.5 -78t-142.5 -28.5t-143 28.5t-116.5 78t-78.5 116t-29 142.5t29 142.5t78.5 116t116.5 78t143 28.5zM392 84q56 0 105 21t86 57.5t58 86t21 105.5
t-21 105.5t-58 86.5t-86 58.5t-105 21.5t-105 -21.5t-86 -58.5t-58 -86.5t-21 -105.5t21 -105.5t58 -86t86 -57.5t105 -21z" />
    <glyph glyph-name="Oacute" unicode="&#xd3;" horiz-adv-x="785" 
d="M468 898l-129 -148h-66l93 148h102zM392 719q76 0 142.5 -28.5t116.5 -78t79 -116t29 -142.5t-29 -142.5t-79 -116t-116.5 -78t-142.5 -28.5t-143 28.5t-116.5 78t-78.5 116t-29 142.5t29 142.5t78.5 116t116.5 78t143 28.5zM392 84q56 0 105 21t86 57.5t58 86t21 105.5
t-21 105.5t-58 86.5t-86 58.5t-105 21.5t-105 -21.5t-86 -58.5t-58 -86.5t-21 -105.5t21 -105.5t58 -86t86 -57.5t105 -21z" />
    <glyph glyph-name="Ocircumflex" unicode="&#xd4;" horiz-adv-x="785" 
d="M344 908h92l118 -158h-84l-80 115l-80 -115h-83zM392 719q76 0 142.5 -28.5t116.5 -78t79 -116t29 -142.5t-29 -142.5t-79 -116t-116.5 -78t-142.5 -28.5t-143 28.5t-116.5 78t-78.5 116t-29 142.5t29 142.5t78.5 116t116.5 78t143 28.5zM392 84q56 0 105 21t86 57.5
t58 86t21 105.5t-21 105.5t-58 86.5t-86 58.5t-105 21.5t-105 -21.5t-86 -58.5t-58 -86.5t-21 -105.5t21 -105.5t58 -86t86 -57.5t105 -21z" />
    <glyph glyph-name="Otilde" unicode="&#xd5;" horiz-adv-x="785" 
d="M201 796q9 25 23 44q12 17 32 30.5t49 13.5q26 0 49 -10.5t43.5 -22.5t39 -22.5t36.5 -10.5q16 0 29 10t23 22q11 14 20 32l31 -63q-10 -24 -25 -42q-13 -16 -32.5 -28.5t-46.5 -12.5q-26 0 -45 10.5t-37.5 23t-39 23t-48.5 10.5q-19 0 -32 -11t-21 -25q-10 -16 -16 -35
l-32 64v0zM392 719q76 0 142.5 -28.5t116.5 -78t79 -116t29 -142.5t-29 -142.5t-79 -116t-116.5 -78t-142.5 -28.5t-143 28.5t-116.5 78t-78.5 116t-29 142.5t29 142.5t78.5 116t116.5 78t143 28.5zM392 84q56 0 105 21t86 57.5t58 86t21 105.5t-21 105.5t-58 86.5t-86 58.5
t-105 21.5t-105 -21.5t-86 -58.5t-58 -86.5t-21 -105.5t21 -105.5t58 -86t86 -57.5t105 -21z" />
    <glyph glyph-name="Odieresis" unicode="&#xd6;" horiz-adv-x="785" 
d="M205 810q0 25 17 42.5t43 17.5q25 0 42.5 -17.5t17.5 -42.5t-17.5 -42.5t-42.5 -17.5q-26 0 -43 17.5t-17 42.5zM445 810q0 25 17 42.5t43 17.5q25 0 42.5 -17.5t17.5 -42.5t-17.5 -42.5t-42.5 -17.5q-26 0 -43 17.5t-17 42.5zM392 719q76 0 142.5 -28.5t116.5 -78
t79 -116t29 -142.5t-29 -142.5t-79 -116t-116.5 -78t-142.5 -28.5t-143 28.5t-116.5 78t-78.5 116t-29 142.5t29 142.5t78.5 116t116.5 78t143 28.5zM392 84q56 0 105 21t86 57.5t58 86t21 105.5t-21 105.5t-58 86.5t-86 58.5t-105 21.5t-105 -21.5t-86 -58.5t-58 -86.5
t-21 -105.5t21 -105.5t58 -86t86 -57.5t105 -21z" />
    <glyph glyph-name="multiply" unicode="&#xd7;" horiz-adv-x="500" 
d="M400 50l-150 150l-142 -143l-53 53l142 143l-151 151l53 53l151 -151l144 144l53 -53l-144 -144l150 -150z" />
    <glyph glyph-name="Oslash" unicode="&#xd8;" horiz-adv-x="785" 
d="M582 658q40 -24 73 -57t56 -73.5t36 -86.5t13 -96q0 -75 -29 -141.5t-78.5 -116t-116.5 -78.5t-143 -29q-63 0 -121 20l-17 -36h-81l32 67q-41 24 -74 57.5t-56.5 74t-36.5 86.5t-13 96q0 76 29 142.5t79 116t116.5 78t142.5 28.5q64 0 122 -20l15 32h82zM123 345
q0 -72 33.5 -131.5t90.5 -94.5l228 485q-20 6 -40 9.5t-42 3.5q-56 0 -105 -21.5t-86 -58.5t-58 -86.5t-21 -105.5zM393 76q56 0 105 21t86 57.5t58 85.5t21 105q0 72 -33 131.5t-88 95.5l-229 -484q39 -12 80 -12z" />
    <glyph glyph-name="Ugrave" unicode="&#xd9;" horiz-adv-x="620" 
d="M311 898l93 -148h-66l-129 148h102zM561 700v-455q0 -65 -13.5 -113.5t-43.5 -80.5t-77.5 -48.5t-116.5 -17.5q-47 0 -92.5 8.5t-80.5 35.5t-56.5 78.5t-21.5 137.5v455h100v-485q1 -39 17 -70q7 -13 17.5 -25.5t27 -22.5t38.5 -16t51 -6t51 6t38.5 16t27 22.5t17.5 25.5
q16 31 17 70v485h100z" />
    <glyph glyph-name="Uacute" unicode="&#xda;" horiz-adv-x="620" 
d="M408 898l-129 -148h-66l93 148h102zM561 700v-455q0 -65 -13.5 -113.5t-43.5 -80.5t-77.5 -48.5t-116.5 -17.5q-47 0 -92.5 8.5t-80.5 35.5t-56.5 78.5t-21.5 137.5v455h100v-485q1 -39 17 -70q7 -13 17.5 -25.5t27 -22.5t38.5 -16t51 -6t51 6t38.5 16t27 22.5t17.5 25.5
q16 31 17 70v485h100z" />
    <glyph glyph-name="Ucircumflex" unicode="&#xdb;" horiz-adv-x="620" 
d="M263 908h92l118 -158h-84l-80 115l-80 -115h-83zM561 700v-455q0 -65 -13.5 -113.5t-43.5 -80.5t-77.5 -48.5t-116.5 -17.5q-47 0 -92.5 8.5t-80.5 35.5t-56.5 78.5t-21.5 137.5v455h100v-485q1 -39 17 -70q7 -13 17.5 -25.5t27 -22.5t38.5 -16t51 -6t51 6t38.5 16
t27 22.5t17.5 25.5q16 31 17 70v485h100z" />
    <glyph glyph-name="Udieresis" unicode="&#xdc;" horiz-adv-x="620" 
d="M129 818q0 25 17 42.5t43 17.5q25 0 42.5 -17.5t17.5 -42.5t-17.5 -42.5t-42.5 -17.5q-26 0 -43 17.5t-17 42.5zM369 818q0 25 17 42.5t43 17.5q25 0 42.5 -17.5t17.5 -42.5t-17.5 -42.5t-42.5 -17.5q-26 0 -43 17.5t-17 42.5zM561 700v-455q0 -65 -13.5 -113.5
t-43.5 -80.5t-77.5 -48.5t-116.5 -17.5q-47 0 -92.5 8.5t-80.5 35.5t-56.5 78.5t-21.5 137.5v455h100v-485q1 -39 17 -70q7 -13 17.5 -25.5t27 -22.5t38.5 -16t51 -6t51 6t38.5 16t27 22.5t17.5 25.5q16 31 17 70v485h100z" />
    <glyph glyph-name="Yacute" unicode="&#xdd;" horiz-adv-x="580" 
d="M408 898l-129 -148h-66l93 148h102zM272 276l-258 424h109l193 -324l142 324h107l-307 -700h-107z" />
    <glyph glyph-name="Thorn" unicode="&#xde;" horiz-adv-x="530" 
d="M300 570q52 0 89 -17t59.5 -46.5t33 -70t10.5 -88.5t-16 -86.5t-43.5 -65.5t-64.5 -41.5t-78 -14.5q-51 0 -87 6.5t-50 11.5v-158h-98v700h98v-147q11 2 28 5t37 5.5t41 4.5t41 2zM270 226q41 0 65.5 11.5t37.5 29.5t17 40t4 43t-3 45t-15.5 44.5t-37.5 34t-68 13.5
q-35 0 -67 -5.5t-50 -10.5v-237q12 -2 41 -5t76 -3z" />
    <glyph glyph-name="germandbls" unicode="&#xdf;" horiz-adv-x="585" 
d="M413 369q26 -9 50.5 -22.5t44 -33.5t31.5 -48t12 -65q0 -66 -21.5 -109.5t-54 -69t-69.5 -36t-68 -10.5q-51 0 -95 19t-77 61v-55h-98v345h-76l24 90h52v27q0 42 8.5 86.5t34 81t70.5 60t119 23.5q46 0 83.5 -14.5t63.5 -40.5t40 -61t14 -75q0 -14 -3 -33.5t-12.5 -41
t-27 -42.5t-45.5 -36zM338 73q57 0 86 34t29 83q0 31 -8 55t-27 41t-51 26t-81 9h-30v88h12q15 0 38.5 1.5t45 12t37 33.5t15.5 66q0 24 -10 42t-25.5 30t-33.5 18.5t-34 6.5t-39 -4.5t-44.5 -19.5t-36.5 -44t-15 -79v-309l48 12q3 -17 12 -35t24 -33t36.5 -24.5t51.5 -9.5z
" />
    <glyph glyph-name="agrave" unicode="&#xe0;" horiz-adv-x="515" 
d="M513 0h-105l-44 129h-213l-45 -129h-104l206 597h99zM182 219h150l-75 219zM261 792l93 -148h-66l-129 148h102z" />
    <glyph glyph-name="aacute" unicode="&#xe1;" horiz-adv-x="515" 
d="M513 0h-105l-44 129h-213l-45 -129h-104l206 597h99zM182 219h150l-75 219zM355 792l-129 -148h-66l93 148h102z" />
    <glyph glyph-name="acircumflex" unicode="&#xe2;" horiz-adv-x="515" 
d="M513 0h-105l-44 129h-213l-45 -129h-104l206 597h99zM182 219h150l-75 219zM211 802h92l118 -158h-84l-80 115l-80 -115h-83z" />
    <glyph glyph-name="atilde" unicode="&#xe3;" horiz-adv-x="515" 
d="M513 0h-105l-44 129h-213l-45 -129h-104l206 597h99zM182 219h150l-75 219zM70 690q9 25 23 44q12 17 32 30.5t49 13.5q26 0 49 -10.5t43.5 -22.5t39 -22.5t36.5 -10.5q16 0 29 10t23 22q11 14 20 32l31 -63q-10 -24 -25 -42q-13 -16 -32.5 -28.5t-46.5 -12.5
q-26 0 -45 10.5t-37.5 23t-39 23t-48.5 10.5q-19 0 -32 -11t-21 -25q-10 -16 -16 -35l-32 64v0z" />
    <glyph glyph-name="adieresis" unicode="&#xe4;" horiz-adv-x="515" 
d="M513 0h-105l-44 129h-213l-45 -129h-104l206 597h99zM182 219h150l-75 219zM77 718q0 25 17 42.5t43 17.5q25 0 42.5 -17.5t17.5 -42.5t-17.5 -42.5t-42.5 -17.5q-26 0 -43 17.5t-17 42.5zM317 718q0 25 17 42.5t43 17.5q25 0 42.5 -17.5t17.5 -42.5t-17.5 -42.5
t-42.5 -17.5q-26 0 -43 17.5t-17 42.5z" />
    <glyph glyph-name="aring" unicode="&#xe5;" horiz-adv-x="515" 
d="M513 0h-105l-44 129h-213l-45 -129h-104l206 597h99zM182 219h150l-75 219zM258 805q-23 0 -39 -15.5t-16 -38.5t16 -38t39 -15q21 0 36.5 15.5t15.5 37.5t-15 38t-37 16zM257 652q-21 0 -39 7.5t-31.5 21t-21.5 32t-8 39.5q0 42 29 71t71 29q21 0 39 -8t31.5 -21.5
t21.5 -32t8 -38.5q0 -21 -8 -39.5t-21.5 -32t-31.5 -21t-39 -7.5z" />
    <glyph glyph-name="ae" unicode="&#xe6;" horiz-adv-x="780" 
d="M750 89l-25 -89h-335v258h-135l-138 -258h-115l332 597h379l25 -89h-251v-158h174v-87h-174v-174h263zM390 340v166l-91 -166h91z" />
    <glyph glyph-name="ccedilla" unicode="&#xe7;" horiz-adv-x="555" 
d="M322 -10q-60 0 -114.5 22.5t-96.5 64.5q-42 44 -64.5 101t-22.5 123q0 63 22.5 119t64.5 101q43 45 97 68t114 23q57 0 109 -21.5t93 -62.5l6 -6l-69 -63l-5 6q-53 55 -129 55q-42 0 -79.5 -17t-65.5 -46.5t-44 -69t-16 -84.5t16 -84.5t44 -69.5t65.5 -47t79.5 -17
q73 0 125 50l5 5l74 -60l-7 -6q-41 -41 -93 -62.5t-109 -21.5zM218 -157q20 -7 38 -13q16 -5 34 -9.5t32 -5.5q33 -2 48 10t15 38q0 23 -20.5 31t-44.5 7q-29 -1 -65 -10l-22 22l53 87h51l-43 -64q36 10 63 8.5t45.5 -11.5t28 -28.5t9.5 -43.5q0 -40 -30.5 -64t-85.5 -24
q-28 0 -50.5 5t-39.5 12q-19 8 -36 18z" />
    <glyph glyph-name="egrave" unicode="&#xe8;" horiz-adv-x="455" 
d="M392 0h-335v597h323l25 -89h-251v-160h174v-87h-174v-172h264zM251 792l93 -148h-66l-129 148h102z" />
    <glyph glyph-name="eacute" unicode="&#xe9;" horiz-adv-x="455" 
d="M392 0h-335v597h323l25 -89h-251v-160h174v-87h-174v-172h264zM328 792l-129 -148h-66l93 148h102z" />
    <glyph glyph-name="ecircumflex" unicode="&#xea;" horiz-adv-x="455" 
d="M183 802h92l118 -158h-84l-80 115l-80 -115h-83zM392 0h-335v597h323l25 -89h-251v-160h174v-87h-174v-172h264z" />
    <glyph glyph-name="edieresis" unicode="&#xeb;" horiz-adv-x="455" 
d="M392 0h-335v597h323l25 -89h-251v-160h174v-87h-174v-172h264zM32 718q0 25 17 42.5t43 17.5q25 0 42.5 -17.5t17.5 -42.5t-17.5 -42.5t-42.5 -17.5q-26 0 -43 17.5t-17 42.5zM272 718q0 25 17 42.5t43 17.5q25 0 42.5 -17.5t17.5 -42.5t-17.5 -42.5t-42.5 -17.5
q-26 0 -43 17.5t-17 42.5z" />
    <glyph glyph-name="igrave" unicode="&#xec;" horiz-adv-x="210" 
d="M154 0h-98v597h98v-597zM81 792l93 -148h-66l-129 148h102z" />
    <glyph glyph-name="iacute" unicode="&#xed;" horiz-adv-x="210" 
d="M154 0h-98v597h98v-597zM228 792l-129 -148h-66l93 148h102z" />
    <glyph glyph-name="icircumflex" unicode="&#xee;" horiz-adv-x="210" 
d="M153 0h-98v597h98v-597zM59 802h92l118 -158h-84l-80 115l-80 -115h-83z" />
    <glyph glyph-name="idieresis" unicode="&#xef;" horiz-adv-x="210" 
d="M154 0h-98v597h98v-597zM-74 718q0 25 17 42.5t43 17.5q25 0 42.5 -17.5t17.5 -42.5t-17.5 -42.5t-42.5 -17.5q-26 0 -43 17.5t-17 42.5zM166 718q0 25 17 42.5t43 17.5q25 0 42.5 -17.5t17.5 -42.5t-17.5 -42.5t-42.5 -17.5q-26 0 -43 17.5t-17 42.5z" />
    <glyph glyph-name="eth" unicode="&#xf0;" horiz-adv-x="545" 
d="M216 597q77 0 133.5 -28t93 -72t54.5 -97t18 -102q0 -58 -15.5 -102.5t-40.5 -77.5t-57 -56t-65.5 -36.5t-65 -19.5t-55.5 -6h-153v269h-76l25 85h51v243h153zM216 92q35 0 71 13.5t65.5 39.5t48.5 64.5t19 88.5q0 52 -20.5 91t-50 65.5t-63.5 39.5t-61 13h-65v-153h95
l-24 -85h-71v-177h56z" />
    <glyph glyph-name="ntilde" unicode="&#xf1;" horiz-adv-x="605" 
d="M549 0h-119l-275 444v-444h-99v597h112l282 -447v447h99v-597zM104 690q9 25 23 44q12 17 32 30.5t49 13.5q26 0 49 -10.5t43.5 -22.5t39 -22.5t36.5 -10.5q16 0 29 10t23 22q11 14 20 32l31 -63q-10 -24 -25 -42q-13 -16 -32.5 -28.5t-46.5 -12.5q-26 0 -45 10.5
t-37.5 23t-39 23t-48.5 10.5q-19 0 -32 -11t-21 -25q-10 -16 -16 -35l-32 64v0z" />
    <glyph glyph-name="ograve" unicode="&#xf2;" horiz-adv-x="675" 
d="M337 613q64 0 121 -24.5t99.5 -66.5t67 -99t24.5 -121q0 -65 -24.5 -121.5t-67 -98.5t-99.5 -66.5t-121 -24.5q-65 0 -122 24.5t-99 66.5t-66.5 98.5t-24.5 121.5q0 64 24.5 121t66.5 99t99 66.5t122 24.5zM337 86q45 0 84.5 17t69 46.5t46.5 69t17 84.5t-17 84.5
t-46.5 69t-69 46.5t-84.5 17t-84.5 -17t-69 -46.5t-46.5 -69t-17 -84.5t17 -84.5t46.5 -69t69 -46.5t84.5 -17zM331 792l93 -148h-66l-129 148h102z" />
    <glyph glyph-name="oacute" unicode="&#xf3;" horiz-adv-x="675" 
d="M337 613q64 0 121 -24.5t99.5 -66.5t67 -99t24.5 -121q0 -65 -24.5 -121.5t-67 -98.5t-99.5 -66.5t-121 -24.5q-65 0 -122 24.5t-99 66.5t-66.5 98.5t-24.5 121.5q0 64 24.5 121t66.5 99t99 66.5t122 24.5zM337 86q45 0 84.5 17t69 46.5t46.5 69t17 84.5t-17 84.5
t-46.5 69t-69 46.5t-84.5 17t-84.5 -17t-69 -46.5t-46.5 -69t-17 -84.5t17 -84.5t46.5 -69t69 -46.5t84.5 -17zM423 792l-129 -148h-66l93 148h102z" />
    <glyph glyph-name="ocircumflex" unicode="&#xf4;" horiz-adv-x="675" 
d="M337 613q64 0 121 -24.5t99.5 -66.5t67 -99t24.5 -121q0 -65 -24.5 -121.5t-67 -98.5t-99.5 -66.5t-121 -24.5q-65 0 -122 24.5t-99 66.5t-66.5 98.5t-24.5 121.5q0 64 24.5 121t66.5 99t99 66.5t122 24.5zM337 86q45 0 84.5 17t69 46.5t46.5 69t17 84.5t-17 84.5
t-46.5 69t-69 46.5t-84.5 17t-84.5 -17t-69 -46.5t-46.5 -69t-17 -84.5t17 -84.5t46.5 -69t69 -46.5t84.5 -17zM283 802h92l118 -158h-84l-80 115l-80 -115h-83z" />
    <glyph glyph-name="otilde" unicode="&#xf5;" horiz-adv-x="675" 
d="M134 690q9 25 23 44q12 17 32 30.5t49 13.5q26 0 49 -10.5t43.5 -22.5t39 -22.5t36.5 -10.5q16 0 29 10t23 22q11 14 20 32l31 -63q-10 -24 -25 -42q-13 -16 -32.5 -28.5t-46.5 -12.5q-26 0 -45 10.5t-37.5 23t-39 23t-48.5 10.5q-19 0 -32 -11t-21 -25q-10 -16 -16 -35
l-32 64v0zM337 613q64 0 121 -24.5t99.5 -66.5t67 -99t24.5 -121q0 -65 -24.5 -121.5t-67 -98.5t-99.5 -66.5t-121 -24.5q-65 0 -122 24.5t-99 66.5t-66.5 98.5t-24.5 121.5q0 64 24.5 121t66.5 99t99 66.5t122 24.5zM337 86q45 0 84.5 17t69 46.5t46.5 69t17 84.5t-17 84.5
t-46.5 69t-69 46.5t-84.5 17t-84.5 -17t-69 -46.5t-46.5 -69t-17 -84.5t17 -84.5t46.5 -69t69 -46.5t84.5 -17z" />
    <glyph glyph-name="odieresis" unicode="&#xf6;" horiz-adv-x="675" 
d="M337 613q64 0 121 -24.5t99.5 -66.5t67 -99t24.5 -121q0 -65 -24.5 -121.5t-67 -98.5t-99.5 -66.5t-121 -24.5q-65 0 -122 24.5t-99 66.5t-66.5 98.5t-24.5 121.5q0 64 24.5 121t66.5 99t99 66.5t122 24.5zM337 86q45 0 84.5 17t69 46.5t46.5 69t17 84.5t-17 84.5
t-46.5 69t-69 46.5t-84.5 17t-84.5 -17t-69 -46.5t-46.5 -69t-17 -84.5t17 -84.5t46.5 -69t69 -46.5t84.5 -17zM157 718q0 25 17 42.5t43 17.5q25 0 42.5 -17.5t17.5 -42.5t-17.5 -42.5t-42.5 -17.5q-26 0 -43 17.5t-17 42.5zM397 718q0 25 17 42.5t43 17.5q25 0 42.5 -17.5
t17.5 -42.5t-17.5 -42.5t-42.5 -17.5q-26 0 -43 17.5t-17 42.5z" />
    <glyph glyph-name="divide" unicode="&#xf7;" horiz-adv-x="526" 
d="M197 413q0 27 19.5 46.5t46.5 19.5q28 0 47 -19.5t19 -46.5q0 -28 -19 -47t-47 -19q-27 0 -46.5 19t-19.5 47zM197 93q0 27 19.5 46.5t46.5 19.5q28 0 47 -19.5t19 -46.5q0 -28 -19 -47t-47 -19q-27 0 -46.5 19t-19.5 47zM473 217v71h-420v-71h420z" />
    <glyph glyph-name="oslash" unicode="&#xf8;" horiz-adv-x="680" 
d="M506 563q68 -41 108.5 -109t40.5 -152q0 -63 -25 -119t-67.5 -97.5t-100 -65.5t-122.5 -24q-63 0 -115 21l-27 -54h-78l44 84q-64 42 -102 109t-38 146q0 64 25 120t67.5 97.5t100 65.5t123.5 24q55 0 102 -16l36 71h79zM132 302q0 -50 21 -91.5t58 -70.5l185 362
q-25 7 -56 7q-44 0 -81.5 -16t-66 -44t-44.5 -66t-16 -81zM340 96q43 0 81 16t66 44t44 65.5t16 80.5q0 54 -24 98t-63 72l-189 -365q17 -5 33.5 -8t35.5 -3z" />
    <glyph glyph-name="ugrave" unicode="&#xf9;" horiz-adv-x="545" 
d="M273 -10q-17 0 -36.5 1.5t-39 5.5t-38.5 11.5t-35 20.5q-68 53 -68 185v386h99v-411q-1 -14 3 -27q3 -11 9 -24.5t18 -25.5q30 -31 88 -31t88 31q11 12 17 25.5t9 24.5q3 13 3 27v411h99v-386q0 -133 -68 -185q-33 -26 -73.5 -32.5t-74.5 -6.5zM301 792l93 -148h-66
l-129 148h102z" />
    <glyph glyph-name="uacute" unicode="&#xfa;" horiz-adv-x="545" 
d="M273 -10q-17 0 -36.5 1.5t-39 5.5t-38.5 11.5t-35 20.5q-68 53 -68 185v386h99v-411q-1 -14 3 -27q3 -11 9 -24.5t18 -25.5q30 -31 88 -31t88 31q11 12 17 25.5t9 24.5q3 13 3 27v411h99v-386q0 -133 -68 -185q-33 -26 -73.5 -32.5t-74.5 -6.5zM348 792l-129 -148h-66
l93 148h102z" />
    <glyph glyph-name="ucircumflex" unicode="&#xfb;" horiz-adv-x="545" 
d="M273 -10q-17 0 -36.5 1.5t-39 5.5t-38.5 11.5t-35 20.5q-68 53 -68 185v386h99v-411q-1 -14 3 -27q3 -11 9 -24.5t18 -25.5q30 -31 88 -31t88 31q11 12 17 25.5t9 24.5q3 13 3 27v411h99v-386q0 -133 -68 -185q-33 -26 -73.5 -32.5t-74.5 -6.5zM223 802h92l118 -158h-84
l-80 115l-80 -115h-83z" />
    <glyph glyph-name="udieresis" unicode="&#xfc;" horiz-adv-x="545" 
d="M273 -10q-17 0 -36.5 1.5t-39 5.5t-38.5 11.5t-35 20.5q-68 53 -68 185v386h99v-411q-1 -14 3 -27q3 -11 9 -24.5t18 -25.5q30 -31 88 -31t88 31q11 12 17 25.5t9 24.5q3 13 3 27v411h99v-386q0 -133 -68 -185q-33 -26 -73.5 -32.5t-74.5 -6.5zM92 718q0 25 17 42.5
t43 17.5q25 0 42.5 -17.5t17.5 -42.5t-17.5 -42.5t-42.5 -17.5q-26 0 -43 17.5t-17 42.5zM332 718q0 25 17 42.5t43 17.5q25 0 42.5 -17.5t17.5 -42.5t-17.5 -42.5t-42.5 -17.5q-26 0 -43 17.5t-17 42.5z" />
    <glyph glyph-name="yacute" unicode="&#xfd;" horiz-adv-x="510" 
d="M236 0h-107l104 237l-219 360h109l154 -260l114 260h106zM378 742l-129 -148h-66l93 148h102z" />
    <glyph glyph-name="thorn" unicode="&#xfe;" horiz-adv-x="625" 
d="M334 543q57 0 104.5 -22t81.5 -59.5t52.5 -88.5t18.5 -108t-19.5 -108t-54 -89.5t-83 -60.5t-105.5 -22q-54 0 -97.5 14.5t-76.5 40.5v-208l-98 -21v887l98 21v-258q30 38 73.5 60t105.5 22zM323 84q37 0 68.5 14.5t54.5 39.5t36 58.5t13 70.5t-13 70t-36 57.5
t-54.5 38.5t-68.5 14t-69.5 -14t-56.5 -38.5t-38 -57.5t-14 -70t14 -70.5t38 -58.5t56.5 -39.5t69.5 -14.5z" />
    <glyph glyph-name="ydieresis" unicode="&#xff;" horiz-adv-x="510" 
d="M236 0h-107l104 237l-219 360h109l154 -260l114 260h106zM107 718q0 25 17 42.5t43 17.5q25 0 42.5 -17.5t17.5 -42.5t-17.5 -42.5t-42.5 -17.5q-26 0 -43 17.5t-17 42.5zM347 718q0 25 17 42.5t43 17.5q25 0 42.5 -17.5t17.5 -42.5t-17.5 -42.5t-42.5 -17.5
q-26 0 -43 17.5t-17 42.5z" />
    <glyph glyph-name="Amacron" unicode="&#x100;" 
d="M486 0l-53 155h-271l-53 -155h-106l241 700h1h105h1l241 -700h-106zM193 245h209l-104 302zM148 768v65h300v-65h-300z" />
    <glyph glyph-name="amacron" unicode="&#x101;" horiz-adv-x="515" 
d="M513 0h-105l-44 129h-213l-45 -129h-104l206 597h99zM182 219h150l-75 219zM107 658v65h300v-65h-300z" />
    <glyph glyph-name="Abreve" unicode="&#x102;" 
d="M486 0l-53 155h-271l-53 -155h-106l241 700h1h105h1l241 -700h-106zM193 245h209l-104 302zM180 899q4 -27 18 -48q12 -18 35.5 -32.5t66.5 -14.5q42 0 66 14.5t36 32.5q14 21 18 48h55q-3 -42 -22 -75q-17 -29 -52.5 -52t-100.5 -23q-66 0 -101 23t-52 52q-19 33 -22 75
h55z" />
    <glyph glyph-name="abreve" unicode="&#x103;" horiz-adv-x="515" 
d="M513 0h-105l-44 129h-213l-45 -129h-104l206 597h99zM182 219h150l-75 219zM137 803q4 -27 18 -48q12 -18 35.5 -32.5t66.5 -14.5q42 0 66 14.5t36 32.5q14 21 18 48h55q-3 -42 -22 -75q-17 -29 -52.5 -52t-100.5 -23q-66 0 -101 23t-52 52q-19 33 -22 75h55z" />
    <glyph glyph-name="Aogonek" unicode="&#x104;" 
d="M486 0l-53 155h-271l-53 -155h-106l241 700h1h105h1l241 -700h-106zM193 245h209l-104 302zM465 -171q26 0 57 9.5t63 26.5l19 -39q-33 -23 -69.5 -36t-78.5 -13q-21 0 -40 8t-33 22.5t-22.5 34.5t-8.5 43q0 40 21 66t54 42t73 24t78 12v-24q-21 -5 -47.5 -12t-50.5 -20
t-40.5 -33.5t-16.5 -51.5q0 -9 2 -19.5t7 -19t13 -14.5t20 -6z" />
    <glyph glyph-name="aogonek" unicode="&#x105;" horiz-adv-x="515" 
d="M513 0h-105l-44 129h-213l-45 -129h-104l206 597h99zM182 219h150l-75 219zM385 -171q26 0 57 9.5t63 26.5l19 -39q-33 -23 -69.5 -36t-78.5 -13q-21 0 -40 8t-33 22.5t-22.5 34.5t-8.5 43q0 40 21 66t54 42t73 24t78 12v-24q-21 -5 -47.5 -12t-50.5 -20t-40.5 -33.5
t-16.5 -51.5q0 -9 2 -19.5t7 -19t13 -14.5t20 -6z" />
    <glyph glyph-name="Cacute" unicode="&#x106;" horiz-adv-x="640" 
d="M382 80q47 0 87 17t71 47l74 -61q-47 -46 -107.5 -72t-129.5 -26q-72 0 -136 27t-111.5 75.5t-75 115.5t-27.5 147q0 76 27.5 142.5t75 116t111.5 78t136 28.5q69 0 129.5 -26t106.5 -72l-68 -63q-32 32 -73 50.5t-90 18.5q-53 0 -99.5 -21.5t-81.5 -58t-55 -86
t-20 -105.5t20 -105.5t55 -86.5t81.5 -58.5t99.5 -21.5zM443 898l-129 -148h-66l93 148h102z" />
    <glyph glyph-name="cacute" unicode="&#x107;" horiz-adv-x="555" 
d="M322 -10q-60 0 -114.5 22.5t-96.5 64.5q-42 44 -64.5 101t-22.5 123q0 63 22.5 119t64.5 101q43 45 97 68t114 23q57 0 109 -21.5t93 -62.5l6 -6l-69 -63l-5 6q-53 55 -129 55q-42 0 -79.5 -17t-65.5 -46.5t-44 -69t-16 -84.5t16 -84.5t44 -69.5t65.5 -47t79.5 -17
q73 0 125 50l5 5l74 -60l-7 -6q-41 -41 -93 -62.5t-109 -21.5zM423 802l-129 -148h-66l93 148h102z" />
    <glyph glyph-name="Ccaron" unicode="&#x10c;" horiz-adv-x="640" 
d="M382 80q47 0 87 17t71 47l74 -61q-47 -46 -107.5 -72t-129.5 -26q-72 0 -136 27t-111.5 75.5t-75 115.5t-27.5 147q0 76 27.5 142.5t75 116t111.5 78t136 28.5q69 0 129.5 -26t106.5 -72l-68 -63q-32 32 -73 50.5t-90 18.5q-53 0 -99.5 -21.5t-81.5 -58t-55 -86
t-20 -105.5t20 -105.5t55 -86.5t81.5 -58.5t99.5 -21.5zM176 908h83l80 -115l80 115h84l-118 -158h-92z" />
    <glyph glyph-name="ccaron" unicode="&#x10d;" horiz-adv-x="555" 
d="M322 -10q-60 0 -114.5 22.5t-96.5 64.5q-42 44 -64.5 101t-22.5 123q0 63 22.5 119t64.5 101q43 45 97 68t114 23q57 0 109 -21.5t93 -62.5l6 -6l-69 -63l-5 6q-53 55 -129 55q-42 0 -79.5 -17t-65.5 -46.5t-44 -69t-16 -84.5t16 -84.5t44 -69.5t65.5 -47t79.5 -17
q73 0 125 50l5 5l74 -60l-7 -6q-41 -41 -93 -62.5t-109 -21.5zM146 818h83l80 -115l80 115h84l-118 -158h-92z" />
    <glyph glyph-name="Dcaron" unicode="&#x10e;" horiz-adv-x="610" 
d="M234 700q85 0 150 -31t109.5 -80.5t67.5 -112t23 -126.5q0 -90 -33.5 -156t-85 -109t-113 -64t-118.5 -21h-175v700h175zM234 91q45 0 90 17t82 50t60 81.5t23 110.5q0 71 -28 120.5t-67 81t-81 45.5t-69 14h-87v-520h77zM76 918h83l80 -115l80 115h84l-118 -158h-92z
" />
    <glyph glyph-name="dcaron" unicode="&#x10f;" horiz-adv-x="535" 
d="M211 597q77 0 133.5 -28t93 -72t54.5 -97t18 -102q0 -58 -15.5 -102.5t-40.5 -77.5t-57 -56t-65.5 -36.5t-65 -19.5t-55.5 -6h-153v597h153zM211 92q35 0 71 13.5t65.5 39.5t48.5 64.5t19 88.5q0 52 -20.5 91t-50 65.5t-63.5 39.5t-61 13h-65v-415h56zM76 818h83l80 -115
l80 115h84l-118 -158h-92z" />
    <glyph glyph-name="Dcroat" unicode="&#x110;" horiz-adv-x="620" 
d="M238 700q85 0 150 -31t109.5 -80.5t67.5 -112t23 -126.5q0 -90 -33.5 -156t-85 -109t-113 -64t-118.5 -21h-175v319h-79l26 90h53v291h175zM238 91q45 0 90 17t82 50t60 81.5t23 110.5q0 71 -28 120.5t-67 81t-81 45.5t-69 14h-87v-202h102l-25 -90h-77v-228h77z" />
    <glyph glyph-name="dcroat" unicode="&#x111;" horiz-adv-x="545" 
d="M216 597q77 0 133.5 -28t93 -72t54.5 -97t18 -102q0 -58 -15.5 -102.5t-40.5 -77.5t-57 -56t-65.5 -36.5t-65 -19.5t-55.5 -6h-153v269h-76l25 85h51v243h153zM216 92q35 0 71 13.5t65.5 39.5t48.5 64.5t19 88.5q0 52 -20.5 91t-50 65.5t-63.5 39.5t-61 13h-65v-153h95
l-24 -85h-71v-177h56z" />
    <glyph glyph-name="Emacron" unicode="&#x112;" horiz-adv-x="510" 
d="M471 88l-25 -88h-387v700h372l25 -88h-299v-212h209v-86h-209v-226h314zM95 768v65h300v-65h-300z" />
    <glyph glyph-name="emacron" unicode="&#x113;" horiz-adv-x="455" 
d="M392 0h-335v597h323l25 -89h-251v-160h174v-87h-174v-172h264zM65 658v65h300v-65h-300z" />
    <glyph glyph-name="Edotaccent" unicode="&#x116;" horiz-adv-x="510" 
d="M471 88l-25 -88h-387v700h372l25 -88h-299v-212h209v-86h-209v-226h314zM164 817q0 27 19 46.5t47 19.5q27 0 46.5 -19.5t19.5 -46.5t-19.5 -46.5t-46.5 -19.5q-28 0 -47 19.5t-19 46.5z" />
    <glyph glyph-name="edotaccent" unicode="&#x117;" horiz-adv-x="455" 
d="M392 0h-335v597h323l25 -89h-251v-160h174v-87h-174v-172h264zM144 717q0 27 19 46.5t47 19.5q27 0 46.5 -19.5t19.5 -46.5t-19.5 -46.5t-46.5 -19.5q-28 0 -47 19.5t-19 46.5z" />
    <glyph glyph-name="Eogonek" unicode="&#x118;" horiz-adv-x="510" 
d="M471 88l-25 -88h-387v700h372l25 -88h-299v-212h209v-86h-209v-226h314zM331 -171q26 0 57 9.5t63 26.5l19 -39q-33 -23 -69.5 -36t-78.5 -13q-21 0 -40 8t-33 22.5t-22.5 34.5t-8.5 43q0 40 21 66t54 42t73 24t78 12v-24q-21 -5 -47.5 -12t-50.5 -20t-40.5 -33.5
t-16.5 -51.5q0 -9 2 -19.5t7 -19t13 -14.5t20 -6z" />
    <glyph glyph-name="eogonek" unicode="&#x119;" horiz-adv-x="455" 
d="M392 0h-335v597h323l25 -89h-251v-160h174v-87h-174v-172h264zM278 -171q26 0 57 9.5t63 26.5l19 -39q-33 -23 -69.5 -36t-78.5 -13q-21 0 -40 8t-33 22.5t-22.5 34.5t-8.5 43q0 40 21 66t54 42t73 24t78 12v-24q-21 -5 -47.5 -12t-50.5 -20t-40.5 -33.5t-16.5 -51.5
q0 -9 2 -19.5t7 -19t13 -14.5t20 -6z" />
    <glyph glyph-name="Ecaron" unicode="&#x11a;" horiz-adv-x="510" 
d="M471 88l-25 -88h-387v700h372l25 -88h-299v-212h209v-86h-209v-226h314zM76 908h83l80 -115l80 115h84l-118 -158h-92z" />
    <glyph glyph-name="ecaron" unicode="&#x11b;" horiz-adv-x="455" 
d="M392 0h-335v597h323l25 -89h-251v-160h174v-87h-174v-172h264zM56 818h83l80 -115l80 115h84l-118 -158h-92z" />
    <glyph glyph-name="Gbreve" unicode="&#x11e;" horiz-adv-x="715" 
d="M658 396v-307q-41 -45 -113 -73t-158 -28q-77 0 -142.5 28.5t-113.5 78t-75.5 116t-27.5 142.5q0 67 27 132.5t75.5 117.5t116.5 83.5t150 31.5q78 0 138.5 -25t111.5 -70l-62 -74q-53 43 -107.5 59.5t-105 11.5t-94 -28.5t-76 -59.5t-51 -82t-18.5 -97q0 -57 21 -106.5
t55.5 -86t80 -57.5t94.5 -21q107 0 174 53v173h-207l26 88h281zM250 899q4 -27 18 -48q12 -18 35.5 -32.5t66.5 -14.5q42 0 66 14.5t36 32.5q14 21 18 48h55q-3 -42 -22 -75q-17 -29 -52.5 -52t-100.5 -23q-66 0 -101 23t-52 52q-19 33 -22 75h55z" />
    <glyph glyph-name="gbreve" unicode="&#x11f;" horiz-adv-x="620" 
d="M561 526l-62 -74q-21 17 -46 31q-21 12 -50 22t-61 10q-39 0 -77 -16t-68 -44.5t-48.5 -67.5t-18.5 -86q0 -52 19 -92.5t48.5 -68t64.5 -42t68 -14.5q35 0 60.5 6t42.5 14q20 9 34 20v132h-174l26 89h247v-266q-22 -26 -55 -45q-29 -17 -73 -30.5t-105 -13.5
q-65 0 -121 24.5t-97 66.5t-64.5 98.5t-23.5 121.5q0 57 22.5 113t63.5 100t99.5 71t129.5 27q52 0 92 -13.5t69 -29.5q33 -19 58 -43zM197 803q4 -27 18 -48q12 -18 35.5 -32.5t66.5 -14.5q42 0 66 14.5t36 32.5q14 21 18 48h55q-3 -42 -22 -75q-17 -29 -52.5 -52
t-100.5 -23q-66 0 -101 23t-52 52q-19 33 -22 75h55z" />
    <glyph glyph-name="uni0122" unicode="&#x122;" horiz-adv-x="715" 
d="M658 396v-307q-41 -45 -113 -73t-158 -28q-77 0 -142.5 28.5t-113.5 78t-75.5 116t-27.5 142.5q0 67 27 132.5t75.5 117.5t116.5 83.5t150 31.5q78 0 138.5 -25t111.5 -70l-62 -74q-53 43 -107.5 59.5t-105 11.5t-94 -28.5t-76 -59.5t-51 -82t-18.5 -97q0 -57 21 -106.5
t55.5 -86t80 -57.5t94.5 -21q107 0 174 53v173h-207l26 88h281zM350 -176q26 0 57 9.5t63 26.5l19 -39q-33 -23 -69.5 -36t-78.5 -13q-21 0 -40 8t-33 22.5t-22.5 34.5t-8.5 43q0 40 21 66t54 42t73 24t78 12v-24q-21 -5 -47.5 -12t-50.5 -20t-40.5 -33.5t-16.5 -51.5
q0 -9 2 -19.5t7 -19t13 -14.5t20 -6z" />
    <glyph glyph-name="uni0123" unicode="&#x123;" horiz-adv-x="620" 
d="M561 526l-62 -74q-21 17 -46 31q-21 12 -50 22t-61 10q-39 0 -77 -16t-68 -44.5t-48.5 -67.5t-18.5 -86q0 -52 19 -92.5t48.5 -68t64.5 -42t68 -14.5q35 0 60.5 6t42.5 14q20 9 34 20v132h-174l26 89h247v-266q-22 -26 -55 -45q-29 -17 -73 -30.5t-105 -13.5
q-65 0 -121 24.5t-97 66.5t-64.5 98.5t-23.5 121.5q0 57 22.5 113t63.5 100t99.5 71t129.5 27q52 0 92 -13.5t69 -29.5q33 -19 58 -43zM270 -176q26 0 57 9.5t63 26.5l19 -39q-33 -23 -69.5 -36t-78.5 -13q-21 0 -40 8t-33 22.5t-22.5 34.5t-8.5 43q0 40 21 66t54 42t73 24
t78 12v-24q-21 -5 -47.5 -12t-50.5 -20t-40.5 -33.5t-16.5 -51.5q0 -9 2 -19.5t7 -19t13 -14.5t20 -6z" />
    <glyph glyph-name="Itilde" unicode="&#x128;" horiz-adv-x="215" 
d="M157 700v-700h-100v700h100v0zM-78 790q9 25 23 44q12 17 32 30.5t49 13.5q26 0 49 -10.5t43.5 -22.5t39 -22.5t36.5 -10.5q16 0 29 10t23 22q11 14 20 32l31 -63q-10 -24 -25 -42q-13 -16 -32.5 -28.5t-46.5 -12.5q-26 0 -45 10.5t-37.5 23t-39 23t-48.5 10.5
q-19 0 -32 -11t-21 -25q-10 -16 -16 -35l-32 64v0z" />
    <glyph glyph-name="itilde" unicode="&#x129;" horiz-adv-x="210" 
d="M154 0h-99v597h99v-597zM-80 700q9 25 23 44q12 17 32 30.5t49 13.5q26 0 49 -10.5t43.5 -22.5t39 -22.5t36.5 -10.5q16 0 29 10t23 22q11 14 20 32l31 -63q-10 -24 -25 -42q-13 -16 -32.5 -28.5t-46.5 -12.5q-26 0 -45 10.5t-37.5 23t-39 23t-48.5 10.5q-19 0 -32 -11
t-21 -25q-10 -16 -16 -35l-32 64v0z" />
    <glyph glyph-name="Imacron" unicode="&#x12a;" horiz-adv-x="215" 
d="M157 700v-700h-100v700h100v0zM-41 768v65h300v-65h-300z" />
    <glyph glyph-name="imacron" unicode="&#x12b;" horiz-adv-x="210" 
d="M154 0h-99v597h99v-597zM-44 658v65h300v-65h-300z" />
    <glyph glyph-name="Iogonek" unicode="&#x12e;" horiz-adv-x="215" 
d="M157 700v-700h-100v700h100v0zM45 -175q26 0 57 9.5t63 26.5l19 -39q-33 -23 -69.5 -36t-78.5 -13q-21 0 -40 8t-33 22.5t-22.5 34.5t-8.5 43q0 40 21 66t54 42t73 24t78 12v-24q-21 -5 -47.5 -12t-50.5 -20t-40.5 -33.5t-16.5 -51.5q0 -9 2 -19.5t7 -19t13 -14.5t20 -6z
" />
    <glyph glyph-name="iogonek" unicode="&#x12f;" horiz-adv-x="210" 
d="M154 0h-99v597h99v-597zM42 -175q26 0 57 9.5t63 26.5l19 -39q-33 -23 -69.5 -36t-78.5 -13q-21 0 -40 8t-33 22.5t-22.5 34.5t-8.5 43q0 40 21 66t54 42t73 24t78 12v-24q-21 -5 -47.5 -12t-50.5 -20t-40.5 -33.5t-16.5 -51.5q0 -9 2 -19.5t7 -19t13 -14.5t20 -6z" />
    <glyph glyph-name="Idotaccent" unicode="&#x130;" horiz-adv-x="215" 
d="M157 700v-700h-100v700h100v0zM42 817q0 27 19 46.5t47 19.5q27 0 46.5 -19.5t19.5 -46.5t-19.5 -46.5t-46.5 -19.5q-28 0 -47 19.5t-19 46.5z" />
    <glyph glyph-name="dotlessi" unicode="&#x131;" horiz-adv-x="210" 
d="M154 0h-98v597h98v-597z" />
    <glyph glyph-name="uni0136" unicode="&#x136;" horiz-adv-x="540" 
d="M411 0l-255 351v-351h-98v700h98v-335l253 335h122l-266 -344l271 -356h-125zM158 -157q20 -7 38 -13q16 -5 34 -9.5t32 -5.5q33 -2 48 10t15 38q0 23 -20.5 31t-44.5 7q-29 -1 -65 -10l-22 22l53 87h51l-43 -64q36 10 63 8.5t45.5 -11.5t28 -28.5t9.5 -43.5
q0 -40 -30.5 -64t-85.5 -24q-28 0 -50.5 5t-39.5 12q-19 8 -36 18z" />
    <glyph glyph-name="uni0137" unicode="&#x137;" horiz-adv-x="480" 
d="M477 0h-124l-200 275v-275h-97v597h97v-262l198 262h122l-227 -294zM138 -157q20 -7 38 -13q16 -5 34 -9.5t32 -5.5q33 -2 48 10t15 38q0 23 -20.5 31t-44.5 7q-29 -1 -65 -10l-22 22l53 87h51l-43 -64q36 10 63 8.5t45.5 -11.5t28 -28.5t9.5 -43.5q0 -40 -30.5 -64
t-85.5 -24q-28 0 -50.5 5t-39.5 12q-19 8 -36 18z" />
    <glyph glyph-name="kgreenlandic" unicode="&#x138;" horiz-adv-x="480" 
d="M477 0h-124l-200 275v-275h-97v597h97v-262l198 262h122l-227 -294z" />
    <glyph glyph-name="Lacute" unicode="&#x139;" horiz-adv-x="460" 
d="M453 88l-25 -88h-370v700h98v-612h297zM263 898l-129 -148h-66l93 148h102z" />
    <glyph glyph-name="lacute" unicode="&#x13a;" horiz-adv-x="410" 
d="M378 0h-321v597h97v-508h249zM263 808l-129 -148h-66l93 148h102z" />
    <glyph glyph-name="uni013B" unicode="&#x13b;" horiz-adv-x="460" 
d="M453 88l-25 -88h-370v700h98v-612h297zM138 -157q20 -7 38 -13q16 -5 34 -9.5t32 -5.5q33 -2 48 10t15 38q0 23 -20.5 31t-44.5 7q-29 -1 -65 -10l-22 22l53 87h51l-43 -64q36 10 63 8.5t45.5 -11.5t28 -28.5t9.5 -43.5q0 -40 -30.5 -64t-85.5 -24q-28 0 -50.5 5
t-39.5 12q-19 8 -36 18z" />
    <glyph glyph-name="uni013C" unicode="&#x13c;" horiz-adv-x="410" 
d="M378 0h-321v597h97v-508h249zM108 -157q20 -7 38 -13q16 -5 34 -9.5t32 -5.5q33 -2 48 10t15 38q0 23 -20.5 31t-44.5 7q-29 -1 -65 -10l-22 22l53 87h51l-43 -64q36 10 63 8.5t45.5 -11.5t28 -28.5t9.5 -43.5q0 -40 -30.5 -64t-85.5 -24q-28 0 -50.5 5t-39.5 12
q-19 8 -36 18z" />
    <glyph glyph-name="Lcaron" unicode="&#x13d;" horiz-adv-x="460" 
d="M453 88l-25 -88h-370v700h98v-612h297zM287 472h-66l82 228h92z" />
    <glyph glyph-name="lcaron" unicode="&#x13e;" horiz-adv-x="410" 
d="M378 0h-321v597h97v-508h249zM277 368h-66l82 228h92z" />
    <glyph glyph-name="Lslash" unicode="&#x141;" horiz-adv-x="460" 
d="M443 88l-25 -88h-370v141l-48 -45v103l48 45v456h98v-364l204 193v-103l-204 -193v-145h297z" />
    <glyph glyph-name="lslash" unicode="&#x142;" horiz-adv-x="400" 
d="M137 89h249l-25 -89h-321v138l-38 -36v103l38 36v356h97v-265l155 146v-103l-155 -146v-140v0z" />
    <glyph glyph-name="Nacute" unicode="&#x143;" horiz-adv-x="690" 
d="M633 700v-700h-129l-346 559v-559h-100v700h120l355 -562v562h100zM423 898l-129 -148h-66l93 148h102z" />
    <glyph glyph-name="nacute" unicode="&#x144;" horiz-adv-x="605" 
d="M549 0h-119l-275 444v-444h-99v597h112l282 -447v447h99v-597zM393 802l-129 -148h-66l93 148h102z" />
    <glyph glyph-name="uni0145" unicode="&#x145;" horiz-adv-x="690" 
d="M633 700v-700h-129l-346 559v-559h-100v700h120l355 -562v562h100zM228 -157q20 -7 38 -13q16 -5 34 -9.5t32 -5.5q33 -2 48 10t15 38q0 23 -20.5 31t-44.5 7q-29 -1 -65 -10l-22 22l53 87h51l-43 -64q36 10 63 8.5t45.5 -11.5t28 -28.5t9.5 -43.5q0 -40 -30.5 -64
t-85.5 -24q-28 0 -50.5 5t-39.5 12q-19 8 -36 18z" />
    <glyph glyph-name="uni0146" unicode="&#x146;" horiz-adv-x="605" 
d="M549 0h-119l-275 444v-444h-99v597h112l282 -447v447h99v-597zM198 -157q20 -7 38 -13q16 -5 34 -9.5t32 -5.5q33 -2 48 10t15 38q0 23 -20.5 31t-44.5 7q-29 -1 -65 -10l-22 22l53 87h51l-43 -64q36 10 63 8.5t45.5 -11.5t28 -28.5t9.5 -43.5q0 -40 -30.5 -64t-85.5 -24
q-28 0 -50.5 5t-39.5 12q-19 8 -36 18z" />
    <glyph glyph-name="Ncaron" unicode="&#x147;" horiz-adv-x="690" 
d="M633 700v-700h-129l-346 559v-559h-100v700h120l355 -562v562h100zM186 908h83l80 -115l80 115h84l-118 -158h-92z" />
    <glyph glyph-name="ncaron" unicode="&#x148;" horiz-adv-x="605" 
d="M549 0h-119l-275 444v-444h-99v597h112l282 -447v447h99v-597zM146 818h83l80 -115l80 115h84l-118 -158h-92z" />
    <glyph glyph-name="Eng" unicode="&#x14a;" horiz-adv-x="685" 
d="M630 700v-700v-42q0 -50 -18 -86t-47 -58.5t-66 -32t-76 -5.5l-25 87q52 0 79.5 10t39.5 25t13.5 31.5t1.5 28.5v22l-377 579v-559h-100v700h120l355 -552v552h100z" />
    <glyph glyph-name="eng" unicode="&#x14b;" horiz-adv-x="605" 
d="M549 597v-640q0 -50 -18 -85.5t-47 -58t-66 -32t-76 -6.5l-25 88q52 -1 79.5 9t39.5 25t13.5 31.5t1.5 28.5v16l-296 471v-444h-99v597h112l282 -447v447h99z" />
    <glyph glyph-name="Omacron" unicode="&#x14c;" horiz-adv-x="785" 
d="M392 719q76 0 142.5 -28.5t116.5 -78t79 -116t29 -142.5t-29 -142.5t-79 -116t-116.5 -78t-142.5 -28.5t-143 28.5t-116.5 78t-78.5 116t-29 142.5t29 142.5t78.5 116t116.5 78t143 28.5zM392 84q56 0 105 21t86 57.5t58 86t21 105.5t-21 105.5t-58 86.5t-86 58.5
t-105 21.5t-105 -21.5t-86 -58.5t-58 -86.5t-21 -105.5t21 -105.5t58 -86t86 -57.5t105 -21zM240 768v65h300v-65h-300z" />
    <glyph glyph-name="omacron" unicode="&#x14d;" horiz-adv-x="675" 
d="M337 613q64 0 121 -24.5t99.5 -66.5t67 -99t24.5 -121q0 -65 -24.5 -121.5t-67 -98.5t-99.5 -66.5t-121 -24.5q-65 0 -122 24.5t-99 66.5t-66.5 98.5t-24.5 121.5q0 64 24.5 121t66.5 99t99 66.5t122 24.5zM337 86q45 0 84.5 17t69 46.5t46.5 69t17 84.5t-17 84.5
t-46.5 69t-69 46.5t-84.5 17t-84.5 -17t-69 -46.5t-46.5 -69t-17 -84.5t17 -84.5t46.5 -69t69 -46.5t84.5 -17zM185 658v65h300v-65h-300z" />
    <glyph glyph-name="Ohungarumlaut" unicode="&#x150;" horiz-adv-x="785" 
d="M392 719q76 0 142.5 -28.5t116.5 -78t79 -116t29 -142.5t-29 -142.5t-79 -116t-116.5 -78t-142.5 -28.5t-143 28.5t-116.5 78t-78.5 116t-29 142.5t29 142.5t78.5 116t116.5 78t143 28.5zM392 84q56 0 105 21t86 57.5t58 86t21 105.5t-21 105.5t-58 86.5t-86 58.5
t-105 21.5t-105 -21.5t-86 -58.5t-58 -86.5t-21 -105.5t21 -105.5t58 -86t86 -57.5t105 -21zM248 755l38 148h106l-83 -148h-61zM423 755l66 148h112l-110 -148h-68z" />
    <glyph glyph-name="ohungarumlaut" unicode="&#x151;" horiz-adv-x="675" 
d="M337 613q64 0 121 -24.5t99.5 -66.5t67 -99t24.5 -121q0 -65 -24.5 -121.5t-67 -98.5t-99.5 -66.5t-121 -24.5q-65 0 -122 24.5t-99 66.5t-66.5 98.5t-24.5 121.5q0 64 24.5 121t66.5 99t99 66.5t122 24.5zM337 86q45 0 84.5 17t69 46.5t46.5 69t17 84.5t-17 84.5
t-46.5 69t-69 46.5t-84.5 17t-84.5 -17t-69 -46.5t-46.5 -69t-17 -84.5t17 -84.5t46.5 -69t69 -46.5t84.5 -17zM188 665l38 148h106l-83 -148h-61zM363 665l66 148h112l-110 -148h-68z" />
    <glyph glyph-name="Racute" unicode="&#x154;" horiz-adv-x="555" 
d="M427 0l-184 284h-1h-87v-284h-98v700h195q51 0 94 -13.5t74 -40t48 -66t17 -92.5q0 -78 -37.5 -124t-98.5 -65l197 -299h-119zM155 368h71q18 0 45.5 0.5t54 10.5t45.5 35t19 74q0 44 -16.5 69t-41 37t-53.5 15t-53 3h-71v-244zM333 898l-129 -148h-66l93 148h102z" />
    <glyph glyph-name="racute" unicode="&#x155;" horiz-adv-x="495" 
d="M486 0h-118l-153 236h-60v-236h-98v597h170q54 0 92.5 -15.5t62.5 -41t35.5 -58.5t11.5 -69q0 -60 -26 -99t-83 -62zM226 321q57 0 82.5 21.5t25.5 70.5q0 32 -11.5 51t-29.5 28.5t-41 12.5t-46 3h-51v-187h71zM293 802l-129 -148h-66l93 148h102z" />
    <glyph glyph-name="uni0156" unicode="&#x156;" horiz-adv-x="555" 
d="M427 0l-184 284h-1h-87v-284h-98v700h195q51 0 94 -13.5t74 -40t48 -66t17 -92.5q0 -78 -37.5 -124t-98.5 -65l197 -299h-119zM155 368h71q18 0 45.5 0.5t54 10.5t45.5 35t19 74q0 44 -16.5 69t-41 37t-53.5 15t-53 3h-71v-244zM168 -157q20 -7 38 -13q16 -5 34 -9.5
t32 -5.5q33 -2 48 10t15 38q0 23 -20.5 31t-44.5 7q-29 -1 -65 -10l-22 22l53 87h51l-43 -64q36 10 63 8.5t45.5 -11.5t28 -28.5t9.5 -43.5q0 -40 -30.5 -64t-85.5 -24q-28 0 -50.5 5t-39.5 12q-19 8 -36 18z" />
    <glyph glyph-name="uni0157" unicode="&#x157;" horiz-adv-x="495" 
d="M486 0h-118l-153 236h-60v-236h-98v597h170q54 0 92.5 -15.5t62.5 -41t35.5 -58.5t11.5 -69q0 -60 -26 -99t-83 -62zM226 321q57 0 82.5 21.5t25.5 70.5q0 32 -11.5 51t-29.5 28.5t-41 12.5t-46 3h-51v-187h71zM148 -157q20 -7 38 -13q16 -5 34 -9.5t32 -5.5q33 -2 48 10
t15 38q0 23 -20.5 31t-44.5 7q-29 -1 -65 -10l-22 22l53 87h51l-43 -64q36 10 63 8.5t45.5 -11.5t28 -28.5t9.5 -43.5q0 -40 -30.5 -64t-85.5 -24q-28 0 -50.5 5t-39.5 12q-19 8 -36 18z" />
    <glyph glyph-name="Rcaron" unicode="&#x158;" horiz-adv-x="555" 
d="M427 0l-184 284h-1h-87v-284h-98v700h195q51 0 94 -13.5t74 -40t48 -66t17 -92.5q0 -78 -37.5 -124t-98.5 -65l197 -299h-119zM155 368h71q18 0 45.5 0.5t54 10.5t45.5 35t19 74q0 44 -16.5 69t-41 37t-53.5 15t-53 3h-71v-244zM76 908h83l80 -115l80 115h84l-118 -158
h-92z" />
    <glyph glyph-name="rcaron" unicode="&#x159;" horiz-adv-x="495" 
d="M486 0h-118l-153 236h-60v-236h-98v597h170q54 0 92.5 -15.5t62.5 -41t35.5 -58.5t11.5 -69q0 -60 -26 -99t-83 -62zM226 321q57 0 82.5 21.5t25.5 70.5q0 32 -11.5 51t-29.5 28.5t-41 12.5t-46 3h-51v-187h71zM46 818h83l80 -115l80 115h84l-118 -158h-92z" />
    <glyph glyph-name="Sacute" unicode="&#x15a;" horiz-adv-x="530" 
d="M417 570q-17 15 -38 26q-18 10 -43.5 18t-57.5 8q-25 0 -47 -7.5t-38.5 -20.5t-26.5 -32t-10 -41q0 -23 7.5 -38.5t19.5 -26.5t27.5 -18.5t31.5 -14.5l108 -40q78 -31 112 -78.5t34 -121.5q0 -37 -18 -72.5t-49 -63.5t-73 -45.5t-91 -17.5q-39 0 -76.5 8.5t-68.5 22
t-54 28.5t-34 29l62 76q19 -21 42.5 -34t46.5 -20.5t44 -10t36 -2.5q66 0 101 31.5t35 75.5q0 32 -12.5 53t-29.5 34t-35.5 20.5t-31.5 12.5t-29.5 10.5t-30.5 10.5q-18 6 -35 12q-14 5 -37 15.5t-45 31t-38.5 51.5t-16.5 77t17.5 82.5t48.5 62t71.5 39.5t87.5 14t82.5 -11
t60.5 -25q29 -16 50 -35zM373 898l-129 -148h-66l93 148h102z" />
    <glyph glyph-name="sacute" unicode="&#x15b;" horiz-adv-x="465" 
d="M360 469q-20 20 -51.5 34t-64.5 14q-40 0 -67 -23t-27 -53t20.5 -47t46.5 -27t46 -16t43 -17q12 -5 33 -14.5t42 -29t36.5 -50.5t15.5 -80q0 -30 -14.5 -61t-41 -56t-63.5 -40.5t-81 -15.5q-38 0 -72 8.5t-60.5 21t-45 26.5t-25.5 25l60 76q15 -17 35 -30
q17 -11 43.5 -20.5t63.5 -9.5q36 0 56.5 10.5t31 24t13.5 26.5t3 19q0 9 -1 20t-8.5 23t-24 24.5t-47.5 23.5q-17 6 -28 9.5t-19 6.5t-16 5.5t-20 6.5t-32 14t-39 28t-33 45t-14 67q0 39 15.5 71t42 54.5t61.5 34.5t75 12q42 0 73.5 -10.5t53.5 -23.5q26 -15 44 -33z
M353 802l-129 -148h-66l93 148h102z" />
    <glyph glyph-name="Scedilla" unicode="&#x15e;" horiz-adv-x="530" 
d="M417 570q-17 15 -38 26q-18 10 -43.5 18t-57.5 8q-25 0 -47 -7.5t-38.5 -20.5t-26.5 -32t-10 -41q0 -23 7.5 -38.5t19.5 -26.5t27.5 -18.5t31.5 -14.5l108 -40q78 -31 112 -78.5t34 -121.5q0 -37 -18 -72.5t-49 -63.5t-73 -45.5t-91 -17.5q-39 0 -76.5 8.5t-68.5 22
t-54 28.5t-34 29l62 76q19 -21 42.5 -34t46.5 -20.5t44 -10t36 -2.5q66 0 101 31.5t35 75.5q0 32 -12.5 53t-29.5 34t-35.5 20.5t-31.5 12.5t-29.5 10.5t-30.5 10.5q-18 6 -35 12q-14 5 -37 15.5t-45 31t-38.5 51.5t-16.5 77t17.5 82.5t48.5 62t71.5 39.5t87.5 14t82.5 -11
t60.5 -25q29 -16 50 -35zM178 -157q20 -7 38 -13q16 -5 34 -9.5t32 -5.5q33 -2 48 10t15 38q0 23 -20.5 31t-44.5 7q-29 -1 -65 -10l-22 22l53 87h51l-43 -64q36 10 63 8.5t45.5 -11.5t28 -28.5t9.5 -43.5q0 -40 -30.5 -64t-85.5 -24q-28 0 -50.5 5t-39.5 12q-19 8 -36 18z
" />
    <glyph glyph-name="scedilla" unicode="&#x15f;" horiz-adv-x="465" 
d="M360 469q-20 20 -51.5 34t-64.5 14q-40 0 -67 -23t-27 -53t20.5 -47t46.5 -27t46 -16t43 -17q12 -5 33 -14.5t42 -29t36.5 -50.5t15.5 -80q0 -30 -14.5 -61t-41 -56t-63.5 -40.5t-81 -15.5q-38 0 -72 8.5t-60.5 21t-45 26.5t-25.5 25l60 76q15 -17 35 -30
q17 -11 43.5 -20.5t63.5 -9.5q36 0 56.5 10.5t31 24t13.5 26.5t3 19q0 9 -1 20t-8.5 23t-24 24.5t-47.5 23.5q-17 6 -28 9.5t-19 6.5t-16 5.5t-20 6.5t-32 14t-39 28t-33 45t-14 67q0 39 15.5 71t42 54.5t61.5 34.5t75 12q42 0 73.5 -10.5t53.5 -23.5q26 -15 44 -33z
M148 -157q20 -7 38 -13q16 -5 34 -9.5t32 -5.5q33 -2 48 10t15 38q0 23 -20.5 31t-44.5 7q-29 -1 -65 -10l-22 22l53 87h51l-43 -64q36 10 63 8.5t45.5 -11.5t28 -28.5t9.5 -43.5q0 -40 -30.5 -64t-85.5 -24q-28 0 -50.5 5t-39.5 12q-19 8 -36 18z" />
    <glyph glyph-name="Scaron" unicode="&#x160;" horiz-adv-x="530" 
d="M106 918h83l80 -115l80 115h84l-118 -158h-92zM417 570q-17 15 -38 26q-18 10 -43.5 18t-57.5 8q-25 0 -47 -7.5t-38.5 -20.5t-26.5 -32t-10 -41q0 -23 7.5 -38.5t19.5 -26.5t27.5 -18.5t31.5 -14.5l108 -40q78 -31 112 -78.5t34 -121.5q0 -37 -18 -72.5t-49 -63.5
t-73 -45.5t-91 -17.5q-39 0 -76.5 8.5t-68.5 22t-54 28.5t-34 29l62 76q19 -21 42.5 -34t46.5 -20.5t44 -10t36 -2.5q66 0 101 31.5t35 75.5q0 32 -12.5 53t-29.5 34t-35.5 20.5t-31.5 12.5t-29.5 10.5t-30.5 10.5q-18 6 -35 12q-14 5 -37 15.5t-45 31t-38.5 51.5t-16.5 77
t17.5 82.5t48.5 62t71.5 39.5t87.5 14t82.5 -11t60.5 -25q29 -16 50 -35z" />
    <glyph glyph-name="scaron" unicode="&#x161;" horiz-adv-x="465" 
d="M360 469q-20 20 -51.5 34t-64.5 14q-40 0 -67 -23t-27 -53t20.5 -47t46.5 -27t46 -16t43 -17q12 -5 33 -14.5t42 -29t36.5 -50.5t15.5 -80q0 -30 -14.5 -61t-41 -56t-63.5 -40.5t-81 -15.5q-38 0 -72 8.5t-60.5 21t-45 26.5t-25.5 25l60 76q15 -17 35 -30
q17 -11 43.5 -20.5t63.5 -9.5q36 0 56.5 10.5t31 24t13.5 26.5t3 19q0 9 -1 20t-8.5 23t-24 24.5t-47.5 23.5q-17 6 -28 9.5t-19 6.5t-16 5.5t-20 6.5t-32 14t-39 28t-33 45t-14 67q0 39 15.5 71t42 54.5t61.5 34.5t75 12q42 0 73.5 -10.5t53.5 -23.5q26 -15 44 -33zM71 802
h83l80 -115l80 115h84l-118 -158h-92z" />
    <glyph glyph-name="uni0162" unicode="&#x162;" horiz-adv-x="485" 
d="M467 610h-181v-610h-98v610h-181l25 90h435v-90zM168 -157q20 -7 38 -13q16 -5 34 -9.5t32 -5.5q33 -2 48 10t15 38q0 23 -20.5 31t-44.5 7q-29 -1 -65 -10l-22 22l53 87h51l-43 -64q36 10 63 8.5t45.5 -11.5t28 -28.5t9.5 -43.5q0 -40 -30.5 -64t-85.5 -24
q-28 0 -50.5 5t-39.5 12q-19 8 -36 18z" />
    <glyph glyph-name="uni0163" unicode="&#x163;" horiz-adv-x="425" 
d="M257 0h-97v506h-153l25 91h375v-91h-150v-506zM138 -157q20 -7 38 -13q16 -5 34 -9.5t32 -5.5q33 -2 48 10t15 38q0 23 -20.5 31t-44.5 7q-29 -1 -65 -10l-22 22l53 87h51l-43 -64q36 10 63 8.5t45.5 -11.5t28 -28.5t9.5 -43.5q0 -40 -30.5 -64t-85.5 -24q-28 0 -50.5 5
t-39.5 12q-19 8 -36 18z" />
    <glyph glyph-name="Tcaron" unicode="&#x164;" horiz-adv-x="485" 
d="M467 610h-181v-610h-98v610h-181l25 90h435v-90zM76 908h83l80 -115l80 115h84l-118 -158h-92z" />
    <glyph glyph-name="tcaron" unicode="&#x165;" horiz-adv-x="425" 
d="M257 0h-97v506h-153l25 91h375v-91h-150v-506zM46 818h83l80 -115l80 115h84l-118 -158h-92z" />
    <glyph glyph-name="Tbar" unicode="&#x166;" horiz-adv-x="485" 
d="M70 383v75h330v-75h-330zM467 610h-181v-610h-98v610h-181l25 90h435v-90z" />
    <glyph glyph-name="tbar" unicode="&#x167;" horiz-adv-x="425" 
d="M45 303v75h330v-75h-330zM257 0h-97v506h-153l25 91h375v-91h-150v-506z" />
    <glyph glyph-name="Utilde" unicode="&#x168;" horiz-adv-x="620" 
d="M561 700v-455q0 -65 -13.5 -113.5t-43.5 -80.5t-77.5 -48.5t-116.5 -17.5q-47 0 -92.5 8.5t-80.5 35.5t-56.5 78.5t-21.5 137.5v455h100v-485q1 -39 17 -70q7 -13 17.5 -25.5t27 -22.5t38.5 -16t51 -6t51 6t38.5 16t27 22.5t17.5 25.5q16 31 17 70v485h100zM124 790
q9 25 23 44q12 17 32 30.5t49 13.5q26 0 49 -10.5t43.5 -22.5t39 -22.5t36.5 -10.5q16 0 29 10t23 22q11 14 20 32l31 -63q-10 -24 -25 -42q-13 -16 -32.5 -28.5t-46.5 -12.5q-26 0 -45 10.5t-37.5 23t-39 23t-48.5 10.5q-19 0 -32 -11t-21 -25q-10 -16 -16 -35l-32 64v0z
" />
    <glyph glyph-name="utilde" unicode="&#x169;" horiz-adv-x="545" 
d="M273 -10q-17 0 -36.5 1.5t-39 5.5t-38.5 11.5t-35 20.5q-68 53 -68 185v386h99v-411q-1 -14 3 -27q3 -11 9 -24.5t18 -25.5q30 -31 88 -31t88 31q11 12 17 25.5t9 24.5q3 13 3 27v411h99v-386q0 -133 -68 -185q-33 -26 -73.5 -32.5t-74.5 -6.5zM84 700q9 25 23 44
q12 17 32 30.5t49 13.5q26 0 49 -10.5t43.5 -22.5t39 -22.5t36.5 -10.5q16 0 29 10t23 22q11 14 20 32l31 -63q-10 -24 -25 -42q-13 -16 -32.5 -28.5t-46.5 -12.5q-26 0 -45 10.5t-37.5 23t-39 23t-48.5 10.5q-19 0 -32 -11t-21 -25q-10 -16 -16 -35l-32 64v0z" />
    <glyph glyph-name="Umacron" unicode="&#x16a;" horiz-adv-x="620" 
d="M561 700v-455q0 -65 -13.5 -113.5t-43.5 -80.5t-77.5 -48.5t-116.5 -17.5q-47 0 -92.5 8.5t-80.5 35.5t-56.5 78.5t-21.5 137.5v455h100v-485q1 -39 17 -70q7 -13 17.5 -25.5t27 -22.5t38.5 -16t51 -6t51 6t38.5 16t27 22.5t17.5 25.5q16 31 17 70v485h100zM161 768v65
h300v-65h-300z" />
    <glyph glyph-name="umacron" unicode="&#x16b;" horiz-adv-x="545" 
d="M273 -10q-17 0 -36.5 1.5t-39 5.5t-38.5 11.5t-35 20.5q-68 53 -68 185v386h99v-411q-1 -14 3 -27q3 -11 9 -24.5t18 -25.5q30 -31 88 -31t88 31q11 12 17 25.5t9 24.5q3 13 3 27v411h99v-386q0 -133 -68 -185q-33 -26 -73.5 -32.5t-74.5 -6.5zM125 658v65h300v-65h-300z
" />
    <glyph glyph-name="Uring" unicode="&#x16e;" horiz-adv-x="620" 
d="M561 700v-455q0 -65 -13.5 -113.5t-43.5 -80.5t-77.5 -48.5t-116.5 -17.5q-47 0 -92.5 8.5t-80.5 35.5t-56.5 78.5t-21.5 137.5v455h100v-485q1 -39 17 -70q7 -13 17.5 -25.5t27 -22.5t38.5 -16t51 -6t51 6t38.5 16t27 22.5t17.5 25.5q16 31 17 70v485h100zM311 905
q-23 0 -39 -15.5t-16 -38.5t16 -38t39 -15q21 0 36.5 15.5t15.5 37.5t-15 38t-37 16zM310 752q-21 0 -39 7.5t-31.5 21t-21.5 32t-8 39.5q0 42 29 71t71 29q21 0 39 -8t31.5 -21.5t21.5 -32t8 -38.5q0 -21 -8 -39.5t-21.5 -32t-31.5 -21t-39 -7.5z" />
    <glyph glyph-name="uring" unicode="&#x16f;" horiz-adv-x="545" 
d="M273 -10q-17 0 -36.5 1.5t-39 5.5t-38.5 11.5t-35 20.5q-68 53 -68 185v386h99v-411q-1 -14 3 -27q3 -11 9 -24.5t18 -25.5q30 -31 88 -31t88 31q11 12 17 25.5t9 24.5q3 13 3 27v411h99v-386q0 -133 -68 -185q-33 -26 -73.5 -32.5t-74.5 -6.5zM274 795q-23 0 -39 -15.5
t-16 -38.5t16 -38t39 -15q21 0 36.5 15.5t15.5 37.5t-15 38t-37 16zM273 642q-21 0 -39 7.5t-31.5 21t-21.5 32t-8 39.5q0 42 29 71t71 29q21 0 39 -8t31.5 -21.5t21.5 -32t8 -38.5q0 -21 -8 -39.5t-21.5 -32t-31.5 -21t-39 -7.5z" />
    <glyph glyph-name="Uhungarumlaut" unicode="&#x170;" horiz-adv-x="620" 
d="M561 700v-455q0 -65 -13.5 -113.5t-43.5 -80.5t-77.5 -48.5t-116.5 -17.5q-47 0 -92.5 8.5t-80.5 35.5t-56.5 78.5t-21.5 137.5v455h100v-485q1 -39 17 -70q7 -13 17.5 -25.5t27 -22.5t38.5 -16t51 -6t51 6t38.5 16t27 22.5t17.5 25.5q16 31 17 70v485h100zM168 755
l38 148h106l-83 -148h-61zM343 755l66 148h112l-110 -148h-68z" />
    <glyph glyph-name="uhungarumlaut" unicode="&#x171;" horiz-adv-x="545" 
d="M273 -10q-17 0 -36.5 1.5t-39 5.5t-38.5 11.5t-35 20.5q-68 53 -68 185v386h99v-411q-1 -14 3 -27q3 -11 9 -24.5t18 -25.5q30 -31 88 -31t88 31q11 12 17 25.5t9 24.5q3 13 3 27v411h99v-386q0 -133 -68 -185q-33 -26 -73.5 -32.5t-74.5 -6.5zM128 665l38 148h106
l-83 -148h-61zM303 665l66 148h112l-110 -148h-68z" />
    <glyph glyph-name="Uogonek" unicode="&#x172;" horiz-adv-x="620" 
d="M561 700v-455q0 -65 -13.5 -113.5t-43.5 -80.5t-77.5 -48.5t-116.5 -17.5q-47 0 -92.5 8.5t-80.5 35.5t-56.5 78.5t-21.5 137.5v455h100v-485q1 -39 17 -70q7 -13 17.5 -25.5t27 -22.5t38.5 -16t51 -6t51 6t38.5 16t27 22.5t17.5 25.5q16 31 17 70v485h100zM274 -180
q26 0 57 9.5t63 26.5l19 -39q-33 -23 -69.5 -36t-78.5 -13q-21 0 -40 8t-33 22.5t-22.5 34.5t-8.5 43q0 40 21 66t54 42t73 24t78 12v-24q-21 -5 -47.5 -12t-50.5 -20t-40.5 -33.5t-16.5 -51.5q0 -9 2 -19.5t7 -19t13 -14.5t20 -6z" />
    <glyph glyph-name="uogonek" unicode="&#x173;" horiz-adv-x="545" 
d="M273 -10q-17 0 -36.5 1.5t-39 5.5t-38.5 11.5t-35 20.5q-68 53 -68 185v386h99v-411q-1 -14 3 -27q3 -11 9 -24.5t18 -25.5q30 -31 88 -31t88 31q11 12 17 25.5t9 24.5q3 13 3 27v411h99v-386q0 -133 -68 -185q-33 -26 -73.5 -32.5t-74.5 -6.5zM234 -175q26 0 57 9.5
t63 26.5l19 -39q-33 -23 -69.5 -36t-78.5 -13q-21 0 -40 8t-33 22.5t-22.5 34.5t-8.5 43q0 40 21 66t54 42t73 24t78 12v-24q-21 -5 -47.5 -12t-50.5 -20t-40.5 -33.5t-16.5 -51.5q0 -9 2 -19.5t7 -19t13 -14.5t20 -6z" />
    <glyph glyph-name="Ydieresis" unicode="&#x178;" horiz-adv-x="575" 
d="M127 810q0 25 17 42.5t43 17.5q25 0 42.5 -17.5t17.5 -42.5t-17.5 -42.5t-42.5 -17.5q-26 0 -43 17.5t-17 42.5zM367 810q0 25 17 42.5t43 17.5q25 0 42.5 -17.5t17.5 -42.5t-17.5 -42.5t-42.5 -17.5q-26 0 -43 17.5t-17 42.5zM272 276l-258 424h109l193 -324l142 324
h107l-307 -700h-107z" />
    <glyph glyph-name="Zacute" unicode="&#x179;" 
d="M573 90l-26 -90h-526l369 610h-339l26 90h473l-371 -610h394zM423 898l-129 -148h-66l93 148h102z" />
    <glyph glyph-name="zacute" unicode="&#x17a;" horiz-adv-x="525" 
d="M504 91l-26 -91h-457l307 506h-278l26 91h415l-310 -506h323zM363 802l-129 -148h-66l93 148h102z" />
    <glyph glyph-name="Zdotaccent" unicode="&#x17b;" 
d="M573 90l-26 -90h-526l369 610h-339l26 90h473l-371 -610h394zM224 817q0 27 19 46.5t47 19.5q27 0 46.5 -19.5t19.5 -46.5t-19.5 -46.5t-46.5 -19.5q-28 0 -47 19.5t-19 46.5z" />
    <glyph glyph-name="zdotaccent" unicode="&#x17c;" horiz-adv-x="525" 
d="M504 91l-26 -91h-457l307 506h-278l26 91h415l-310 -506h323zM194 717q0 27 19 46.5t47 19.5q27 0 46.5 -19.5t19.5 -46.5t-19.5 -46.5t-46.5 -19.5q-28 0 -47 19.5t-19 46.5z" />
    <glyph glyph-name="Zcaron" unicode="&#x17d;" 
d="M166 908h83l80 -115l80 115h84l-118 -158h-92zM573 90l-26 -90h-526l369 610h-339l26 90h473l-371 -610h394z" />
    <glyph glyph-name="zcaron" unicode="&#x17e;" horiz-adv-x="525" 
d="M504 91l-26 -91h-457l307 506h-278l26 91h415l-310 -506h323zM126 802h83l80 -115l80 115h84l-118 -158h-92z" />
    <glyph glyph-name="circumflex" unicode="&#x2c6;" horiz-adv-x="240" 
d="M73 752h92l118 -158h-84l-80 115l-80 -115h-83z" />
    <glyph glyph-name="caron" unicode="&#x2c7;" horiz-adv-x="240" 
d="M-44 752h83l80 -115l80 115h84l-118 -158h-92z" />
    <glyph glyph-name="breve" unicode="&#x2d8;" horiz-adv-x="320" 
d="M40 743q4 -27 18 -48q12 -18 35.5 -32.5t66.5 -14.5q42 0 66 14.5t36 32.5q14 21 18 48h55q-3 -42 -22 -75q-17 -29 -52.5 -52t-100.5 -23q-66 0 -101 23t-52 52q-19 33 -22 75h55z" />
    <glyph glyph-name="dotaccent" unicode="&#x2d9;" horiz-adv-x="420" 
d="M144 661q0 27 19 46.5t47 19.5q27 0 46.5 -19.5t19.5 -46.5t-19.5 -46.5t-46.5 -19.5q-28 0 -47 19.5t-19 46.5z" />
    <glyph glyph-name="ring" unicode="&#x2da;" horiz-adv-x="245" 
d="M126 755q-23 0 -39 -15.5t-16 -38.5t16 -38t39 -15q21 0 36.5 15.5t15.5 37.5t-15 38t-37 16zM125 602q-21 0 -39 7.5t-31.5 21t-21.5 32t-8 39.5q0 42 29 71t71 29q21 0 39 -8t31.5 -21.5t21.5 -32t8 -38.5q0 -21 -8 -39.5t-21.5 -32t-31.5 -21t-39 -7.5z" />
    <glyph glyph-name="ogonek" unicode="&#x2db;" horiz-adv-x="265" 
d="M135 -167q26 0 57 9.5t63 26.5l19 -39q-33 -23 -69.5 -36t-78.5 -13q-21 0 -40 8t-33 22.5t-22.5 34.5t-8.5 43q0 40 21 66t54 42t73 24t78 12v-24q-21 -5 -47.5 -12t-50.5 -20t-40.5 -33.5t-16.5 -51.5q0 -9 2 -19.5t7 -19t13 -14.5t20 -6z" />
    <glyph glyph-name="tilde" unicode="&#x2dc;" horiz-adv-x="545" 
d="M84 630q9 25 23 44q12 17 32 30.5t49 13.5q26 0 49 -10.5t43.5 -22.5t39 -22.5t36.5 -10.5q16 0 29 10t23 22q11 14 20 32l31 -63q-10 -24 -25 -42q-13 -16 -32.5 -28.5t-46.5 -12.5q-26 0 -45 10.5t-37.5 23t-39 23t-48.5 10.5q-19 0 -32 -11t-21 -25q-10 -16 -16 -35
l-32 64v0z" />
    <glyph glyph-name="hungarumlaut" unicode="&#x2dd;" horiz-adv-x="260" 
d="M-22 599l38 148h106l-83 -148h-61zM153 599l66 148h112l-110 -148h-68z" />
    <glyph glyph-name="uni037A" unicode="&#x37a;" horiz-adv-x="535" 
d="M192 -15h100v-26q0 -91 24 -110q13 -10 41 -9.5t68 11.5l25 -97q-64 -17 -109 -14q-52 3 -86 30q-21 16 -33.5 38t-19 47t-8.5 52t-2 53v25z" />
    <glyph glyph-name="dieresistonos" unicode="&#x385;" horiz-adv-x="325" 
d="M-18 668q0 25 17 42.5t43 17.5q25 0 42.5 -17.5t17.5 -42.5t-17.5 -42.5t-42.5 -17.5q-26 0 -43 17.5t-17 42.5zM222 668q0 25 17 42.5t43 17.5q25 0 42.5 -17.5t17.5 -42.5t-17.5 -42.5t-42.5 -17.5q-26 0 -43 17.5t-17 42.5zM313 859l-129 -148h-66l93 148h102z" />
    <glyph glyph-name="Alphatonos" unicode="&#x386;" 
d="M486 0l-53 155h-271l-53 -155h-106l241 700h1h105h1l241 -700h-106zM193 245h209l-104 302zM213 720l-129 -148h-66l93 148h102z" />
    <glyph glyph-name="Epsilontonos" unicode="&#x388;" horiz-adv-x="610" 
d="M576 88l-25 -88h-387v700h372l25 -88h-299v-212h209v-86h-209v-226h314zM154 720l-129 -148h-66l93 148h102z" />
    <glyph glyph-name="Etatonos" unicode="&#x389;" horiz-adv-x="760" 
d="M702 700v-700h-98v312h-337v-312h-98v700h98v-298h337v298h98zM154 720l-129 -148h-66l93 148h102z" />
    <glyph glyph-name="Iotatonos" unicode="&#x38a;" horiz-adv-x="315" 
d="M257 700v-700h-100v700h100v0zM144 720l-129 -148h-66l93 148h102z" />
    <glyph glyph-name="Omicrontonos" unicode="&#x38c;" horiz-adv-x="785" 
d="M392 719q76 0 142.5 -28.5t116.5 -78t79 -116t29 -142.5t-29 -142.5t-79 -116t-116.5 -78t-142.5 -28.5t-143 28.5t-116.5 78t-78.5 116t-29 142.5t29 142.5t78.5 116t116.5 78t143 28.5zM392 84q56 0 105 21t86 57.5t58 86t21 105.5t-21 105.5t-58 86.5t-86 58.5
t-105 21.5t-105 -21.5t-86 -58.5t-58 -86.5t-21 -105.5t21 -105.5t58 -86t86 -57.5t105 -21zM164 720l-129 -148h-66l93 148h102z" />
    <glyph glyph-name="Upsilontonos" unicode="&#x38e;" horiz-adv-x="710" 
d="M402 276l-258 424h109l193 -324l142 324h107l-307 -700h-107zM144 720l-129 -148h-66l93 148h102z" />
    <glyph glyph-name="Omegatonos" unicode="&#x38f;" horiz-adv-x="785" 
d="M761 88l-25 -88h-287v147q40 9 75 30.5t60 52t39.5 68.5t14.5 80q0 49 -19.5 93t-52.5 76.5t-78 51.5t-96 19t-96 -19t-78 -51.5t-52.5 -76.5t-19.5 -93q0 -44 15.5 -83.5t43 -70.5t64.5 -52t80 -28v-144h-300l-25 88h228q-44 19 -81 49.5t-63.5 69.5t-41 84.5
t-14.5 95.5q0 68 26.5 127.5t73 104t108 70t132.5 25.5q70 0 132.5 -25.5t108.5 -70t73 -104t27 -127.5q0 -50 -15 -95.5t-41.5 -84.5t-63.5 -69.5t-81 -49.5h229zM164 720l-129 -148h-66l93 148h102z" />
    <glyph glyph-name="iotadieresistonos" unicode="&#x390;" horiz-adv-x="210" 
d="M154 0h-99v597h99v-597zM-67 678q0 25 17 42.5t43 17.5q25 0 42.5 -17.5t17.5 -42.5t-17.5 -42.5t-42.5 -17.5q-26 0 -43 17.5t-17 42.5zM173 678q0 25 17 42.5t43 17.5q25 0 42.5 -17.5t17.5 -42.5t-17.5 -42.5t-42.5 -17.5q-26 0 -43 17.5t-17 42.5zM263 859l-129 -148
h-66l93 148h102z" />
    <glyph glyph-name="Alpha" unicode="&#x391;" 
d="M486 0l-53 155h-271l-53 -155h-106l241 700h1h105h1l241 -700h-106zM193 245h209l-104 302z" />
    <glyph glyph-name="Beta" unicode="&#x392;" horiz-adv-x="505" 
d="M356 364q63 -20 92 -69.5t29 -109.5q0 -47 -17.5 -81.5t-47 -57.5t-68 -34.5t-79.5 -11.5h-215v700h200q20 0 54 -6t67 -25.5t57 -57.5t24 -101q0 -28 -8.5 -50.5t-22 -40.5t-30.5 -32t-35 -23zM148 612v-210h107q14 0 31.5 5.5t32.5 18t25.5 33t10.5 51.5q0 35 -12 55.5
t-28.5 31t-34.5 13t-30 2.5h-102zM245 86q40 0 66 9.5t41 25.5t21 35t6 39q0 18 -5 39.5t-19.5 39.5t-40.5 30.5t-69 12.5h-97v-231h97z" />
    <glyph glyph-name="Gamma" unicode="&#x393;" horiz-adv-x="470" 
d="M158 612v-612h-98v700h372l25 -88h-299z" />
    <glyph glyph-name="uni0394" unicode="&#x394;" horiz-adv-x="670" 
d="M665 0h-660l330 738l330 -738v0zM159 88h352l-176 431l-176 -431v0z" />
    <glyph glyph-name="Epsilon" unicode="&#x395;" horiz-adv-x="510" 
d="M471 88l-25 -88h-387v700h372l25 -88h-299v-212h209v-86h-209v-226h314z" />
    <glyph glyph-name="Zeta" unicode="&#x396;" 
d="M573 90l-26 -90h-526l369 610h-339l26 90h473l-371 -610h394z" />
    <glyph glyph-name="Eta" unicode="&#x397;" horiz-adv-x="650" 
d="M592 700v-700h-98v312h-337v-312h-98v700h98v-298h337v298h98z" />
    <glyph glyph-name="Theta" unicode="&#x398;" horiz-adv-x="785" 
d="M392 714q76 0 143 -28.5t116.5 -78t78.5 -116t29 -142.5t-29 -142.5t-78.5 -116t-116.5 -78t-143 -28.5t-143 28.5t-116.5 78t-78.5 116t-29 142.5t29 142.5t78.5 116t116.5 78t143 28.5zM392 79q56 0 105 21t86 57.5t58 86t21 105.5t-21 105.5t-58 86.5t-86 58.5
t-105 21.5t-105 -21.5t-86 -58.5t-58 -86.5t-21 -105.5t21 -105.5t58 -86t86 -57.5t105 -21zM584 309h-400v90h400v-90z" />
    <glyph glyph-name="Iota" unicode="&#x399;" horiz-adv-x="215" 
d="M157 700v-700h-100v700h100v0z" />
    <glyph glyph-name="Kappa" unicode="&#x39a;" horiz-adv-x="540" 
d="M411 0l-255 351v-351h-98v700h98v-335l253 335h122l-266 -344l271 -356h-125z" />
    <glyph glyph-name="Lambda" unicode="&#x39b;" horiz-adv-x="630" 
d="M615 0.0429688l-247 699.957h-106l-247 -699.957h106l194 574.965l194 -574.965h106z" />
    <glyph glyph-name="Mu" unicode="&#x39c;" horiz-adv-x="780" 
d="M131 700h110l148 -545l147 545h111l120 -700h-110l-76 482l-139 -482h-106l-140 482l-75 -482h-109z" />
    <glyph glyph-name="Nu" unicode="&#x39d;" horiz-adv-x="690" 
d="M633 700v-700h-129l-346 559v-559h-100v700h120l355 -562v562h100z" />
    <glyph glyph-name="Xi" unicode="&#x39e;" horiz-adv-x="615" 
d="M540 700v-90h-500l25 90h475zM576 90l-26 -90h-500v90h526zM425 390v-90h-250v90h250z" />
    <glyph glyph-name="Omicron" unicode="&#x39f;" horiz-adv-x="785" 
d="M392 719q76 0 142.5 -28.5t116.5 -78t79 -116t29 -142.5t-29 -142.5t-79 -116t-116.5 -78t-142.5 -28.5t-143 28.5t-116.5 78t-78.5 116t-29 142.5t29 142.5t78.5 116t116.5 78t143 28.5zM392 84q56 0 105 21t86 57.5t58 86t21 105.5t-21 105.5t-58 86.5t-86 58.5
t-105 21.5t-105 -21.5t-86 -58.5t-58 -86.5t-21 -105.5t21 -105.5t58 -86t86 -57.5t105 -21z" />
    <glyph glyph-name="Pi" unicode="&#x3a0;" horiz-adv-x="645" 
d="M59 700h527v-700h-98v612h-331v-612h-98v700v0z" />
    <glyph glyph-name="Rho" unicode="&#x3a1;" horiz-adv-x="505" 
d="M254 700q51 0 94 -14t74 -41t48 -67t17 -93q0 -54 -19 -94.5t-51.5 -67.5t-77 -40.5t-95.5 -13.5h-87v-269h-98v700h195zM228 358q18 0 45.5 1.5t54 13t45.5 37.5t19 75q0 44 -16.5 69.5t-41 38t-53.5 16t-53 3.5h-71v-254h71z" />
    <glyph glyph-name="Sigma" unicode="&#x3a3;" horiz-adv-x="620" 
d="M193 90h392l-26 -90h-547l278 374l-256 326h501l26 -90h-340l184 -234l-212 -286v0z" />
    <glyph glyph-name="Tau" unicode="&#x3a4;" horiz-adv-x="485" 
d="M467 610h-181v-610h-98v610h-181l25 90h435v-90z" />
    <glyph glyph-name="Upsilon" unicode="&#x3a5;" horiz-adv-x="580" 
d="M272 276l-258 424h109l193 -324l142 324h107l-307 -700h-107z" />
    <glyph glyph-name="Phi" unicode="&#x3a6;" horiz-adv-x="835" 
d="M809 352q0 -75 -26.5 -125.5t-72.5 -82t-108 -46t-134 -16.5v-82h-100v82q-72 2 -134 16t-108.5 45.5t-73 82.5t-26.5 126t26.5 126t73 82.5t108.5 45.5t134 16v78h100v-78q72 -2 134 -16.5t108 -46t72.5 -82t26.5 -125.5zM125 352q0 -53 18.5 -87t51.5 -54t77.5 -29
t95.5 -10v362q-51 -2 -95.5 -10.5t-77.5 -29.5t-51.5 -55.5t-18.5 -86.5zM468 172q51 1 95.5 10t77 29.5t51 54.5t18.5 86t-18.5 86.5t-51 55t-77 29.5t-95.5 11v-362z" />
    <glyph glyph-name="Chi" unicode="&#x3a7;" horiz-adv-x="650" 
d="M273 381l-214 319h111l156 -246l159 246h112l-216 -319l255 -381h-115l-195 303l-197 -303h-115z" />
    <glyph glyph-name="Psi" unicode="&#x3a8;" horiz-adv-x="755" 
d="M698 700v-275q0 -86 -24.5 -137.5t-63.5 -78.5t-87 -35.5t-95 -8.5h-3v-165h-98v165q-47 0 -95.5 8.5t-87.5 35.5t-63.5 78.5t-24.5 137.5v275h100v-305q0 -8 3 -30.5t19 -47t48 -43.5t91 -19h10v445h98v-445h12q58 0 90.5 17.5t48.5 41t19 47t3 34.5v305h100z" />
    <glyph glyph-name="uni03A9" unicode="&#x3a9;" horiz-adv-x="785" 
d="M761 88l-25 -88h-287v147q40 9 75 30.5t60 52t39.5 68.5t14.5 80q0 49 -19.5 93t-52.5 76.5t-78 51.5t-96 19t-96 -19t-78 -51.5t-52.5 -76.5t-19.5 -93q0 -44 15.5 -83.5t43 -70.5t64.5 -52t80 -28v-144h-300l-25 88h228q-44 19 -81 49.5t-63.5 69.5t-41 84.5
t-14.5 95.5q0 68 26.5 127.5t73 104t108 70t132.5 25.5q70 0 132.5 -25.5t108.5 -70t73 -104t27 -127.5q0 -50 -15 -95.5t-41.5 -84.5t-63.5 -69.5t-81 -49.5h229z" />
    <glyph glyph-name="Iotadieresis" unicode="&#x3aa;" horiz-adv-x="215" 
d="M-72 810q0 25 17 42.5t43 17.5q25 0 42.5 -17.5t17.5 -42.5t-17.5 -42.5t-42.5 -17.5q-26 0 -43 17.5t-17 42.5zM168 810q0 25 17 42.5t43 17.5q25 0 42.5 -17.5t17.5 -42.5t-17.5 -42.5t-42.5 -17.5q-26 0 -43 17.5t-17 42.5zM157 700v-700h-100v700h100v0z" />
    <glyph glyph-name="Upsilondieresis" unicode="&#x3ab;" horiz-adv-x="575" 
d="M127 810q0 25 17 42.5t43 17.5q25 0 42.5 -17.5t17.5 -42.5t-17.5 -42.5t-42.5 -17.5q-26 0 -43 17.5t-17 42.5zM367 810q0 25 17 42.5t43 17.5q25 0 42.5 -17.5t17.5 -42.5t-17.5 -42.5t-42.5 -17.5q-26 0 -43 17.5t-17 42.5zM272 276l-258 424h109l193 -324l142 324
h107l-307 -700h-107z" />
    <glyph glyph-name="alphatonos" unicode="&#x3ac;" horiz-adv-x="515" 
d="M513 0h-105l-44 129h-213l-45 -129h-104l206 597h99zM182 219h150l-75 219zM353 802l-129 -148h-66l93 148h102z" />
    <glyph glyph-name="epsilontonos" unicode="&#x3ad;" horiz-adv-x="455" 
d="M392 0h-335v597h323l25 -89h-251v-160h174v-87h-174v-172h264zM313 802l-129 -148h-66l93 148h102z" />
    <glyph glyph-name="etatonos" unicode="&#x3ae;" horiz-adv-x="570" 
d="M514 0h-97v259h-264v-259h-97v597h97v-247h264v247h97v-597zM353 802l-129 -148h-66l93 148h102z" />
    <glyph glyph-name="iotatonos" unicode="&#x3af;" horiz-adv-x="210" 
d="M154 0h-98v597h98v-597zM228 792l-129 -148h-66l93 148h102z" />
    <glyph glyph-name="upsilondieresistonos" unicode="&#x3b0;" horiz-adv-x="510" 
d="M236 0h-107l104 237l-219 360h109l154 -260l114 260h106zM82 678q0 25 17 42.5t43 17.5q25 0 42.5 -17.5t17.5 -42.5t-17.5 -42.5t-42.5 -17.5q-26 0 -43 17.5t-17 42.5zM322 678q0 25 17 42.5t43 17.5q25 0 42.5 -17.5t17.5 -42.5t-17.5 -42.5t-42.5 -17.5
q-26 0 -43 17.5t-17 42.5zM413 859l-129 -148h-66l93 148h102z" />
    <glyph glyph-name="alpha" unicode="&#x3b1;" horiz-adv-x="515" 
d="M513 0h-105l-44 129h-213l-45 -129h-104l206 597h99zM182 219h150l-75 219z" />
    <glyph glyph-name="beta" unicode="&#x3b2;" horiz-adv-x="445" 
d="M329 312q25 -11 45 -30q17 -17 31 -46t14 -74q0 -32 -11 -61t-34 -51.5t-57.5 -36t-81.5 -13.5h-187v597h174q19 0 48.5 -5.5t58 -23t49 -50.5t20.5 -87q0 -32 -11 -54.5t-24 -36.5q-15 -17 -34 -28zM146 350h80q27 0 51 20t24 61q0 24 -6.5 39t-17.5 23.5t-25.5 11.5
t-29.5 3h-76v-158zM223 87q18 0 35.5 3.5t31.5 13t22.5 25.5t8.5 41q0 36 -13.5 55t-31 27.5t-34.5 9.5t-24 1h-72v-176h77z" />
    <glyph glyph-name="gamma" unicode="&#x3b3;" horiz-adv-x="445" 
d="M435 509h-281v-509h-96v597h352l25 -88v0z" />
    <glyph glyph-name="delta" unicode="&#x3b4;" horiz-adv-x="833" 
d="M585 0h-578l295 626l283 -626v0zM144 88h307l-151 335l-156 -335v0z" />
    <glyph glyph-name="epsilon" unicode="&#x3b5;" horiz-adv-x="455" 
d="M392 0h-335v597h323l25 -89h-251v-160h174v-87h-174v-172h264z" />
    <glyph glyph-name="zeta" unicode="&#x3b6;" horiz-adv-x="525" 
d="M504 91l-26 -91h-457l307 506h-278l26 91h415l-310 -506h323z" />
    <glyph glyph-name="eta" unicode="&#x3b7;" horiz-adv-x="570" 
d="M514 0h-97v259h-264v-259h-97v597h97v-247h264v247h97v-597z" />
    <glyph glyph-name="theta" unicode="&#x3b8;" horiz-adv-x="675" 
d="M493 255h-312v90h312v-90zM337 611q65 0 122 -24.5t99 -66.5t66.5 -99t24.5 -121q0 -65 -24.5 -121.5t-66.5 -98.5t-99 -66.5t-122 -24.5t-121.5 24.5t-99 66.5t-67 98.5t-24.5 121.5q0 64 24.5 121t67 99t99 66.5t121.5 24.5zM337 84q45 0 84.5 17t69 46.5t46.5 69
t17 84.5t-17 84.5t-46.5 69t-69 46.5t-84.5 17t-84.5 -17t-69 -46.5t-46.5 -69t-17 -84.5t17 -84.5t46.5 -69t69 -46.5t84.5 -17z" />
    <glyph glyph-name="iota" unicode="&#x3b9;" horiz-adv-x="210" 
d="M154 0h-99v597h99v-597z" />
    <glyph glyph-name="kappa" unicode="&#x3ba;" horiz-adv-x="480" 
d="M477 0h-124l-200 275v-275h-97v597h97v-262l198 262h122l-227 -294z" />
    <glyph glyph-name="lambda" unicode="&#x3bb;" horiz-adv-x="540" 
d="M270 438l-151 -438h-104l206 597h99l206 -597h-105z" />
    <glyph glyph-name="uni03BC" unicode="&#x3bc;" horiz-adv-x="670" 
d="M658 0h-106l-62 370l-105 -370h-101l-105 370l-62 -370h-105l101 597h107l114 -432l115 432h106z" />
    <glyph glyph-name="nu" unicode="&#x3bd;" horiz-adv-x="605" 
d="M549 0h-119l-275 444v-444h-99v597h112l282 -447v447h99v-597z" />
    <glyph glyph-name="xi" unicode="&#x3be;" horiz-adv-x="618" 
d="M518 597v-90h-441l26 90h415v0zM554 90l-26 -90h-440v90h466v0zM413 349v-90h-210v90h210v0z" />
    <glyph glyph-name="omicron" unicode="&#x3bf;" horiz-adv-x="675" 
d="M337 613q64 0 121 -24.5t99.5 -66.5t67 -99t24.5 -121q0 -65 -24.5 -121.5t-67 -98.5t-99.5 -66.5t-121 -24.5q-65 0 -122 24.5t-99 66.5t-66.5 98.5t-24.5 121.5q0 64 24.5 121t66.5 99t99 66.5t122 24.5zM337 86q45 0 84.5 17t69 46.5t46.5 69t17 84.5t-17 84.5
t-46.5 69t-69 46.5t-84.5 17t-84.5 -17t-69 -46.5t-46.5 -69t-17 -84.5t17 -84.5t46.5 -69t69 -46.5t84.5 -17z" />
    <glyph glyph-name="pi" unicode="&#x3c0;" horiz-adv-x="580" 
d="M534 597v-597h-98v509h-292v-509h-98v597h488z" />
    <glyph glyph-name="rho" unicode="&#x3c1;" horiz-adv-x="445" 
d="M228 597q55 0 93.5 -16t62.5 -42.5t34.5 -60t10.5 -67.5q0 -35 -11.5 -68.5t-36.5 -60t-64.5 -43t-96.5 -16.5h-64v-223h-98v597h170zM214 313q65 0 93 25t28 73q0 51 -31 74t-98 23h-50v-195h58z" />
    <glyph glyph-name="sigma1" unicode="&#x3c2;" horiz-adv-x="445" 
d="M228 597q55 0 93.5 -16t62.5 -42.5t34.5 -60t10.5 -67.5q0 -35 -11.5 -68.5t-36.5 -60t-64.5 -43t-96.5 -16.5h-64v-223h-98v597h170zM214 313q65 0 93 25t28 73q0 51 -31 74t-98 23h-50v-195h58z" />
    <glyph glyph-name="sigma" unicode="&#x3c3;" horiz-adv-x="575" 
d="M542 90l-25 -90h-506l236 311l-225 286h466l26 -90h-305l154 -194l-166 -223h345z" />
    <glyph glyph-name="tau" unicode="&#x3c4;" horiz-adv-x="425" 
d="M257 0h-97v506h-153l25 91h375v-91h-150v-506z" />
    <glyph glyph-name="upsilon" unicode="&#x3c5;" horiz-adv-x="510" 
d="M236 0h-107l104 237l-219 360h109l154 -260l114 260h106z" />
    <glyph glyph-name="phi" unicode="&#x3c6;" horiz-adv-x="723" 
d="M686 300q0 -63 -20 -107t-56.5 -72.5t-87.5 -42t-112 -15.5v-63h-95v63q-61 1 -112 14.5t-87.5 41.5t-57 72.5t-20.5 108.5t20.5 108.5t57 72.5t87.5 41t112 15v60h95v-60q61 -2 112 -15.5t87.5 -41.5t56.5 -72.5t20 -107.5zM133 300q0 -43 12 -70.5t35 -43.5t57 -22.5
t78 -7.5v294q-44 -1 -78 -8.5t-57 -24.5t-35 -45.5t-12 -71.5zM410 156q44 1 78 7t57 22t35 43.5t12 71.5q0 45 -12 73.5t-35 45t-57 23.5t-78 8v-294z" />
    <glyph glyph-name="chi" unicode="&#x3c7;" horiz-adv-x="575" 
d="M561 0h-115l-157 245l-159 -245h-116l221 324l-183 273h111l126 -197l127 197h112l-184 -273z" />
    <glyph glyph-name="psi" unicode="&#x3c8;" horiz-adv-x="645" 
d="M601 597v-235q0 -73 -21 -116.5t-54 -67t-74 -30.5t-81 -7h-1v-141h-96v141q-40 0 -81 7t-74 30.5t-54 67t-21 116.5v235h96v-260q0 -6 1 -24t12 -36.5t37.5 -33t76.5 -14.5h7v368h96v-368h9q50 0 76 13t37 31t12 36t1 28v260h96z" />
    <glyph glyph-name="omega" unicode="&#x3c9;" horiz-adv-x="675" 
d="M651 87l-24 -87h-243v127q34 8 62.5 26t49.5 44t33 57.5t12 66.5q0 41 -16 77t-43.5 63t-65 43t-79.5 16t-79 -16t-64.5 -43t-43.5 -63t-16 -77q0 -36 13 -68.5t35.5 -58t53 -43t66.5 -23.5v-128h-254l-25 87h167q-32 19 -59 42.5t-47 53.5t-31.5 66t-11.5 80
q0 59 23.5 110.5t63.5 90t94 61t115 22.5t115.5 -22.5t94.5 -61t63.5 -90t23.5 -110.5q0 -44 -11.5 -80t-32 -66t-47.5 -53.5t-58 -42.5h166z" />
    <glyph glyph-name="iotadieresis" unicode="&#x3ca;" horiz-adv-x="210" 
d="M154 0h-98v597h98v-597zM-74 718q0 25 17 42.5t43 17.5q25 0 42.5 -17.5t17.5 -42.5t-17.5 -42.5t-42.5 -17.5q-26 0 -43 17.5t-17 42.5zM166 718q0 25 17 42.5t43 17.5q25 0 42.5 -17.5t17.5 -42.5t-17.5 -42.5t-42.5 -17.5q-26 0 -43 17.5t-17 42.5z" />
    <glyph glyph-name="upsilondieresis" unicode="&#x3cb;" horiz-adv-x="510" 
d="M236 0h-107l104 237l-219 360h109l154 -260l114 260h106zM95 718q0 25 17 42.5t43 17.5q25 0 42.5 -17.5t17.5 -42.5t-17.5 -42.5t-42.5 -17.5q-26 0 -43 17.5t-17 42.5zM335 718q0 25 17 42.5t43 17.5q25 0 42.5 -17.5t17.5 -42.5t-17.5 -42.5t-42.5 -17.5
q-26 0 -43 17.5t-17 42.5z" />
    <glyph glyph-name="omicrontonos" unicode="&#x3cc;" horiz-adv-x="675" 
d="M337 613q64 0 121 -24.5t99.5 -66.5t67 -99t24.5 -121q0 -65 -24.5 -121.5t-67 -98.5t-99.5 -66.5t-121 -24.5q-65 0 -122 24.5t-99 66.5t-66.5 98.5t-24.5 121.5q0 64 24.5 121t66.5 99t99 66.5t122 24.5zM337 86q45 0 84.5 17t69 46.5t46.5 69t17 84.5t-17 84.5
t-46.5 69t-69 46.5t-84.5 17t-84.5 -17t-69 -46.5t-46.5 -69t-17 -84.5t17 -84.5t46.5 -69t69 -46.5t84.5 -17zM393 802l-129 -148h-66l93 148h102z" />
    <glyph glyph-name="upsilontonos" unicode="&#x3cd;" horiz-adv-x="510" 
d="M236 0h-107l104 237l-219 360h109l154 -260l114 260h106zM353 802l-129 -148h-66l93 148h102z" />
    <glyph glyph-name="omegatonos" unicode="&#x3ce;" horiz-adv-x="675" 
d="M651 87l-24 -87h-243v127q34 8 62.5 26t49.5 44t33 57.5t12 66.5q0 41 -16 77t-43.5 63t-65 43t-79.5 16t-79 -16t-64.5 -43t-43.5 -63t-16 -77q0 -36 13 -68.5t35.5 -58t53 -43t66.5 -23.5v-128h-254l-25 87h167q-32 19 -59 42.5t-47 53.5t-31.5 66t-11.5 80
q0 59 23.5 110.5t63.5 90t94 61t115 22.5t115.5 -22.5t94.5 -61t63.5 -90t23.5 -110.5q0 -44 -11.5 -80t-32 -66t-47.5 -53.5t-58 -42.5h166zM413 802l-129 -148h-66l93 148h102z" />
    <glyph glyph-name="uni0401" unicode="&#x401;" horiz-adv-x="495" 
d="M467 88l-25 -88h-387v700h372l25 -88h-299v-212h209v-86h-209v-226h314zM57 810q0 25 17 42.5t43 17.5q25 0 42.5 -17.5t17.5 -42.5t-17.5 -42.5t-42.5 -17.5q-26 0 -43 17.5t-17 42.5zM297 810q0 25 17 42.5t43 17.5q25 0 42.5 -17.5t17.5 -42.5t-17.5 -42.5
t-42.5 -17.5q-26 0 -43 17.5t-17 42.5z" />
    <glyph glyph-name="uni0402" unicode="&#x402;" horiz-adv-x="710" 
d="M457 410q43 0 83.5 -13.5t71.5 -42.5t49.5 -75t18.5 -110q0 -67 -15 -117t-40 -87t-56.5 -61t-65 -38t-65.5 -20t-58 -6v87q45 0 82 17.5t63 49.5t40.5 76.5t14.5 98.5q0 106 -70 135.5t-201 -14.5v-290h-98v610h-181l25 90h435v-90h-181v-224q26 9 64 16.5t84 7.5z" />
    <glyph glyph-name="uni0403" unicode="&#x403;" horiz-adv-x="475" 
d="M393 898l-129 -148h-66l93 148h102zM158 612v-612h-98v700h372l25 -88h-299z" />
    <glyph glyph-name="uni0404" unicode="&#x404;" horiz-adv-x="730" 
d="M396 622q-57 0 -102 -17t-77.5 -46.5t-52 -70t-26.5 -87.5h256v-86h-258q6 -50 27.5 -93t56 -74.5t79 -49.5t97.5 -18q65 0 118 27t88 73l100 -28q-44 -75 -121.5 -121t-184.5 -46q-84 0 -150 28.5t-111.5 78t-70 116t-24.5 142.5t23.5 142.5t69 116t112 78t151.5 28.5
q109 0 186.5 -46t120.5 -121l-95 -26q-32 46 -85 73t-127 27z" />
    <glyph glyph-name="uni0405" unicode="&#x405;" horiz-adv-x="530" 
d="M417 570q-17 15 -38 26q-18 10 -43.5 18t-57.5 8q-25 0 -47 -7.5t-38.5 -20.5t-26.5 -32t-10 -41q0 -23 7.5 -38.5t19.5 -26.5t27.5 -18.5t31.5 -14.5l108 -40q78 -31 112 -78.5t34 -121.5q0 -37 -18 -72.5t-49 -63.5t-73 -45.5t-91 -17.5q-39 0 -76.5 8.5t-68.5 22
t-54 28.5t-34 29l62 76q19 -21 42.5 -34t46.5 -20.5t44 -10t36 -2.5q66 0 101 31.5t35 75.5q0 32 -12.5 53t-29.5 34t-35.5 20.5t-31.5 12.5t-29.5 10.5t-30.5 10.5q-18 6 -35 12q-14 5 -37 15.5t-45 31t-38.5 51.5t-16.5 77t17.5 82.5t48.5 62t71.5 39.5t87.5 14t82.5 -11
t60.5 -25q29 -16 50 -35z" />
    <glyph glyph-name="uni0406" unicode="&#x406;" horiz-adv-x="215" 
d="M157 700v-700h-100v700h100v0z" />
    <glyph glyph-name="uni0407" unicode="&#x407;" horiz-adv-x="200" 
d="M153 700v-700h-100v700h100v0zM-77 810q0 25 17 42.5t43 17.5q25 0 42.5 -17.5t17.5 -42.5t-17.5 -42.5t-42.5 -17.5q-26 0 -43 17.5t-17 42.5zM163 810q0 25 17 42.5t43 17.5q25 0 42.5 -17.5t17.5 -42.5t-17.5 -42.5t-42.5 -17.5q-26 0 -43 17.5t-17 42.5z" />
    <glyph glyph-name="uni0408" unicode="&#x408;" horiz-adv-x="390" 
d="M331 235q0 -61 -16 -104t-42 -72t-58.5 -45.5t-65 -23.5t-62.5 -6.5t-50 5.5l-31 109q41 -14 81.5 -14t73 17.5t52.5 53.5t20 95v450h98v-465z" />
    <glyph glyph-name="uni0409" unicode="&#x409;" horiz-adv-x="950" 
d="M702 404q42 0 80 -13t67.5 -38.5t47 -64.5t17.5 -91t-17.5 -89.5t-47 -61.5t-67.5 -35t-80 -11h-214v612h-204q-3 -35 -7 -79t-8 -91t-8.5 -92.5t-8 -84.5t-6 -68t-3.5 -41q-2 -20 -7.5 -45t-17 -49.5t-29.5 -46.5t-45 -35t-63.5 -15t-84.5 13l33 97q25 -11 48 -9
q19 2 37.5 15.5t26.5 52.5q3 15 7 47.5t8 75.5t8.5 92.5t8.5 98.5q10 115 19 252h394v-296h116zM682 86q41 0 67 10t41 26t20.5 35.5t5.5 39.5q0 19 -5.5 40.5t-20.5 39.5t-41 29.5t-67 11.5h-96v-232h96z" />
    <glyph glyph-name="uni040A" unicode="&#x40a;" horiz-adv-x="920" 
d="M684 404q42 0 80 -13t67.5 -38.5t47 -64.5t17.5 -91t-17.5 -89.5t-47 -61.5t-67.5 -35t-80 -11h-107h-98v312h-327v-312h-98v700h98v-298h327v298h98v-296h107zM664 86q41 0 67 10t41 26t20.5 35.5t5.5 39.5q0 19 -5.5 40.5t-20.5 39.5t-41 29.5t-67 11.5h-87v-232h87z
" />
    <glyph glyph-name="uni040B" unicode="&#x40b;" horiz-adv-x="655" 
d="M426 404q97 0 143 -56t46 -169v-179h-98v169q0 28 -3 55t-14 48t-33 33.5t-61 12.5q-33 0 -58.5 -14t-43 -39t-26.5 -58.5t-9 -73.5v-133h-98v610h-181l25 90h435v-90h-181v-279q26 34 66 53.5t91 19.5z" />
    <glyph glyph-name="uni040C" unicode="&#x40c;" horiz-adv-x="540" 
d="M411 0l-255 351v-351h-98v700h98v-335l253 335h122l-266 -344l271 -356h-125zM363 898l-129 -148h-66l93 148h102z" />
    <glyph glyph-name="uni040E" unicode="&#x40e;" horiz-adv-x="580" 
d="M272 276l-258 424h109l193 -324l142 324h107l-307 -700h-107zM170 899q4 -27 18 -48q12 -18 35.5 -32.5t66.5 -14.5q42 0 66 14.5t36 32.5q14 21 18 48h55q-3 -42 -22 -75q-17 -29 -52.5 -52t-100.5 -23q-66 0 -101 23t-52 52q-19 33 -22 75h55z" />
    <glyph glyph-name="uni040F" unicode="&#x40f;" horiz-adv-x="680" 
d="M625 700v-700h-235v-150h-98v150h-237v700h98v-612h374v612h98v0z" />
    <glyph glyph-name="uni0410" unicode="&#x410;" 
d="M486 0l-53 155h-271l-53 -155h-106l241 700h1h105h1l241 -700h-106zM193 245h209l-104 302z" />
    <glyph glyph-name="uni0411" unicode="&#x411;" horiz-adv-x="515" 
d="M268 404q42 0 80 -13t67.5 -38.5t47 -64.5t17.5 -91t-17.5 -89.5t-47 -61.5t-67.5 -35t-80 -11h-215v700h372l26 -88h-300v-208h117zM248 86q41 0 67 10t41 26t20.5 35.5t5.5 39.5q0 19 -5.5 40.5t-20.5 39.5t-41 29.5t-67 11.5h-97v-232h97z" />
    <glyph glyph-name="uni0412" unicode="&#x412;" horiz-adv-x="505" 
d="M356 364q63 -20 92 -69.5t29 -109.5q0 -47 -17.5 -81.5t-47 -57.5t-68 -34.5t-79.5 -11.5h-215v700h200q20 0 54 -6t67 -25.5t57 -57.5t24 -101q0 -28 -8.5 -50.5t-22 -40.5t-30.5 -32t-35 -23zM148 612v-210h107q14 0 31.5 5.5t32.5 18t25.5 33t10.5 51.5q0 35 -12 55.5
t-28.5 31t-34.5 13t-30 2.5h-102zM245 86q40 0 66 9.5t41 25.5t21 35t6 39q0 18 -5 39.5t-19.5 39.5t-40.5 30.5t-69 12.5h-97v-231h97z" />
    <glyph glyph-name="uni0413" unicode="&#x413;" horiz-adv-x="470" 
d="M158 612v-612h-98v700h372l25 -88h-299z" />
    <glyph glyph-name="uni0414" unicode="&#x414;" horiz-adv-x="725" 
d="M612 88h75v-200h-98v112h-454v-112h-98v200h67q7 8 25.5 36.5t39.5 82.5q14 39 26 82.5t21 92.5q21 121 21 268v50h375v-612zM311 358q-10 -54 -24 -102.5t-31 -92.5q-8 -23 -17.5 -41.5t-17.5 -33.5h293v524h-179q-3 -139 -24 -254z" />
    <glyph glyph-name="uni0415" unicode="&#x415;" horiz-adv-x="510" 
d="M471 88l-25 -88h-387v700h372l25 -88h-299v-212h209v-86h-209v-226h314z" />
    <glyph glyph-name="uni0416" unicode="&#x416;" horiz-adv-x="945" 
d="M581 313h-60v-313h-98v313h-58l-227 -313h-126l272 356l-256 344h122l223 -307h50v307h98v-307h52l222 307h123l-257 -344l272 -356h-125z" />
    <glyph glyph-name="uni0417" unicode="&#x417;" horiz-adv-x="545" 
d="M121 211q0 -36 17 -60t40.5 -38.5t48 -20.5t39.5 -6t39 5t46.5 18t38.5 34t16 54q0 31 -13 53.5t-33.5 37.5t-46 22t-49.5 7h-34v92h40q30 0 51.5 8.5t35 23t19.5 32.5t6 37q0 28 -12.5 48.5t-30.5 33.5t-39 19.5t-39 6.5t-39.5 -7.5t-40 -22t-31.5 -36.5t-13 -52l-96 9
q0 30 9.5 65t34 66t68 51.5t111.5 20.5q44 0 84.5 -15t71.5 -41.5t49.5 -63.5t18.5 -81q0 -38 -15 -66t-33 -47q-21 -22 -47 -37q30 -13 55 -35q21 -19 38.5 -50t17.5 -77q0 -44 -18.5 -82.5t-50 -67t-74.5 -45t-92 -16.5q-50 0 -93.5 14.5t-77 41.5t-53.5 65t-22 85z" />
    <glyph glyph-name="uni0418" unicode="&#x418;" horiz-adv-x="690" 
d="M57.0391 700v-700h128.992l345.979 559v-559h99.9941v700h-119.993l-354.979 -562v562h-99.9932z" />
    <glyph glyph-name="uni0419" unicode="&#x419;" horiz-adv-x="690" 
d="M57.0391 700v-700h128.992l345.979 559v-559h99.9941v700h-119.993l-354.979 -562v562h-99.9932zM215 883q4 -27 18 -48q12 -18 35.5 -32.5t66.5 -14.5q42 0 66 14.5t36 32.5q14 21 18 48h55q-3 -42 -22 -75q-17 -29 -52.5 -52t-100.5 -23q-66 0 -101 23t-52 52
q-19 33 -22 75h55z" />
    <glyph glyph-name="uni041A" unicode="&#x41a;" horiz-adv-x="540" 
d="M411 0l-255 351v-351h-98v700h98v-335l253 335h122l-266 -344l271 -356h-125z" />
    <glyph glyph-name="uni041B" unicode="&#x41b;" horiz-adv-x="650" 
d="M591 700v-700h-98v612h-204q-3 -35 -7 -79t-8 -91t-8 -92.5t-7.5 -84.5t-6 -68t-3.5 -41q-2 -20 -7.5 -45t-17 -49.5t-30 -46.5t-45.5 -35t-63.5 -15t-84.5 13l34 97q26 -11 48 -9q19 2 37 15.5t26 52.5q3 15 7 47.5t8 75.5t8.5 92.5t8.5 98.5q10 115 19 252h394z" />
    <glyph glyph-name="uni041C" unicode="&#x41c;" horiz-adv-x="780" 
d="M131 700h110l148 -545l147 545h111l120 -700h-110l-76 482l-139 -482h-106l-140 482l-75 -482h-109z" />
    <glyph glyph-name="uni041D" unicode="&#x41d;" horiz-adv-x="650" 
d="M592 700v-700h-98v312h-337v-312h-98v700h98v-298h337v298h98z" />
    <glyph glyph-name="uni041E" unicode="&#x41e;" horiz-adv-x="785" 
d="M392 719q76 0 142.5 -28.5t116.5 -78t79 -116t29 -142.5t-29 -142.5t-79 -116t-116.5 -78t-142.5 -28.5t-143 28.5t-116.5 78t-78.5 116t-29 142.5t29 142.5t78.5 116t116.5 78t143 28.5zM392 84q56 0 105 21t86 57.5t58 86t21 105.5t-21 105.5t-58 86.5t-86 58.5
t-105 21.5t-105 -21.5t-86 -58.5t-58 -86.5t-21 -105.5t21 -105.5t58 -86t86 -57.5t105 -21z" />
    <glyph glyph-name="uni041F" unicode="&#x41f;" horiz-adv-x="645" 
d="M59 700h527v-700h-98v612h-331v-612h-98v700v0z" />
    <glyph glyph-name="uni0420" unicode="&#x420;" horiz-adv-x="505" 
d="M254 700q51 0 94 -14t74 -41t48 -67t17 -93q0 -54 -19 -94.5t-51.5 -67.5t-77 -40.5t-95.5 -13.5h-87v-269h-98v700h195zM228 358q18 0 45.5 1.5t54 13t45.5 37.5t19 75q0 44 -16.5 69.5t-41 38t-53.5 16t-53 3.5h-71v-254h71z" />
    <glyph glyph-name="uni0421" unicode="&#x421;" horiz-adv-x="640" 
d="M382 80q47 0 87 17t71 47l74 -61q-47 -46 -107.5 -72t-129.5 -26q-72 0 -136 27t-111.5 75.5t-75 115.5t-27.5 147q0 76 27.5 142.5t75 116t111.5 78t136 28.5q69 0 129.5 -26t106.5 -72l-68 -63q-32 32 -73 50.5t-90 18.5q-53 0 -99.5 -21.5t-81.5 -58t-55 -86
t-20 -105.5t20 -105.5t55 -86.5t81.5 -58.5t99.5 -21.5z" />
    <glyph glyph-name="uni0422" unicode="&#x422;" horiz-adv-x="485" 
d="M467 610h-181v-610h-98v610h-181l25 90h435v-90z" />
    <glyph glyph-name="uni0423" unicode="&#x423;" horiz-adv-x="580" 
d="M272 276l-258 424h109l193 -324l142 324h107l-307 -700h-107z" />
    <glyph glyph-name="uni0424" unicode="&#x424;" horiz-adv-x="835" 
d="M809 352q0 -75 -26.5 -125.5t-72.5 -82t-108 -46t-134 -16.5v-82h-100v82q-72 2 -134 16t-108.5 45.5t-73 82.5t-26.5 126t26.5 126t73 82.5t108.5 45.5t134 16v78h100v-78q72 -2 134 -16.5t108 -46t72.5 -82t26.5 -125.5zM125 352q0 -53 18.5 -87t51.5 -54t77.5 -29
t95.5 -10v362q-51 -2 -95.5 -10.5t-77.5 -29.5t-51.5 -55.5t-18.5 -86.5zM468 172q51 1 95.5 10t77 29.5t51 54.5t18.5 86t-18.5 86.5t-51 55t-77 29.5t-95.5 11v-362z" />
    <glyph glyph-name="uni0425" unicode="&#x425;" horiz-adv-x="650" 
d="M273 381l-214 319h111l156 -246l159 246h112l-216 -319l255 -381h-115l-195 303l-197 -303h-115z" />
    <glyph glyph-name="uni0426" unicode="&#x426;" horiz-adv-x="730" 
d="M691 88v-238h-98v150h-534v700h98v-612h361v612h98v-612h75z" />
    <glyph glyph-name="uni0427" unicode="&#x427;" horiz-adv-x="580" 
d="M423 700h98v-700h-98v299q-26 -35 -67 -54.5t-92 -19.5q-97 0 -154.5 56t-57.5 169v250h98v-240q0 -29 6.5 -55.5t22 -47.5t41 -33.5t64.5 -12.5q32 0 58 14t44 38.5t27.5 58.5t9.5 74v204z" />
    <glyph glyph-name="uni0428" unicode="&#x428;" horiz-adv-x="915" 
d="M857 700v-700h-1h-797v700h98v-612h250v612h98v-612h254v612h98z" />
    <glyph glyph-name="uni0429" unicode="&#x429;" horiz-adv-x="955" 
d="M921 88v-238h-98v150h-765v700h98v-612h250v612h98v-612h254v612h98v-612h65z" />
    <glyph glyph-name="uni042A" unicode="&#x42a;" horiz-adv-x="650" 
d="M402 404q42 0 80 -13t67.5 -38.5t47 -64.5t17.5 -91t-17.5 -89.5t-47 -61.5t-67.5 -35t-80 -11h-215v612h-150l-25 88h273v-296h117zM382 86q41 0 67 10t41 26t20.5 35.5t5.5 39.5q0 19 -5.5 40.5t-20.5 39.5t-41 29.5t-67 11.5h-97v-232h97z" />
    <glyph glyph-name="uni042B" unicode="&#x42b;" horiz-adv-x="690" 
d="M634 0h-98v700h98v-700zM274 404q42 0 80 -13t67.5 -38.5t47 -64.5t17.5 -91t-17.5 -89.5t-47 -61.5t-67.5 -35t-80 -11h-215v700h98v-296h117zM254 86q41 0 67 10t41 26t20.5 35.5t5.5 39.5q0 19 -5.5 40.5t-20.5 39.5t-41 29.5t-67 11.5h-97v-232h97z" />
    <glyph glyph-name="uni042C" unicode="&#x42c;" horiz-adv-x="515" 
d="M274 404q42 0 80 -13t67.5 -38.5t47 -64.5t17.5 -91t-17.5 -89.5t-47 -61.5t-67.5 -35t-80 -11h-215v700h98v-296h117zM254 86q41 0 67 10t41 26t20.5 35.5t5.5 39.5q0 19 -5.5 40.5t-20.5 39.5t-41 29.5t-67 11.5h-97v-232h97z" />
    <glyph glyph-name="uni042D" unicode="&#x42d;" horiz-adv-x="650" 
d="M269 717q73 0 136.5 -28.5t111 -78t75 -116t27.5 -142.5q0 -80 -27.5 -147t-75 -115.5t-111 -75.5t-136.5 -27q-69 0 -129.5 26t-106.5 72l73 61q32 -30 71.5 -47t86.5 -17q48 0 91.5 18t77.5 49.5t56.5 74.5t28.5 93h-249v86h247q-8 48 -31 88.5t-56 70t-75.5 46.5
t-89.5 17q-48 0 -89 -18.5t-73 -50.5l-69 63q46 46 106.5 72t129.5 26z" />
    <glyph glyph-name="uni042E" unicode="&#x42e;" horiz-adv-x="1045" 
d="M645 718q76 0 143 -28.5t116.5 -78t78.5 -116t29 -142.5t-29 -142.5t-78.5 -116t-116.5 -78t-143 -28.5q-70 0 -132.5 24.5t-111 67.5t-80 101t-40.5 125h-124v-306h-98v700h98v-296h125q9 66 41 123.5t80.5 100t110.5 66.5t131 24zM645 83q56 0 105 21t86 57.5t58 86
t21 105.5t-21 105.5t-58 86.5t-86 58.5t-105 21.5t-105 -21.5t-86 -58.5t-58 -86.5t-21 -105.5t21 -105.5t58 -86t86 -57.5t105 -21z" />
    <glyph glyph-name="uni042F" unicode="&#x42f;" horiz-adv-x="555" 
d="M126.026 0l183.988 284h1h86.9951v-284h97.9941v700h-194.988q-50.9971 0 -93.9941 -13.5q-42.998 -13.5 -73.9961 -40t-47.9971 -66t-16.999 -92.5q0 -78 37.498 -124t98.4941 -65l-196.988 -299h118.993zM398.01 368h-70.9961q-17.999 0 -45.4971 0.5t-53.9971 10.5
q-26.498 10 -45.4971 35t-18.999 74q0 44 16.499 69t40.998 37q24.498 12 53.4961 15q28.999 3 52.9971 3h70.9961v-244z" />
    <glyph glyph-name="uni0430" unicode="&#x430;" horiz-adv-x="515" 
d="M513 0h-105l-44 129h-213l-45 -129h-104l206 597h99zM182 219h150l-75 219z" />
    <glyph glyph-name="uni0431" unicode="&#x431;" horiz-adv-x="495" 
d="M249 371q42 0 80 -9.5t67.5 -31.5t47 -58t17.5 -88t-17.5 -86t-47 -54.5t-67.5 -28.5t-80 -8h-195v590h342l26 -88h-270v-138h97zM229 93q41 0 67 7t41 19t20.5 28.5t5.5 36.5q0 19 -5.5 37.5t-20.5 32.5t-41 22.5t-67 8.5h-77v-192h77z" />
    <glyph glyph-name="uni0432" unicode="&#x432;" horiz-adv-x="445" 
d="M329 312q25 -11 45 -30q17 -17 31 -46t14 -74q0 -32 -11 -61t-34 -51.5t-57.5 -36t-81.5 -13.5h-187v597h174q19 0 48.5 -5.5t58 -23t49 -50.5t20.5 -87q0 -32 -11 -54.5t-24 -36.5q-15 -17 -34 -28zM146 350h80q27 0 51 20t24 61q0 24 -6.5 39t-17.5 23.5t-25.5 11.5
t-29.5 3h-76v-158zM223 87q18 0 35.5 3.5t31.5 13t22.5 25.5t8.5 41q0 36 -13.5 55t-31 27.5t-34.5 9.5t-24 1h-72v-176h77z" />
    <glyph glyph-name="uni0433" unicode="&#x433;" horiz-adv-x="445" 
d="M435 509h-281v-509h-96v597h352l25 -88v0z" />
    <glyph glyph-name="uni0434" unicode="&#x434;" horiz-adv-x="660" 
d="M559 88h66v-200h-98v112h-394v-112h-98v200h64q9 10 25 32t33 59q14 31 26 66t20 73q5 25 9 60.5t6.5 74.5t4 77t1.5 67h335v-509zM242 129q-5 -11 -11 -21.5t-11 -19.5h242v421h-143q-2 -21 -4 -50.5t-4.5 -60.5t-6 -60t-7.5 -47q-10 -45 -24 -85.5t-31 -76.5z" />
    <glyph glyph-name="uni0435" unicode="&#x435;" horiz-adv-x="455" 
d="M392 0h-335v597h323l25 -89h-251v-160h174v-87h-174v-172h264z" />
    <glyph glyph-name="uni0436" unicode="&#x436;" horiz-adv-x="780" 
d="M538 303l231 -303h-123l-188 260h-20v-260h-98v260h-18l-188 -260h-124l231 303l-219 294h121l187 -257h10v257h98v-257h12l186 257h122l-220 -294v0z" />
    <glyph glyph-name="uni0437" unicode="&#x437;" horiz-adv-x="485" 
d="M240 -8q-42 0 -80 12.5t-67 35.5t-46 57q-17 31 -20 74v7l98 17v-10q0 -27 13.5 -45.5t31.5 -30t37 -16t30 -4.5q14 0 32 4.5t35 13.5q41 24 41 66q0 27 -11.5 44t-23.5 25q-31 23 -74 23h-37v92h41q30 0 47 9.5t25.5 22t10.5 25t2 19.5q0 21 -9 36.5t-23 25.5t-30 15
t-30 5t-31 -3.5t-31 -14.5q-12 -9 -22.5 -27.5t-10.5 -44.5v-9l-96 9v7q0 19 6.5 51t31.5 63q51 63 156 63q37 0 72 -13t62 -36q29 -25 44 -57.5t15 -68.5q0 -56 -41 -99q-8 -8 -15.5 -14l-12.5 -10q7 -4 15.5 -10t18.5 -14q17 -16 33 -43t16 -69q0 -38 -15.5 -71t-44.5 -59
t-65.5 -39.5t-77.5 -13.5z" />
    <glyph glyph-name="uni0438" unicode="&#x438;" horiz-adv-x="605" 
d="M56.0332 0h118.993l274.983 444v-444h98.9941v597h-111.994l-281.982 -447v447h-98.9941v-597z" />
    <glyph glyph-name="uni0439" unicode="&#x439;" horiz-adv-x="615" 
d="M56.0332 0h118.993l274.983 444v-444h98.9941v597h-111.994l-281.982 -447v447h-98.9941v-597zM167 803q4 -27 18 -48q12 -18 35.5 -32.5t66.5 -14.5q42 0 66 14.5t36 32.5q14 21 18 48h55q-3 -42 -22 -75q-17 -29 -52.5 -52t-100.5 -23q-66 0 -101 23t-52 52
q-19 33 -22 75h55z" />
    <glyph glyph-name="uni043A" unicode="&#x43a;" horiz-adv-x="480" 
d="M477 0h-124l-200 275v-275h-97v597h97v-262l198 262h122l-227 -294z" />
    <glyph glyph-name="uni043B" unicode="&#x43b;" horiz-adv-x="545" 
d="M498 597v-597h-98v509h-178q-3 -31 -6.5 -67.5t-7 -74t-6.5 -73.5t-6 -65t-4.5 -48t-2.5 -23q-6 -54 -33 -95.5t-69 -62.5q-36 -17 -72 -17v98q8 0 14.5 2t13.5 5q20 10 33 31.5t16 49.5q4 34 8.5 78t9 90.5t8.5 91.5t7 81t5 59.5t2 27.5h366z" />
    <glyph glyph-name="uni043C" unicode="&#x43c;" horiz-adv-x="670" 
d="M658 0h-106l-62 370l-105 -370h-101l-105 370l-62 -370h-105l101 597h107l114 -432l115 432h106z" />
    <glyph glyph-name="uni043D" unicode="&#x43d;" horiz-adv-x="570" 
d="M514 0h-97v259h-264v-259h-97v597h97v-247h264v247h97v-597z" />
    <glyph glyph-name="uni043E" unicode="&#x43e;" horiz-adv-x="675" 
d="M337 613q64 0 121 -24.5t99.5 -66.5t67 -99t24.5 -121q0 -65 -24.5 -121.5t-67 -98.5t-99.5 -66.5t-121 -24.5q-65 0 -122 24.5t-99 66.5t-66.5 98.5t-24.5 121.5q0 64 24.5 121t66.5 99t99 66.5t122 24.5zM337 86q45 0 84.5 17t69 46.5t46.5 69t17 84.5t-17 84.5
t-46.5 69t-69 46.5t-84.5 17t-84.5 -17t-69 -46.5t-46.5 -69t-17 -84.5t17 -84.5t46.5 -69t69 -46.5t84.5 -17z" />
    <glyph glyph-name="uni043F" unicode="&#x43f;" horiz-adv-x="590" 
d="M538 597v-597h-98v509h-292v-509h-98v597h488z" />
    <glyph glyph-name="uni0440" unicode="&#x440;" horiz-adv-x="445" 
d="M228 597q55 0 93.5 -16t62.5 -42.5t34.5 -60t10.5 -67.5q0 -35 -11.5 -68.5t-36.5 -60t-64.5 -43t-96.5 -16.5h-64v-223h-98v597h170zM214 313q65 0 93 25t28 73q0 51 -31 74t-98 23h-50v-195h58z" />
    <glyph glyph-name="uni0441" unicode="&#x441;" horiz-adv-x="555" 
d="M322 -10q-60 0 -114.5 22.5t-96.5 64.5q-42 44 -64.5 101t-22.5 123q0 63 22.5 119t64.5 101q43 45 97 68t114 23q57 0 109 -21.5t93 -62.5l6 -6l-69 -63l-5 6q-53 55 -129 55q-42 0 -79.5 -17t-65.5 -46.5t-44 -69t-16 -84.5t16 -84.5t44 -69.5t65.5 -47t79.5 -17
q73 0 125 50l5 5l74 -60l-7 -6q-41 -41 -93 -62.5t-109 -21.5z" />
    <glyph glyph-name="uni0442" unicode="&#x442;" horiz-adv-x="425" 
d="M257 0h-97v506h-153l25 91h375v-91h-150v-506z" />
    <glyph glyph-name="uni0443" unicode="&#x443;" horiz-adv-x="540" 
d="M236 0h-107l104 237l-219 360h109l154 -260l114 260h106z" />
    <glyph glyph-name="uni0444" unicode="&#x444;" horiz-adv-x="725" 
d="M686 300q0 -63 -20 -107t-56.5 -72.5t-87.5 -42t-112 -15.5v-63h-95v63q-61 1 -112 14.5t-87.5 41.5t-57 72.5t-20.5 108.5t20.5 108.5t57 72.5t87.5 41t112 15v60h95v-60q61 -2 112 -15.5t87.5 -41.5t56.5 -72.5t20 -107.5zM133 300q0 -43 12 -70.5t35 -43.5t57 -22.5
t78 -7.5v294q-44 -1 -78 -8.5t-57 -24.5t-35 -45.5t-12 -71.5zM410 156q44 1 78 7t57 22t35 43.5t12 71.5q0 45 -12 73.5t-35 45t-57 23.5t-78 8v-294z" />
    <glyph glyph-name="uni0445" unicode="&#x445;" horiz-adv-x="575" 
d="M561 0h-115l-157 245l-159 -245h-116l221 324l-183 273h111l126 -197l127 197h112l-184 -273z" />
    <glyph glyph-name="uni0446" unicode="&#x446;" horiz-adv-x="640" 
d="M529 88h75v-238h-98v150h-450v597h98v-509h277v509h98v-509v0z" />
    <glyph glyph-name="uni0447" unicode="&#x447;" horiz-adv-x="510" 
d="M455 597v-597h-98v224q-21 -27 -53.5 -43t-73.5 -16q-39 0 -72 11t-57 33.5t-37.5 56.5t-13.5 79v252h98v-244q0 -51 26 -80t72 -29q54 0 82.5 42t28.5 106v205h98z" />
    <glyph glyph-name="uni0448" unicode="&#x448;" horiz-adv-x="845" 
d="M688 597h98v-597h-728v597h98v-509h212v509h98v-509h222v509z" />
    <glyph glyph-name="uni0449" unicode="&#x449;" horiz-adv-x="865" 
d="M774 88h62v-215h-98v127h-682v597h98v-509h212v509h98v-509h212v509h98v-509z" />
    <glyph glyph-name="uni044A" unicode="&#x44a;" horiz-adv-x="575" 
d="M355 355q49 0 85 -15.5t59 -40t34 -55t11 -59.5q0 -49 -16.5 -84t-44 -57.5t-63 -33t-74.5 -10.5h-192v509h-118l-26 88h242v-242h103zM327 96q63 0 90 24t27 59q0 23 -10 39t-26 25.5t-37.5 14t-43.5 4.5h-75v-166h75z" />
    <glyph glyph-name="uni044B" unicode="&#x44b;" horiz-adv-x="655" 
d="M259 355q49 0 85 -15.5t59 -40t34 -55t11 -59.5q0 -49 -16.5 -84t-44 -57.5t-63 -33t-74.5 -10.5h-192v597h98v-242h103zM231 96q63 0 90 24t27 59q0 23 -10 39t-26 25.5t-37.5 14t-43.5 4.5h-75v-166h75zM500 597h98v-597h-98v597z" />
    <glyph glyph-name="uni044C" unicode="&#x44c;" horiz-adv-x="475" 
d="M258 355q49 0 85 -15.5t59 -40t34 -55t11 -59.5q0 -49 -16.5 -84t-44 -57.5t-63 -33t-74.5 -10.5h-192v597h98v-242h103zM230 96q63 0 90 24t27 59q0 23 -10 39t-26 25.5t-37.5 14t-43.5 4.5h-75v-166h75z" />
    <glyph glyph-name="uni044D" unicode="&#x44d;" horiz-adv-x="575" 
d="M454 516q42 -45 64.5 -101t22.5 -119q0 -66 -22.5 -123t-64.5 -101q-42 -42 -96.5 -64.5t-115.5 -22.5q-57 0 -108.5 21.5t-92.5 62.5l-7 6l74 60l5 -5q52 -50 125 -50q37 0 70.5 13.5t60 36.5t45 55t25.5 69h-248v85h248q-7 37 -25 69.5t-44.5 56t-60.5 37t-71 13.5
q-76 0 -129 -55l-5 -6l-69 63l6 6q41 41 92.5 62.5t108.5 21.5q60 0 114.5 -23t97.5 -68z" />
    <glyph glyph-name="uni044E" unicode="&#x44e;" horiz-adv-x="890" 
d="M543 613q65 0 122 -24.5t99 -67t66.5 -99t24.5 -120.5q0 -65 -24.5 -121.5t-66.5 -98.5t-99 -66.5t-122 -24.5q-59 0 -111 20t-93 55.5t-68 83.5t-36 104h-80v-254h-99v597h99v-244h80q9 55 36.5 102.5t68.5 82.5t93 55t110 20zM543 86q45 0 84.5 17t69 46.5t46.5 69
t17 84.5t-17 84.5t-46.5 69t-69 46.5t-84.5 17t-84.5 -17t-69 -46.5t-46.5 -69t-17 -84.5t17 -84.5t46.5 -69t69 -46.5t84.5 -17z" />
    <glyph glyph-name="uni044F" unicode="&#x44f;" horiz-adv-x="495" 
d="M9.0293 0h117.993l152.99 236h59.9971v-236h97.9941v597h-169.99q-53.9961 0 -92.4941 -15.5t-62.4961 -41q-23.999 -25.5 -35.498 -58.5t-11.499 -69q0 -60 25.998 -99q25.999 -39 82.9951 -62zM269.014 321q-56.9961 0 -82.4951 21.5q-25.498 21.5 -25.498 70.5
q0 32 11.499 51t29.498 28.5t40.998 12.5q22.998 3 45.9971 3h50.9971v-187h-70.9961z" />
    <glyph glyph-name="uni0451" unicode="&#x451;" horiz-adv-x="455" 
d="M392 0h-335v597h323l25 -89h-251v-160h174v-87h-174v-172h264zM32 718q0 25 17 42.5t43 17.5q25 0 42.5 -17.5t17.5 -42.5t-17.5 -42.5t-42.5 -17.5q-26 0 -43 17.5t-17 42.5zM272 718q0 25 17 42.5t43 17.5q25 0 42.5 -17.5t17.5 -42.5t-17.5 -42.5t-42.5 -17.5
q-26 0 -43 17.5t-17 42.5z" />
    <glyph glyph-name="uni0452" unicode="&#x452;" horiz-adv-x="550" 
d="M315 536q91 0 140.5 -53t49.5 -162v-363q0 -50 -17 -86t-45.5 -58.5t-64.5 -32t-75 -5.5l-25 87q52 0 79.5 10t39.5 25t13.5 31.5t1.5 28.5v353q0 28 -5.5 54t-18 45.5t-33 31t-51.5 11.5q-33 0 -58 -13.5t-42 -37t-25.5 -54t-8.5 -64.5l-1 -284h-96v553h-59v82h59v54
l96 21v-75h173v-82h-173v-84q25 31 61.5 49t84.5 18z" />
    <glyph glyph-name="uni0453" unicode="&#x453;" horiz-adv-x="445" 
d="M435 509h-281v-509h-96v597h352l25 -88v0zM338 792l-129 -148h-66l93 148h102z" />
    <glyph glyph-name="uni0454" unicode="&#x454;" horiz-adv-x="575" 
d="M121.027 516q-41.9971 -45 -64.4961 -101q-22.498 -56 -22.498 -119q0 -66 22.498 -123q22.499 -57 64.4961 -101q41.998 -42 96.4941 -64.5q54.4971 -22.5 115.493 -22.5q56.9971 0 108.493 21.5q51.4971 21.5 92.4951 62.5l6.99902 6l-73.9951 60l-5 -5
q-51.9971 -50 -124.992 -50q-36.998 0 -70.4961 13.5t-59.9961 36.5t-44.9971 55t-25.499 69h247.985v85h-247.985q7 37 24.999 69.5t44.4971 56t60.4961 37t70.9961 13.5q75.9951 0 128.992 -55l4.99902 -6l68.9961 63l-5.99902 6q-40.998 41 -92.4951 62.5
q-51.4961 21.5 -108.493 21.5q-59.9961 0 -114.493 -23q-54.4961 -23 -97.4941 -68z" />
    <glyph glyph-name="uni0455" unicode="&#x455;" horiz-adv-x="430" 
d="M360 469q-20 20 -51.5 34t-64.5 14q-40 0 -67 -23t-27 -53t20.5 -47t46.5 -27t46 -16t43 -17q12 -5 33 -14.5t42 -29t36.5 -50.5t15.5 -80q0 -30 -14.5 -61t-41 -56t-63.5 -40.5t-81 -15.5q-38 0 -72 8.5t-60.5 21t-45 26.5t-25.5 25l60 76q15 -17 35 -30
q17 -11 43.5 -20.5t63.5 -9.5q36 0 56.5 10.5t31 24t13.5 26.5t3 19q0 9 -1 20t-8.5 23t-24 24.5t-47.5 23.5q-17 6 -28 9.5t-19 6.5t-16 5.5t-20 6.5t-32 14t-39 28t-33 45t-14 67q0 39 15.5 71t42 54.5t61.5 34.5t75 12q42 0 73.5 -10.5t53.5 -23.5q26 -15 44 -33z" />
    <glyph glyph-name="uni0456" unicode="&#x456;" horiz-adv-x="225" 
d="M154 0h-99v597h99v-597z" />
    <glyph glyph-name="uni0457" unicode="&#x457;" horiz-adv-x="225" 
d="M150 0h-98v597h98v-597zM-81 718q0 25 17 42.5t43 17.5q25 0 42.5 -17.5t17.5 -42.5t-17.5 -42.5t-42.5 -17.5q-26 0 -43 17.5t-17 42.5zM159 718q0 25 17 42.5t43 17.5q25 0 42.5 -17.5t17.5 -42.5t-17.5 -42.5t-42.5 -17.5q-26 0 -43 17.5t-17 42.5z" />
    <glyph glyph-name="uni0458" unicode="&#x458;" horiz-adv-x="350" 
d="M293 597v-394q0 -60 -20.5 -104t-56 -71t-82.5 -36t-100 0l-31 110q32 -12 66 -15t62 8.5t46 40t18 79.5v382h98z" />
    <glyph glyph-name="uni0459" unicode="&#x459;" horiz-adv-x="800" 
d="M577 345q49 0 86.5 -15.5t62.5 -40t37.5 -55t12.5 -59.5q0 -49 -18 -84t-47.5 -57.5t-66.5 -33t-76 -10.5h-180v522l-157 1q-5 -46 -10.5 -105.5t-10 -114.5t-7.5 -95t-4 -47q-6 -53 -34 -94.5t-70 -62.5q-36 -17 -72 -17v98q15 0 28 7q20 10 33 31.5t16 49.5
q4 34 8.5 78.5t9 91.5t8.5 93t7 83t5 60.5t2 27.5h346v-252h91zM549 86q63 0 95 24t32 59q0 23 -11.5 39t-29.5 25.5t-41 14t-45 4.5h-63v-166h63z" />
    <glyph glyph-name="uni045A" unicode="&#x45a;" horiz-adv-x="810" 
d="M584 355q49 0 86.5 -15.5t62.5 -40t37.5 -55t12.5 -59.5q0 -49 -18 -84t-47.5 -57.5t-66.5 -33t-76 -10.5h-182v266h-242v-266h-98v596h98v-242h242v242h98v-241h93zM556 96q63 0 95 24t32 59q0 23 -11.5 39t-29.5 25.5t-41 14t-45 4.5h-65v-166h65z" />
    <glyph glyph-name="uni045B" unicode="&#x45b;" horiz-adv-x="611" 
d="M392 374q97 0 138 -56t41 -169v-149h-98v139q0 28 -1.5 55t-10.5 48t-29.5 33.5t-59.5 12.5q-33 0 -56.5 -14t-39.5 -39t-23.5 -58.5t-7.5 -73.5v-103h-98v507h-151l25 90h395v-90h-171v-206q26 34 61 53.5t86 19.5z" />
    <glyph glyph-name="uni045C" unicode="&#x45c;" horiz-adv-x="480" 
d="M477 0h-124l-200 275v-275h-97v597h97v-262l198 262h122l-227 -294zM368 792l-129 -148h-66l93 148h102z" />
    <glyph glyph-name="uni045E" unicode="&#x45e;" horiz-adv-x="540" 
d="M236 0h-107l104 237l-219 360h109l154 -260l114 260h106zM155 743q4 -27 18 -48q12 -18 35.5 -32.5t66.5 -14.5q42 0 66 14.5t36 32.5q14 21 18 48h55q-3 -42 -22 -75q-17 -29 -52.5 -52t-100.5 -23q-66 0 -101 23t-52 52q-19 33 -22 75h55z" />
    <glyph glyph-name="uni045F" unicode="&#x45f;" horiz-adv-x="625" 
d="M576 597v-597h-1h-207l2 -127h-98l-2 127h-212v597h98v-509h322v509h98z" />
    <glyph glyph-name="uni2015" unicode="&#x2015;" horiz-adv-x="785" 
d="M80 348h625v-120h-625v120z" />
    <glyph glyph-name="quoteleft" unicode="&#x2018;" horiz-adv-x="255" 
d="M50 700h92l82 -228h-66z" />
    <glyph glyph-name="quoteright" unicode="&#x2019;" horiz-adv-x="255" 
d="M97 472h-66l82 228h92z" />
    <glyph glyph-name="quotedblleft" unicode="&#x201c;" horiz-adv-x="480" 
d="M52 700h92l82 -228h-66zM277 700h93l82 -228h-66z" />
    <glyph glyph-name="quotedblright" unicode="&#x201d;" horiz-adv-x="480" 
d="M319 472h-66l81 228h93zM93 472h-66l82 228h92z" />
    <glyph glyph-name="bullet" unicode="&#x2022;" horiz-adv-x="475" 
d="M70 404q0 35 13 65.5t35.5 53t53 35.5t65.5 13t65.5 -13t53.5 -35.5t36 -53t13 -65.5t-13 -65.5t-36 -53.5t-53.5 -36t-65.5 -13t-65.5 13t-53 36t-35.5 53.5t-13 65.5z" />
    <glyph glyph-name="ellipsis" unicode="&#x2026;" horiz-adv-x="833" 
d="M74 64q0 27 19 46.5t47 19.5q27 0 46.5 -19.5t19.5 -46.5t-19.5 -46.5t-46.5 -19.5q-28 0 -47 19.5t-19 46.5zM324 64q0 27 19 46.5t47 19.5q27 0 46.5 -19.5t19.5 -46.5t-19.5 -46.5t-46.5 -19.5q-28 0 -47 19.5t-19 46.5zM574 64q0 27 19 46.5t47 19.5q27 0 46.5 -19.5
t19.5 -46.5t-19.5 -46.5t-46.5 -19.5q-28 0 -47 19.5t-19 46.5z" />
    <glyph glyph-name="guilsinglleft" unicode="&#x2039;" horiz-adv-x="833" 
d="M259 473l-124 -173l120 -173h-89l-116 173l120 173h89z" />
    <glyph glyph-name="guilsinglright" unicode="&#x203a;" horiz-adv-x="833" 
d="M139 473l120 -173l-116 -173h-89l120 173l-124 173h89z" />
    <glyph glyph-name="fraction" unicode="&#x2044;" horiz-adv-x="280" 
d="M-107 -13l420 718h76l-420 -718h-76z" />
    <glyph glyph-name="Euro" unicode="&#x20ac;" horiz-adv-x="755" 
d="M707 86q-47 -46 -107.5 -72t-129.5 -26q-57 0 -109.5 17t-95.5 48.5t-75.5 76t-50.5 98.5h-96l-25 88h104q-1 9 -1.5 18t-0.5 19v12.5t1 12.5h-78l-25 88h119q17 55 49.5 101t76 79.5t96.5 52.5t111 19q69 0 129.5 -26t106.5 -72l-68 -63q-32 32 -73 50.5t-90 18.5
q-39 0 -74.5 -11.5t-66 -32.5t-54.5 -50.5t-39 -65.5h279l25 -88h-325q-1 -6 -1 -11.5v-11.5q0 -20 3 -39h273l25 -88h-271q32 -65 92 -105t134 -40q47 0 87 17t71 47z" />
    <glyph glyph-name="trademark" unicode="&#x2122;" horiz-adv-x="835" 
d="M348 649h-118v-349h-56v349h-112v51h286v-51zM416 700h65l83 -309l83 309h64l69 -400h-67l-42 265l-74 -265h-67l-74 265l-42 -265h-66z" />
    </font>
</defs>
</svg>
