<?xml version="1.0" standalone="no"?>
<!DOCTYPE svg PUBLIC "-//W3C//DTD SVG 1.1//EN" "http://www.w3.org/Graphics/SVG/1.1/DTD/svg11.dtd" >
<svg xmlns="http://www.w3.org/2000/svg" xmlns:xlink="http://www.w3.org/1999/xlink" version="1.1">
<metadata>
Created by FontForge 20170731 at Wed May 28 11:17:16 2014
 By Aleksey,,,
Copyright (c) 2014 by Electronic Arts. All rights reserved.
</metadata>
<defs>
<font id="TheSimsSans-Bold" horiz-adv-x="640" >
  <font-face 
    font-family="The Sims Sans"
    font-weight="700"
    font-stretch="normal"
    units-per-em="1000"
    panose-1="2 0 0 0 0 0 0 0 0 0"
    ascent="750"
    descent="-250"
    x-height="535"
    cap-height="700"
    bbox="-113 -263 1054 959"
    underline-thickness="50"
    underline-position="-150"
    unicode-range="U+000D-2122"
  />
<missing-glyph horiz-adv-x="300" 
 />
    <glyph glyph-name=".notdef" horiz-adv-x="300" 
 />
    <glyph glyph-name=".null" horiz-adv-x="0" 
 />
    <glyph glyph-name="nonmarkingreturn" unicode="&#xd;" horiz-adv-x="300" 
 />
    <glyph glyph-name="NULL" horiz-adv-x="0" 
 />
    <glyph glyph-name="NULL" horiz-adv-x="0" 
 />
    <glyph glyph-name="space" unicode=" " horiz-adv-x="300" 
 />
    <glyph glyph-name="exclam" unicode="!" horiz-adv-x="295" 
d="M227 78q0 -34 -23.5 -57t-56.5 -23q-34 0 -57 23t-23 57q0 33 23 56.5t57 23.5q33 0 56.5 -23.5t23.5 -56.5zM216 223l-135 -38l-9 515l154 25z" />
    <glyph glyph-name="quotedbl" unicode="&#x22;" horiz-adv-x="480" 
d="M155 445h-100l10 255h140zM385 445h-100l10 255h140z" />
    <glyph glyph-name="numbersign" unicode="#" horiz-adv-x="685" 
d="M612 410h-98l-16 -110h112l-33 -115h-96l-26 -185h-115l26 185h-100l-26 -185h-115l26 185h-111l33 115h95l16 110h-109l33 115h92l25 175h115l-25 -175h100l25 175h115l-25 -175h115zM383 300l16 110h-100l-16 -110h100z" />
    <glyph glyph-name="dollar" unicode="$" horiz-adv-x="550" 
d="M339 421q67 -20 101 -49.5t49 -57.5q17 -33 17 -68q0 -45 -13.5 -79.5t-36 -59.5t-52 -41.5t-61.5 -24.5v-80l-125 -27v101q-44 5 -76.5 18t-54.5 26q-26 15 -44 32l85 108q22 -20 45 -30t42.5 -14.5t34 -5t20.5 -0.5t19 1.5t26.5 7.5t23.5 17t10 31q0 18 -7 29t-23 20
t-42 18t-63 23q-36 13 -65 27t-50 33t-32 45.5t-11 65.5q0 32 12 61.5t33 53.5t51 42.5t66 27.5v74l125 27v-98q35 -6 62.5 -18t46.5 -23q22 -14 37 -29l-81 -101q-27 29 -61 41.5t-65 10.5t-52 -17.5t-21 -42.5q0 -18 10.5 -29t28 -18.5t41 -14t50.5 -13.5z" />
    <glyph glyph-name="percent" unicode="%" horiz-adv-x="870" 
d="M403 542q0 -35 -14 -66t-38.5 -54t-57.5 -36.5t-70 -13.5t-70 13.5t-57.5 36.5t-38.5 54t-14 66t14 66t38.5 54t57.5 36.5t70 13.5t70 -13.5t57.5 -36.5t38.5 -54t14 -66zM144 542q0 -33 23.5 -56t55.5 -23q33 0 56 23t23 56q0 32 -23 55.5t-56 23.5q-32 0 -55.5 -23.5
t-23.5 -55.5zM646 360q37 0 70 -13.5t57.5 -36.5t38.5 -54t14 -66t-14 -66t-38.5 -54t-57.5 -36.5t-70 -13.5t-70 13.5t-57.5 36.5t-38.5 54t-14 66t14 66t38.5 54t57.5 36.5t70 13.5zM646 111q33 0 56 23t23 56q0 32 -23 55.5t-56 23.5q-32 0 -55.5 -23.5t-23.5 -55.5
q0 -33 23.5 -56t55.5 -23zM682 725l-400 -725h-120l420 725h100z" />
    <glyph glyph-name="ampersand" unicode="&#x26;" horiz-adv-x="760" 
d="M556 0q-10 12 -22 26q-11 12 -25.5 28.5t-31.5 36.5q-11 -11 -21.5 -19.5t-18.5 -16.5q-36 -33 -86.5 -52.5t-102.5 -18t-99.5 28.5t-76.5 87q-21 43 -25 87t10.5 84t48.5 75t90 60q-41 36 -52.5 88t6 101t62 83.5t115.5 34.5q23 0 56 -7t64 -26.5t52.5 -53.5t21.5 -88
q0 -28 -10 -51.5t-26.5 -43t-37.5 -36.5t-44 -31q19 -22 40.5 -46t44.5 -50l101 87l84 -95q-13 -13 -29 -27q-14 -12 -31 -28.5t-37 -34.5q32 -37 61 -69.5t52 -57.5q26 -29 48 -55h-181zM327 603q-16 -1 -27 -8q-10 -6 -18 -19t-8 -36q0 -20 15 -38t29 -32q2 1 3.5 2t3.5 2
q7 3 17 9t19.5 15t16.5 20.5t7 26.5q0 29 -17 43.5t-41 14.5zM214 156q14 -21 35.5 -28.5t46 -3t50 20.5t48.5 41q-28 32 -55 63t-52 58q-21 -10 -41 -26t-33 -35.5t-14.5 -42.5t15.5 -47z" />
    <glyph glyph-name="quotesingle" unicode="'" horiz-adv-x="240" 
d="M155 445h-100l10 255h140l-50 -255v0z" />
    <glyph glyph-name="parenleft" unicode="(" horiz-adv-x="340" 
d="M228 -235q-94 91 -148 221t-54 284q0 77 14.5 148.5t41.5 135t65 119.5t85 101l77 -70q-80 -83 -126.5 -194t-46.5 -242q0 -129 43.5 -239.5t120.5 -192.5z" />
    <glyph glyph-name="parenright" unicode=")" horiz-adv-x="340" 
d="M40 -164q77 82 120.5 192.5t43.5 239.5q0 131 -46.5 242t-126.5 194l77 70q47 -45 85 -101t65 -119.5t41.5 -135t14.5 -148.5q0 -154 -54 -284t-148 -221z" />
    <glyph glyph-name="asterisk" unicode="*" horiz-adv-x="465" 
d="M424 558l-88 -47l88 -47l-55 -96l-85 52l3 -99h-110l2 99l-84 -52l-55 96l87 47l-87 47l55 96l84 -52l-2 99h110l-3 -99l85 52l55 -96v0z" />
    <glyph glyph-name="plus" unicode="+" 
d="M580 414v-125h-195v-195h-125v195h-200v125h200v200h125v-200h195v0z" />
    <glyph glyph-name="comma" unicode="," horiz-adv-x="345" 
d="M137 -125h-111l90 300l169 25z" />
    <glyph glyph-name="hyphen" unicode="-" horiz-adv-x="370" 
d="M50 288v125h270v-125h-270z" />
    <glyph glyph-name="period" unicode="." horiz-adv-x="280" 
d="M220 78q0 -34 -23.5 -57t-56.5 -23t-56.5 23t-23.5 57q0 33 23.5 56.5t56.5 23.5t56.5 -23.5t23.5 -56.5z" />
    <glyph glyph-name="slash" unicode="/" horiz-adv-x="295" 
d="M349 705l-277 -718h-126l276 718h127z" />
    <glyph glyph-name="zero" unicode="0" horiz-adv-x="650" 
d="M325 -14q-12 0 -37 2.5t-55 14t-61.5 34.5t-57.5 63.5t-42.5 102t-16.5 148.5t16.5 148.5t42.5 102t57.5 63.5t61.5 34.5t55 14t37 2.5t37 -2.5t55 -14t61.5 -34.5t57.5 -63.5t42.5 -102t16.5 -148.5q0 -88 -16.5 -149t-42.5 -101.5t-57.5 -63.5t-61.5 -34.5t-55 -14
t-37 -2.5zM325 573q-38 0 -61 -20t-36.5 -51.5t-18 -71t-4.5 -77.5t4.5 -77.5t18 -71t36.5 -51.5t61 -20q37 0 60.5 20t37 51.5t18 71t4.5 77.5t-4.5 77.5t-18 71t-37 51.5t-60.5 20z" />
    <glyph glyph-name="one" unicode="1" horiz-adv-x="345" 
d="M115 549h-95l50 151h195v-700h-150v549z" />
    <glyph glyph-name="two" unicode="2" horiz-adv-x="625" 
d="M574 145l-38 -145h-490q51 61 93 111q18 21 36 42.5t33 39.5t26 31t16 18q10 12 33.5 37.5t46.5 57.5t41 66.5t18 66.5q0 28 -10 47.5t-25 30.5t-34 16t-37 5q-12 0 -27 -5t-29 -15.5t-23.5 -27t-9.5 -39.5q0 -20 4.5 -33.5t11 -23.5t15.5 -16.5t18 -12.5l-85 -112
q-32 20 -57 48q-21 24 -38.5 59t-17.5 83q0 51 18.5 94.5t50.5 75.5t76.5 50.5t97.5 18.5q49 0 94.5 -14t81 -43t56.5 -73.5t21 -106.5q0 -45 -20.5 -90.5t-46.5 -85t-52 -69t-36 -42.5q-5 -7 -15 -18.5t-22 -25.5h225z" />
    <glyph glyph-name="three" unicode="3" horiz-adv-x="600" 
d="M244 414l45 1q19 0 36 6.5t29.5 17.5t19.5 25.5t7 31.5q0 16 -7 31t-19.5 26t-29.5 17.5t-36 6.5t-36 -6.5t-29.5 -17.5t-19.5 -26t-7 -31l-141 13q0 48 18.5 85.5t50 63.5t74 40t90.5 14t90.5 -16t74 -44t50 -64.5t18.5 -76.5q0 -45 -21 -83.5t-58 -66.5q45 -27 71 -69
t26 -98q0 -42 -19.5 -79.5t-53.5 -65.5t-80 -44.5t-98 -16.5t-97.5 16.5t-79.5 44.5t-53.5 65.5t-19.5 79.5l145 25q0 -19 8 -36t22.5 -29.5t33.5 -19.5t41 -7t41 7t33 19.5t22.5 29.5t8.5 36q0 18 -7 33.5t-20 27.5t-30 19.5t-37 9.5h-11h-44z" />
    <glyph glyph-name="four" unicode="4" horiz-adv-x="655" 
d="M570 130h-70v-130h-149v130h-315v132l329 438h135v-438h108zM351 262v188l-141 -188h141z" />
    <glyph glyph-name="five" unicode="5" horiz-adv-x="595" 
d="M238 443q64 15 119.5 5t96.5 -38.5t64 -73.5t23 -99t-22.5 -100t-60 -79t-87.5 -51.5t-104 -18.5t-96 14t-71 31q-33 19 -58 45l111 107q11 -16 29 -27q14 -10 36 -18t51 -8q25 0 47 6.5t38 19t25.5 31t9.5 43.5q0 43 -24.5 65.5t-66 27t-95.5 -6.5t-114 -33v415h400
l-38 -144h-213v-113v0z" />
    <glyph glyph-name="six" unicode="6" horiz-adv-x="625" 
d="M277 457q44 20 95 14.5t95 -33.5t73.5 -76t29.5 -112q0 -53 -14 -92.5t-36.5 -68.5t-51 -48t-58 -30.5t-57 -16t-47.5 -4.5q-18 0 -43.5 5.5t-53.5 18t-55.5 32.5t-49 48.5t-35 67t-13.5 88.5q0 42 10.5 83.5t28 81.5t40 76t46.5 68q55 74 125 141h198q-48 -35 -89.5 -77
t-72.5 -79q-36 -43 -65 -87zM315 135q23 0 43 8.5t35 23.5t24 35t9 43t-9 42.5t-24 34t-35.5 23t-43.5 8.5t-43 -8.5t-35 -23t-23.5 -34t-8.5 -42.5t9 -43t24 -35t35 -23.5t43 -8.5z" />
    <glyph glyph-name="seven" unicode="7" horiz-adv-x="610" 
d="M370 552h-309l40 148h464l-228 -700h-162z" />
    <glyph glyph-name="eight" unicode="8" horiz-adv-x="600" 
d="M448 368q47 -26 74.5 -69t27.5 -100q0 -43 -19.5 -80.5t-53.5 -65.5t-79.5 -44t-97.5 -16t-98 16t-80 44t-53.5 65.5t-19.5 80.5q0 55 26 97t70 69q-36 26 -57 66t-21 92q0 48 18.5 85.5t50 63.5t74 40t90.5 14t90.5 -16t74 -44t50 -64.5t18.5 -76.5q0 -45 -23 -86.5
t-62 -70.5zM300 603q-19 0 -36 -6.5t-29.5 -17.5t-19.5 -26t-7 -31q0 -17 7 -31.5t19.5 -25.5t29.5 -17.5t36 -6.5q38 0 65 23.5t27 57.5q0 16 -7.5 31t-20 26t-29 17.5t-35.5 6.5zM300 123q22 0 41 7t33 19.5t22.5 29.5t8.5 36t-8.5 36t-22.5 29.5t-33 19.5t-41 7t-41 -7
t-33.5 -19.5t-22.5 -29.5t-8 -36t8 -36t22.5 -29.5t33.5 -19.5t41 -7z" />
    <glyph glyph-name="nine" unicode="9" horiz-adv-x="625" 
d="M349 243q-44 -20 -95 -14.5t-95 33.5t-73.5 76t-29.5 112q0 53 14 92.5t36.5 68.5t51 48t58 30.5t57 16t47.5 4.5q18 0 43.5 -5.5t53.5 -18t55.5 -32.5t49 -48.5t35 -67.5t13.5 -88q0 -42 -11 -84t-28.5 -81.5t-40 -76t-45.5 -67.5q-55 -74 -125 -141h-198q48 34 89 76.5
t72 79.5q36 43 66 87zM311 564q-23 0 -43 -8.5t-35 -23t-24 -34.5t-9 -43t9 -43t24 -34.5t35.5 -23t43.5 -8.5t43 8.5t35 23t23.5 34.5t8.5 43t-9 43t-24 34.5t-35 23t-43 8.5z" />
    <glyph glyph-name="colon" unicode=":" horiz-adv-x="270" 
d="M215 78q0 -34 -23.5 -57t-56.5 -23t-56.5 23t-23.5 57q0 33 23.5 56.5t56.5 23.5t56.5 -23.5t23.5 -56.5zM215 380q0 -33 -23.5 -56.5t-56.5 -23.5t-56.5 23.5t-23.5 56.5t23.5 56.5t56.5 23.5t56.5 -23.5t23.5 -56.5z" />
    <glyph glyph-name="semicolon" unicode=";" horiz-adv-x="270" 
d="M215 380q0 -33 -23.5 -56.5t-56.5 -23.5t-56.5 23.5t-23.5 56.5t23.5 56.5t56.5 23.5t56.5 -23.5t23.5 -56.5zM93 -125h-111l90 300l169 25z" />
    <glyph glyph-name="less" unicode="&#x3c;" horiz-adv-x="600" 
d="M553 -5l-506 220v82l506 220v-132l-342 -129l342 -129v-132z" />
    <glyph glyph-name="equal" unicode="=" horiz-adv-x="620" 
d="M570 414h-520v125h520v-125zM570 163h-520v125h520v-125z" />
    <glyph glyph-name="greater" unicode="&#x3e;" horiz-adv-x="600" 
d="M47 127l342 129l-342 129v132l506 -220v-82l-506 -220v132z" />
    <glyph glyph-name="question" unicode="?" horiz-adv-x="500" 
d="M322 516q0 35 -24 51.5t-57 16.5q-29 0 -55 -14.5t-49 -44.5l-112 75q20 31 52 57q27 22 68.5 40t101.5 18q55 0 96 -19t68.5 -47.5t41.5 -63t14 -65.5q0 -37 -9 -62.5t-22.5 -43.5t-30 -31.5t-31.5 -25.5q-10 -8 -20.5 -15.5t-19.5 -17t-14.5 -22t-5.5 -30.5v-48
l-140 -40v111q0 11 1 28t8.5 36.5t25 39.5t50.5 37q11 6 22.5 11t20.5 13.5t14.5 21.5t5.5 34zM326 78q0 -34 -23.5 -57t-56.5 -23t-56.5 23t-23.5 57q0 33 23.5 56.5t56.5 23.5t56.5 -23.5t23.5 -56.5z" />
    <glyph glyph-name="at" unicode="@" horiz-adv-x="820" 
d="M432 64q46 0 81 8t59 18q28 11 48 27l38 -52q-39 -35 -94 -58.5t-133 -23.5q-95 0 -166 33.5t-119 86t-72 116.5t-24 126q0 61 23.5 126.5t70.5 118.5t117 87.5t164 34.5q66 0 128 -20.5t110 -60t77 -96t29 -128.5q0 -70 -20.5 -121t-54 -84.5t-76.5 -50t-89 -16.5
q-17 0 -28.5 6t-19 15.5t-11.5 19.5t-5 18q-18 -28 -52 -43t-69 -11q-17 2 -42.5 13t-48.5 34t-37 59.5t-8 90.5q7 55 27 92t47.5 59.5t60.5 32.5t65 10t55 -10.5t37 -23.5q17 -15 26 -33l11 61h87l-23 -115q-5 -23 -9.5 -45.5l-8.5 -42.5t-7.5 -35.5t-4.5 -22.5
q-5 -17 2.5 -27t17.5 -10q5 0 20.5 5.5t32.5 22t30 47.5t13 82q0 39 -12.5 81.5t-43 78t-81.5 58.5t-128 23q-72 0 -123.5 -25.5t-85.5 -67t-50 -93t-16 -102.5q0 -69 27 -120.5t69 -85t92.5 -50.5t96.5 -17zM482 299q9 18 11 36t-2 34t-14 29t-25 21q-31 17 -65.5 4.5
t-53.5 -47.5q-9 -18 -11 -37t2 -36.5t14 -31.5t26 -22q15 -8 32 -7.5t33 7t30 19.5t23 31z" />
    <glyph glyph-name="A" unicode="A" 
d="M476 0l-44 140h-224l-44 -140h-161l243 700h148l243 -700h-161zM246 260h148l-74 233z" />
    <glyph glyph-name="B" unicode="B" horiz-adv-x="560" 
d="M392 368q38 -10 69 -32q26 -19 48 -52.5t22 -88.5q0 -91 -66 -143t-198 -52h-215v700h195q52 0 99.5 -9.5t83.5 -32t57.5 -60.5t21.5 -95q0 -25 -11.5 -49.5t-28.5 -43.5t-37.5 -30.5t-39.5 -11.5zM202 572v-157h65q38 0 61.5 20.5t23.5 54.5q0 26 -10.5 42t-25.5 25
t-32.5 12t-30.5 3h-51zM261 128q19 0 38.5 4t35.5 14t26.5 25.5t10.5 38.5q0 21 -9.5 36.5t-24.5 26.5t-33.5 16.5t-37.5 5.5h-65v-167h59z" />
    <glyph glyph-name="C" unicode="C" horiz-adv-x="645" 
d="M617 84q-47 -46 -107.5 -72t-129.5 -26q-72 0 -136 27t-111.5 75.5t-75 115.5t-27.5 147q0 76 27.5 142.5t75 116t111.5 78t136 28.5q69 0 129.5 -26t106.5 -72l-105 -96q-26 22 -58 34t-67 12q-41 0 -77.5 -17.5t-63.5 -47.5t-43 -69t-16 -81q0 -46 16 -85t43 -68
t63.5 -45.5t77.5 -16.5q33 0 62.5 10.5t53.5 29.5z" />
    <glyph glyph-name="D" unicode="D" horiz-adv-x="675" 
d="M295 700q72 0 136 -27.5t111.5 -75t75 -111.5t27.5 -136t-27.5 -136t-75 -111.5t-111.5 -75t-136 -27.5h-235v700h235zM262 135q46 0 87 16t72 45t48.5 68t17.5 86q0 46 -17.5 85.5t-48.5 68.5t-72 45t-87 16h-52v-430h52z" />
    <glyph glyph-name="E" unicode="E" horiz-adv-x="535" 
d="M500 140l-40 -140h-400v700h385l40 -140h-275v-135h190v-140h-190v-145h290z" />
    <glyph glyph-name="F" unicode="F" horiz-adv-x="480" 
d="M211 390h190v-140h-190v-250h-150v700h363l42 -145h-255v-165z" />
    <glyph glyph-name="G" unicode="G" horiz-adv-x="740" 
d="M686 412v-361q-9 -6 -36.5 -17.5t-65 -22t-82 -18.5t-86.5 -8q-89 0 -160 28.5t-121.5 78t-77.5 116t-27 142.5t29.5 142.5t81.5 116t122.5 78t152.5 28.5q34 0 69 -6.5t68.5 -19t64.5 -30t57 -39.5l-92 -112q-51 39 -100 54t-94 11t-83 -24t-66 -50.5t-44 -69t-16 -79.5
q0 -48 19 -89.5t52 -71.5t77.5 -47.5t94.5 -17.5q60 0 113 25v133h-180l37 130h293z" />
    <glyph glyph-name="H" unicode="H" horiz-adv-x="690" 
d="M627 700v-700h-150v292h-265v-292h-150v700h150v-278h265v278h150z" />
    <glyph glyph-name="I" unicode="I" horiz-adv-x="275" 
d="M212 0h-150v700h150v-700z" />
    <glyph glyph-name="J" unicode="J" horiz-adv-x="415" 
d="M355 235q0 -61 -17 -104t-44 -72t-61 -45.5t-68 -23.5t-64.5 -6.5t-50.5 5.5l-42 149q40 -11 70 -11.5t51 6t35 19t23 26.5q19 33 18 84v438h150v-465z" />
    <glyph glyph-name="K" unicode="K" 
d="M629 0h-182l-237 322v-322h-150v700h150v-337l232 337h180l-254 -354z" />
    <glyph glyph-name="L" unicode="L" horiz-adv-x="480" 
d="M461 145l-41 -145h-360v700h150v-555h251z" />
    <glyph glyph-name="M" unicode="M" horiz-adv-x="805" 
d="M134 700h144l124 -450l123 450h145l120 -700h-154l-57 355l-99 -355h-157l-99 355l-56 -355h-153z" />
    <glyph glyph-name="N" unicode="N" horiz-adv-x="745" 
d="M685 700v-700h-164l-311 472v-472h-150v700h150l325 -479v479h150z" />
    <glyph glyph-name="O" unicode="O" horiz-adv-x="800" 
d="M400 717q76 0 143.5 -28.5t118 -78t79.5 -116t29 -142.5t-29 -142.5t-79.5 -116t-118 -78t-143.5 -28.5q-77 0 -144.5 28.5t-117.5 78t-79 116t-29 142.5t29 142.5t79 116t117.5 78t144.5 28.5zM400 132q44 0 83 17t68.5 47t46.5 70t17 86t-17 86t-46.5 70t-68.5 47
t-83 17q-45 0 -84 -17t-68 -47t-46 -70t-17 -86t17 -86t46 -70t68 -47t84 -17z" />
    <glyph glyph-name="P" unicode="P" horiz-adv-x="560" 
d="M280 700q46 0 92.5 -10.5t84 -36.5t60.5 -69t23 -109q0 -54 -21.5 -95t-57 -69t-80.5 -42t-91 -14h-80v-255h-150v700h220zM265 390q15 0 36 2t39.5 10.5t31.5 25.5t13 47t-13 47t-31.5 25.5t-39.5 10.5t-36 2h-55v-170h55z" />
    <glyph glyph-name="Q" unicode="Q" horiz-adv-x="805" 
d="M639 0l-42 41q-43 -26 -93 -41t-104 -15q-77 0 -144.5 28.5t-117.5 78t-79 116t-29 142.5t29 142.5t79 116t117.5 78t144.5 28.5q76 0 143.5 -28.5t118 -78t79.5 -116t29 -142.5q0 -64 -21 -121.5t-59 -104.5l131 -124h-182zM185 350q0 -46 17 -86t46 -70t68 -47t84 -17
t88 19l-106 104l115 56l83 -79q17 26 26 56.5t9 63.5q0 46 -17 86t-46.5 70t-68.5 47t-83 17q-45 0 -84 -17t-68 -47t-46 -70t-17 -86z" />
    <glyph glyph-name="R" unicode="R" horiz-adv-x="620" 
d="M256 275h-46v-275h-150v700h220q46 0 92.5 -10.5t84 -36.5t60.5 -69t23 -109q0 -34 -10.5 -61.5t-29 -49t-43.5 -37.5t-53 -27l206 -300h-182zM210 375h55q15 0 36 4.5t39.5 15.5t31.5 30.5t13 49.5t-13 47t-31.5 25.5t-39.5 10.5t-36 2h-55v-185z" />
    <glyph glyph-name="S" unicode="S" horiz-adv-x="580" 
d="M438 526q-30 33 -68.5 46.5t-72 10.5t-57 -21.5t-23.5 -49.5q0 -20 11.5 -34t31 -24t45.5 -18t56 -17q74 -22 111.5 -55t54.5 -64q19 -37 19 -76q0 -66 -24 -112t-61.5 -75t-84 -42t-91.5 -13q-63 0 -110 13t-79 29q-37 18 -63 43l94 120q24 -23 48 -34.5t44.5 -16
t36 -4.5h22.5t22.5 2t31.5 9.5t28.5 20.5t12.5 36q0 22 -8 35.5t-26 23t-46.5 19.5t-69.5 26q-40 15 -72.5 31t-55.5 38t-35.5 52.5t-12.5 75.5t19.5 84t53.5 68.5t80.5 46.5t101.5 17t96.5 -12.5t70.5 -27.5q33 -18 57 -40z" />
    <glyph glyph-name="T" unicode="T" horiz-adv-x="540" 
d="M520 555h-175v-555h-150v555h-185l40 145h470v-145z" />
    <glyph glyph-name="U" unicode="U" horiz-adv-x="695" 
d="M342 -15q-41 0 -90.5 8.5t-92 34.5t-71 75.5t-28.5 131.5v465h156v-435q0 -38 13 -67q11 -26 37 -46.5t76 -20.5q55 0 83 20.5t40 46.5q14 29 14 67v435h156v-455q0 -86 -30.5 -137.5t-75 -78.5t-95.5 -35.5t-92 -8.5z" />
    <glyph glyph-name="V" unicode="V" horiz-adv-x="670" 
d="M652 700l-243 -700h-148l-244 700h162l156 -493l156 493h161z" />
    <glyph glyph-name="W" unicode="W" horiz-adv-x="865" 
d="M651 0h-135l-83 355l-83 -355h-135l-194 700h158l107 -385l79 385h136l80 -385l106 385h158l-194 -700v0z" />
    <glyph glyph-name="X" unicode="X" horiz-adv-x="725" 
d="M523 0l-161 246l-161 -246h-182l254 369l-229 331h182l136 -203l135 203h182l-228 -331l254 -369h-182z" />
    <glyph glyph-name="Y" unicode="Y" 
d="M630 700l-303 -700h-163l115 265l-268 435h176l162 -273l118 273h163z" />
    <glyph glyph-name="Z" unicode="Z" horiz-adv-x="680" 
d="M656 140l-40 -140h-592l356 560h-344l40 140h568l-358 -560h370z" />
    <glyph glyph-name="bracketleft" unicode="[" horiz-adv-x="315" 
d="M255 -214h-203v970h200v-90h-89v-790h92v-90v0z" />
    <glyph glyph-name="backslash" unicode="\" horiz-adv-x="295" 
d="M-54 705h127l276 -718h-126l-277 718v0z" />
    <glyph glyph-name="bracketright" unicode="]" horiz-adv-x="315" 
d="M60 -214v90h92v790h-89v90h200v-970h-203z" />
    <glyph glyph-name="asciicircum" unicode="^" horiz-adv-x="550" 
d="M48 340l176 360h102l176 -360h-117l-110 245l-111 -245h-116z" />
    <glyph glyph-name="underscore" unicode="_" horiz-adv-x="500" 
d="M0 -126v75h500v-75h-500z" />
    <glyph glyph-name="grave" unicode="`" horiz-adv-x="230" 
d="M106 742l98 -148h-121l-129 148h152z" />
    <glyph glyph-name="a" unicode="a" horiz-adv-x="620" 
d="M563 532v-532h-130v40q-26 -25 -60.5 -38.5t-79.5 -13.5q-56 0 -104.5 22t-85.5 60t-58 89t-21 109t19.5 109t54.5 89t82.5 60t103.5 22q42 0 76.5 -14.5t62.5 -39.5v58zM300 127q28 0 53.5 11t44 30.5t29.5 45.5t11 56t-11 56t-29.5 45.5t-44 30.5t-53.5 11t-53 -11
t-43.5 -30.5t-29.5 -45.5t-11 -56t11 -56t29.5 -45.5t43.5 -30.5t53 -11z" />
    <glyph glyph-name="b" unicode="b" horiz-adv-x="645" 
d="M345 545q58 0 107.5 -22t85.5 -60t56.5 -89t20.5 -109t-22 -109t-60 -89t-89 -60t-109 -22q-45 0 -82.5 13.5t-67.5 37.5v-36h-130v694l140 31v-234q31 26 68.5 40t81.5 14zM327 125q30 0 56 11t45.5 30.5t30.5 45.5t11 56t-11 56t-30.5 45.5t-45.5 30.5t-56 11
q-29 0 -55 -11t-45.5 -30.5t-31 -45.5t-11.5 -56t11.5 -56t31 -45.5t45.5 -30.5t55 -11z" />
    <glyph glyph-name="c" unicode="c" horiz-adv-x="535" 
d="M511 58q-38 -37 -91 -52.5t-110 -15.5q-58 0 -109 21.5t-89 59t-60 88.5t-22 109t22 109t60 89t89 60t109 22q55 0 102 -13.5t94 -50.5l-78 -107q-20 19 -48 30t-57 11q-31 0 -57.5 -12t-46 -32t-30.5 -47.5t-11 -58.5t11 -58t30.5 -46.5t46 -30.5t57.5 -11q30 0 58.5 10
t48.5 29z" />
    <glyph glyph-name="d" unicode="d" 
d="M590 725v-725h-130v36q-29 -24 -67 -37.5t-83 -13.5q-58 0 -109 22t-89 60t-60 89t-22 109t20.5 109t56.5 89t85.5 60t107.5 22q44 0 81.5 -14t68.5 -40v203zM318 125q30 0 56 11t45.5 30.5t30.5 45.5t11 56t-11 56t-30.5 45.5t-45.5 30.5t-56 11t-56 -11t-45.5 -30.5
t-30.5 -45.5t-11 -56t11 -56t30.5 -45.5t45.5 -30.5t56 -11z" />
    <glyph glyph-name="e" unicode="e" horiz-adv-x="605" 
d="M325 124q25 0 48 6t42.5 15t34.5 20t25 20l77 -109q-54 -41 -116.5 -62.5t-119.5 -21.5q-58 0 -109.5 21.5t-89.5 59t-60.5 88.5t-22.5 109t22.5 109t60.5 89t89.5 60t109.5 22q52 0 94 -17.5t73 -42.5t52 -52.5t33 -48.5l-342 -227q41 -38 99 -38zM311 426
q-35 0 -60.5 -12.5t-42 -33.5t-25 -47t-8.5 -53q0 -15 3 -30l217 143q-15 14 -35.5 23.5t-48.5 9.5z" />
    <glyph glyph-name="f" unicode="f" horiz-adv-x="405" 
d="M115 502q0 80 27.5 125.5t66.5 68t80 27.5t68 5l36 -126q-30 3 -55.5 1.5t-44 -12t-28.5 -32t-10 -57.5h97v-120h-97v-382h-140v382h-100l34 120h66v0z" />
    <glyph glyph-name="g" unicode="g" horiz-adv-x="615" 
d="M556 10q0 -39 -13.5 -78t-45.5 -70.5t-85 -51t-132 -19.5q-61 0 -106.5 15t-76 34t-46.5 35l-18 18l98 97q1 -2 10 -13t27.5 -23t47 -21.5t69.5 -9.5q23 0 46 4t41.5 13t30 25t11.5 40l1 61q-24 -22 -56 -34.5t-72 -12.5q-54 0 -101 20.5t-82.5 55.5t-56 82t-20.5 101
t20.5 101.5t56 82.5t82.5 55.5t101 20.5q46 0 81 -16.5t61 -44.5v30l127 28v-525zM298 155q25 0 47 9.5t38 26t25.5 38t9.5 46.5t-9.5 46.5t-25.5 38t-38 26t-47 9.5t-46.5 -9.5t-38 -26t-26 -38t-9.5 -46.5t9.5 -46.5t26 -38t38 -26t46.5 -9.5z" />
    <glyph glyph-name="h" unicode="h" horiz-adv-x="575" 
d="M336 535q95 0 140.5 -56t45.5 -169v-310h-142v300q0 16 -3.5 34t-13.5 33t-28.5 25t-49.5 10q-27 0 -44.5 -11t-28 -29t-15 -40t-4.5 -44v-278h-140v694l140 31v-259q24 31 61.5 50t81.5 19z" />
    <glyph glyph-name="i" unicode="i" horiz-adv-x="260" 
d="M210 635q0 -33 -23.5 -56.5t-56.5 -23.5t-56.5 23.5t-23.5 56.5t23.5 56.5t56.5 23.5t56.5 -23.5t23.5 -56.5zM202 0v526l-140 -31v-495h140z" />
    <glyph glyph-name="j" unicode="j" horiz-adv-x="270" 
d="M217 635q0 -33 -23.5 -56.5t-56.5 -23.5t-56.5 23.5t-23.5 56.5t23.5 56.5t56.5 23.5t56.5 -23.5t23.5 -56.5zM69 495v-495q0 -19 -5 -34.5t-18.5 -27t-37 -18t-60.5 -6.5l45 -127q77 0 120.5 18t64.5 48t26 68.5t5 78.5v526z" />
    <glyph glyph-name="k" unicode="k" horiz-adv-x="600" 
d="M400 0l-208 257v-257h-140v694l140 31v-431l193 241h179l-209 -250l232 -285h-187z" />
    <glyph glyph-name="l" unicode="l" horiz-adv-x="245" 
d="M192 0h-140v694l140 31v-725z" />
    <glyph glyph-name="m" unicode="m" horiz-adv-x="800" 
d="M567 535q183 0 183 -225v-310h-141v310q0 26 -7 46q-6 17 -20 31.5t-43 14.5q-26 0 -47.5 -19.5t-21.5 -64.5v-318h-141v310q-1 26 -9 46q-7 17 -21.5 31.5t-41.5 14.5q-11 0 -23 -5t-22 -15t-16 -26t-6 -38v-318h-140v504l135 30v-68q17 30 45.5 49.5t68.5 19.5
q42 0 76.5 -15.5t55.5 -47.5q22 29 56.5 46t79.5 17z" />
    <glyph glyph-name="n" unicode="n" horiz-adv-x="555" 
d="M319 535q88 0 137 -56t49 -169v-310h-140v300q0 16 -3.5 34t-14 33t-29.5 25t-50 10q-29 0 -52.5 -19t-25.5 -61v-322h-140v504l135 30v-67q21 30 55.5 49t78.5 19z" />
    <glyph glyph-name="o" unicode="o" 
d="M320 547q60 0 112.5 -22t91.5 -60t62 -88.5t23 -108.5t-23 -108.5t-62 -88.5t-91.5 -60t-112.5 -22t-112.5 22t-92 60t-62 88.5t-22.5 108.5t22.5 108.5t62 88.5t92 60t112.5 22zM320 123q30 0 56.5 11t46 30.5t31 45.5t11.5 56t-11.5 56t-31 45.5t-46 31t-56.5 11.5
t-56.5 -11.5t-46 -31t-31 -45.5t-11.5 -56t11.5 -56t31 -45.5t46 -30.5t56.5 -11z" />
    <glyph glyph-name="p" unicode="p" 
d="M350 534q58 0 106 -22t82 -60t53 -89t19 -109t-22 -109t-60 -89t-89 -60t-109 -22q-45 0 -79.5 15.5t-60.5 41.5v-191l-140 -31v698l128 28v-88q30 40 72.5 63.5t99.5 23.5zM323 114q30 0 56 11t45.5 30.5t30.5 45.5t11 56t-11 56t-30.5 45.5t-45.5 30.5t-56 11t-56 -11
t-45.5 -30.5t-30.5 -45.5t-11 -56t11 -56t30.5 -45.5t45.5 -30.5t56 -11z" />
    <glyph glyph-name="q" unicode="q" 
d="M590 535v-695l-140 -31v225q-26 -26 -60.5 -41.5t-79.5 -15.5q-58 0 -109 22t-89 60t-60 89t-22 109t19 109t53 89t82 60t106 22q57 0 99.5 -23.5t72.5 -63.5v57zM317 117q30 0 56 11t45.5 30.5t30.5 45.5t11 56t-11 56t-30.5 45.5t-45.5 30.5t-56 11q-29 0 -55 -11
t-45.5 -30.5t-31 -45.5t-11.5 -56t11.5 -56t31 -45.5t45.5 -30.5t55 -11z" />
    <glyph glyph-name="r" unicode="r" horiz-adv-x="362" 
d="M355 534l-44 -152q-52 0 -85.5 -22.5t-35.5 -85.5v-274h-140v495l140 31v-69q20 33 54.5 55t83.5 22h27z" />
    <glyph glyph-name="s" unicode="s" horiz-adv-x="445" 
d="M327 387q-27 20 -54 27t-48.5 4.5t-35 -13.5t-13.5 -28q0 -15 8 -23.5t22 -14.5t34.5 -10t45.5 -10q46 -11 73.5 -28t42.5 -37t19.5 -42t4.5 -43q0 -53 -19.5 -88t-50 -56t-67.5 -30t-72 -9q-47 0 -80 7.5t-56 18.5t-38.5 23t-27.5 21l74 101q19 -17 38 -27t36 -15
t29.5 -6t17.5 -1q11 0 25 1.5t26 6.5t20.5 15t8.5 27q0 11 -4 19t-15.5 14.5t-31 11.5t-50.5 10t-58.5 15.5t-48.5 29.5t-33 48.5t-12 73.5q0 34 14.5 63.5t40.5 52t61.5 35.5t77.5 13t75 -11.5t56 -25.5q27 -16 48 -36z" />
    <glyph glyph-name="t" unicode="t" horiz-adv-x="405" 
d="M254 225q0 -32 12 -51t31 -28t43 -9t48 6l-39 -143q-63 0 -104.5 13t-67.5 34t-39 46.5t-18.5 50.5t-5.5 46.5v34.5v175h-101l36 125h65v125l140 20v-145h95v-125h-95v-175v0z" />
    <glyph glyph-name="u" unicode="u" horiz-adv-x="555" 
d="M506 535v-535h-135v74q-21 -36 -55.5 -60t-79.5 -24q-88 0 -137 56t-49 169v320h142v-310q0 -16 3 -34t13 -33.5t29 -25.5t50 -10q29 0 53.5 20t24.5 64v329h141z" />
    <glyph glyph-name="v" unicode="v" horiz-adv-x="534" 
d="M525 535l-190 -535h-136l-190 535h148l110 -341l110 341h148z" />
    <glyph glyph-name="w" unicode="w" horiz-adv-x="725" 
d="M573 535h142l-150 -535h-136l-67 299l-66 -299h-136l-150 535h142l72 -328l77 328h123l76 -328l73 328v0z" />
    <glyph glyph-name="x" unicode="x" horiz-adv-x="565" 
d="M387 0l-105 156l-106 -156h-165l191 274l-177 261h155l102 -146l101 146h156l-177 -261l191 -274h-166z" />
    <glyph glyph-name="y" unicode="y" horiz-adv-x="590" 
d="M220 66l-208 469h148l136 -317l129 317h153l-321 -710h-149z" />
    <glyph glyph-name="z" unicode="z" horiz-adv-x="505" 
d="M491 135l-38 -135h-439l247 405h-225l37 130h408l-237 -400h247z" />
    <glyph glyph-name="braceleft" unicode="{" horiz-adv-x="310" 
d="M201 366q0 -38 -19 -58t-57 -29q38 -10 57 -30t19 -58v-245q0 -19 7.5 -30t17.5 -16q11 -7 25 -9h25v-80h-50q-19 0 -41 5.5t-40.5 19.5t-31 38t-12.5 62v239q0 29 -21.5 45t-78.5 16v85q57 0 78.5 16.5t21.5 45.5v238q0 37 12.5 61.5t31 38.5t40.5 19.5t41 5.5h50v-80
h-25q-14 -3 -25 -9q-10 -6 -17.5 -16.5t-7.5 -29.5v-245v0z" />
    <glyph glyph-name="bar" unicode="|" horiz-adv-x="235" 
d="M62 -20v720h111v-720h-111z" />
    <glyph glyph-name="braceright" unicode="}" horiz-adv-x="310" 
d="M109 611q0 19 -8 29.5t-17 16.5q-11 6 -25 9h-25v80h50q19 0 40.5 -5.5t40.5 -19.5t31.5 -38.5t12.5 -61.5v-238q0 -29 21.5 -45.5t78.5 -16.5v-85q-57 0 -78.5 -16t-21.5 -45v-239q0 -38 -12.5 -62t-31.5 -38t-40.5 -19.5t-40.5 -5.5h-50v80h25q14 2 25 9q9 5 17 16
t8 30v245q0 38 19 58t57 30q-38 9 -57 29t-19 58v245z" />
    <glyph glyph-name="asciitilde" unicode="~" horiz-adv-x="590" 
d="M64 262q11 24 29 43q15 16 38 29.5t57 13.5q30 0 59.5 -10.5t57 -23.5t52 -23.5t45.5 -10.5q18 0 34 11t28 25q14 16 26 36l36 -96q-14 -25 -32 -43q-16 -17 -39 -30t-54 -13q-29 0 -54.5 11t-50.5 23.5t-52 23.5t-60 11q-22 0 -37 -11.5t-26 -25.5q-12 -16 -21 -36
l-36 96v0z" />
    <glyph glyph-name="exclamdown" unicode="&#xa1;" horiz-adv-x="295" 
d="M67 645q0 34 23.5 57t56.5 23q34 0 57 -23t23 -57q0 -33 -23 -56.5t-57 -23.5q-33 0 -56.5 23.5t-23.5 56.5zM78 500l135 38l9 -515l-154 -25z" />
    <glyph glyph-name="sterling" unicode="&#xa3;" horiz-adv-x="560" 
d="M524 43q-15 -16 -33 -27q-16 -11 -38 -19t-48 -8q-27 0 -56 7t-57 15t-53.5 15t-45.5 7t-38 -6t-32 -14q-17 -9 -31 -20l-60 80q15 11 37 29.5t43 41.5t35.5 51t14.5 59q0 16 -4.5 31.5t-12.5 30.5h-112v63h75q-19 31 -34 63t-15 67q0 95 55.5 150.5t174.5 55.5
q101 0 157 -55.5t56 -168.5h-103q0 59 -29 90t-87 31q-29 0 -49.5 -8t-34 -21.5t-19.5 -32t-6 -38.5q0 -24 21 -58.5t42 -74.5h124v-63h-97q8 -26 8 -50q0 -38 -12 -66t-26 -47q-17 -22 -38 -37q5 2 15 5q8 2 21 3.5t33 1.5t38 -5t35.5 -11t33.5 -11t31 -5t27.5 5.5
t20.5 12.5q10 8 18 18z" />
    <glyph glyph-name="currency" unicode="&#xa4;" horiz-adv-x="685" 
d="M568 346q0 -51 -22 -97l98 -97l-107 -107l-97 98q-46 -22 -97 -22t-97 22l-97 -98l-107 107l98 97q-22 46 -22 97t22 97l-98 97l107 107l97 -98q46 22 97 22t97 -22l97 98l107 -107l-98 -97q22 -46 22 -97zM343 246q42 0 71 29t29 71t-29 71t-71 29t-71 -29t-29 -71
t29 -71t71 -29z" />
    <glyph glyph-name="yen" unicode="&#xa5;" 
d="M415 283h95v-85h-120v-56h120v-85h-120v-57h-140v57h-130v85h130v56h-130v85h105l-193 417h148l140 -331l140 331h148z" />
    <glyph glyph-name="section" unicode="&#xa7;" horiz-adv-x="665" 
d="M535 327q24 -23 37.5 -46t20.5 -45.5t9 -43.5t2 -40q0 -29 -15.5 -67t-48.5 -72.5t-84 -58.5t-121 -24q-71 0 -122.5 19.5t-85.5 42.5q-40 27 -66 62l101 112q25 -38 69.5 -63t105.5 -25q60 0 89.5 23t29.5 56q0 22 -5 33q-23 -16 -51 -24.5t-58 -8.5q-41 0 -76.5 15.5
t-61.5 41.5t-41.5 61.5t-15.5 76.5q0 10 1 14q-42 38 -61.5 81.5t-19.5 94.5q0 43 19.5 83.5t54 72t82.5 50.5t104 19q57 0 100 -11.5t72 -25.5q34 -17 59 -37l-85 -118q-14 15 -33 27q-17 11 -42 19.5t-60 8.5t-57.5 -9.5t-35 -23t-17.5 -28.5t-5 -27q0 -20 4 -33
q24 18 53.5 28t61.5 10q40 0 76 -15.5t62 -41.5t41.5 -62t15.5 -76v-13t-2 -12zM342 289q26 0 44.5 18.5t18.5 44.5t-18.5 44t-44.5 18t-44 -18t-18 -44t18 -44.5t44 -18.5z" />
    <glyph glyph-name="dieresis" unicode="&#xa8;" horiz-adv-x="330" 
d="M365 668q0 -31 -22 -53t-53 -22t-53 22t-22 53t22 53t53 22t53 -22t22 -53zM115 668q0 -31 -22 -53t-53 -22t-53 22t-22 53t22 53t53 22t53 -22t22 -53z" />
    <glyph glyph-name="ordfeminine" unicode="&#xaa;" horiz-adv-x="635" 
 />
    <glyph glyph-name="guillemotleft" unicode="&#xab;" horiz-adv-x="550" 
d="M510 473l-124 -173l120 -173h-129l-116 173l120 173h129zM287 473l-124 -173l120 -173h-129l-116 173l120 173h129z" />
    <glyph glyph-name="uni00AD" unicode="&#xad;" horiz-adv-x="370" 
d="M50 288v125h270v-125h-270z" />
    <glyph glyph-name="macron" unicode="&#xaf;" horiz-adv-x="410" 
d="M50 328v85h310v-85h-310z" />
    <glyph glyph-name="degree" unicode="&#xb0;" horiz-adv-x="370" 
d="M185 700q30 0 56.5 -11t46 -30t31 -44.5t11.5 -54.5t-11.5 -54.5t-31 -44.5t-46 -30t-56.5 -11t-56.5 11t-46 30t-31 44.5t-11.5 54.5t11.5 54.5t31 44.5t46 30t56.5 11zM185 490q30 0 51.5 20.5t21.5 49.5t-21.5 49.5t-51.5 20.5t-51 -20.5t-21 -49.5t21 -49.5t51 -20.5
z" />
    <glyph glyph-name="acute" unicode="&#xb4;" horiz-adv-x="230" 
d="M276 742l-129 -148h-121l98 148h152z" />
    <glyph glyph-name="cedilla" unicode="&#xb8;" horiz-adv-x="300" 
d="M49 -153q16 -6 33 -10q14 -4 30 -7.5t28 -4.5q29 -2 42 8t13 30q0 19 -18 25t-39 5q-26 -1 -57 -8l-25 25l55 90h60l-40 -60q70 19 106 -5t36 -75q0 -42 -31 -66t-88 -24q-29 0 -52.5 5.5t-40.5 12.5q-20 8 -36 18z" />
    <glyph glyph-name="guillemotright" unicode="&#xbb;" horiz-adv-x="550" 
d="M40 473h129l120 -173l-116 -173h-129l120 173zM263 473h129l120 -173l-116 -173h-129l120 173z" />
    <glyph glyph-name="questiondown" unicode="&#xbf;" horiz-adv-x="500" 
d="M170.02 197.031q0 -34.998 23.999 -51.4971q23.998 -16.499 56.9961 -16.499q28.998 0 54.9971 14.5q25.998 14.499 48.9971 44.4971l111.993 -74.9951q-19.999 -30.999 -51.9971 -56.9971q-26.999 -21.999 -68.4961 -39.9971q-41.4971 -17.999 -101.494 -17.999
q-54.9961 0 -95.9941 18.999q-40.9971 18.998 -68.4951 47.4971q-27.499 28.498 -41.498 62.9961q-13.999 34.4971 -13.999 65.4951q0 36.998 9 62.4971q8.99902 25.498 22.498 43.4971t29.998 31.498t31.498 25.498q10 8 20.499 15.499q10.499 7.5 19.499 16.999
q8.99902 9.5 14.499 21.999t5.5 30.498v47.9971l139.991 39.998v-110.994q0 -10.999 -1 -27.998t-8.5 -36.498q-7.49902 -19.498 -24.998 -39.4971t-50.4971 -36.998q-10.999 -5.99902 -22.498 -10.999q-11.5 -5 -20.499 -13.499q-9 -8.5 -14.499 -21.499
q-5.5 -12.999 -5.5 -33.998zM166.02 635.005q0 33.998 23.499 56.9961q23.498 22.999 56.4961 22.999t56.4971 -22.999q23.498 -22.998 23.498 -56.9961q0 -32.998 -23.498 -56.4971q-23.499 -23.498 -56.4971 -23.498t-56.4961 23.498q-23.499 23.499 -23.499 56.4971z" />
    <glyph glyph-name="Agrave" unicode="&#xc0;" 
d="M476 0l-44 140h-224l-44 -140h-161l243 700h148l243 -700h-161zM246 260h148l-74 233zM314 898l98 -148h-121l-129 148h152z" />
    <glyph glyph-name="Aacute" unicode="&#xc1;" 
d="M476 0l-44 140h-224l-44 -140h-161l243 700h148l243 -700h-161zM246 260h148l-74 233zM486 898l-129 -148h-121l98 148h152z" />
    <glyph glyph-name="Acircumflex" unicode="&#xc2;" 
d="M476 0l-44 140h-224l-44 -140h-161l243 700h148l243 -700h-161zM246 260h148l-74 233zM249 909h142l118 -158h-129l-60 80l-60 -80h-128z" />
    <glyph glyph-name="Atilde" unicode="&#xc3;" 
d="M476 0l-44 140h-224l-44 -140h-161l243 700h148l243 -700h-161zM246 260h148l-74 233zM135 815q9 21 23 39q12 14 31.5 26.5t48.5 12.5q26 0 48 -9t42 -20.5t38 -20.5t36 -9q16 0 29 9t23 20q11 12 20 29l31 -82q-10 -21 -25 -38q-13 -14 -33 -25.5t-46 -11.5
q-25 0 -44 9.5t-37 20.5t-38 20.5t-48 9.5q-19 0 -31.5 -10t-20.5 -22q-10 -14 -16 -31l-31 83v0z" />
    <glyph glyph-name="Adieresis" unicode="&#xc4;" 
d="M476 0l-44 140h-224l-44 -140h-161l243 700h148l243 -700h-161zM246 260h148l-74 233zM520 828q0 -31 -22 -53t-53 -22t-53 22t-22 53t22 53t53 22t53 -22t22 -53zM270 828q0 -31 -22 -53t-53 -22t-53 22t-22 53t22 53t53 22t53 -22t22 -53z" />
    <glyph glyph-name="Aring" unicode="&#xc5;" 
d="M476 0l-44 140h-224l-44 -140h-161l243 700h148l243 -700h-161zM246 260h148l-74 233zM321 880q-21 0 -35 -14.5t-14 -34.5q0 -21 14.5 -34.5t34.5 -13.5t34 14t14 34t-14 34.5t-34 14.5zM321 724q-23 0 -42.5 8t-34 22.5t-23 34t-8.5 42.5q0 22 8.5 42t23 34.5t34 23
t42.5 8.5q22 0 41.5 -8.5t34 -23.5t23 -34.5t8.5 -41.5q0 -23 -8.5 -42.5t-23 -33.5t-34 -22.5t-41.5 -8.5z" />
    <glyph glyph-name="AE" unicode="&#xc6;" horiz-adv-x="930" 
d="M898 140l-40 -140h-400v268h-146l-139 -268h-167l372 700h465l40 -140h-275v-157h190v-140h-190v-123h290zM458 383v195l-87 -195h87z" />
    <glyph glyph-name="Ccedilla" unicode="&#xc7;" horiz-adv-x="645" 
d="M617 84q-47 -46 -107.5 -72t-129.5 -26q-72 0 -136 27t-111.5 75.5t-75 115.5t-27.5 147q0 76 27.5 142.5t75 116t111.5 78t136 28.5q69 0 129.5 -26t106.5 -72l-105 -96q-26 22 -58 34t-67 12q-41 0 -77.5 -17.5t-63.5 -47.5t-43 -69t-16 -81q0 -46 16 -85t43 -68
t63.5 -45.5t77.5 -16.5q33 0 62.5 10.5t53.5 29.5zM247 -153q16 -6 33 -10q14 -4 30 -7.5t28 -4.5q29 -2 42 8t13 30q0 19 -18 25t-39 5q-26 -1 -57 -8l-25 25l55 90h60l-40 -60q70 19 106 -5t36 -75q0 -42 -31 -66t-88 -24q-29 0 -52.5 5.5t-40.5 12.5q-20 8 -36 18z" />
    <glyph glyph-name="Egrave" unicode="&#xc8;" horiz-adv-x="535" 
d="M500 140l-40 -140h-400v700h385l40 -140h-275v-135h190v-140h-190v-145h290zM292 898l98 -148h-121l-129 148h152z" />
    <glyph glyph-name="Eacute" unicode="&#xc9;" horiz-adv-x="535" 
d="M500 140l-40 -140h-400v700h385l40 -140h-275v-135h190v-140h-190v-145h290zM406 898l-129 -148h-121l98 148h152z" />
    <glyph glyph-name="Ecircumflex" unicode="&#xca;" horiz-adv-x="535" 
d="M500 140l-40 -140h-400v700h385l40 -140h-275v-135h190v-140h-190v-145h290zM188 908h142l118 -158h-129l-60 80l-60 -80h-128z" />
    <glyph glyph-name="Edieresis" unicode="&#xcb;" horiz-adv-x="535" 
d="M500 140l-40 -140h-400v700h385l40 -140h-275v-135h190v-140h-190v-145h290zM465 826q0 -31 -22 -53t-53 -22t-53 22t-22 53t22 53t53 22t53 -22t22 -53zM215 826q0 -31 -22 -53t-53 -22t-53 22t-22 53t22 53t53 22t53 -22t22 -53z" />
    <glyph glyph-name="Igrave" unicode="&#xcc;" horiz-adv-x="275" 
d="M212 0h-150v700h150v-700zM136 898l98 -148h-121l-129 148h152z" />
    <glyph glyph-name="Iacute" unicode="&#xcd;" horiz-adv-x="275" 
d="M212 0h-150v700h150v-700zM296 898l-129 -148h-121l98 148h152z" />
    <glyph glyph-name="Icircumflex" unicode="&#xce;" horiz-adv-x="275" 
d="M212 0h-150v700h150v-700zM66 908h142l118 -158h-129l-60 80l-60 -80h-128z" />
    <glyph glyph-name="Idieresis" unicode="&#xcf;" horiz-adv-x="275" 
d="M212 0h-150v700h150v-700zM339 824q0 -31 -22 -53t-53 -22t-53 22t-22 53t22 53t53 22t53 -22t22 -53zM89 824q0 -31 -22 -53t-53 -22t-53 22t-22 53t22 53t53 22t53 -22t22 -53z" />
    <glyph glyph-name="Eth" unicode="&#xd0;" horiz-adv-x="685" 
d="M305 700q72 0 136 -27.5t111.5 -75t75 -111.5t27.5 -136t-27.5 -136t-75 -111.5t-111.5 -75t-136 -27.5h-235v300h-100l40 140h60v260h235zM272 135q47 0 88 16t71.5 45t48 68t17.5 86q0 46 -17.5 85.5t-48 68.5t-71.5 45t-88 16h-52v-125h118l-40 -140h-78v-165h52z" />
    <glyph glyph-name="Ntilde" unicode="&#xd1;" horiz-adv-x="745" 
d="M685 700v-700h-164l-311 472v-472h-150v700h150l325 -479v479h150zM190 815q9 21 23 39q12 14 31.5 26.5t48.5 12.5q26 0 48 -9t42 -20.5t38 -20.5t36 -9q16 0 29 9t23 20q11 12 20 29l31 -82q-10 -21 -25 -38q-13 -14 -33 -25.5t-46 -11.5q-25 0 -44 9.5t-37 20.5
t-38 20.5t-48 9.5q-19 0 -31.5 -10t-20.5 -22q-10 -14 -16 -31l-31 83v0z" />
    <glyph glyph-name="Ograve" unicode="&#xd2;" horiz-adv-x="800" 
d="M400 717q76 0 143.5 -28.5t118 -78t79.5 -116t29 -142.5t-29 -142.5t-79.5 -116t-118 -78t-143.5 -28.5q-77 0 -144.5 28.5t-117.5 78t-79 116t-29 142.5t29 142.5t79 116t117.5 78t144.5 28.5zM400 132q44 0 83 17t68.5 47t46.5 70t17 86t-17 86t-46.5 70t-68.5 47
t-83 17q-45 0 -84 -17t-68 -47t-46 -70t-17 -86t17 -86t46 -70t68 -47t84 -17zM426 898l98 -148h-121l-129 148h152z" />
    <glyph glyph-name="Oacute" unicode="&#xd3;" horiz-adv-x="800" 
d="M400 717q76 0 143.5 -28.5t118 -78t79.5 -116t29 -142.5t-29 -142.5t-79.5 -116t-118 -78t-143.5 -28.5q-77 0 -144.5 28.5t-117.5 78t-79 116t-29 142.5t29 142.5t79 116t117.5 78t144.5 28.5zM400 132q44 0 83 17t68.5 47t46.5 70t17 86t-17 86t-46.5 70t-68.5 47
t-83 17q-45 0 -84 -17t-68 -47t-46 -70t-17 -86t17 -86t46 -70t68 -47t84 -17zM526 898l-129 -148h-121l98 148h152z" />
    <glyph glyph-name="Ocircumflex" unicode="&#xd4;" horiz-adv-x="800" 
d="M400 717q76 0 143.5 -28.5t118 -78t79.5 -116t29 -142.5t-29 -142.5t-79.5 -116t-118 -78t-143.5 -28.5q-77 0 -144.5 28.5t-117.5 78t-79 116t-29 142.5t29 142.5t79 116t117.5 78t144.5 28.5zM400 132q44 0 83 17t68.5 47t46.5 70t17 86t-17 86t-46.5 70t-68.5 47
t-83 17q-45 0 -84 -17t-68 -47t-46 -70t-17 -86t17 -86t46 -70t68 -47t84 -17zM329 908h142l118 -158h-129l-60 80l-60 -80h-128z" />
    <glyph glyph-name="Otilde" unicode="&#xd5;" horiz-adv-x="800" 
d="M400 717q76 0 143.5 -28.5t118 -78t79.5 -116t29 -142.5t-29 -142.5t-79.5 -116t-118 -78t-143.5 -28.5q-77 0 -144.5 28.5t-117.5 78t-79 116t-29 142.5t29 142.5t79 116t117.5 78t144.5 28.5zM400 132q44 0 83 17t68.5 47t46.5 70t17 86t-17 86t-46.5 70t-68.5 47
t-83 17q-45 0 -84 -17t-68 -47t-46 -70t-17 -86t17 -86t46 -70t68 -47t84 -17zM213 815q9 21 23 39q12 14 31.5 26.5t48.5 12.5q26 0 48 -9t42 -20.5t38 -20.5t36 -9q16 0 29 9t23 20q11 12 20 29l31 -82q-10 -21 -25 -38q-13 -14 -33 -25.5t-46 -11.5q-25 0 -44 9.5
t-37 20.5t-38 20.5t-48 9.5q-19 0 -31.5 -10t-20.5 -22q-10 -14 -16 -31l-31 83v0z" />
    <glyph glyph-name="Odieresis" unicode="&#xd6;" horiz-adv-x="800" 
d="M400 717q76 0 143.5 -28.5t118 -78t79.5 -116t29 -142.5t-29 -142.5t-79.5 -116t-118 -78t-143.5 -28.5q-77 0 -144.5 28.5t-117.5 78t-79 116t-29 142.5t29 142.5t79 116t117.5 78t144.5 28.5zM400 132q44 0 83 17t68.5 47t46.5 70t17 86t-17 86t-46.5 70t-68.5 47
t-83 17q-45 0 -84 -17t-68 -47t-46 -70t-17 -86t17 -86t46 -70t68 -47t84 -17zM600 824q0 -31 -22 -53t-53 -22t-53 22t-22 53t22 53t53 22t53 -22t22 -53zM350 824q0 -31 -22 -53t-53 -22t-53 22t-22 53t22 53t53 22t53 -22t22 -53z" />
    <glyph glyph-name="multiply" unicode="&#xd7;" horiz-adv-x="555" 
d="M415 27l-138 138l-137 -138l-89 89l138 138l-141 141l88 88l141 -141l142 141l88 -88l-141 -141l138 -138z" />
    <glyph glyph-name="Oslash" unicode="&#xd8;" horiz-adv-x="830" 
d="M631 646q71 -50 113 -127t42 -170q0 -76 -29 -142.5t-79 -116t-117.5 -78t-144.5 -28.5q-63 0 -121 20l-17 -32h-126l44 84q-69 50 -109.5 126t-40.5 167q0 76 29 142.5t79.5 116t117.5 78t144 28.5q60 0 114 -18l18 34h127zM201 349q0 -47 17.5 -87.5t47.5 -70.5
l195 373q-23 5 -45 5q-45 0 -84 -17.5t-68 -47.5t-46 -70t-17 -85zM416 129q45 0 84 17t68 47t46 70t17 86q0 49 -19 91t-51 72l-198 -376q24 -7 53 -7z" />
    <glyph glyph-name="Ugrave" unicode="&#xd9;" horiz-adv-x="695" 
d="M342 -15q-41 0 -90.5 8.5t-92 34.5t-71 75.5t-28.5 131.5v465h156v-435q0 -38 13 -67q11 -26 37 -46.5t76 -20.5q55 0 83 20.5t40 46.5q14 29 14 67v435h156v-455q0 -86 -30.5 -137.5t-75 -78.5t-95.5 -35.5t-92 -8.5zM376 898l98 -148h-121l-129 148h152z" />
    <glyph glyph-name="Uacute" unicode="&#xda;" horiz-adv-x="695" 
d="M466 898l-129 -148h-121l98 148h152zM342 -15q-41 0 -90.5 8.5t-92 34.5t-71 75.5t-28.5 131.5v465h156v-435q0 -38 13 -67q11 -26 37 -46.5t76 -20.5q55 0 83 20.5t40 46.5q14 29 14 67v435h156v-455q0 -86 -30.5 -137.5t-75 -78.5t-95.5 -35.5t-92 -8.5z" />
    <glyph glyph-name="Ucircumflex" unicode="&#xdb;" horiz-adv-x="695" 
d="M342 -15q-41 0 -90.5 8.5t-92 34.5t-71 75.5t-28.5 131.5v465h156v-435q0 -38 13 -67q11 -26 37 -46.5t76 -20.5q55 0 83 20.5t40 46.5q14 29 14 67v435h156v-455q0 -86 -30.5 -137.5t-75 -78.5t-95.5 -35.5t-92 -8.5zM272 908h142l118 -158h-129l-60 80l-60 -80h-128z
" />
    <glyph glyph-name="Udieresis" unicode="&#xdc;" horiz-adv-x="695" 
d="M342 -15q-41 0 -90.5 8.5t-92 34.5t-71 75.5t-28.5 131.5v465h156v-435q0 -38 13 -67q11 -26 37 -46.5t76 -20.5q55 0 83 20.5t40 46.5q14 29 14 67v435h156v-455q0 -86 -30.5 -137.5t-75 -78.5t-95.5 -35.5t-92 -8.5zM543 824q0 -31 -22 -53t-53 -22t-53 22t-22 53
t22 53t53 22t53 -22t22 -53zM293 824q0 -31 -22 -53t-53 -22t-53 22t-22 53t22 53t53 22t53 -22t22 -53z" />
    <glyph glyph-name="Yacute" unicode="&#xdd;" 
d="M630 700l-303 -700h-163l115 265l-268 435h176l162 -273l118 273h163zM456 898l-129 -148h-121l98 148h152z" />
    <glyph glyph-name="Thorn" unicode="&#xde;" horiz-adv-x="565" 
d="M199 565q12 2 27 5q13 2 29 3.5t34 1.5q54 0 98 -17t75.5 -47t48.5 -72t17 -92t-14 -93.5t-43.5 -75.5t-76 -50t-110.5 -18q-36 0 -61 5q-13 2 -24 5v-120h-150v700h150v-135zM279 247q17 0 35 6.5t32.5 19t23.5 31t9 41.5t-8.5 40.5t-22 29t-30.5 17t-34 5.5t-32 -1.5
t-27 -3.5q-14 -2 -26 -4v-170q11 -3 23 -6q23 -5 57 -5z" />
    <glyph glyph-name="germandbls" unicode="&#xdf;" horiz-adv-x="635" 
d="M463 406q28 -8 53.5 -22.5t44 -37t29.5 -54t11 -74.5q0 -57 -22 -99.5t-56.5 -70.5t-77 -42t-83.5 -14q-48 0 -88 16t-71 40v-48h-140v329h-96l37 134h59q0 20 3.5 47t13 55t26 55.5t42.5 49t64 34.5t90 13q81 0 128 -22t71 -52t30.5 -60.5t6.5 -47.5q0 -46 -21.5 -77.5
t-53.5 -51.5zM352 131q44 0 73.5 24.5t29.5 72.5q0 42 -21.5 63.5t-51 30.5t-61.5 10t-53 1v112q57 0 88.5 16.5t31.5 57.5q0 29 -20.5 48.5t-61.5 19.5q-27 0 -44 -9.5t-27.5 -24.5t-15 -33.5t-6 -36.5t-1 -33.5t0.5 -24.5v-236l45 18q9 -38 31.5 -57t62.5 -19z" />
    <glyph glyph-name="agrave" unicode="&#xe0;" horiz-adv-x="620" 
d="M563 532v-532h-130v40q-26 -25 -60.5 -38.5t-79.5 -13.5q-56 0 -104.5 22t-85.5 60t-58 89t-21 109t19.5 109t54.5 89t82.5 60t103.5 22q42 0 76.5 -14.5t62.5 -39.5v58zM300 127q28 0 53.5 11t44 30.5t29.5 45.5t11 56t-11 56t-29.5 45.5t-44 30.5t-53.5 11t-53 -11
t-43.5 -30.5t-29.5 -45.5t-11 -56t11 -56t29.5 -45.5t43.5 -30.5t53 -11zM316 742l98 -148h-121l-129 148h152z" />
    <glyph glyph-name="aacute" unicode="&#xe1;" horiz-adv-x="620" 
d="M563 532v-532h-130v40q-26 -25 -60.5 -38.5t-79.5 -13.5q-56 0 -104.5 22t-85.5 60t-58 89t-21 109t19.5 109t54.5 89t82.5 60t103.5 22q42 0 76.5 -14.5t62.5 -39.5v58zM300 127q28 0 53.5 11t44 30.5t29.5 45.5t11 56t-11 56t-29.5 45.5t-44 30.5t-53.5 11t-53 -11
t-43.5 -30.5t-29.5 -45.5t-11 -56t11 -56t29.5 -45.5t43.5 -30.5t53 -11zM424 742l-129 -148h-121l98 148h152z" />
    <glyph glyph-name="acircumflex" unicode="&#xe2;" horiz-adv-x="620" 
d="M563 532v-532h-130v40q-26 -25 -60.5 -38.5t-79.5 -13.5q-56 0 -104.5 22t-85.5 60t-58 89t-21 109t19.5 109t54.5 89t82.5 60t103.5 22q42 0 76.5 -14.5t62.5 -39.5v58zM300 127q28 0 53.5 11t44 30.5t29.5 45.5t11 56t-11 56t-29.5 45.5t-44 30.5t-53.5 11t-53 -11
t-43.5 -30.5t-29.5 -45.5t-11 -56t11 -56t29.5 -45.5t43.5 -30.5t53 -11zM238 752h142l118 -158h-129l-60 80l-60 -80h-128z" />
    <glyph glyph-name="atilde" unicode="&#xe3;" horiz-adv-x="620" 
d="M563 532v-532h-130v40q-26 -25 -60.5 -38.5t-79.5 -13.5q-56 0 -104.5 22t-85.5 60t-58 89t-21 109t19.5 109t54.5 89t82.5 60t103.5 22q42 0 76.5 -14.5t62.5 -39.5v58zM300 127q28 0 53.5 11t44 30.5t29.5 45.5t11 56t-11 56t-29.5 45.5t-44 30.5t-53.5 11t-53 -11
t-43.5 -30.5t-29.5 -45.5t-11 -56t11 -56t29.5 -45.5t43.5 -30.5t53 -11zM112 659q9 21 23 39q12 14 31.5 26.5t48.5 12.5q26 0 48 -9t42 -20.5t38 -20.5t36 -9q16 0 29 9t23 20q11 12 20 29l31 -82q-10 -21 -25 -38q-13 -14 -33 -25.5t-46 -11.5q-25 0 -44 9.5t-37 20.5
t-38 20.5t-48 9.5q-19 0 -31.5 -10t-20.5 -22q-10 -14 -16 -31l-31 83v0z" />
    <glyph glyph-name="adieresis" unicode="&#xe4;" horiz-adv-x="620" 
d="M563 532v-532h-130v40q-26 -25 -60.5 -38.5t-79.5 -13.5q-56 0 -104.5 22t-85.5 60t-58 89t-21 109t19.5 109t54.5 89t82.5 60t103.5 22q42 0 76.5 -14.5t62.5 -39.5v58zM300 127q28 0 53.5 11t44 30.5t29.5 45.5t11 56t-11 56t-29.5 45.5t-44 30.5t-53.5 11t-53 -11
t-43.5 -30.5t-29.5 -45.5t-11 -56t11 -56t29.5 -45.5t43.5 -30.5t53 -11zM495 668q0 -31 -22 -53t-53 -22t-53 22t-22 53t22 53t53 22t53 -22t22 -53zM245 668q0 -31 -22 -53t-53 -22t-53 22t-22 53t22 53t53 22t53 -22t22 -53z" />
    <glyph glyph-name="aring" unicode="&#xe5;" horiz-adv-x="620" 
d="M563 532v-532h-130v40q-26 -25 -60.5 -38.5t-79.5 -13.5q-56 0 -104.5 22t-85.5 60t-58 89t-21 109t19.5 109t54.5 89t82.5 60t103.5 22q42 0 76.5 -14.5t62.5 -39.5v58zM300 127q28 0 53.5 11t44 30.5t29.5 45.5t11 56t-11 56t-29.5 45.5t-44 30.5t-53.5 11t-53 -11
t-43.5 -30.5t-29.5 -45.5t-11 -56t11 -56t29.5 -45.5t43.5 -30.5t53 -11zM289 750q-21 0 -35 -14.5t-14 -34.5q0 -21 14.5 -34.5t34.5 -13.5t34 14t14 34t-14 34.5t-34 14.5zM289 594q-23 0 -42.5 8t-34 22.5t-23 34t-8.5 42.5q0 22 8.5 42t23 34.5t34 23t42.5 8.5
q22 0 41.5 -8.5t34 -23.5t23 -34.5t8.5 -41.5q0 -23 -8.5 -42.5t-23 -33.5t-34 -22.5t-41.5 -8.5z" />
    <glyph glyph-name="ae" unicode="&#xe6;" horiz-adv-x="980" 
d="M712 120q25 0 48 6t42.5 15t34.5 20t25 20l77 -109q-54 -41 -116.5 -62.5t-119.5 -21.5q-39 0 -75 10t-68 28v-26h-120v40q-26 -25 -61 -38.5t-79 -13.5q-56 0 -105 22t-85.5 60t-57.5 89t-21 109t20 109t55.5 89t85 60t108.5 22q62 0 115 -23t89 -61q38 38 89.5 60
t109.5 22q52 0 94 -17.5t73 -42.5t52 -52.5t33 -48.5l-341 -227q19 -18 44 -28t54 -10zM307 127q28 0 53.5 11t44 30.5t29.5 45.5t11 56t-11 56t-29.5 45.5t-44 30.5t-53.5 11q-29 0 -53.5 -11t-43.5 -30.5t-29.5 -45.5t-10.5 -56t10.5 -56t29.5 -45.5t43.5 -30.5t53.5 -11z
M562 278q0 -17 3 -32l217 142q-15 15 -35.5 25.5t-48.5 10.5q-35 0 -60.5 -12.5t-42 -33.5t-25 -47t-8.5 -53z" />
    <glyph glyph-name="ccedilla" unicode="&#xe7;" horiz-adv-x="535" 
d="M511 58q-38 -37 -91 -52.5t-110 -15.5q-58 0 -109 21.5t-89 59t-60 88.5t-22 109t22 109t60 89t89 60t109 22q55 0 102 -13.5t94 -50.5l-78 -107q-20 19 -48 30t-57 11q-31 0 -57.5 -12t-46 -32t-30.5 -47.5t-11 -58.5t11 -58t30.5 -46.5t46 -30.5t57.5 -11q30 0 58.5 10
t48.5 29zM185 -153q16 -6 33 -10q14 -4 30 -7.5t28 -4.5q29 -2 42 8t13 30q0 19 -18 25t-39 5q-26 -1 -57 -8l-25 25l55 90h60l-40 -60q70 19 106 -5t36 -75q0 -42 -31 -66t-88 -24q-29 0 -52.5 5.5t-40.5 12.5q-20 8 -36 18z" />
    <glyph glyph-name="egrave" unicode="&#xe8;" horiz-adv-x="605" 
d="M325 124q25 0 48 6t42.5 15t34.5 20t25 20l77 -109q-54 -41 -116.5 -62.5t-119.5 -21.5q-58 0 -109.5 21.5t-89.5 59t-60.5 88.5t-22.5 109t22.5 109t60.5 89t89.5 60t109.5 22q52 0 94 -17.5t73 -42.5t52 -52.5t33 -48.5l-342 -227q41 -38 99 -38zM311 426
q-35 0 -60.5 -12.5t-42 -33.5t-25 -47t-8.5 -53q0 -15 3 -30l217 143q-15 14 -35.5 23.5t-48.5 9.5zM312 742l98 -148h-121l-129 148h152z" />
    <glyph glyph-name="eacute" unicode="&#xe9;" horiz-adv-x="605" 
d="M325 124q25 0 48 6t42.5 15t34.5 20t25 20l77 -109q-54 -41 -116.5 -62.5t-119.5 -21.5q-58 0 -109.5 21.5t-89.5 59t-60.5 88.5t-22.5 109t22.5 109t60.5 89t89.5 60t109.5 22q52 0 94 -17.5t73 -42.5t52 -52.5t33 -48.5l-342 -227q41 -38 99 -38zM311 426
q-35 0 -60.5 -12.5t-42 -33.5t-25 -47t-8.5 -53q0 -15 3 -30l217 143q-15 14 -35.5 23.5t-48.5 9.5zM436 742l-129 -148h-121l98 148h152z" />
    <glyph glyph-name="ecircumflex" unicode="&#xea;" horiz-adv-x="605" 
d="M325 124q25 0 48 6t42.5 15t34.5 20t25 20l77 -109q-54 -41 -116.5 -62.5t-119.5 -21.5q-58 0 -109.5 21.5t-89.5 59t-60.5 88.5t-22.5 109t22.5 109t60.5 89t89.5 60t109.5 22q52 0 94 -17.5t73 -42.5t52 -52.5t33 -48.5l-342 -227q41 -38 99 -38zM311 426
q-35 0 -60.5 -12.5t-42 -33.5t-25 -47t-8.5 -53q0 -15 3 -30l217 143q-15 14 -35.5 23.5t-48.5 9.5zM228 752h142l118 -158h-129l-60 80l-60 -80h-128z" />
    <glyph glyph-name="edieresis" unicode="&#xeb;" horiz-adv-x="605" 
d="M325 124q25 0 48 6t42.5 15t34.5 20t25 20l77 -109q-54 -41 -116.5 -62.5t-119.5 -21.5q-58 0 -109.5 21.5t-89.5 59t-60.5 88.5t-22.5 109t22.5 109t60.5 89t89.5 60t109.5 22q52 0 94 -17.5t73 -42.5t52 -52.5t33 -48.5l-342 -227q41 -38 99 -38zM311 426
q-35 0 -60.5 -12.5t-42 -33.5t-25 -47t-8.5 -53q0 -15 3 -30l217 143q-15 14 -35.5 23.5t-48.5 9.5zM505 668q0 -31 -22 -53t-53 -22t-53 22t-22 53t22 53t53 22t53 -22t22 -53zM255 668q0 -31 -22 -53t-53 -22t-53 22t-22 53t22 53t53 22t53 -22t22 -53z" />
    <glyph glyph-name="igrave" unicode="&#xec;" horiz-adv-x="260" 
d="M60 0v495l140 31v-526h-140zM116 742l98 -148h-121l-129 148h152z" />
    <glyph glyph-name="iacute" unicode="&#xed;" horiz-adv-x="260" 
d="M60 0v495l140 31v-526h-140zM286 742l-129 -148h-121l98 148h152z" />
    <glyph glyph-name="icircumflex" unicode="&#xee;" horiz-adv-x="260" 
d="M60 0v495l140 31v-526h-140zM59 752h142l118 -158h-129l-60 80l-60 -80h-128z" />
    <glyph glyph-name="idieresis" unicode="&#xef;" horiz-adv-x="260" 
d="M60 0v495l140 31v-526h-140zM331 668q0 -31 -22 -53t-53 -22t-53 22t-22 53t22 53t53 22t53 -22t22 -53zM81 668q0 -31 -22 -53t-53 -22t-53 22t-22 53t22 53t53 22t53 -22t22 -53z" />
    <glyph glyph-name="eth" unicode="&#xf0;" horiz-adv-x="580" 
d="M452 577q22 -41 42.5 -87t34 -94t18.5 -95.5t-4 -91.5q-14 -73 -51 -117t-81.5 -67t-88 -28.5t-70.5 -0.5q-30 5 -72.5 24t-79 55t-57 90.5t-6.5 132.5q11 63 48.5 105.5t85.5 62t99.5 16.5t90.5 -31q-5 11 -12 25q-6 12 -14 28.5t-19 36.5l-147 -40l1 106l91 24
q-12 17 -25.5 34.5t-27.5 34.5h169q5 -8 10.5 -16t10.5 -16l85 23l1 -105zM396 230q4 22 -1 43t-17 38t-30.5 29t-40.5 16q-23 4 -44.5 -1t-39 -17t-29.5 -30t-16 -40q-4 -23 1 -44t17.5 -38t30.5 -29t41 -16q22 -4 43.5 1t39 17t29.5 30t16 41z" />
    <glyph glyph-name="ntilde" unicode="&#xf1;" horiz-adv-x="555" 
d="M319 535q88 0 137 -56t49 -169v-310h-140v300q0 16 -3.5 34t-14 33t-29.5 25t-50 10q-29 0 -52.5 -19t-25.5 -61v-322h-140v504l135 30v-67q21 30 55.5 49t78.5 19zM82 659q9 21 23 39q12 14 31.5 26.5t48.5 12.5q26 0 48 -9t42 -20.5t38 -20.5t36 -9q16 0 29 9t23 20
q11 12 20 29l31 -82q-10 -21 -25 -38q-13 -14 -33 -25.5t-46 -11.5q-25 0 -44 9.5t-37 20.5t-38 20.5t-48 9.5q-19 0 -31.5 -10t-20.5 -22q-10 -14 -16 -31l-31 83v0z" />
    <glyph glyph-name="ograve" unicode="&#xf2;" 
d="M320 547q60 0 112.5 -22t91.5 -60t62 -88.5t23 -108.5t-23 -108.5t-62 -88.5t-91.5 -60t-112.5 -22t-112.5 22t-92 60t-62 88.5t-22.5 108.5t22.5 108.5t62 88.5t92 60t112.5 22zM320 123q30 0 56.5 11t46 30.5t31 45.5t11.5 56t-11.5 56t-31 45.5t-46 31t-56.5 11.5
t-56.5 -11.5t-46 -31t-31 -45.5t-11.5 -56t11.5 -56t31 -45.5t46 -30.5t56.5 -11zM346 742l98 -148h-121l-129 148h152z" />
    <glyph glyph-name="oacute" unicode="&#xf3;" 
d="M320 547q60 0 112.5 -22t91.5 -60t62 -88.5t23 -108.5t-23 -108.5t-62 -88.5t-91.5 -60t-112.5 -22t-112.5 22t-92 60t-62 88.5t-22.5 108.5t22.5 108.5t62 88.5t92 60t112.5 22zM320 123q30 0 56.5 11t46 30.5t31 45.5t11.5 56t-11.5 56t-31 45.5t-46 31t-56.5 11.5
t-56.5 -11.5t-46 -31t-31 -45.5t-11.5 -56t11.5 -56t31 -45.5t46 -30.5t56.5 -11zM446 742l-129 -148h-121l98 148h152z" />
    <glyph glyph-name="ocircumflex" unicode="&#xf4;" 
d="M320 547q60 0 112.5 -22t91.5 -60t62 -88.5t23 -108.5t-23 -108.5t-62 -88.5t-91.5 -60t-112.5 -22t-112.5 22t-92 60t-62 88.5t-22.5 108.5t22.5 108.5t62 88.5t92 60t112.5 22zM320 123q30 0 56.5 11t46 30.5t31 45.5t11.5 56t-11.5 56t-31 45.5t-46 31t-56.5 11.5
t-56.5 -11.5t-46 -31t-31 -45.5t-11.5 -56t11.5 -56t31 -45.5t46 -30.5t56.5 -11zM248 752h142l118 -158h-129l-60 80l-60 -80h-128z" />
    <glyph glyph-name="otilde" unicode="&#xf5;" 
d="M320 547q60 0 112.5 -22t91.5 -60t62 -88.5t23 -108.5t-23 -108.5t-62 -88.5t-91.5 -60t-112.5 -22t-112.5 22t-92 60t-62 88.5t-22.5 108.5t22.5 108.5t62 88.5t92 60t112.5 22zM320 123q30 0 56.5 11t46 30.5t31 45.5t11.5 56t-11.5 56t-31 45.5t-46 31t-56.5 11.5
t-56.5 -11.5t-46 -31t-31 -45.5t-11.5 -56t11.5 -56t31 -45.5t46 -30.5t56.5 -11zM132 659q9 21 23 39q12 14 31.5 26.5t48.5 12.5q26 0 48 -9t42 -20.5t38 -20.5t36 -9q16 0 29 9t23 20q11 12 20 29l31 -82q-10 -21 -25 -38q-13 -14 -33 -25.5t-46 -11.5q-25 0 -44 9.5
t-37 20.5t-38 20.5t-48 9.5q-19 0 -31.5 -10t-20.5 -22q-10 -14 -16 -31l-31 83v0z" />
    <glyph glyph-name="odieresis" unicode="&#xf6;" 
d="M320 547q60 0 112.5 -22t91.5 -60t62 -88.5t23 -108.5t-23 -108.5t-62 -88.5t-91.5 -60t-112.5 -22t-112.5 22t-92 60t-62 88.5t-22.5 108.5t22.5 108.5t62 88.5t92 60t112.5 22zM320 123q30 0 56.5 11t46 30.5t31 45.5t11.5 56t-11.5 56t-31 45.5t-46 31t-56.5 11.5
t-56.5 -11.5t-46 -31t-31 -45.5t-11.5 -56t11.5 -56t31 -45.5t46 -30.5t56.5 -11zM520 668q0 -31 -22 -53t-53 -22t-53 22t-22 53t22 53t53 22t53 -22t22 -53zM270 668q0 -31 -22 -53t-53 -22t-53 22t-22 53t22 53t53 22t53 -22t22 -53z" />
    <glyph glyph-name="divide" unicode="&#xf7;" horiz-adv-x="580" 
d="M370 423q0 -33 -23.5 -56.5t-56.5 -23.5q-34 0 -57 23.5t-23 56.5t23 56.5t57 23.5q33 0 56.5 -23.5t23.5 -56.5zM370 63q0 -33 -23.5 -56.5t-56.5 -23.5q-34 0 -57 23.5t-23 56.5t23 56.5t57 23.5q33 0 56.5 -23.5t23.5 -56.5zM530 190v105h-480v-105h480z" />
    <glyph glyph-name="oslash" unicode="&#xf8;" 
d="M495 491q54 -38 85.5 -96.5t31.5 -127.5q0 -58 -22.5 -108.5t-62 -88.5t-92 -60t-112.5 -22q-41 0 -80 11l-26 -51h-116l48 96q-53 38 -84 96t-31 127q0 58 22.5 108.5t62 88.5t92 60t112.5 22q20 0 39.5 -2.5t38.5 -7.5l26 50h117zM178 265q0 -27 9.5 -51t26.5 -44
l122 238h-13q-30 0 -56.5 -11t-46 -30.5t-31 -45.5t-11.5 -56zM323 122q30 0 56.5 11t46 30.5t31 45.5t11.5 56q0 29 -10.5 53.5t-28.5 44.5l-123 -240q5 -1 8.5 -1h8.5z" />
    <glyph glyph-name="ugrave" unicode="&#xf9;" horiz-adv-x="555" 
d="M506 535v-535h-135v74q-21 -36 -55.5 -60t-79.5 -24q-88 0 -137 56t-49 169v320h142v-310q0 -16 3 -34t13 -33.5t29 -25.5t50 -10q29 0 53.5 20t24.5 64v329h141zM316 742l98 -148h-121l-129 148h152z" />
    <glyph glyph-name="uacute" unicode="&#xfa;" horiz-adv-x="555" 
d="M506 535v-535h-135v74q-21 -36 -55.5 -60t-79.5 -24q-88 0 -137 56t-49 169v320h142v-310q0 -16 3 -34t13 -33.5t29 -25.5t50 -10q29 0 53.5 20t24.5 64v329h141zM406 742l-129 -148h-121l98 148h152z" />
    <glyph glyph-name="ucircumflex" unicode="&#xfb;" horiz-adv-x="555" 
d="M506 535v-535h-135v74q-21 -36 -55.5 -60t-79.5 -24q-88 0 -137 56t-49 169v320h142v-310q0 -16 3 -34t13 -33.5t29 -25.5t50 -10q29 0 53.5 20t24.5 64v329h141zM212 752h142l118 -158h-129l-60 80l-60 -80h-128z" />
    <glyph glyph-name="udieresis" unicode="&#xfc;" horiz-adv-x="555" 
d="M506 535v-535h-135v74q-21 -36 -55.5 -60t-79.5 -24q-88 0 -137 56t-49 169v320h142v-310q0 -16 3 -34t13 -33.5t29 -25.5t50 -10q29 0 53.5 20t24.5 64v329h141zM483 668q0 -31 -22 -53t-53 -22t-53 22t-22 53t22 53t53 22t53 -22t22 -53zM233 668q0 -31 -22 -53
t-53 -22t-53 22t-22 53t22 53t53 22t53 -22t22 -53z" />
    <glyph glyph-name="yacute" unicode="&#xfd;" horiz-adv-x="590" 
d="M220 66l-208 469h148l136 -317l129 317h153l-321 -710h-149zM456 742l-129 -148h-121l98 148h152z" />
    <glyph glyph-name="thorn" unicode="&#xfe;" horiz-adv-x="650" 
d="M355 541q58 0 105.5 -22t82 -60t53.5 -89t19 -109t-22 -109t-60 -89t-89 -60t-109 -22q-45 0 -79.5 15.5t-60.5 41.5v-191l-140 -31v888l128 28v-278q30 40 72.5 63.5t99.5 23.5zM327 121q30 0 56 11t45.5 30.5t30.5 45.5t11 56t-11 56t-30.5 45.5t-45.5 30.5t-56 11
t-56 -11t-45.5 -30.5t-30.5 -45.5t-11 -56t11 -56t30.5 -45.5t45.5 -30.5t56 -11z" />
    <glyph glyph-name="ydieresis" unicode="&#xff;" horiz-adv-x="590" 
d="M220 66l-208 469h148l136 -317l129 317h153l-321 -710h-149zM495 668q0 -31 -22 -53t-53 -22t-53 22t-22 53t22 53t53 22t53 -22t22 -53zM245 668q0 -31 -22 -53t-53 -22t-53 22t-22 53t22 53t53 22t53 -22t22 -53z" />
    <glyph glyph-name="Amacron" unicode="&#x100;" 
d="M476 0l-44 140h-224l-44 -140h-161l243 700h148l243 -700h-161zM246 260h148l-74 233zM165 758v85h310v-85h-310z" />
    <glyph glyph-name="amacron" unicode="&#x101;" horiz-adv-x="620" 
d="M563 532v-532h-130v40q-26 -25 -60.5 -38.5t-79.5 -13.5q-56 0 -104.5 22t-85.5 60t-58 89t-21 109t19.5 109t54.5 89t82.5 60t103.5 22q42 0 76.5 -14.5t62.5 -39.5v58zM300 127q28 0 53.5 11t44 30.5t29.5 45.5t11 56t-11 56t-29.5 45.5t-44 30.5t-53.5 11t-53 -11
t-43.5 -30.5t-29.5 -45.5t-11 -56t11 -56t29.5 -45.5t43.5 -30.5t53 -11zM152 608v85h310v-85h-310z" />
    <glyph glyph-name="Abreve" unicode="&#x102;" 
d="M476 0l-44 140h-224l-44 -140h-161l243 700h148l243 -700h-161zM246 260h148l-74 233zM220 899q1 -21 12 -38q9 -14 29.5 -25.5t58.5 -11.5t57.5 11.5t29.5 25.5q11 17 13 38h75q-3 -42 -22 -75q-17 -29 -52.5 -52t-100.5 -23q-66 0 -101 23t-52 52q-19 33 -22 75h75z
" />
    <glyph glyph-name="abreve" unicode="&#x103;" horiz-adv-x="620" 
d="M563 532v-532h-130v40q-26 -25 -60.5 -38.5t-79.5 -13.5q-56 0 -104.5 22t-85.5 60t-58 89t-21 109t19.5 109t54.5 89t82.5 60t103.5 22q42 0 76.5 -14.5t62.5 -39.5v58zM300 127q28 0 53.5 11t44 30.5t29.5 45.5t11 56t-11 56t-29.5 45.5t-44 30.5t-53.5 11t-53 -11
t-43.5 -30.5t-29.5 -45.5t-11 -56t11 -56t29.5 -45.5t43.5 -30.5t53 -11zM205 743q1 -21 12 -38q9 -14 29.5 -25.5t58.5 -11.5t57.5 11.5t29.5 25.5q11 17 13 38h75q-3 -42 -22 -75q-17 -29 -52.5 -52t-100.5 -23q-66 0 -101 23t-52 52q-19 33 -22 75h75z" />
    <glyph glyph-name="Aogonek" unicode="&#x104;" 
d="M476 0l-44 140h-224l-44 -140h-161l243 700h148l243 -700h-161zM246 260h148l-74 233zM624 0q-19 -4 -43.5 -10.5t-46 -18t-36.5 -29.5t-15 -45q0 -16 8 -33.5t30 -17.5q24 0 52.5 8.5t57.5 22.5l20 -50q-34 -24 -72 -37.5t-80 -13.5q-22 0 -41.5 8.5t-34.5 23t-23.5 35
t-8.5 44.5q0 42 22 69t56 43.5t75 24.5t80 12v-36z" />
    <glyph glyph-name="aogonek" unicode="&#x105;" horiz-adv-x="620" 
d="M563 532v-532h-130v40q-26 -25 -60.5 -38.5t-79.5 -13.5q-56 0 -104.5 22t-85.5 60t-58 89t-21 109t19.5 109t54.5 89t82.5 60t103.5 22q42 0 76.5 -14.5t62.5 -39.5v58zM300 127q28 0 53.5 11t44 30.5t29.5 45.5t11 56t-11 56t-29.5 45.5t-44 30.5t-53.5 11t-53 -11
t-43.5 -30.5t-29.5 -45.5t-11 -56t11 -56t29.5 -45.5t43.5 -30.5t53 -11zM563 1q-19 -4 -43.5 -10.5t-46 -18t-36.5 -29.5t-15 -45q0 -16 8 -33.5t30 -17.5q24 0 52.5 8.5t57.5 22.5l20 -50q-34 -24 -72 -37.5t-80 -13.5q-22 0 -41.5 8.5t-34.5 23t-23.5 35t-8.5 44.5
q0 42 22 69t56 43.5t75 24.5t80 12v-36z" />
    <glyph glyph-name="Cacute" unicode="&#x106;" horiz-adv-x="645" 
d="M617 84q-47 -46 -107.5 -72t-129.5 -26q-72 0 -136 27t-111.5 75.5t-75 115.5t-27.5 147q0 76 27.5 142.5t75 116t111.5 78t136 28.5q69 0 129.5 -26t106.5 -72l-105 -96q-26 22 -58 34t-67 12q-41 0 -77.5 -17.5t-63.5 -47.5t-43 -69t-16 -81q0 -46 16 -85t43 -68
t63.5 -45.5t77.5 -16.5q33 0 62.5 10.5t53.5 29.5zM476 898l-129 -148h-121l98 148h152z" />
    <glyph glyph-name="cacute" unicode="&#x107;" horiz-adv-x="535" 
d="M511 58q-38 -37 -91 -52.5t-110 -15.5q-58 0 -109 21.5t-89 59t-60 88.5t-22 109t22 109t60 89t89 60t109 22q55 0 102 -13.5t94 -50.5l-78 -107q-20 19 -48 30t-57 11q-31 0 -57.5 -12t-46 -32t-30.5 -47.5t-11 -58.5t11 -58t30.5 -46.5t46 -30.5t57.5 -11q30 0 58.5 10
t48.5 29zM436 742l-129 -148h-121l98 148h152z" />
    <glyph glyph-name="Ccircumflex" unicode="&#x108;" horiz-adv-x="645" 
d="M617 84q-47 -46 -107.5 -72t-129.5 -26q-72 0 -136 27t-111.5 75.5t-75 115.5t-27.5 147q0 76 27.5 142.5t75 116t111.5 78t136 28.5q69 0 129.5 -26t106.5 -72l-105 -96q-26 22 -58 34t-67 12q-41 0 -77.5 -17.5t-63.5 -47.5t-43 -69t-16 -81q0 -46 16 -85t43 -68
t63.5 -45.5t77.5 -16.5q33 0 62.5 10.5t53.5 29.5zM288 908h142l118 -158h-129l-60 80l-60 -80h-128z" />
    <glyph glyph-name="ccircumflex" unicode="&#x109;" horiz-adv-x="535" 
d="M511 58q-38 -37 -91 -52.5t-110 -15.5q-58 0 -109 21.5t-89 59t-60 88.5t-22 109t22 109t60 89t89 60t109 22q55 0 102 -13.5t94 -50.5l-78 -107q-20 19 -48 30t-57 11q-31 0 -57.5 -12t-46 -32t-30.5 -47.5t-11 -58.5t11 -58t30.5 -46.5t46 -30.5t57.5 -11q30 0 58.5 10
t48.5 29zM248 752h142l118 -158h-129l-60 80l-60 -80h-128z" />
    <glyph glyph-name="Cdotaccent" unicode="&#x10a;" horiz-adv-x="645" 
d="M617 84q-47 -46 -107.5 -72t-129.5 -26q-72 0 -136 27t-111.5 75.5t-75 115.5t-27.5 147q0 76 27.5 142.5t75 116t111.5 78t136 28.5q69 0 129.5 -26t106.5 -72l-105 -96q-26 22 -58 34t-67 12q-41 0 -77.5 -17.5t-63.5 -47.5t-43 -69t-16 -81q0 -46 16 -85t43 -68
t63.5 -45.5t77.5 -16.5q33 0 62.5 10.5t53.5 29.5zM440 817q0 -34 -23.5 -57t-56.5 -23t-56.5 23t-23.5 57q0 33 23.5 56.5t56.5 23.5t56.5 -23.5t23.5 -56.5z" />
    <glyph glyph-name="cdotaccent" unicode="&#x10b;" horiz-adv-x="535" 
d="M511 58q-38 -37 -91 -52.5t-110 -15.5q-58 0 -109 21.5t-89 59t-60 88.5t-22 109t22 109t60 89t89 60t109 22q55 0 102 -13.5t94 -50.5l-78 -107q-20 19 -48 30t-57 11q-31 0 -57.5 -12t-46 -32t-30.5 -47.5t-11 -58.5t11 -58t30.5 -46.5t46 -30.5t57.5 -11q30 0 58.5 10
t48.5 29zM380 661q0 -34 -23.5 -57t-56.5 -23t-56.5 23t-23.5 57q0 33 23.5 56.5t56.5 23.5t56.5 -23.5t23.5 -56.5z" />
    <glyph glyph-name="Ccaron" unicode="&#x10c;" horiz-adv-x="645" 
d="M617 84q-47 -46 -107.5 -72t-129.5 -26q-72 0 -136 27t-111.5 75.5t-75 115.5t-27.5 147q0 76 27.5 142.5t75 116t111.5 78t136 28.5q69 0 129.5 -26t106.5 -72l-105 -96q-26 22 -58 34t-67 12q-41 0 -77.5 -17.5t-63.5 -47.5t-43 -69t-16 -81q0 -46 16 -85t43 -68
t63.5 -45.5t77.5 -16.5q33 0 62.5 10.5t53.5 29.5zM161 908h128l60 -80l60 80h129l-118 -158h-142z" />
    <glyph glyph-name="ccaron" unicode="&#x10d;" horiz-adv-x="535" 
d="M511 58q-38 -37 -91 -52.5t-110 -15.5q-58 0 -109 21.5t-89 59t-60 88.5t-22 109t22 109t60 89t89 60t109 22q55 0 102 -13.5t94 -50.5l-78 -107q-20 19 -48 30t-57 11q-31 0 -57.5 -12t-46 -32t-30.5 -47.5t-11 -58.5t11 -58t30.5 -46.5t46 -30.5t57.5 -11q30 0 58.5 10
t48.5 29zM101 752h128l60 -80l60 80h129l-118 -158h-142z" />
    <glyph glyph-name="Dcaron" unicode="&#x10e;" horiz-adv-x="675" 
d="M295 700q72 0 136 -27.5t111.5 -75t75 -111.5t27.5 -136t-27.5 -136t-75 -111.5t-111.5 -75t-136 -27.5h-235v700h235zM262 135q46 0 87 16t72 45t48.5 68t17.5 86q0 46 -17.5 85.5t-48.5 68.5t-72 45t-87 16h-52v-430h52zM111 908h128l60 -80l60 80h129l-118 -158h-142z
" />
    <glyph glyph-name="dcaron" unicode="&#x10f;" horiz-adv-x="810" 
d="M590 725v-725h-130v36q-29 -24 -67 -37.5t-83 -13.5q-58 0 -109 22t-89 60t-60 89t-22 109t20.5 109t56.5 89t85.5 60t107.5 22q44 0 81.5 -14t68.5 -40v203zM318 125q30 0 56 11t45.5 30.5t30.5 45.5t11 56t-11 56t-30.5 45.5t-45.5 30.5t-56 11t-56 -11t-45.5 -30.5
t-30.5 -45.5t-11 -56t11 -56t30.5 -45.5t45.5 -30.5t56 -11zM876 731l-129 -148h-121l98 148h152z" />
    <glyph glyph-name="Dcroat" unicode="&#x110;" horiz-adv-x="685" 
d="M305 700q72 0 136 -27.5t111.5 -75t75 -111.5t27.5 -136t-27.5 -136t-75 -111.5t-111.5 -75t-136 -27.5h-235v300h-100l40 140h60v260h235zM272 135q47 0 88 16t71.5 45t48 68t17.5 86q0 46 -17.5 85.5t-48 68.5t-71.5 45t-88 16h-52v-125h118l-40 -140h-78v-165h52z" />
    <glyph glyph-name="dcroat" unicode="&#x111;" 
d="M590 725v-725h-130v36q-29 -24 -67 -37.5t-83 -13.5q-58 0 -109 22t-89 60t-60 89t-22 109t20.5 109t56.5 89t85.5 60t107.5 22q44 0 81.5 -14t68.5 -40v203zM318 125q30 0 56 11t45.5 30.5t30.5 45.5t11 56t-11 56t-30.5 45.5t-45.5 30.5t-56 11t-56 -11t-45.5 -30.5
t-30.5 -45.5t-11 -56t11 -56t30.5 -45.5t45.5 -30.5t56 -11zM370 558v125h270v-125h-270z" />
    <glyph glyph-name="Emacron" unicode="&#x112;" horiz-adv-x="535" 
d="M500 140l-40 -140h-400v700h385l40 -140h-275v-135h190v-140h-190v-145h290zM112 758v85h310v-85h-310z" />
    <glyph glyph-name="emacron" unicode="&#x113;" horiz-adv-x="605" 
d="M325 124q25 0 48 6t42.5 15t34.5 20t25 20l77 -109q-54 -41 -116.5 -62.5t-119.5 -21.5q-58 0 -109.5 21.5t-89.5 59t-60.5 88.5t-22.5 109t22.5 109t60.5 89t89.5 60t109.5 22q52 0 94 -17.5t73 -42.5t52 -52.5t33 -48.5l-342 -227q41 -38 99 -38zM311 426
q-35 0 -60.5 -12.5t-42 -33.5t-25 -47t-8.5 -53q0 -15 3 -30l217 143q-15 14 -35.5 23.5t-48.5 9.5zM142 608v85h310v-85h-310z" />
    <glyph glyph-name="Edotaccent" unicode="&#x116;" horiz-adv-x="535" 
d="M500 140l-40 -140h-400v700h385l40 -140h-275v-135h190v-140h-190v-145h290zM340 817q0 -34 -23.5 -57t-56.5 -23t-56.5 23t-23.5 57q0 33 23.5 56.5t56.5 23.5t56.5 -23.5t23.5 -56.5z" />
    <glyph glyph-name="edotaccent" unicode="&#x117;" horiz-adv-x="605" 
d="M325 124q25 0 48 6t42.5 15t34.5 20t25 20l77 -109q-54 -41 -116.5 -62.5t-119.5 -21.5q-58 0 -109.5 21.5t-89.5 59t-60.5 88.5t-22.5 109t22.5 109t60.5 89t89.5 60t109.5 22q52 0 94 -17.5t73 -42.5t52 -52.5t33 -48.5l-342 -227q41 -38 99 -38zM311 426
q-35 0 -60.5 -12.5t-42 -33.5t-25 -47t-8.5 -53q0 -15 3 -30l217 143q-15 14 -35.5 23.5t-48.5 9.5zM380 661q0 -34 -23.5 -57t-56.5 -23t-56.5 23t-23.5 57q0 33 23.5 56.5t56.5 23.5t56.5 -23.5t23.5 -56.5z" />
    <glyph glyph-name="Eogonek" unicode="&#x118;" horiz-adv-x="535" 
d="M500 140l-40 -140h-400v700h385l40 -140h-275v-135h190v-140h-190v-145h290zM459 0q-19 -4 -43.5 -10.5t-46 -18t-36.5 -29.5t-15 -45q0 -16 8 -33.5t30 -17.5q24 0 52.5 8.5t57.5 22.5l20 -50q-34 -24 -72 -37.5t-80 -13.5q-22 0 -41.5 8.5t-34.5 23t-23.5 35t-8.5 44.5
q0 42 22 69t56 43.5t75 24.5t80 12v-36z" />
    <glyph glyph-name="eogonek" unicode="&#x119;" horiz-adv-x="605" 
d="M325 124q25 0 48 6t42.5 15t34.5 20t25 20l77 -109q-54 -41 -116.5 -62.5t-119.5 -21.5q-58 0 -109.5 21.5t-89.5 59t-60.5 88.5t-22.5 109t22.5 109t60.5 89t89.5 60t109.5 22q52 0 94 -17.5t73 -42.5t52 -52.5t33 -48.5l-342 -227q41 -38 99 -38zM311 426
q-35 0 -60.5 -12.5t-42 -33.5t-25 -47t-8.5 -53q0 -15 3 -30l217 143q-15 14 -35.5 23.5t-48.5 9.5zM358 -4q-19 -4 -43.5 -10.5t-46 -18t-36.5 -29.5t-15 -45q0 -16 8 -33.5t30 -17.5q24 0 52.5 8.5t57.5 22.5l20 -50q-34 -24 -72 -37.5t-80 -13.5q-22 0 -41.5 8.5
t-34.5 23t-23.5 35t-8.5 44.5q0 42 22 69t56 43.5t75 24.5t80 12v-36z" />
    <glyph glyph-name="Ecaron" unicode="&#x11a;" horiz-adv-x="535" 
d="M500 140l-40 -140h-400v700h385l40 -140h-275v-135h190v-140h-190v-145h290zM61 908h128l60 -80l60 80h129l-118 -158h-142z" />
    <glyph glyph-name="ecaron" unicode="&#x11b;" horiz-adv-x="605" 
d="M325 124q25 0 48 6t42.5 15t34.5 20t25 20l77 -109q-54 -41 -116.5 -62.5t-119.5 -21.5q-58 0 -109.5 21.5t-89.5 59t-60.5 88.5t-22.5 109t22.5 109t60.5 89t89.5 60t109.5 22q52 0 94 -17.5t73 -42.5t52 -52.5t33 -48.5l-342 -227q41 -38 99 -38zM311 426
q-35 0 -60.5 -12.5t-42 -33.5t-25 -47t-8.5 -53q0 -15 3 -30l217 143q-15 14 -35.5 23.5t-48.5 9.5zM111 752h128l60 -80l60 80h129l-118 -158h-142z" />
    <glyph glyph-name="Gcircumflex" unicode="&#x11c;" horiz-adv-x="740" 
d="M686 412v-361q-9 -6 -36.5 -17.5t-65 -22t-82 -18.5t-86.5 -8q-89 0 -160 28.5t-121.5 78t-77.5 116t-27 142.5t29.5 142.5t81.5 116t122.5 78t152.5 28.5q34 0 69 -6.5t68.5 -19t64.5 -30t57 -39.5l-92 -112q-51 39 -100 54t-94 11t-83 -24t-66 -50.5t-44 -69t-16 -79.5
q0 -48 19 -89.5t52 -71.5t77.5 -47.5t94.5 -17.5q60 0 113 25v133h-180l37 130h293zM338 908h142l118 -158h-129l-60 80l-60 -80h-128z" />
    <glyph glyph-name="gcircumflex" unicode="&#x11d;" horiz-adv-x="615" 
d="M556 10q0 -39 -13.5 -78t-45.5 -70.5t-85 -51t-132 -19.5q-61 0 -106.5 15t-76 34t-46.5 35l-18 18l98 97q1 -2 10 -13t27.5 -23t47 -21.5t69.5 -9.5q23 0 46 4t41.5 13t30 25t11.5 40l1 61q-24 -22 -56 -34.5t-72 -12.5q-54 0 -101 20.5t-82.5 55.5t-56 82t-20.5 101
t20.5 101.5t56 82.5t82.5 55.5t101 20.5q46 0 81 -16.5t61 -44.5v30l127 28v-525zM298 155q25 0 47 9.5t38 26t25.5 38t9.5 46.5t-9.5 46.5t-25.5 38t-38 26t-47 9.5t-46.5 -9.5t-38 -26t-26 -38t-9.5 -46.5t9.5 -46.5t26 -38t38 -26t46.5 -9.5zM218 752h142l118 -158h-129
l-60 80l-60 -80h-128z" />
    <glyph glyph-name="Gbreve" unicode="&#x11e;" horiz-adv-x="740" 
d="M686 412v-361q-9 -6 -36.5 -17.5t-65 -22t-82 -18.5t-86.5 -8q-89 0 -160 28.5t-121.5 78t-77.5 116t-27 142.5t29.5 142.5t81.5 116t122.5 78t152.5 28.5q34 0 69 -6.5t68.5 -19t64.5 -30t57 -39.5l-92 -112q-51 39 -100 54t-94 11t-83 -24t-66 -50.5t-44 -69t-16 -79.5
q0 -48 19 -89.5t52 -71.5t77.5 -47.5t94.5 -17.5q60 0 113 25v133h-180l37 130h293zM285 899q1 -21 12 -38q9 -14 29.5 -25.5t58.5 -11.5t57.5 11.5t29.5 25.5q11 17 13 38h75q-3 -42 -22 -75q-17 -29 -52.5 -52t-100.5 -23q-66 0 -101 23t-52 52q-19 33 -22 75h75z" />
    <glyph glyph-name="gbreve" unicode="&#x11f;" horiz-adv-x="615" 
d="M556 10q0 -39 -13.5 -78t-45.5 -70.5t-85 -51t-132 -19.5q-61 0 -106.5 15t-76 34t-46.5 35l-18 18l98 97q1 -2 10 -13t27.5 -23t47 -21.5t69.5 -9.5q23 0 46 4t41.5 13t30 25t11.5 40l1 61q-24 -22 -56 -34.5t-72 -12.5q-54 0 -101 20.5t-82.5 55.5t-56 82t-20.5 101
t20.5 101.5t56 82.5t82.5 55.5t101 20.5q46 0 81 -16.5t61 -44.5v30l127 28v-525zM298 155q25 0 47 9.5t38 26t25.5 38t9.5 46.5t-9.5 46.5t-25.5 38t-38 26t-47 9.5t-46.5 -9.5t-38 -26t-26 -38t-9.5 -46.5t9.5 -46.5t26 -38t38 -26t46.5 -9.5zM185 743q1 -21 12 -38
q9 -14 29.5 -25.5t58.5 -11.5t57.5 11.5t29.5 25.5q11 17 13 38h75q-3 -42 -22 -75q-17 -29 -52.5 -52t-100.5 -23q-66 0 -101 23t-52 52q-19 33 -22 75h75z" />
    <glyph glyph-name="Gdotaccent" unicode="&#x120;" horiz-adv-x="740" 
d="M686 412v-361q-9 -6 -36.5 -17.5t-65 -22t-82 -18.5t-86.5 -8q-89 0 -160 28.5t-121.5 78t-77.5 116t-27 142.5t29.5 142.5t81.5 116t122.5 78t152.5 28.5q34 0 69 -6.5t68.5 -19t64.5 -30t57 -39.5l-92 -112q-51 39 -100 54t-94 11t-83 -24t-66 -50.5t-44 -69t-16 -79.5
q0 -48 19 -89.5t52 -71.5t77.5 -47.5t94.5 -17.5q60 0 113 25v133h-180l37 130h293zM480 817q0 -34 -23.5 -57t-56.5 -23t-56.5 23t-23.5 57q0 33 23.5 56.5t56.5 23.5t56.5 -23.5t23.5 -56.5z" />
    <glyph glyph-name="gdotaccent" unicode="&#x121;" horiz-adv-x="615" 
d="M556 10q0 -39 -13.5 -78t-45.5 -70.5t-85 -51t-132 -19.5q-61 0 -106.5 15t-76 34t-46.5 35l-18 18l98 97q1 -2 10 -13t27.5 -23t47 -21.5t69.5 -9.5q23 0 46 4t41.5 13t30 25t11.5 40l1 61q-24 -22 -56 -34.5t-72 -12.5q-54 0 -101 20.5t-82.5 55.5t-56 82t-20.5 101
t20.5 101.5t56 82.5t82.5 55.5t101 20.5q46 0 81 -16.5t61 -44.5v30l127 28v-525zM298 155q25 0 47 9.5t38 26t25.5 38t9.5 46.5t-9.5 46.5t-25.5 38t-38 26t-47 9.5t-46.5 -9.5t-38 -26t-26 -38t-9.5 -46.5t9.5 -46.5t26 -38t38 -26t46.5 -9.5zM360 661q0 -34 -23.5 -57
t-56.5 -23t-56.5 23t-23.5 57q0 33 23.5 56.5t56.5 23.5t56.5 -23.5t23.5 -56.5z" />
    <glyph glyph-name="uni0122" unicode="&#x122;" horiz-adv-x="740" 
d="M686 412v-361q-9 -6 -36.5 -17.5t-65 -22t-82 -18.5t-86.5 -8q-89 0 -160 28.5t-121.5 78t-77.5 116t-27 142.5t29.5 142.5t81.5 116t122.5 78t152.5 28.5q34 0 69 -6.5t68.5 -19t64.5 -30t57 -39.5l-92 -112q-51 39 -100 54t-94 11t-83 -24t-66 -50.5t-44 -69t-16 -79.5
q0 -48 19 -89.5t52 -71.5t77.5 -47.5t94.5 -17.5q60 0 113 25v133h-180l37 130h293zM339 -153q16 -6 33 -10q14 -4 30 -7.5t28 -4.5q29 -2 42 8t13 30q0 19 -18 25t-39 5q-26 -1 -57 -8l-25 25l55 90h60l-40 -60q70 19 106 -5t36 -75q0 -42 -31 -66t-88 -24q-29 0 -52.5 5.5
t-40.5 12.5q-20 8 -36 18z" />
    <glyph glyph-name="uni0123" unicode="&#x123;" horiz-adv-x="615" 
d="M556 10q0 -39 -13.5 -78t-45.5 -70.5t-85 -51t-132 -19.5q-61 0 -106.5 15t-76 34t-46.5 35l-18 18l98 97q1 -2 10 -13t27.5 -23t47 -21.5t69.5 -9.5q23 0 46 4t41.5 13t30 25t11.5 40l1 61q-24 -22 -56 -34.5t-72 -12.5q-54 0 -101 20.5t-82.5 55.5t-56 82t-20.5 101
t20.5 101.5t56 82.5t82.5 55.5t101 20.5q46 0 81 -16.5t61 -44.5v30l127 28v-525zM298 155q25 0 47 9.5t38 26t25.5 38t9.5 46.5t-9.5 46.5t-25.5 38t-38 26t-47 9.5t-46.5 -9.5t-38 -26t-26 -38t-9.5 -46.5t9.5 -46.5t26 -38t38 -26t46.5 -9.5zM334.008 830.027h99.9941
l-78.9951 -247.984h-145.991z" />
    <glyph glyph-name="Hcircumflex" unicode="&#x124;" horiz-adv-x="690" 
d="M627 700v-700h-150v292h-265v-292h-150v700h150v-278h265v278h150zM278 908h142l118 -158h-129l-60 80l-60 -80h-128z" />
    <glyph glyph-name="hcircumflex" unicode="&#x125;" horiz-adv-x="575" 
d="M336 535q95 0 140.5 -56t45.5 -169v-310h-142v300q0 16 -3.5 34t-13.5 33t-28.5 25t-49.5 10q-27 0 -44.5 -11t-28 -29t-15 -40t-4.5 -44v-278h-140v694l140 31v-259q24 31 61.5 50t81.5 19zM248 908h142l118 -158h-129l-60 80l-60 -80h-128z" />
    <glyph glyph-name="hbar" unicode="&#x127;" horiz-adv-x="575" 
d="M336 535q95 0 140.5 -56t45.5 -169v-310h-142v300q0 16 -3.5 34t-13.5 33t-28.5 25t-49.5 10q-27 0 -44.5 -11t-28 -29t-15 -40t-4.5 -44v-278h-140v694l140 31v-259q24 31 61.5 50t81.5 19zM1 548v125h270v-125h-270z" />
    <glyph glyph-name="Itilde" unicode="&#x128;" horiz-adv-x="275" 
d="M212 0h-150v700h150v-700zM-47 819q9 21 23 39q12 14 31.5 26.5t48.5 12.5q26 0 48 -9t42 -20.5t38 -20.5t36 -9q16 0 29 9t23 20q11 12 20 29l31 -82q-10 -21 -25 -38q-13 -14 -33 -25.5t-46 -11.5q-25 0 -44 9.5t-37 20.5t-38 20.5t-48 9.5q-19 0 -31.5 -10t-20.5 -22
q-10 -14 -16 -31l-31 83v0z" />
    <glyph glyph-name="itilde" unicode="&#x129;" horiz-adv-x="300" 
d="M60 0v495l140 31v-526h-140zM-37 659q9 21 23 39q12 14 31.5 26.5t48.5 12.5q26 0 48 -9t42 -20.5t38 -20.5t36 -9q16 0 29 9t23 20q11 12 20 29l31 -82q-10 -21 -25 -38q-13 -14 -33 -25.5t-46 -11.5q-25 0 -44 9.5t-37 20.5t-38 20.5t-48 9.5q-19 0 -31.5 -10
t-20.5 -22q-10 -14 -16 -31l-31 83v0z" />
    <glyph glyph-name="Imacron" unicode="&#x12a;" horiz-adv-x="275" 
d="M212 0h-150v700h150v-700zM-17 758v85h310v-85h-310z" />
    <glyph glyph-name="imacron" unicode="&#x12b;" horiz-adv-x="260" 
d="M60 0v495l140 31v-526h-140zM-22 608v85h310v-85h-310z" />
    <glyph glyph-name="Iogonek" unicode="&#x12e;" horiz-adv-x="275" 
d="M212 0h-150v700h150v-700zM186 0q-19 -4 -43.5 -10.5t-46 -18t-36.5 -29.5t-15 -45q0 -16 8 -33.5t30 -17.5q24 0 52.5 8.5t57.5 22.5l20 -50q-34 -24 -72 -37.5t-80 -13.5q-22 0 -41.5 8.5t-34.5 23t-23.5 35t-8.5 44.5q0 42 22 69t56 43.5t75 24.5t80 12v-36z" />
    <glyph glyph-name="iogonek" unicode="&#x12f;" horiz-adv-x="260" 
d="M210 635q0 -33 -23.5 -56.5t-56.5 -23.5t-56.5 23.5t-23.5 56.5t23.5 56.5t56.5 23.5t56.5 -23.5t23.5 -56.5zM202 0v526l-140 -31v-495h140zM203 0q-19 -4 -43.5 -10.5t-46 -18t-36.5 -29.5t-15 -45q0 -16 8 -33.5t30 -17.5q24 0 52.5 8.5t57.5 22.5l20 -50
q-34 -24 -72 -37.5t-80 -13.5q-22 0 -41.5 8.5t-34.5 23t-23.5 35t-8.5 44.5q0 42 22 69t56 43.5t75 24.5t80 12v-36z" />
    <glyph glyph-name="Idotaccent" unicode="&#x130;" horiz-adv-x="275" 
d="M212 0h-150v700h150v-700zM217 817q0 -34 -23.5 -57t-56.5 -23t-56.5 23t-23.5 57q0 33 23.5 56.5t56.5 23.5t56.5 -23.5t23.5 -56.5z" />
    <glyph glyph-name="dotlessi" unicode="&#x131;" horiz-adv-x="260" 
d="M60 0v495l140 31v-526h-140z" />
    <glyph glyph-name="Jcircumflex" unicode="&#x134;" horiz-adv-x="415" 
d="M355 235q0 -61 -17 -104t-44 -72t-61 -45.5t-68 -23.5t-64.5 -6.5t-50.5 5.5l-42 149q40 -11 70 -11.5t51 6t35 19t23 26.5q19 33 18 84v438h150v-465zM208 908h142l118 -158h-129l-60 80l-60 -80h-128z" />
    <glyph glyph-name="jcircumflex" unicode="&#x135;" horiz-adv-x="270" 
d="M209 526v-526q0 -40 -5 -78.5t-26 -68.5t-64.5 -48t-120.5 -18l-45 127q37 0 60.5 6.5t37 18t18.5 27t5 34.5v495zM68 752h142l118 -158h-129l-60 80l-60 -80h-128z" />
    <glyph glyph-name="uni0136" unicode="&#x136;" 
d="M629 0h-182l-237 322v-322h-150v700h150v-337l232 337h180l-254 -354zM219 -153q16 -6 33 -10q14 -4 30 -7.5t28 -4.5q29 -2 42 8t13 30q0 19 -18 25t-39 5q-26 -1 -57 -8l-25 25l55 90h60l-40 -60q70 19 106 -5t36 -75q0 -42 -31 -66t-88 -24q-29 0 -52.5 5.5
t-40.5 12.5q-20 8 -36 18z" />
    <glyph glyph-name="uni0137" unicode="&#x137;" horiz-adv-x="600" 
d="M400 0l-208 257v-257h-140v694l140 31v-431l193 241h179l-209 -250l232 -285h-187zM199 -153q16 -6 33 -10q14 -4 30 -7.5t28 -4.5q29 -2 42 8t13 30q0 19 -18 25t-39 5q-26 -1 -57 -8l-25 25l55 90h60l-40 -60q70 19 106 -5t36 -75q0 -42 -31 -66t-88 -24
q-29 0 -52.5 5.5t-40.5 12.5q-20 8 -36 18z" />
    <glyph glyph-name="kgreenlandic" unicode="&#x138;" horiz-adv-x="550" 
d="M52 0v535h141v-224l175 224h171l-213 -269l201 -266h-168l-166 227v-227h-141z" />
    <glyph glyph-name="Lacute" unicode="&#x139;" horiz-adv-x="480" 
d="M461 145l-41 -145h-360v700h150v-555h251zM306 898l-129 -148h-121l98 148h152z" />
    <glyph glyph-name="lacute" unicode="&#x13a;" horiz-adv-x="245" 
d="M192 0h-140v694l140 31v-725zM276 898l-129 -148h-121l98 148h152z" />
    <glyph glyph-name="uni013B" unicode="&#x13b;" horiz-adv-x="480" 
d="M461 145l-41 -145h-360v700h150v-555h251zM149 -153q16 -6 33 -10q14 -4 30 -7.5t28 -4.5q29 -2 42 8t13 30q0 19 -18 25t-39 5q-26 -1 -57 -8l-25 25l55 90h60l-40 -60q70 19 106 -5t36 -75q0 -42 -31 -66t-88 -24q-29 0 -52.5 5.5t-40.5 12.5q-20 8 -36 18z" />
    <glyph glyph-name="uni013C" unicode="&#x13c;" horiz-adv-x="245" 
d="M192 0h-140v694l140 31v-725zM30 -153q16 -6 33 -10q14 -4 30 -7.5t28 -4.5q29 -2 42 8t13 30q0 19 -18 25t-39 5q-26 -1 -57 -8l-25 25l55 90h60l-40 -60q70 19 106 -5t36 -75q0 -42 -31 -66t-88 -24q-29 0 -52.5 5.5t-40.5 12.5q-20 8 -36 18z" />
    <glyph glyph-name="Lcaron" unicode="&#x13d;" horiz-adv-x="480" 
d="M461 145l-41 -145h-360v700h150v-555h251zM506 701l-129 -148h-121l98 148h152z" />
    <glyph glyph-name="lcaron" unicode="&#x13e;" horiz-adv-x="310" 
d="M192 0h-140v694l140 31v-725zM466 701l-129 -148h-121l98 148h152z" />
    <glyph glyph-name="Lslash" unicode="&#x141;" horiz-adv-x="480" 
d="M200 145h251l-41 -145h-360v174l-48 -46v138l48 45v389h150v-247l152 144v-138l-152 -144v-170v0z" />
    <glyph glyph-name="lslash" unicode="&#x142;" horiz-adv-x="290" 
d="M295 578v-138l-85 -80v-360h-140v228l-75 -71v137l75 71v329l140 31v-228l85 81v0z" />
    <glyph glyph-name="Nacute" unicode="&#x143;" horiz-adv-x="745" 
d="M685 700v-700h-164l-311 472v-472h-150v700h150l325 -479v479h150zM496 898l-129 -148h-121l98 148h152z" />
    <glyph glyph-name="nacute" unicode="&#x144;" horiz-adv-x="555" 
d="M319 535q88 0 137 -56t49 -169v-310h-140v300q0 16 -3.5 34t-14 33t-29.5 25t-50 10q-29 0 -52.5 -19t-25.5 -61v-322h-140v504l135 30v-67q21 30 55.5 49t78.5 19zM406 742l-129 -148h-121l98 148h152z" />
    <glyph glyph-name="uni0145" unicode="&#x145;" horiz-adv-x="745" 
d="M685 700v-700h-164l-311 472v-472h-150v700h150l325 -479v479h150zM289 -153q16 -6 33 -10q14 -4 30 -7.5t28 -4.5q29 -2 42 8t13 30q0 19 -18 25t-39 5q-26 -1 -57 -8l-25 25l55 90h60l-40 -60q70 19 106 -5t36 -75q0 -42 -31 -66t-88 -24q-29 0 -52.5 5.5t-40.5 12.5
q-20 8 -36 18z" />
    <glyph glyph-name="uni0146" unicode="&#x146;" horiz-adv-x="555" 
d="M319 535q88 0 137 -56t49 -169v-310h-140v300q0 16 -3.5 34t-14 33t-29.5 25t-50 10q-29 0 -52.5 -19t-25.5 -61v-322h-140v504l135 30v-67q21 30 55.5 49t78.5 19zM189 -153q16 -6 33 -10q14 -4 30 -7.5t28 -4.5q29 -2 42 8t13 30q0 19 -18 25t-39 5q-26 -1 -57 -8
l-25 25l55 90h60l-40 -60q70 19 106 -5t36 -75q0 -42 -31 -66t-88 -24q-29 0 -52.5 5.5t-40.5 12.5q-20 8 -36 18z" />
    <glyph glyph-name="Ncaron" unicode="&#x147;" horiz-adv-x="745" 
d="M685 700v-700h-164l-311 472v-472h-150v700h150l325 -479v479h150zM171 908h128l60 -80l60 80h129l-118 -158h-142z" />
    <glyph glyph-name="ncaron" unicode="&#x148;" horiz-adv-x="555" 
d="M319 535q88 0 137 -56t49 -169v-310h-140v300q0 16 -3.5 34t-14 33t-29.5 25t-50 10q-29 0 -52.5 -19t-25.5 -61v-322h-140v504l135 30v-67q21 30 55.5 49t78.5 19zM91 752h128l60 -80l60 80h129l-118 -158h-142z" />
    <glyph glyph-name="Eng" unicode="&#x14a;" horiz-adv-x="740" 
d="M683 700v-751q0 -37 -4.5 -75t-26.5 -68.5t-67.5 -49.5t-126.5 -19l-41 126q37 0 60.5 5.5t37 16t18.5 26.5t5 38v46l-330 477v-472h-150v700h150l325 -479v479h150z" />
    <glyph glyph-name="eng" unicode="&#x14b;" horiz-adv-x="565" 
d="M324 535q88 0 137 -56t49 -169v-361q0 -37 -5 -75t-26.5 -68.5t-67 -49.5t-126.5 -19l-36 126q37 0 60.5 6.5t37 18t18.5 27t5 34.5v351q0 16 -3.5 34t-14 33t-29.5 25t-50 10q-29 0 -52.5 -19t-25.5 -61v-322h-140v504l135 30v-67q21 30 55.5 49t78.5 19z" />
    <glyph glyph-name="Omacron" unicode="&#x14c;" horiz-adv-x="800" 
d="M400 717q76 0 143.5 -28.5t118 -78t79.5 -116t29 -142.5t-29 -142.5t-79.5 -116t-118 -78t-143.5 -28.5q-77 0 -144.5 28.5t-117.5 78t-79 116t-29 142.5t29 142.5t79 116t117.5 78t144.5 28.5zM400 132q44 0 83 17t68.5 47t46.5 70t17 86t-17 86t-46.5 70t-68.5 47
t-83 17q-45 0 -84 -17t-68 -47t-46 -70t-17 -86t17 -86t46 -70t68 -47t84 -17zM246 758v85h310v-85h-310z" />
    <glyph glyph-name="omacron" unicode="&#x14d;" 
d="M320 547q60 0 112.5 -22t91.5 -60t62 -88.5t23 -108.5t-23 -108.5t-62 -88.5t-91.5 -60t-112.5 -22t-112.5 22t-92 60t-62 88.5t-22.5 108.5t22.5 108.5t62 88.5t92 60t112.5 22zM320 123q30 0 56.5 11t46 30.5t31 45.5t11.5 56t-11.5 56t-31 45.5t-46 31t-56.5 11.5
t-56.5 -11.5t-46 -31t-31 -45.5t-11.5 -56t11.5 -56t31 -45.5t46 -30.5t56.5 -11zM167 608v85h310v-85h-310z" />
    <glyph glyph-name="Ohungarumlaut" unicode="&#x150;" horiz-adv-x="800" 
d="M400 717q76 0 143.5 -28.5t118 -78t79.5 -116t29 -142.5t-29 -142.5t-79.5 -116t-118 -78t-143.5 -28.5q-77 0 -144.5 28.5t-117.5 78t-79 116t-29 142.5t29 142.5t79 116t117.5 78t144.5 28.5zM400 132q44 0 83 17t68.5 47t46.5 70t17 86t-17 86t-46.5 70t-68.5 47
t-83 17q-45 0 -84 -17t-68 -47t-46 -70t-17 -86t17 -86t46 -70t68 -47t84 -17zM244 755l38 148h136l-88 -148h-86zM419 755l66 148h142l-115 -148h-93z" />
    <glyph glyph-name="ohungarumlaut" unicode="&#x151;" 
d="M320 547q60 0 112.5 -22t91.5 -60t62 -88.5t23 -108.5t-23 -108.5t-62 -88.5t-91.5 -60t-112.5 -22t-112.5 22t-92 60t-62 88.5t-22.5 108.5t22.5 108.5t62 88.5t92 60t112.5 22zM320 123q30 0 56.5 11t46 30.5t31 45.5t11.5 56t-11.5 56t-31 45.5t-46 31t-56.5 11.5
t-56.5 -11.5t-46 -31t-31 -45.5t-11.5 -56t11.5 -56t31 -45.5t46 -30.5t56.5 -11zM174 599l38 148h136l-88 -148h-86zM349 599l66 148h142l-115 -148h-93z" />
    <glyph glyph-name="Racute" unicode="&#x154;" horiz-adv-x="620" 
d="M256 275h-46v-275h-150v700h220q46 0 92.5 -10.5t84 -36.5t60.5 -69t23 -109q0 -34 -10.5 -61.5t-29 -49t-43.5 -37.5t-53 -27l206 -300h-182zM210 375h55q15 0 36 4.5t39.5 15.5t31.5 30.5t13 49.5t-13 47t-31.5 25.5t-39.5 10.5t-36 2h-55v-185zM406 898l-129 -148
h-121l98 148h152z" />
    <glyph glyph-name="racute" unicode="&#x155;" horiz-adv-x="362" 
d="M355 534l-44 -152q-52 0 -85.5 -22.5t-35.5 -85.5v-274h-140v495l140 31v-69q20 33 54.5 55t83.5 22h27zM306 742l-129 -148h-121l98 148h152z" />
    <glyph glyph-name="uni0156" unicode="&#x156;" horiz-adv-x="620" 
d="M256 275h-46v-275h-150v700h220q46 0 92.5 -10.5t84 -36.5t60.5 -69t23 -109q0 -34 -10.5 -61.5t-29 -49t-43.5 -37.5t-53 -27l206 -300h-182zM210 375h55q15 0 36 4.5t39.5 15.5t31.5 30.5t13 49.5t-13 47t-31.5 25.5t-39.5 10.5t-36 2h-55v-185zM209 -153q16 -6 33 -10
q14 -4 30 -7.5t28 -4.5q29 -2 42 8t13 30q0 19 -18 25t-39 5q-26 -1 -57 -8l-25 25l55 90h60l-40 -60q70 19 106 -5t36 -75q0 -42 -31 -66t-88 -24q-29 0 -52.5 5.5t-40.5 12.5q-20 8 -36 18z" />
    <glyph glyph-name="uni0157" unicode="&#x157;" horiz-adv-x="362" 
d="M355 534l-44 -152q-52 0 -85.5 -22.5t-35.5 -85.5v-274h-140v495l140 31v-69q20 33 54.5 55t83.5 22h27zM40 -153q16 -6 33 -10q14 -4 30 -7.5t28 -4.5q29 -2 42 8t13 30q0 19 -18 25t-39 5q-26 -1 -57 -8l-25 25l55 90h60l-40 -60q70 19 106 -5t36 -75q0 -42 -31 -66
t-88 -24q-29 0 -52.5 5.5t-40.5 12.5q-20 8 -36 18z" />
    <glyph glyph-name="Rcaron" unicode="&#x158;" horiz-adv-x="620" 
d="M256 275h-46v-275h-150v700h220q46 0 92.5 -10.5t84 -36.5t60.5 -69t23 -109q0 -34 -10.5 -61.5t-29 -49t-43.5 -37.5t-53 -27l206 -300h-182zM210 375h55q15 0 36 4.5t39.5 15.5t31.5 30.5t13 49.5t-13 47t-31.5 25.5t-39.5 10.5t-36 2h-55v-185zM71 908h128l60 -80
l60 80h129l-118 -158h-142z" />
    <glyph glyph-name="rcaron" unicode="&#x159;" horiz-adv-x="362" 
d="M355 534l-44 -152q-52 0 -85.5 -22.5t-35.5 -85.5v-274h-140v495l140 31v-69q20 33 54.5 55t83.5 22h27zM-9 752h128l60 -80l60 80h129l-118 -158h-142z" />
    <glyph glyph-name="Sacute" unicode="&#x15a;" horiz-adv-x="580" 
d="M438 526q-30 33 -68.5 46.5t-72 10.5t-57 -21.5t-23.5 -49.5q0 -20 11.5 -34t31 -24t45.5 -18t56 -17q74 -22 111.5 -55t54.5 -64q19 -37 19 -76q0 -66 -24 -112t-61.5 -75t-84 -42t-91.5 -13q-63 0 -110 13t-79 29q-37 18 -63 43l94 120q24 -23 48 -34.5t44.5 -16
t36 -4.5h22.5t22.5 2t31.5 9.5t28.5 20.5t12.5 36q0 22 -8 35.5t-26 23t-46.5 19.5t-69.5 26q-40 15 -72.5 31t-55.5 38t-35.5 52.5t-12.5 75.5t19.5 84t53.5 68.5t80.5 46.5t101.5 17t96.5 -12.5t70.5 -27.5q33 -18 57 -40zM416 898l-129 -148h-121l98 148h152z" />
    <glyph glyph-name="sacute" unicode="&#x15b;" horiz-adv-x="445" 
d="M327 387q-27 20 -54 27t-48.5 4.5t-35 -13.5t-13.5 -28q0 -15 8 -23.5t22 -14.5t34.5 -10t45.5 -10q46 -11 73.5 -28t42.5 -37t19.5 -42t4.5 -43q0 -53 -19.5 -88t-50 -56t-67.5 -30t-72 -9q-47 0 -80 7.5t-56 18.5t-38.5 23t-27.5 21l74 101q19 -17 38 -27t36 -15
t29.5 -6t17.5 -1q11 0 25 1.5t26 6.5t20.5 15t8.5 27q0 11 -4 19t-15.5 14.5t-31 11.5t-50.5 10t-58.5 15.5t-48.5 29.5t-33 48.5t-12 73.5q0 34 14.5 63.5t40.5 52t61.5 35.5t77.5 13t75 -11.5t56 -25.5q27 -16 48 -36zM366 742l-129 -148h-121l98 148h152z" />
    <glyph glyph-name="Scircumflex" unicode="&#x15c;" horiz-adv-x="580" 
d="M438 526q-30 33 -68.5 46.5t-72 10.5t-57 -21.5t-23.5 -49.5q0 -20 11.5 -34t31 -24t45.5 -18t56 -17q74 -22 111.5 -55t54.5 -64q19 -37 19 -76q0 -66 -24 -112t-61.5 -75t-84 -42t-91.5 -13q-63 0 -110 13t-79 29q-37 18 -63 43l94 120q24 -23 48 -34.5t44.5 -16
t36 -4.5h22.5t22.5 2t31.5 9.5t28.5 20.5t12.5 36q0 22 -8 35.5t-26 23t-46.5 19.5t-69.5 26q-40 15 -72.5 31t-55.5 38t-35.5 52.5t-12.5 75.5t19.5 84t53.5 68.5t80.5 46.5t101.5 17t96.5 -12.5t70.5 -27.5q33 -18 57 -40zM228 908h142l118 -158h-129l-60 80l-60 -80h-128
z" />
    <glyph glyph-name="scircumflex" unicode="&#x15d;" horiz-adv-x="445" 
d="M327 387q-27 20 -54 27t-48.5 4.5t-35 -13.5t-13.5 -28q0 -15 8 -23.5t22 -14.5t34.5 -10t45.5 -10q46 -11 73.5 -28t42.5 -37t19.5 -42t4.5 -43q0 -53 -19.5 -88t-50 -56t-67.5 -30t-72 -9q-47 0 -80 7.5t-56 18.5t-38.5 23t-27.5 21l74 101q19 -17 38 -27t36 -15
t29.5 -6t17.5 -1q11 0 25 1.5t26 6.5t20.5 15t8.5 27q0 11 -4 19t-15.5 14.5t-31 11.5t-50.5 10t-58.5 15.5t-48.5 29.5t-33 48.5t-12 73.5q0 34 14.5 63.5t40.5 52t61.5 35.5t77.5 13t75 -11.5t56 -25.5q27 -16 48 -36zM158 752h142l118 -158h-129l-60 80l-60 -80h-128z
" />
    <glyph glyph-name="Scedilla" unicode="&#x15e;" horiz-adv-x="580" 
d="M438 526q-30 33 -68.5 46.5t-72 10.5t-57 -21.5t-23.5 -49.5q0 -20 11.5 -34t31 -24t45.5 -18t56 -17q74 -22 111.5 -55t54.5 -64q19 -37 19 -76q0 -66 -24 -112t-61.5 -75t-84 -42t-91.5 -13q-63 0 -110 13t-79 29q-37 18 -63 43l94 120q24 -23 48 -34.5t44.5 -16
t36 -4.5h22.5t22.5 2t31.5 9.5t28.5 20.5t12.5 36q0 22 -8 35.5t-26 23t-46.5 19.5t-69.5 26q-40 15 -72.5 31t-55.5 38t-35.5 52.5t-12.5 75.5t19.5 84t53.5 68.5t80.5 46.5t101.5 17t96.5 -12.5t70.5 -27.5q33 -18 57 -40zM209 -153q16 -6 33 -10q14 -4 30 -7.5t28 -4.5
q29 -2 42 8t13 30q0 19 -18 25t-39 5q-26 -1 -57 -8l-25 25l55 90h60l-40 -60q70 19 106 -5t36 -75q0 -42 -31 -66t-88 -24q-29 0 -52.5 5.5t-40.5 12.5q-20 8 -36 18z" />
    <glyph glyph-name="scedilla" unicode="&#x15f;" horiz-adv-x="445" 
d="M327 387q-27 20 -54 27t-48.5 4.5t-35 -13.5t-13.5 -28q0 -15 8 -23.5t22 -14.5t34.5 -10t45.5 -10q46 -11 73.5 -28t42.5 -37t19.5 -42t4.5 -43q0 -53 -19.5 -88t-50 -56t-67.5 -30t-72 -9q-47 0 -80 7.5t-56 18.5t-38.5 23t-27.5 21l74 101q19 -17 38 -27t36 -15
t29.5 -6t17.5 -1q11 0 25 1.5t26 6.5t20.5 15t8.5 27q0 11 -4 19t-15.5 14.5t-31 11.5t-50.5 10t-58.5 15.5t-48.5 29.5t-33 48.5t-12 73.5q0 34 14.5 63.5t40.5 52t61.5 35.5t77.5 13t75 -11.5t56 -25.5q27 -16 48 -36zM129 -153q16 -6 33 -10q14 -4 30 -7.5t28 -4.5
q29 -2 42 8t13 30q0 19 -18 25t-39 5q-26 -1 -57 -8l-25 25l55 90h60l-40 -60q70 19 106 -5t36 -75q0 -42 -31 -66t-88 -24q-29 0 -52.5 5.5t-40.5 12.5q-20 8 -36 18z" />
    <glyph glyph-name="Scaron" unicode="&#x160;" horiz-adv-x="580" 
d="M438 526q-30 33 -68.5 46.5t-72 10.5t-57 -21.5t-23.5 -49.5q0 -20 11.5 -34t31 -24t45.5 -18t56 -17q74 -22 111.5 -55t54.5 -64q19 -37 19 -76q0 -66 -24 -112t-61.5 -75t-84 -42t-91.5 -13q-63 0 -110 13t-79 29q-37 18 -63 43l94 120q24 -23 48 -34.5t44.5 -16
t36 -4.5h22.5t22.5 2t31.5 9.5t28.5 20.5t12.5 36q0 22 -8 35.5t-26 23t-46.5 19.5t-69.5 26q-40 15 -72.5 31t-55.5 38t-35.5 52.5t-12.5 75.5t19.5 84t53.5 68.5t80.5 46.5t101.5 17t96.5 -12.5t70.5 -27.5q33 -18 57 -40zM101 918h128l60 -80l60 80h129l-118 -158h-142z
" />
    <glyph glyph-name="scaron" unicode="&#x161;" horiz-adv-x="445" 
d="M327 387q-27 20 -54 27t-48.5 4.5t-35 -13.5t-13.5 -28q0 -15 8 -23.5t22 -14.5t34.5 -10t45.5 -10q46 -11 73.5 -28t42.5 -37t19.5 -42t4.5 -43q0 -53 -19.5 -88t-50 -56t-67.5 -30t-72 -9q-47 0 -80 7.5t-56 18.5t-38.5 23t-27.5 21l74 101q19 -17 38 -27t36 -15
t29.5 -6t17.5 -1q11 0 25 1.5t26 6.5t20.5 15t8.5 27q0 11 -4 19t-15.5 14.5t-31 11.5t-50.5 10t-58.5 15.5t-48.5 29.5t-33 48.5t-12 73.5q0 34 14.5 63.5t40.5 52t61.5 35.5t77.5 13t75 -11.5t56 -25.5q27 -16 48 -36zM36 752h128l60 -80l60 80h129l-118 -158h-142z" />
    <glyph glyph-name="uni0162" unicode="&#x162;" horiz-adv-x="540" 
d="M520 555h-175v-555h-150v555h-185l40 145h470v-145zM173 -153q16 -6 33 -10q14 -4 30 -7.5t28 -4.5q29 -2 42 8t13 30q0 19 -18 25t-39 5q-26 -1 -57 -8l-25 25l55 90h60l-40 -60q70 19 106 -5t36 -75q0 -42 -31 -66t-88 -24q-29 0 -52.5 5.5t-40.5 12.5q-20 8 -36 18z
" />
    <glyph glyph-name="uni0163" unicode="&#x163;" horiz-adv-x="405" 
d="M254 225q0 -32 12 -51t31 -28t43 -9t48 6l-39 -143q-63 0 -104.5 13t-67.5 34t-39 46.5t-18.5 50.5t-5.5 46.5v34.5v175h-101l36 125h65v125l140 20v-145h95v-125h-95v-175v0zM142 -123q16 -6 33 -10q14 -4 30 -7.5t28 -4.5q29 -2 42 8t13 30q0 19 -18 25t-39 5
q-26 -1 -57 -8l-25 25l55 90h60l-40 -60q70 19 106 -5t36 -75q0 -42 -31 -66t-88 -24q-29 0 -52.5 5.5t-40.5 12.5q-20 8 -36 18z" />
    <glyph glyph-name="Tcaron" unicode="&#x164;" horiz-adv-x="540" 
d="M520 555h-175v-555h-150v555h-185l40 145h470v-145zM83 908h128l60 -80l60 80h129l-118 -158h-142z" />
    <glyph glyph-name="tcaron" unicode="&#x165;" horiz-adv-x="405" 
d="M254 225q0 -32 12 -51t31 -28t43 -9t48 6l-39 -143q-63 0 -104.5 13t-67.5 34t-39 46.5t-18.5 50.5t-5.5 46.5v34.5v175h-101l36 125h65v125l140 20v-145h95v-125h-95v-175v0zM546 711l-129 -148h-121l98 148h152z" />
    <glyph glyph-name="Tbar" unicode="&#x166;" horiz-adv-x="540" 
d="M93 288v125h350v-125h-350zM520 555h-175v-555h-150v555h-185l40 145h470v-145z" />
    <glyph glyph-name="tbar" unicode="&#x167;" horiz-adv-x="405" 
d="M254 225q0 -32 12 -51t31 -28t43 -9t48 6l-39 -143q-63 0 -104.5 13t-67.5 34t-39 46.5t-18.5 50.5t-5.5 46.5v34.5v175h-101l36 125h65v125l140 20v-145h95v-125h-95v-175v0zM50 229v125h270v-125h-270z" />
    <glyph glyph-name="Utilde" unicode="&#x168;" horiz-adv-x="695" 
d="M342 -15q-41 0 -90.5 8.5t-92 34.5t-71 75.5t-28.5 131.5v465h156v-435q0 -38 13 -67q11 -26 37 -46.5t76 -20.5q55 0 83 20.5t40 46.5q14 29 14 67v435h156v-455q0 -86 -30.5 -137.5t-75 -78.5t-95.5 -35.5t-92 -8.5zM157 815q9 21 23 39q12 14 31.5 26.5t48.5 12.5
q26 0 48 -9t42 -20.5t38 -20.5t36 -9q16 0 29 9t23 20q11 12 20 29l31 -82q-10 -21 -25 -38q-13 -14 -33 -25.5t-46 -11.5q-25 0 -44 9.5t-37 20.5t-38 20.5t-48 9.5q-19 0 -31.5 -10t-20.5 -22q-10 -14 -16 -31l-31 83v0z" />
    <glyph glyph-name="utilde" unicode="&#x169;" horiz-adv-x="555" 
d="M506 535v-535h-135v74q-21 -36 -55.5 -60t-79.5 -24q-88 0 -137 56t-49 169v320h142v-310q0 -16 3 -34t13 -33.5t29 -25.5t50 -10q29 0 53.5 20t24.5 64v329h141zM102 659q9 21 23 39q12 14 31.5 26.5t48.5 12.5q26 0 48 -9t42 -20.5t38 -20.5t36 -9q16 0 29 9t23 20
q11 12 20 29l31 -82q-10 -21 -25 -38q-13 -14 -33 -25.5t-46 -11.5q-25 0 -44 9.5t-37 20.5t-38 20.5t-48 9.5q-19 0 -31.5 -10t-20.5 -22q-10 -14 -16 -31l-31 83v0z" />
    <glyph glyph-name="Umacron" unicode="&#x16a;" horiz-adv-x="695" 
d="M342 -15q-41 0 -90.5 8.5t-92 34.5t-71 75.5t-28.5 131.5v465h156v-435q0 -38 13 -67q11 -26 37 -46.5t76 -20.5q55 0 83 20.5t40 46.5q14 29 14 67v435h156v-455q0 -86 -30.5 -137.5t-75 -78.5t-95.5 -35.5t-92 -8.5zM188 758v85h310v-85h-310z" />
    <glyph glyph-name="umacron" unicode="&#x16b;" horiz-adv-x="555" 
d="M506 535v-535h-135v74q-21 -36 -55.5 -60t-79.5 -24q-88 0 -137 56t-49 169v320h142v-310q0 -16 3 -34t13 -33.5t29 -25.5t50 -10q29 0 53.5 20t24.5 64v329h141zM122 608v85h310v-85h-310z" />
    <glyph glyph-name="Ubreve" unicode="&#x16c;" horiz-adv-x="695" 
d="M342 -15q-41 0 -90.5 8.5t-92 34.5t-71 75.5t-28.5 131.5v465h156v-435q0 -38 13 -67q11 -26 37 -46.5t76 -20.5q55 0 83 20.5t40 46.5q14 29 14 67v435h156v-455q0 -86 -30.5 -137.5t-75 -78.5t-95.5 -35.5t-92 -8.5zM243 893q1 -21 12 -38q9 -14 29.5 -25.5t58.5 -11.5
t57.5 11.5t29.5 25.5q11 17 13 38h75q-3 -42 -22 -75q-17 -29 -52.5 -52t-100.5 -23q-66 0 -101 23t-52 52q-19 33 -22 75h75z" />
    <glyph glyph-name="ubreve" unicode="&#x16d;" horiz-adv-x="555" 
d="M506 535v-535h-135v74q-21 -36 -55.5 -60t-79.5 -24q-88 0 -137 56t-49 169v320h142v-310q0 -16 3 -34t13 -33.5t29 -25.5t50 -10q29 0 53.5 20t24.5 64v329h141zM177 743q1 -21 12 -38q9 -14 29.5 -25.5t58.5 -11.5t57.5 11.5t29.5 25.5q11 17 13 38h75q-3 -42 -22 -75
q-17 -29 -52.5 -52t-100.5 -23q-66 0 -101 23t-52 52q-19 33 -22 75h75z" />
    <glyph glyph-name="Uring" unicode="&#x16e;" horiz-adv-x="695" 
d="M342 -15q-41 0 -90.5 8.5t-92 34.5t-71 75.5t-28.5 131.5v465h156v-435q0 -38 13 -67q11 -26 37 -46.5t76 -20.5q55 0 83 20.5t40 46.5q14 29 14 67v435h156v-455q0 -86 -30.5 -137.5t-75 -78.5t-95.5 -35.5t-92 -8.5zM346 900q-21 0 -35 -14.5t-14 -34.5
q0 -21 14.5 -34.5t34.5 -13.5t34 14t14 34t-14 34.5t-34 14.5zM346 744q-23 0 -42.5 8t-34 22.5t-23 34t-8.5 42.5q0 22 8.5 42t23 34.5t34 23t42.5 8.5q22 0 41.5 -8.5t34 -23.5t23 -34.5t8.5 -41.5q0 -23 -8.5 -42.5t-23 -33.5t-34 -22.5t-41.5 -8.5z" />
    <glyph glyph-name="uring" unicode="&#x16f;" horiz-adv-x="555" 
d="M506 535v-535h-135v74q-21 -36 -55.5 -60t-79.5 -24q-88 0 -137 56t-49 169v320h142v-310q0 -16 3 -34t13 -33.5t29 -25.5t50 -10q29 0 53.5 20t24.5 64v329h141zM281 750q-21 0 -35 -14.5t-14 -34.5q0 -21 14.5 -34.5t34.5 -13.5t34 14t14 34t-14 34.5t-34 14.5z
M281 594q-23 0 -42.5 8t-34 22.5t-23 34t-8.5 42.5q0 22 8.5 42t23 34.5t34 23t42.5 8.5q22 0 41.5 -8.5t34 -23.5t23 -34.5t8.5 -41.5q0 -23 -8.5 -42.5t-23 -33.5t-34 -22.5t-41.5 -8.5z" />
    <glyph glyph-name="Uhungarumlaut" unicode="&#x170;" horiz-adv-x="695" 
d="M342 -15q-41 0 -90.5 8.5t-92 34.5t-71 75.5t-28.5 131.5v465h156v-435q0 -38 13 -67q11 -26 37 -46.5t76 -20.5q55 0 83 20.5t40 46.5q14 29 14 67v435h156v-455q0 -86 -30.5 -137.5t-75 -78.5t-95.5 -35.5t-92 -8.5zM194 755l38 148h136l-88 -148h-86zM369 755l66 148
h142l-115 -148h-93z" />
    <glyph glyph-name="uhungarumlaut" unicode="&#x171;" horiz-adv-x="555" 
d="M506 535v-535h-135v74q-21 -36 -55.5 -60t-79.5 -24q-88 0 -137 56t-49 169v320h142v-310q0 -16 3 -34t13 -33.5t29 -25.5t50 -10q29 0 53.5 20t24.5 64v329h141zM134 599l38 148h136l-88 -148h-86zM309 599l66 148h142l-115 -148h-93z" />
    <glyph glyph-name="Uogonek" unicode="&#x172;" horiz-adv-x="695" 
d="M342 -15q-41 0 -90.5 8.5t-92 34.5t-71 75.5t-28.5 131.5v465h156v-435q0 -38 13 -67q11 -26 37 -46.5t76 -20.5q55 0 83 20.5t40 46.5q14 29 14 67v435h156v-455q0 -86 -30.5 -137.5t-75 -78.5t-95.5 -35.5t-92 -8.5zM448 -2q-19 -4 -43.5 -10.5t-46 -18t-36.5 -29.5
t-15 -45q0 -16 8 -33.5t30 -17.5q24 0 52.5 8.5t57.5 22.5l20 -50q-34 -24 -72 -37.5t-80 -13.5q-22 0 -41.5 8.5t-34.5 23t-23.5 35t-8.5 44.5q0 42 22 69t56 43.5t75 24.5t80 12v-36z" />
    <glyph glyph-name="uogonek" unicode="&#x173;" horiz-adv-x="555" 
d="M506 535v-535h-135v74q-21 -36 -55.5 -60t-79.5 -24q-88 0 -137 56t-49 169v320h142v-310q0 -16 3 -34t13 -33.5t29 -25.5t50 -10q29 0 53.5 20t24.5 64v329h141zM506 0q-19 -4 -43.5 -10.5t-46 -18t-36.5 -29.5t-15 -45q0 -16 8 -33.5t30 -17.5q24 0 52.5 8.5t57.5 22.5
l20 -50q-34 -24 -72 -37.5t-80 -13.5q-22 0 -41.5 8.5t-34.5 23t-23.5 35t-8.5 44.5q0 42 22 69t56 43.5t75 24.5t80 12v-36z" />
    <glyph glyph-name="Ydieresis" unicode="&#x178;" 
d="M630 700l-303 -700h-163l115 265l-268 435h176l162 -273l118 273h163zM515 824q0 -31 -22 -53t-53 -22t-53 22t-22 53t22 53t53 22t53 -22t22 -53zM265 824q0 -31 -22 -53t-53 -22t-53 22t-22 53t22 53t53 22t53 -22t22 -53z" />
    <glyph glyph-name="Zacute" unicode="&#x179;" horiz-adv-x="680" 
d="M656 140l-40 -140h-592l356 560h-344l40 140h568l-358 -560h370zM466 898l-129 -148h-121l98 148h152z" />
    <glyph glyph-name="zacute" unicode="&#x17a;" horiz-adv-x="505" 
d="M491 135l-38 -135h-439l247 405h-225l37 130h408l-237 -400h247zM406 742l-129 -148h-121l98 148h152z" />
    <glyph glyph-name="Zdotaccent" unicode="&#x17b;" horiz-adv-x="680" 
d="M656 140l-40 -140h-592l356 560h-344l40 140h568l-358 -560h370zM410 817q0 -34 -23.5 -57t-56.5 -23t-56.5 23t-23.5 57q0 33 23.5 56.5t56.5 23.5t56.5 -23.5t23.5 -56.5z" />
    <glyph glyph-name="zdotaccent" unicode="&#x17c;" horiz-adv-x="505" 
d="M491 135l-38 -135h-439l247 405h-225l37 130h408l-237 -400h247zM335 661q0 -34 -23.5 -57t-56.5 -23t-56.5 23t-23.5 57q0 33 23.5 56.5t56.5 23.5t56.5 -23.5t23.5 -56.5z" />
    <glyph glyph-name="Zcaron" unicode="&#x17d;" horiz-adv-x="680" 
d="M165 918h128l60 -80l60 80h129l-118 -158h-142zM656 140l-40 -140h-592l356 560h-344l40 140h568l-358 -560h370z" />
    <glyph glyph-name="zcaron" unicode="&#x17e;" horiz-adv-x="505" 
d="M491 135l-38 -135h-439l247 405h-225l37 130h408l-237 -400h247zM61 752h128l60 -80l60 80h129l-118 -158h-142z" />
    <glyph glyph-name="circumflex" unicode="&#x2c6;" horiz-adv-x="280" 
d="M68 752h142l118 -158h-129l-60 80l-60 -80h-128z" />
    <glyph glyph-name="caron" unicode="&#x2c7;" horiz-adv-x="280" 
d="M-49 752h128l60 -80l60 80h129l-118 -158h-142z" />
    <glyph glyph-name="breve" unicode="&#x2d8;" horiz-adv-x="310" 
d="M55 743q1 -21 12 -38q9 -14 29.5 -25.5t58.5 -11.5t57.5 11.5t29.5 25.5q11 17 13 38h75q-3 -42 -22 -75q-17 -29 -52.5 -52t-100.5 -23q-66 0 -101 23t-52 52q-19 33 -22 75h75z" />
    <glyph glyph-name="dotaccent" unicode="&#x2d9;" horiz-adv-x="460" 
d="M310 661q0 -34 -23.5 -57t-56.5 -23t-56.5 23t-23.5 57q0 33 23.5 56.5t56.5 23.5t56.5 -23.5t23.5 -56.5z" />
    <glyph glyph-name="ring" unicode="&#x2da;" horiz-adv-x="270" 
d="M136 750q-21 0 -35 -14.5t-14 -34.5q0 -21 14.5 -34.5t34.5 -13.5t34 14t14 34t-14 34.5t-34 14.5zM136 594q-23 0 -42.5 8t-34 22.5t-23 34t-8.5 42.5q0 22 8.5 42t23 34.5t34 23t42.5 8.5q22 0 41.5 -8.5t34 -23.5t23 -34.5t8.5 -41.5q0 -23 -8.5 -42.5t-23 -33.5
t-34 -22.5t-41.5 -8.5z" />
    <glyph glyph-name="ogonek" unicode="&#x2db;" horiz-adv-x="275" 
d="M258 0q-19 -4 -43.5 -10.5t-46 -18t-36.5 -29.5t-15 -45q0 -16 8 -33.5t30 -17.5q24 0 52.5 8.5t57.5 22.5l20 -50q-34 -24 -72 -37.5t-80 -13.5q-22 0 -41.5 8.5t-34.5 23t-23.5 35t-8.5 44.5q0 42 22 69t56 43.5t75 24.5t80 12v-36z" />
    <glyph glyph-name="tilde" unicode="&#x2dc;" horiz-adv-x="310" 
d="M-28 659q9 21 23 39q12 14 31.5 26.5t48.5 12.5q26 0 48 -9t42 -20.5t38 -20.5t36 -9q16 0 29 9t23 20q11 12 20 29l31 -82q-10 -21 -25 -38q-13 -14 -33 -25.5t-46 -11.5q-25 0 -44 9.5t-37 20.5t-38 20.5t-48 9.5q-19 0 -31.5 -10t-20.5 -22q-10 -14 -16 -31l-31 83v0z
" />
    <glyph glyph-name="hungarumlaut" unicode="&#x2dd;" horiz-adv-x="280" 
d="M-26 599l38 148h136l-88 -148h-86zM149 599l66 148h142l-115 -148h-93z" />
    <glyph glyph-name="tonos" unicode="&#x384;" horiz-adv-x="260" 
d="M192 545h-125v165h125v-165v0z" />
    <glyph glyph-name="dieresistonos" unicode="&#x385;" horiz-adv-x="420" 
d="M410 668q0 -31 -22 -53t-53 -22t-53 22t-22 53t22 53t53 22t53 -22t22 -53zM160 668q0 -31 -22 -53t-53 -22t-53 22t-22 53t22 53t53 22t53 -22t22 -53zM396 892l-129 -148h-121l98 148h152z" />
    <glyph glyph-name="Alphatonos" unicode="&#x386;" 
d="M476 0l-44 140h-224l-44 -140h-161l243 700h148l243 -700h-161zM246 260h148l-74 233zM217 742l-129 -148h-121l98 148h152z" />
    <glyph glyph-name="Epsilontonos" unicode="&#x388;" horiz-adv-x="695" 
d="M660 140l-40 -140h-400v700h385l40 -140h-275v-135h190v-140h-190v-145h290zM217 742l-129 -148h-121l98 148h152z" />
    <glyph glyph-name="Etatonos" unicode="&#x389;" horiz-adv-x="850" 
d="M787 700v-700h-150v292h-265v-292h-150v700h150v-278h265v278h150zM217 742l-129 -148h-121l98 148h152z" />
    <glyph glyph-name="Iotatonos" unicode="&#x38a;" horiz-adv-x="420" 
d="M362 0h-150v700h150v-700zM217 742l-129 -148h-121l98 148h152z" />
    <glyph glyph-name="Omicrontonos" unicode="&#x38c;" horiz-adv-x="810" 
d="M410 717q76 0 143.5 -28.5t118 -78t79.5 -116t29 -142.5t-29 -142.5t-79.5 -116t-118 -78t-143.5 -28.5q-77 0 -144.5 28.5t-117.5 78t-79 116t-29 142.5t29 142.5t79 116t117.5 78t144.5 28.5zM410 132q44 0 83 17t68.5 47t46.5 70t17 86t-17 86t-46.5 70t-68.5 47
t-83 17q-45 0 -84 -17t-68 -47t-46 -70t-17 -86t17 -86t46 -70t68 -47t84 -17zM217 742l-129 -148h-121l98 148h152z" />
    <glyph glyph-name="Upsilontonos" unicode="&#x38e;" horiz-adv-x="830" 
d="M820 700l-303 -700h-163l115 265l-268 435h176l162 -273l118 273h163zM217 742l-129 -148h-121l98 148h152z" />
    <glyph glyph-name="Omegatonos" unicode="&#x38f;" horiz-adv-x="820" 
d="M792 130l-37 -130h-303v175q36 7 66 25t52.5 44t35 59t12.5 70q0 42 -16.5 78.5t-44.5 64t-65.5 43.5t-80.5 16t-81 -16t-66 -43.5t-44.5 -64t-16.5 -78.5q0 -35 11 -66t31 -56.5t47.5 -44t59.5 -27.5v-179h-288l-37 130h173q-67 42 -106.5 106.5t-39.5 148.5
q0 70 28 131t76.5 106.5t113.5 72t139 26.5t139 -26.5t113 -72t76 -106.5t28 -131q0 -83 -39.5 -148t-105.5 -107h170zM93 565h-125v165h125v-165v0z" />
    <glyph glyph-name="iotadieresistonos" unicode="&#x390;" horiz-adv-x="300" 
d="M60 0v495l140 31v-526h-140zM336 892l-129 -148h-121l98 148h152zM351 668q0 -31 -22 -53t-53 -22t-53 22t-22 53t22 53t53 22t53 -22t22 -53zM101 668q0 -31 -22 -53t-53 -22t-53 22t-22 53t22 53t53 22t53 -22t22 -53z" />
    <glyph glyph-name="Alpha" unicode="&#x391;" 
d="M476 0l-44 140h-224l-44 -140h-161l243 700h148l243 -700h-161zM246 260h148l-74 233z" />
    <glyph glyph-name="Beta" unicode="&#x392;" horiz-adv-x="560" 
d="M392 368q38 -10 69 -32q26 -19 48 -52.5t22 -88.5q0 -91 -66 -143t-198 -52h-215v700h195q52 0 99.5 -9.5t83.5 -32t57.5 -60.5t21.5 -95q0 -25 -11.5 -49.5t-28.5 -43.5t-37.5 -30.5t-39.5 -11.5zM202 572v-157h65q38 0 61.5 20.5t23.5 54.5q0 26 -10.5 42t-25.5 25
t-32.5 12t-30.5 3h-51zM261 128q19 0 38.5 4t35.5 14t26.5 25.5t10.5 38.5q0 21 -9.5 36.5t-24.5 26.5t-33.5 16.5t-37.5 5.5h-65v-167h59z" />
    <glyph glyph-name="Gamma" unicode="&#x393;" horiz-adv-x="495" 
d="M485 560h-275v-560h-150v700h385z" />
    <glyph glyph-name="uni0394" unicode="&#x394;" horiz-adv-x="740" 
d="M731 0h-722l361 738l361 -738v0zM231 130h278l-139 312l-139 -312v0z" />
    <glyph glyph-name="Epsilon" unicode="&#x395;" horiz-adv-x="535" 
d="M500 140l-40 -140h-400v700h385l40 -140h-275v-135h190v-140h-190v-145h290z" />
    <glyph glyph-name="Zeta" unicode="&#x396;" horiz-adv-x="680" 
d="M656 140l-40 -140h-592l356 560h-344l40 140h568l-358 -560h370z" />
    <glyph glyph-name="Eta" unicode="&#x397;" horiz-adv-x="690" 
d="M627 700v-700h-150v292h-265v-292h-150v700h150v-278h265v278h150z" />
    <glyph glyph-name="Theta" unicode="&#x398;" horiz-adv-x="800" 
d="M400 715q76 0 143.5 -28.5t118 -78t79.5 -116t29 -142.5t-29 -142.5t-79.5 -116t-118 -78t-143.5 -28.5q-77 0 -144 28.5t-117.5 78t-79.5 116t-29 142.5t29 142.5t79.5 116t117.5 78t144 28.5zM400 130q45 0 84 17t68 47t46 70t17 86t-17 86t-46 70t-68 47t-84 17
t-84 -17t-68 -47t-46 -70t-17 -86t17 -86t46 -70t68 -47t84 -17zM570 287h-350v125h350v-125z" />
    <glyph glyph-name="Iota" unicode="&#x399;" horiz-adv-x="275" 
d="M212 0h-150v700h150v-700z" />
    <glyph glyph-name="Kappa" unicode="&#x39a;" 
d="M629 0h-182l-237 322v-322h-150v700h150v-337l232 337h180l-254 -354z" />
    <glyph glyph-name="Lambda" unicode="&#x39b;" horiz-adv-x="670" 
d="M652 0.0429688l-243 699.957h-148l-244 -699.957h162l156 492.97l156 -492.97h161z" />
    <glyph glyph-name="Mu" unicode="&#x39c;" horiz-adv-x="805" 
d="M134 700h144l124 -450l123 450h145l120 -700h-154l-57 355l-99 -355h-157l-99 355l-56 -355h-153z" />
    <glyph glyph-name="Nu" unicode="&#x39d;" horiz-adv-x="745" 
d="M685 700v-700h-164l-311 472v-472h-150v700h150l325 -479v479h150z" />
    <glyph glyph-name="Xi" unicode="&#x39e;" horiz-adv-x="695" 
d="M82 700h523v-140h-563zM70 140h582l-40 -140h-542v140zM215 400h255v-140h-255v140z" />
    <glyph glyph-name="Omicron" unicode="&#x39f;" horiz-adv-x="800" 
d="M400 717q76 0 143.5 -28.5t118 -78t79.5 -116t29 -142.5t-29 -142.5t-79.5 -116t-118 -78t-143.5 -28.5q-77 0 -144.5 28.5t-117.5 78t-79 116t-29 142.5t29 142.5t79 116t117.5 78t144.5 28.5zM400 132q44 0 83 17t68.5 47t46.5 70t17 86t-17 86t-46.5 70t-68.5 47
t-83 17q-45 0 -84 -17t-68 -47t-46 -70t-17 -86t17 -86t46 -70t68 -47t84 -17z" />
    <glyph glyph-name="Pi" unicode="&#x3a0;" horiz-adv-x="725" 
d="M665 700v-700h-150v560h-305v-560h-150l-1 700h1h604h1z" />
    <glyph glyph-name="Rho" unicode="&#x3a1;" horiz-adv-x="560" 
d="M280 700q46 0 92.5 -10.5t84 -36.5t60.5 -69t23 -109q0 -54 -21.5 -95t-57 -69t-80.5 -42t-91 -14h-80v-255h-150v700h220zM265 390q15 0 36 2t39.5 10.5t31.5 25.5t13 47t-13 47t-31.5 25.5t-39.5 10.5t-36 2h-55v-170h55z" />
    <glyph glyph-name="Sigma" unicode="&#x3a3;" horiz-adv-x="665" 
d="M626 140l-40 -140h-572l281 374l-261 326h542l40 -140h-297l137 -184l-168 -236h338z" />
    <glyph glyph-name="Tau" unicode="&#x3a4;" horiz-adv-x="540" 
d="M520 555h-175v-555h-150v555h-185l40 145h470v-145z" />
    <glyph glyph-name="Upsilon" unicode="&#x3a5;" 
d="M630 700l-303 -700h-163l115 265l-268 435h176l162 -273l118 273h163z" />
    <glyph glyph-name="Phi" unicode="&#x3a6;" horiz-adv-x="855" 
d="M828 353q0 -68 -25.5 -116.5t-70 -81t-104.5 -49.5t-130 -20v-86h-140v81q-69 4 -129.5 21.5t-105 50.5t-70 82.5t-25.5 117.5q0 67 25.5 115.5t70 81t105 49.5t129.5 20v81h140v-81q70 -3 130 -20t104.5 -49.5t70 -81t25.5 -115.5zM183 353q0 -39 13.5 -64.5t37 -41
t55.5 -22.5t69 -9v268q-37 -2 -69 -8t-55.5 -20t-37 -39t-13.5 -64zM498 216q37 2 69.5 9t55.5 22.5t36.5 41t13.5 64.5t-13.5 64t-36.5 39t-55.5 20t-69.5 8v-268z" />
    <glyph glyph-name="Chi" unicode="&#x3a7;" horiz-adv-x="725" 
d="M523 0l-161 246l-161 -246h-182l254 369l-229 331h182l136 -203l135 203h182l-228 -331l254 -369h-182z" />
    <glyph glyph-name="Psi" unicode="&#x3a8;" horiz-adv-x="833" 
d="M807 700v-285q0 -86 -30.5 -139t-75 -82t-95.5 -39t-92 -10h-2v-145h-140v145h-5q-41 0 -90.5 10t-92 38t-71 79t-28.5 133v295h156v-275q0 -40 13 -72q11 -27 37 -49.5t76 -22.5h5v419h140v-419h2q55 0 83 22.5t40 49.5q14 32 14 72v275h156z" />
    <glyph glyph-name="uni03A9" unicode="&#x3a9;" horiz-adv-x="820" 
d="M792 130l-37 -130h-303v175q36 7 66 25t52.5 44t35 59t12.5 70q0 42 -16.5 78.5t-44.5 64t-65.5 43.5t-80.5 16t-81 -16t-66 -43.5t-44.5 -64t-16.5 -78.5q0 -35 11 -66t31 -56.5t47.5 -44t59.5 -27.5v-179h-288l-37 130h173q-67 42 -106.5 106.5t-39.5 148.5
q0 70 28 131t76.5 106.5t113.5 72t139 26.5t139 -26.5t113 -72t76 -106.5t28 -131q0 -83 -39.5 -148t-105.5 -107h170z" />
    <glyph glyph-name="Iotadieresis" unicode="&#x3aa;" horiz-adv-x="275" 
d="M212 0h-150v700h150v-700zM339 824q0 -31 -22 -53t-53 -22t-53 22t-22 53t22 53t53 22t53 -22t22 -53zM89 824q0 -31 -22 -53t-53 -22t-53 22t-22 53t22 53t53 22t53 -22t22 -53z" />
    <glyph glyph-name="Upsilondieresis" unicode="&#x3ab;" horiz-adv-x="650" 
d="M630 700l-303 -700h-163l115 265l-268 435h176l162 -273l118 273h163zM535 824q0 -31 -22 -53t-53 -22t-53 22t-22 53t22 53t53 22t53 -22t22 -53zM285 824q0 -31 -22 -53t-53 -22t-53 22t-22 53t22 53t53 22t53 -22t22 -53z" />
    <glyph glyph-name="alphatonos" unicode="&#x3ac;" horiz-adv-x="635" 
d="M563 532v-532h-130v40q-26 -25 -60.5 -38.5t-79.5 -13.5q-56 0 -104.5 22t-85.5 60t-58 89t-21 109t19.5 109t54.5 89t82.5 60t103.5 22q42 0 76.5 -14.5t62.5 -39.5v58zM300 127q28 0 53.5 11t44 30.5t29.5 45.5t11 56t-11 56t-29.5 45.5t-44 30.5t-53.5 11t-53 -11
t-43.5 -30.5t-29.5 -45.5t-11 -56t11 -56t29.5 -45.5t43.5 -30.5t53 -11zM454 742l-129 -148h-121l98 148h152z" />
    <glyph glyph-name="epsilontonos" unicode="&#x3ad;" horiz-adv-x="470" 
d="M258 226h-28q-25 -2 -40.5 -18t-15.5 -38q0 -24 18 -40.5t45 -16.5t43.5 16.5t16.5 40.5l136 -19q0 -33 -16 -62t-43 -50.5t-63 -34t-76 -12.5t-76 11.5t-63 32.5t-43 50t-16 65q0 49 22.5 78.5t56.5 49.5q-28 22 -47 49t-19 67q0 35 15 63.5t40.5 49t59 31.5t70.5 11
t70.5 -10.5t58.5 -30.5t40 -49t15 -66l-130 -11q0 21 -14 36t-38 15t-39.5 -15t-15.5 -36t15.5 -35.5t39.5 -14.5l21 -1v-106zM396 742l-129 -148h-121l98 148h152z" />
    <glyph glyph-name="etatonos" unicode="&#x3ae;" horiz-adv-x="555" 
d="M319 535q88 0 137 -56t49 -169v-310h-140v300q0 16 -3.5 34t-14 33t-29.5 25t-50 10q-29 0 -52.5 -19t-25.5 -61v-322h-140v504l135 30v-67q21 30 55.5 49t78.5 19zM436 742l-129 -148h-121l98 148h152z" />
    <glyph glyph-name="iotatonos" unicode="&#x3af;" horiz-adv-x="300" 
d="M60 0v495l140 31v-526h-140zM286 742l-129 -148h-121l98 148h152z" />
    <glyph glyph-name="upsilondieresistonos" unicode="&#x3b0;" horiz-adv-x="605" 
d="M501 535q32 -52 50 -118.5t18 -141.5q0 -68 -14 -115.5t-37 -80t-52 -51t-59 -28.5t-59 -12.5t-51 -2.5q-77 0 -125 25t-75.5 61.5t-37.5 78.5t-10 75v310h143v-310q0 -62 28 -83.5t77 -21.5q24 0 47.5 3.5t41.5 18.5t29 46t11 87q0 42 -8 81.5t-19.5 73.5t-24.5 61
t-22 44h149zM485 668q0 -31 -22 -53t-53 -22t-53 22t-22 53t22 53t53 22t53 -22t22 -53zM235 668q0 -31 -22 -53t-53 -22t-53 22t-22 53t22 53t53 22t53 -22t22 -53zM476 892l-129 -148h-121l98 148h152z" />
    <glyph glyph-name="alpha" unicode="&#x3b1;" horiz-adv-x="620" 
d="M563 532v-532h-130v40q-26 -25 -60.5 -38.5t-79.5 -13.5q-56 0 -104.5 22t-85.5 60t-58 89t-21 109t19.5 109t54.5 89t82.5 60t103.5 22q42 0 76.5 -14.5t62.5 -39.5v58zM300 127q28 0 53.5 11t44 30.5t29.5 45.5t11 56t-11 56t-29.5 45.5t-44 30.5t-53.5 11t-53 -11
t-43.5 -30.5t-29.5 -45.5t-11 -56t11 -56t29.5 -45.5t43.5 -30.5t53 -11z" />
    <glyph glyph-name="beta" unicode="&#x3b2;" horiz-adv-x="620" 
d="M452 402q28 -8 53.5 -22.5t44 -37t29.5 -54t11 -74.5q0 -57 -22 -99.5t-56.5 -70.5t-77 -42t-83.5 -14q-48 0 -88 16t-71 40v-200l-140 -31v638q0 19 3 46t11.5 56t24.5 57.5t42.5 51.5t65 37t92.5 14q81 0 128 -22t71 -52t30.5 -60.5t6.5 -47.5q0 -46 -21.5 -77.5
t-53.5 -51.5zM341 127q44 0 73.5 24.5t29.5 72.5q0 42 -21.5 63.5t-51 30.5t-61.5 10t-53 1v112q57 0 88.5 16.5t31.5 57.5q0 29 -20.5 48.5t-61.5 19.5q-26 0 -43.5 -9.5t-28 -24.5t-15 -33.5t-6 -36.5t-1 -33.5t0.5 -24.5v-236l45 18q9 -38 31.5 -57t62.5 -19z" />
    <glyph glyph-name="gamma" unicode="&#x3b3;" horiz-adv-x="545" 
d="M393 535h148l-199 -535v-185h-140v185l-198 535h148l120 -341l121 341v0z" />
    <glyph glyph-name="delta" unicode="&#x3b4;" horiz-adv-x="560" 
d="M479 369q43 -63 43 -139q0 -49 -18.5 -93.5t-53.5 -79.5t-79.5 -53.5t-93.5 -18.5t-93.5 18.5t-79.5 53.5t-53.5 79.5t-18.5 93.5t18.5 93.5t53.5 79.5q58 58 138 70l-115 150v77h400l-34 -120h-177zM277 117q23 0 43.5 9t36 24.5t24.5 36t9 43.5t-9 43.5t-24.5 36
t-36 24.5t-43.5 9t-43.5 -9t-36 -24.5t-24.5 -36t-9 -43.5t9 -43.5t24.5 -36t36 -24.5t43.5 -9z" />
    <glyph glyph-name="epsilon" unicode="&#x3b5;" horiz-adv-x="470" 
d="M258 226h-28q-25 -2 -40.5 -18t-15.5 -38q0 -24 18 -40.5t45 -16.5t43.5 16.5t16.5 40.5l136 -19q0 -33 -16 -62t-43 -50.5t-63 -34t-76 -12.5t-76 11.5t-63 32.5t-43 50t-16 65q0 49 22.5 78.5t56.5 49.5q-28 22 -47 49t-19 67q0 35 15 63.5t40.5 49t59 31.5t70.5 11
t70.5 -10.5t58.5 -30.5t40 -49t15 -66l-130 -11q0 21 -14 36t-38 15t-39.5 -15t-15.5 -36t15.5 -35.5t39.5 -14.5l21 -1v-106z" />
    <glyph glyph-name="zeta" unicode="&#x3b6;" horiz-adv-x="490" 
d="M318 132q50 0 83 -14t51.5 -37.5t25 -54.5t4 -64.5t-12.5 -67.5t-23 -63l-117 44q19 36 26 60t4.5 38.5t-14.5 20.5t-31 6h-37q-58 0 -101.5 17t-72.5 47t-43.5 71.5t-14.5 89.5q0 51 15.5 96t41 86.5t58.5 80.5t67 78h-195l38 134h387v-100q-47 -38 -96 -79.5
t-89.5 -85.5t-66.5 -90.5t-26 -94.5q0 -44 11 -67.5t27 -35t34 -13.5t31 -2h36v0z" />
    <glyph glyph-name="eta" unicode="&#x3b7;" horiz-adv-x="555" 
d="M319 535q88 0 137 -56t49 -169v-310h-140v300q0 16 -3.5 34t-14 33t-29.5 25t-50 10q-29 0 -52.5 -19t-25.5 -61v-322h-140v504l135 30v-67q21 30 55.5 49t78.5 19z" />
    <glyph glyph-name="theta" unicode="&#x3b8;" horiz-adv-x="600" 
d="M300 715q12 0 37 -2.5t55 -14t61.5 -34.5t57.5 -63.5t42.5 -102t16.5 -148.5t-16.5 -148.5t-42.5 -102t-57.5 -63.5t-61.5 -34.5t-55 -14t-37 -2.5t-37 2.5t-55 14t-61.5 34.5t-57.5 63.5t-42.5 101.5t-16.5 149q0 87 16.5 148.5t42.5 102t57.5 63.5t61.5 34.5t55 14
t37 2.5zM300 572q-30 0 -51 -13t-34.5 -35t-21 -50t-10.5 -59h234q-3 31 -10.5 59t-21 50t-34.5 35t-51 13zM300 132q31 0 52.5 14t35 37.5t20.5 54t10 62.5h-236q3 -32 10 -62.5t20.5 -54t35 -37.5t52.5 -14z" />
    <glyph glyph-name="iota" unicode="&#x3b9;" horiz-adv-x="300" 
d="M60 0v495l140 31v-526h-140z" />
    <glyph glyph-name="kappa" unicode="&#x3ba;" horiz-adv-x="550" 
d="M52 0v535h141v-224l175 224h171l-213 -269l201 -266h-168l-166 227v-227h-141z" />
    <glyph glyph-name="lambda" unicode="&#x3bb;" horiz-adv-x="630" 
d="M462 0l-118 273l-163 -273h-175l268 435l-115 265h163l303 -700h-163z" />
    <glyph glyph-name="uni03BC" unicode="&#x3bc;" horiz-adv-x="565" 
d="M50 -175v710h152v-328q0 -14 5 -29t16 -28t27.5 -21.5t40.5 -8.5q14 0 29 6t27 17t20 27t8 36v329h141v-535h-126v47q-24 -26 -56 -41.5t-69 -15.5q-22 0 -42 5.5t-38 15.5v-156z" />
    <glyph glyph-name="nu" unicode="&#x3bd;" horiz-adv-x="535" 
d="M525 535l-190 -535h-136l-190 535h148l110 -341l110 341h148z" />
    <glyph glyph-name="xi" unicode="&#x3be;" horiz-adv-x="545" 
d="M392 -61q0 27 -17.5 40t-42.5 18.5t-51 6.5t-43 3q-23 3 -54 14t-60 32.5t-49 56.5t-20 86q0 23 5.5 47.5t17 47t29 42t42.5 33.5q-30 23 -47 57t-17 78q0 40 17 74h-90l19 125h484l-20 -135h-200q-31 0 -53 -21.5t-22 -52.5q0 -29 18.5 -49.5t44.5 -25.5q4 0 7.5 -0.5
t7.5 -0.5h139l-19 -123h-160q-39 0 -58.5 -25.5t-19.5 -58.5q0 -36 24 -53t84 -21q64 -5 107 -19.5t69 -40t37 -60.5t11 -80q0 -38 -9 -66.5t-23 -56.5l-113 46q11 18 18 38.5t7 43.5z" />
    <glyph glyph-name="omicron" unicode="&#x3bf;" 
d="M320 547q60 0 112.5 -22t91.5 -60t62 -88.5t23 -108.5t-23 -108.5t-62 -88.5t-91.5 -60t-112.5 -22t-112.5 22t-92 60t-62 88.5t-22.5 108.5t22.5 108.5t62 88.5t92 60t112.5 22zM320 123q30 0 56.5 11t46 30.5t31 45.5t11.5 56t-11.5 56t-31 45.5t-46 31t-56.5 11.5
t-56.5 -11.5t-46 -31t-31 -45.5t-11.5 -56t11.5 -56t31 -45.5t46 -30.5t56.5 -11z" />
    <glyph glyph-name="pi" unicode="&#x3c0;" horiz-adv-x="655" 
d="M584 119q8 -4 17.5 -5.5t20.5 2.5v-139h-13q-44 0 -82 20q-47 23 -78 69t-38 104q-1 5 -3 28.5t-5 57t-6.5 73t-6.5 76.5h-170v-405h-135v405h-60v130h568l37 -130h-106q3 -36 6.5 -73.5t6.5 -69t5.5 -53.5t2.5 -27q3 -23 13.5 -39t25.5 -24z" />
    <glyph glyph-name="rho" unicode="&#x3c1;" 
d="M350 549q58 0 107.5 -22t85.5 -60t56.5 -89t20.5 -109t-22 -109t-60 -89t-89 -60t-109 -22q-45 0 -79.5 15.5t-60.5 41.5v-191l-140 -31v437q0 77 25 132t66 89.5t93 50.5t106 16zM337 132q29 0 54.5 11t44.5 30t30 44.5t11 54.5t-11 54.5t-30 44.5t-44.5 30t-54.5 11
t-54.5 -11t-44.5 -30t-30 -44.5t-11 -54.5t11 -54.5t30 -44.5t44.5 -30t54.5 -11z" />
    <glyph glyph-name="sigma1" unicode="&#x3c2;" horiz-adv-x="570" 
d="M489 -234l-128 68q17 33 23 58.5t-2 41.5q-7 14 -28.5 26t-54.5 19q-64 13 -114.5 39t-85.5 62.5t-53.5 82.5t-18.5 99q0 30 6.5 58t18.5 55q23 52 65 91t96 60t114 21q66 0 124.5 -25.5t101.5 -72.5l-107 -98q-23 25 -53.5 38t-65.5 13q-32 0 -60 -11t-49 -30
t-33.5 -44.5t-12.5 -54.5q0 -52 38 -87q42 -39 118 -54q64 -14 106 -40q54 -32 80 -86q23 -51 16 -110q-7 -55 -41 -119z" />
    <glyph glyph-name="sigma" unicode="&#x3c3;" horiz-adv-x="690" 
d="M544 410q31 -31 46.5 -71.5t15.5 -88.5q0 -57 -22 -105.5t-60 -84t-90 -55.5t-112 -20t-112.5 21.5t-92 59t-62 87.5t-22.5 107t22.5 107t62 87.5t92 59t112.5 21.5h334l36 -125h-148zM322 117q30 0 56.5 11t46 30.5t31 45t11.5 55.5q0 29 -11.5 55t-31 45t-46 30
t-56.5 11t-56.5 -11t-46 -30t-31 -45t-11.5 -55q0 -30 11.5 -55.5t31 -45t46 -30.5t56.5 -11z" />
    <glyph glyph-name="tau" unicode="&#x3c4;" horiz-adv-x="540" 
d="M492 535v-145h-155v-390h-150v390h-165l40 145h430z" />
    <glyph glyph-name="upsilon" unicode="&#x3c5;" horiz-adv-x="605" 
d="M501 535q32 -52 50 -118.5t18 -141.5q0 -68 -14 -115.5t-37 -80t-52 -51t-59 -28.5t-59 -12.5t-51 -2.5q-77 0 -125 25t-75.5 61.5t-37.5 78.5t-10 75v310h143v-310q0 -62 28 -83.5t77 -21.5q24 0 47.5 3.5t41.5 18.5t29 46t11 87q0 42 -8 81.5t-19.5 73.5t-24.5 61
t-22 44h149z" />
    <glyph glyph-name="phi" unicode="&#x3c6;" horiz-adv-x="780" 
d="M320 0q-60 0 -112.5 21t-92 58t-62 86t-22.5 105t22.5 105t62 86t92 58t112.5 21v161l140 31v-192q60 0 112.5 -21t92 -58t62 -86t22.5 -105t-22.5 -105t-62 -86t-92 -58t-112.5 -21v-137l-140 -31v168zM460 124q30 0 56.5 11.5t46 31.5t31 46t11.5 55t-11.5 55t-31 46
t-46 31.5t-56.5 11.5v-288zM320 412q-30 0 -56.5 -11.5t-46 -31.5t-31 -46t-11.5 -55t11.5 -55t31 -46t46 -31.5t56.5 -11.5v288z" />
    <glyph glyph-name="chi" unicode="&#x3c7;" horiz-adv-x="565" 
d="M387 0l-105 156l-106 -156h-165l191 274l-177 261h155l102 -146l101 146h156l-177 -261l191 -274h-166z" />
    <glyph glyph-name="psi" unicode="&#x3c8;" horiz-adv-x="750" 
d="M713 275q0 -67 -14 -115t-36.5 -80t-51.5 -51t-59 -29t-59 -12.5t-51 -2.5v-170h-140v170q-76 0 -124 25t-75.5 61.5t-37.5 78.5t-10 75v310h143v-310q0 -63 27.5 -88.5t76.5 -25.5v589h140v-589q24 0 47 4.5t41 21.5t29 49.5t11 88.5q0 84 -17.5 149t-36.5 111h149
q13 -32 22 -62.5t15 -62t8.5 -65t2.5 -70.5z" />
    <glyph glyph-name="omega" unicode="&#x3c9;" horiz-adv-x="880" 
d="M787 535q32 -52 50.5 -118.5t18.5 -141.5q0 -68 -14 -115.5t-37 -80t-51.5 -51t-57 -28.5t-54.5 -12.5t-44 -2.5q-60 0 -97.5 23.5t-60.5 59.5q-23 -36 -60.5 -59.5t-97.5 -23.5q-18 0 -44 2.5t-54.5 12.5t-57 28.5t-51.5 51t-37 80t-14 115.5q0 75 18.5 141.5
t49.5 118.5h145q-10 -17 -23 -44t-24.5 -61t-19.5 -73.5t-8 -81.5q0 -56 8 -87t22.5 -46t34.5 -18.5t44 -3.5q49 0 77 27.5t28 102.5v285h128v-285q0 -75 28 -102.5t76 -27.5q24 0 44 3.5t35 18.5t23 46t8 87q0 42 -8 81.5t-20 73.5t-25 61t-22 44h144v0z" />
    <glyph glyph-name="iotadieresis" unicode="&#x3ca;" horiz-adv-x="265" 
d="M60 0v495l140 31v-526h-140zM329 668q0 -31 -22 -53t-53 -22t-53 22t-22 53t22 53t53 22t53 -22t22 -53zM79 668q0 -31 -22 -53t-53 -22t-53 22t-22 53t22 53t53 22t53 -22t22 -53z" />
    <glyph glyph-name="upsilondieresis" unicode="&#x3cb;" horiz-adv-x="605" 
d="M501 535q32 -52 50 -118.5t18 -141.5q0 -68 -14 -115.5t-37 -80t-52 -51t-59 -28.5t-59 -12.5t-51 -2.5q-77 0 -125 25t-75.5 61.5t-37.5 78.5t-10 75v310h143v-310q0 -62 28 -83.5t77 -21.5q24 0 47.5 3.5t41.5 18.5t29 46t11 87q0 42 -8 81.5t-19.5 73.5t-24.5 61
t-22 44h149zM485 668q0 -31 -22 -53t-53 -22t-53 22t-22 53t22 53t53 22t53 -22t22 -53zM235 668q0 -31 -22 -53t-53 -22t-53 22t-22 53t22 53t53 22t53 -22t22 -53z" />
    <glyph glyph-name="omicrontonos" unicode="&#x3cc;" horiz-adv-x="660" 
d="M320 547q60 0 112.5 -22t91.5 -60t62 -88.5t23 -108.5t-23 -108.5t-62 -88.5t-91.5 -60t-112.5 -22t-112.5 22t-92 60t-62 88.5t-22.5 108.5t22.5 108.5t62 88.5t92 60t112.5 22zM320 123q30 0 56.5 11t46 30.5t31 45.5t11.5 56t-11.5 56t-31 45.5t-46 31t-56.5 11.5
t-56.5 -11.5t-46 -31t-31 -45.5t-11.5 -56t11.5 -56t31 -45.5t46 -30.5t56.5 -11zM456 742l-129 -148h-121l98 148h152z" />
    <glyph glyph-name="upsilontonos" unicode="&#x3cd;" horiz-adv-x="605" 
d="M501 535q32 -52 50 -118.5t18 -141.5q0 -68 -14 -115.5t-37 -80t-52 -51t-59 -28.5t-59 -12.5t-51 -2.5q-77 0 -125 25t-75.5 61.5t-37.5 78.5t-10 75v310h143v-310q0 -62 28 -83.5t77 -21.5q24 0 47.5 3.5t41.5 18.5t29 46t11 87q0 42 -8 81.5t-19.5 73.5t-24.5 61
t-22 44h149zM436 742l-129 -148h-121l98 148h152z" />
    <glyph glyph-name="omegatonos" unicode="&#x3ce;" horiz-adv-x="880" 
d="M787 535q32 -52 50.5 -118.5t18.5 -141.5q0 -68 -14 -115.5t-37 -80t-51.5 -51t-57 -28.5t-54.5 -12.5t-44 -2.5q-60 0 -97.5 23.5t-60.5 59.5q-23 -36 -60.5 -59.5t-97.5 -23.5q-18 0 -44 2.5t-54.5 12.5t-57 28.5t-51.5 51t-37 80t-14 115.5q0 75 18.5 141.5
t49.5 118.5h145q-10 -17 -23 -44t-24.5 -61t-19.5 -73.5t-8 -81.5q0 -56 8 -87t22.5 -46t34.5 -18.5t44 -3.5q49 0 77 27.5t28 102.5v285h128v-285q0 -75 28 -102.5t76 -27.5q24 0 44 3.5t35 18.5t23 46t8 87q0 42 -8 81.5t-20 73.5t-25 61t-22 44h144v0zM586 742l-129 -148
h-121l98 148h152z" />
    <glyph glyph-name="uni0401" unicode="&#x401;" horiz-adv-x="525" 
d="M496 140l-40 -140h-400v700h385l40 -140h-275v-135h190v-140h-190v-145h290zM465 826q0 -31 -22 -53t-53 -22t-53 22t-22 53t22 53t53 22t53 -22t22 -53zM215 826q0 -31 -22 -53t-53 -22t-53 22t-22 53t22 53t53 22t53 -22t22 -53z" />
    <glyph glyph-name="uni0402" unicode="&#x402;" horiz-adv-x="760" 
d="M488 411q52 0 96 -16.5t76.5 -49.5t51 -82t18.5 -113q0 -69 -19.5 -128t-59 -101.5t-99.5 -66.5t-142 -24v118q86 0 133 46.5t47 155.5q0 51 -16 82t-46 44t-72.5 8t-95.5 -24v-260h-150v555h-185l40 145h470v-145h-175v-162q26 8 58.5 13t69.5 5z" />
    <glyph glyph-name="uni0403" unicode="&#x403;" horiz-adv-x="500" 
d="M485 560h-275v-560h-150v700h385zM456 898l-129 -148h-121l98 148h152z" />
    <glyph glyph-name="uni0404" unicode="&#x404;" horiz-adv-x="645" 
d="M377 130q56 0 98 22t68 60l144 -52q-42 -79 -120.5 -127t-189.5 -48q-84 0 -150 28.5t-111.5 78t-69.5 116t-24 142.5t24 142.5t69.5 116t111.5 78t150 28.5q111 0 189.5 -48t120.5 -127l-140 -51q-25 38 -66.5 59.5t-103.5 21.5q-44 0 -77.5 -11t-58 -31t-40 -47.5
t-23.5 -60.5h224v-140h-222q9 -33 26.5 -60.5t42 -47.5t57 -31t71.5 -11z" />
    <glyph glyph-name="uni0405" unicode="&#x405;" horiz-adv-x="580" 
d="M438 526q-30 33 -68.5 46.5t-72 10.5t-57 -21.5t-23.5 -49.5q0 -20 11.5 -34t31 -24t45.5 -18t56 -17q74 -22 111.5 -55t54.5 -64q19 -37 19 -76q0 -66 -24 -112t-61.5 -75t-84 -42t-91.5 -13q-63 0 -110 13t-79 29q-37 18 -63 43l94 120q24 -23 48 -34.5t44.5 -16
t36 -4.5h22.5t22.5 2t31.5 9.5t28.5 20.5t12.5 36q0 22 -8 35.5t-26 23t-46.5 19.5t-69.5 26q-40 15 -72.5 31t-55.5 38t-35.5 52.5t-12.5 75.5t19.5 84t53.5 68.5t80.5 46.5t101.5 17t96.5 -12.5t70.5 -27.5q33 -18 57 -40z" />
    <glyph glyph-name="uni0406" unicode="&#x406;" horiz-adv-x="275" 
d="M212 0h-150v700h150v-700z" />
    <glyph glyph-name="uni0407" unicode="&#x407;" horiz-adv-x="330" 
d="M212 0h-150v700h150v-700zM364 824q0 -31 -22 -53t-53 -22t-53 22t-22 53t22 53t53 22t53 -22t22 -53zM114 824q0 -31 -22 -53t-53 -22t-53 22t-22 53t22 53t53 22t53 -22t22 -53z" />
    <glyph glyph-name="uni0408" unicode="&#x408;" horiz-adv-x="415" 
d="M355 235q0 -61 -17 -104t-44 -72t-61 -45.5t-68 -23.5t-64.5 -6.5t-50.5 5.5l-42 149q40 -11 70 -11.5t51 6t35 19t23 26.5q19 33 18 84v438h150v-465z" />
    <glyph glyph-name="uni0409" unicode="&#x409;" horiz-adv-x="1003" 
d="M719 420q49 0 94.5 -13t79.5 -39.5t54.5 -66t20.5 -91.5q0 -53 -20.5 -92t-54.5 -65.5t-79.5 -39.5t-94.5 -13h-230v560h-150q-9 -98 -16 -180q-3 -35 -6.5 -70l-6.5 -65t-5 -52t-3 -32q-7 -68 -34 -115t-68.5 -72.5t-93.5 -29t-109 14.5l45 135q20 -6 39.5 -6t36.5 8
q24 13 33 46q3 14 7.5 45.5t9 73.5t9 91t8.5 98q10 114 20 250h434v-280h80zM699 128q19 0 38.5 4t35.5 14t26 25.5t10 38.5t-10 38.5t-26 25.5t-35.5 14t-38.5 4h-60v-164h60z" />
    <glyph glyph-name="uni040A" unicode="&#x40a;" horiz-adv-x="940" 
d="M664 420q50 0 95 -13t79.5 -39.5t55 -66t20.5 -91.5q0 -53 -20.5 -92t-55 -65.5t-79.5 -39.5t-95 -13h-69h-150v292h-250v-292h-150v700h150v-278h250v278h150v-280h69zM644 128q19 0 38.5 4t35.5 14t26.5 25.5t10.5 38.5t-10.5 38.5t-26.5 25.5t-35.5 14t-38.5 4h-49
v-164h49z" />
    <glyph glyph-name="uni040B" unicode="&#x40b;" horiz-adv-x="700" 
d="M469 435q95 0 140.5 -56t45.5 -169v-210h-142v200q0 16 -3.5 34t-13.5 33t-29 25t-50 10q-40 0 -60 -24t-27 -57v-221h-150v555h-185l40 145h470v-145h-175v-184q24 29 60.5 46.5t78.5 17.5z" />
    <glyph glyph-name="uni040C" unicode="&#x40c;" 
d="M629 0h-182l-237 322v-322h-150v700h150v-337l232 337h180l-254 -354zM466 898l-129 -148h-121l98 148h152z" />
    <glyph glyph-name="uni040E" unicode="&#x40e;" 
d="M630 700l-303 -700h-163l115 265l-268 435h176l162 -273l118 273h163zM225 893q1 -21 12 -38q9 -14 29.5 -25.5t58.5 -11.5t57.5 11.5t29.5 25.5q11 17 13 38h75q-3 -42 -22 -75q-17 -29 -52.5 -52t-100.5 -23q-66 0 -101 23t-52 52q-19 33 -22 75h75z" />
    <glyph glyph-name="uni040F" unicode="&#x40f;" horiz-adv-x="735" 
d="M680 700v-700h-239v-150h-150v150h-236v700h150v-560h325v560h150z" />
    <glyph glyph-name="uni0410" unicode="&#x410;" horiz-adv-x="680" 
d="M476 0l-44 140h-224l-44 -140h-161l243 700h148l243 -700h-161zM246 260h148l-74 233z" />
    <glyph glyph-name="uni0411" unicode="&#x411;" horiz-adv-x="550" 
d="M274 420q49 0 94.5 -13t79.5 -39.5t54.5 -66t20.5 -91.5q0 -53 -20.5 -92t-54.5 -65.5t-79.5 -39.5t-94.5 -13h-230v700h405l40 -140h-295v-140h80zM254 128q19 0 38.5 4t35.5 14t26 25.5t10 38.5t-10 38.5t-26 25.5t-35.5 14t-38.5 4h-60v-164h60z" />
    <glyph glyph-name="uni0412" unicode="&#x412;" horiz-adv-x="560" 
d="M392 368q38 -10 69 -32q26 -19 48 -52.5t22 -88.5q0 -91 -66 -143t-198 -52h-215v700h195q52 0 99.5 -9.5t83.5 -32t57.5 -60.5t21.5 -95q0 -25 -11.5 -49.5t-28.5 -43.5t-37.5 -30.5t-39.5 -11.5zM202 572v-157h65q38 0 61.5 20.5t23.5 54.5q0 26 -10.5 42t-25.5 25
t-32.5 12t-30.5 3h-51zM261 128q19 0 38.5 4t35.5 14t26.5 25.5t10.5 38.5q0 21 -9.5 36.5t-24.5 26.5t-33.5 16.5t-37.5 5.5h-65v-167h59z" />
    <glyph glyph-name="uni0413" unicode="&#x413;" horiz-adv-x="495" 
d="M485 560h-275v-560h-150v700h385z" />
    <glyph glyph-name="uni0414" unicode="&#x414;" horiz-adv-x="755" 
d="M727 -115h-150v115h-400v-115h-150v255h89q9 11 23 35t29 63q14 36 25 78t19 90q10 60 15 127t5 142v25h420v-560h75v-255zM502 140v420h-133q-4 -77 -13.5 -140.5t-21.5 -115.5t-26.5 -92.5t-29.5 -71.5h224z" />
    <glyph glyph-name="uni0415" unicode="&#x415;" horiz-adv-x="538" 
d="M500 140l-40 -140h-400v700h385l40 -140h-275v-135h190v-140h-190v-145h290z" />
    <glyph glyph-name="uni0416" unicode="&#x416;" horiz-adv-x="1065" 
d="M664 290h-57v-290h-150v290h-56l-206 -290h-182l261 346l-249 354h176l191 -280h65v280h150v-280h66l191 280h176l-249 -354l261 -346h-182z" />
    <glyph glyph-name="uni0417" unicode="&#x417;" horiz-adv-x="580" 
d="M240 414l45 1q19 0 36 6.5t29.5 17.5t19.5 25.5t7 31.5q0 16 -7 31t-19.5 26t-29.5 17.5t-36 6.5t-36 -6.5t-29.5 -17.5t-19.5 -26t-7 -31l-141 13q0 48 18.5 85.5t50 63.5t74 40t90.5 14t90.5 -16t74 -44t50 -64.5t18.5 -76.5q0 -45 -21 -83.5t-58 -66.5q45 -27 71 -69
t26 -98q0 -42 -19.5 -79.5t-53.5 -65.5t-80 -44.5t-98 -16.5t-97.5 16.5t-79.5 44.5t-53.5 65.5t-19.5 79.5l145 25q0 -19 8 -36t22.5 -29.5t33.5 -19.5t41 -7t41 7t33 19.5t22.5 29.5t8.5 36q0 18 -7 33.5t-20 27.5t-30 19.5t-37 9.5h-11h-44z" />
    <glyph glyph-name="uni0418" unicode="&#x418;" horiz-adv-x="745" 
d="M60.042 700v-700h163.99l310.98 472v-472h149.991v700h-149.991l-324.98 -479v479h-149.99z" />
    <glyph glyph-name="uni0419" unicode="&#x419;" horiz-adv-x="745" 
d="M60.042 700v-700h163.99l310.98 472v-472h149.991v700h-149.991l-324.98 -479v479h-149.99zM255 883q1 -21 12 -38q9 -14 29.5 -25.5t58.5 -11.5t57.5 11.5t29.5 25.5q11 17 13 38h75q-3 -42 -22 -75q-17 -29 -52.5 -52t-100.5 -23q-66 0 -101 23t-52 52q-19 33 -22 75
h75z" />
    <glyph glyph-name="uni041A" unicode="&#x41a;" 
d="M629 0h-182l-237 322v-322h-150v700h150v-337l232 337h180l-254 -354z" />
    <glyph glyph-name="uni041B" unicode="&#x41b;" horiz-adv-x="700" 
d="M341 560q-9 -98 -17 -180q-3 -35 -6.5 -70t-6 -65t-4.5 -52t-3 -32q-8 -68 -35 -115t-68.5 -72.5t-93.5 -29t-109 14.5l45 135q20 -6 40 -6t36 8q26 14 33 46q3 14 7.5 45.5t9 73.5t9 91t8.5 98q10 114 20 250h434v-700h-150v560h-149z" />
    <glyph glyph-name="uni041C" unicode="&#x41c;" horiz-adv-x="805" 
d="M134 700h144l124 -450l123 450h145l120 -700h-154l-57 355l-99 -355h-157l-99 355l-56 -355h-153z" />
    <glyph glyph-name="uni041D" unicode="&#x41d;" horiz-adv-x="690" 
d="M627 700v-700h-150v292h-265v-292h-150v700h150v-278h265v278h150z" />
    <glyph glyph-name="uni041E" unicode="&#x41e;" horiz-adv-x="800" 
d="M400 717q76 0 143.5 -28.5t118 -78t79.5 -116t29 -142.5t-29 -142.5t-79.5 -116t-118 -78t-143.5 -28.5q-77 0 -144.5 28.5t-117.5 78t-79 116t-29 142.5t29 142.5t79 116t117.5 78t144.5 28.5zM400 132q44 0 83 17t68.5 47t46.5 70t17 86t-17 86t-46.5 70t-68.5 47
t-83 17q-45 0 -84 -17t-68 -47t-46 -70t-17 -86t17 -86t46 -70t68 -47t84 -17z" />
    <glyph glyph-name="uni041F" unicode="&#x41f;" horiz-adv-x="725" 
d="M665 700v-700h-150v560h-305v-560h-150l-1 700h1h604h1z" />
    <glyph glyph-name="uni0420" unicode="&#x420;" horiz-adv-x="560" 
d="M280 700q46 0 92.5 -10.5t84 -36.5t60.5 -69t23 -109q0 -54 -21.5 -95t-57 -69t-80.5 -42t-91 -14h-80v-255h-150v700h220zM265 390q15 0 36 2t39.5 10.5t31.5 25.5t13 47t-13 47t-31.5 25.5t-39.5 10.5t-36 2h-55v-170h55z" />
    <glyph glyph-name="uni0421" unicode="&#x421;" horiz-adv-x="645" 
d="M617 84q-47 -46 -107.5 -72t-129.5 -26q-72 0 -136 27t-111.5 75.5t-75 115.5t-27.5 147q0 76 27.5 142.5t75 116t111.5 78t136 28.5q69 0 129.5 -26t106.5 -72l-105 -96q-26 22 -58 34t-67 12q-41 0 -77.5 -17.5t-63.5 -47.5t-43 -69t-16 -81q0 -46 16 -85t43 -68
t63.5 -45.5t77.5 -16.5q33 0 62.5 10.5t53.5 29.5z" />
    <glyph glyph-name="uni0422" unicode="&#x422;" horiz-adv-x="540" 
d="M520 555h-175v-555h-150v555h-185l40 145h470v-145z" />
    <glyph glyph-name="uni0423" unicode="&#x423;" 
d="M630 700l-303 -700h-163l115 265l-268 435h176l162 -273l118 273h163z" />
    <glyph glyph-name="uni0424" unicode="&#x424;" horiz-adv-x="855" 
d="M828 353q0 -68 -25.5 -116.5t-70 -81t-104.5 -49.5t-130 -20v-86h-140v81q-69 4 -129.5 21.5t-105 50.5t-70 82.5t-25.5 117.5q0 67 25.5 115.5t70 81t105 49.5t129.5 20v81h140v-81q70 -3 130 -20t104.5 -49.5t70 -81t25.5 -115.5zM183 353q0 -39 13.5 -64.5t37 -41
t55.5 -22.5t69 -9v268q-37 -2 -69 -8t-55.5 -20t-37 -39t-13.5 -64zM498 216q37 2 69.5 9t55.5 22.5t36.5 41t13.5 64.5t-13.5 64t-36.5 39t-55.5 20t-69.5 8v-268z" />
    <glyph glyph-name="uni0425" unicode="&#x425;" horiz-adv-x="725" 
d="M523 0l-161 246l-161 -246h-182l254 369l-229 331h182l136 -203l135 203h182l-228 -331l254 -369h-182z" />
    <glyph glyph-name="uni0426" unicode="&#x426;" horiz-adv-x="795" 
d="M748 140v-290h-150v150h-540v700h150v-560h315v560h150v-560h75z" />
    <glyph glyph-name="uni0427" unicode="&#x427;" horiz-adv-x="610" 
d="M551 700v-700h-150v289q-24 -29 -60.5 -46.5t-78.5 -17.5q-47 0 -86 14t-67 42t-43 70.5t-15 98.5v250h142v-240q0 -16 5 -34t17.5 -33.5t33.5 -25.5t52 -10q27 0 46 11t31 29t17.5 40t5.5 44v219h150z" />
    <glyph glyph-name="uni0428" unicode="&#x428;" horiz-adv-x="1020" 
d="M960 700v-700h-900v700h150v-560h225v560h150v-560h225v560h150z" />
    <glyph glyph-name="uni0429" unicode="&#x429;" horiz-adv-x="1080" 
d="M1035 140v-290h-150v150h-825v700h150v-560h225v560h150v-560h225v560h150v-560h75z" />
    <glyph glyph-name="uni042A" unicode="&#x42a;" horiz-adv-x="735" 
d="M450 420q50 0 95 -13t79.5 -39.5t55 -66t20.5 -91.5q0 -53 -20.5 -92t-55 -65.5t-79.5 -39.5t-95 -13h-229v560h-175l-40 140h365v-280h79zM430 128q19 0 38.5 4t35.5 14t26.5 25.5t10.5 38.5t-10.5 38.5t-26.5 25.5t-35.5 14t-38.5 4h-59v-164h59z" />
    <glyph glyph-name="uni042B" unicode="&#x42b;" horiz-adv-x="795" 
d="M289 420q49 0 94.5 -13t79.5 -39.5t54.5 -66t20.5 -91.5q0 -53 -20.5 -92t-54.5 -65.5t-79.5 -39.5t-94.5 -13h-230v700h150v-280h80zM269 128q19 0 38.5 4t35.5 14t26 25.5t10 38.5t-10 38.5t-26 25.5t-35.5 14t-38.5 4h-60v-164h60zM588 0v700h150v-700h-150z" />
    <glyph glyph-name="uni042C" unicode="&#x42c;" horiz-adv-x="570" 
d="M290 420q49 0 94.5 -13t79.5 -39.5t54.5 -66t20.5 -91.5q0 -53 -20.5 -92t-54.5 -65.5t-79.5 -39.5t-94.5 -13h-230v700h150v-280h80zM270 128q19 0 38.5 4t35.5 14t26 25.5t10 38.5t-10 38.5t-26 25.5t-35.5 14t-38.5 4h-60v-164h60z" />
    <glyph glyph-name="uni042D" unicode="&#x42d;" horiz-adv-x="645" 
d="M263 715q72 0 136 -28.5t111.5 -78t75 -116t27.5 -142.5q0 -80 -27.5 -147t-75 -115.5t-111.5 -75.5t-136 -27q-69 0 -129.5 26t-107.5 72l115 94q24 -19 53.5 -29.5t61.5 -10.5q33 0 63 10.5t54.5 29t43 45t28.5 58.5h-202v140h203q-11 31 -29.5 58t-43 46.5t-54.5 31
t-63 11.5q-35 0 -66.5 -12t-57.5 -34l-105 96q46 46 106.5 72t129.5 26z" />
    <glyph glyph-name="uni042E" unicode="&#x42e;" horiz-adv-x="1085" 
d="M684 716q76 0 143.5 -28.5t118 -78t79.5 -116t29 -142.5t-29 -142.5t-79.5 -116t-118 -78t-143.5 -28.5q-67 0 -127.5 22.5t-108.5 61.5t-81 92.5t-46 116.5h-112v-279h-150v700h150v-271h113q14 61 47.5 114t81 91t107.5 60t126 22zM684 131q45 0 84 17t68 47t46 70
t17 86t-17 86t-46 70t-68 47t-84 17t-84 -17t-68 -47t-46 -70t-17 -86t17 -86t46 -70t68 -47t84 -17z" />
    <glyph glyph-name="uni042F" unicode="&#x42f;" horiz-adv-x="620" 
d="M364.016 275h45.9971v-275h149.991v700h-219.986q-45.998 0 -92.4951 -10.5t-83.9941 -36.5q-37.498 -26 -60.4971 -69q-22.998 -43 -22.998 -109q0 -34 10.499 -61.5t28.998 -49t43.498 -37.5q24.998 -16 52.9961 -27l-205.987 -300h181.989zM410.013 375h-54.9961
q-14.999 0 -35.998 4.5t-39.498 15.5t-31.498 30.5t-12.999 49.5t12.999 47t31.498 25.5t39.498 10.5t35.998 2h54.9961v-185z" />
    <glyph glyph-name="uni0430" unicode="&#x430;" horiz-adv-x="570" 
d="M87 503q20 12 60 23t87.5 15.5t97.5 -1.5t91 -28.5t67 -63.5t26 -108v-340h-125v51q-30 -26 -68 -41t-78 -18t-78.5 6t-68.5 29.5t-48.5 53.5t-18.5 78q0 49 17.5 81.5t46.5 52t66 28.5t76 10.5t76.5 -3t67.5 -10.5v19q0 45 -24.5 65.5t-63 23.5t-84.5 -7t-89 -26z
M170 162q0 -31 22 -47t54 -18t68.5 10.5t66.5 39.5v74q-29 7 -65.5 12t-69 1t-54.5 -20t-22 -52z" />
    <glyph glyph-name="uni0431" unicode="&#x431;" horiz-adv-x="605" 
d="M310 -13q-54 0 -101 19.5t-82.5 53.5t-56 79.5t-20.5 97.5v118q0 73 9 125.5t30.5 91.5t56.5 69t87 57q28 15 66.5 36.5t74.5 42t63 35.5t30 17l72 -131l-17 -8t-43 -20.5t-56.5 -27t-59 -28.5t-51 -25t-30.5 -16q-25 -14 -45.5 -28.5t-35.5 -32t-23 -40.5t-8 -54v-1
q27 29 67 46.5t91 17.5q54 0 98.5 -18.5t76.5 -51.5t49.5 -77.5t17.5 -96.5t-20.5 -97.5t-55.5 -79.5t-82.5 -53.5t-101.5 -19.5zM310 351q-24 0 -45.5 -9t-37.5 -25t-25 -37t-9 -45t9 -45t25 -36.5t37.5 -24.5t45.5 -9t45.5 9t37.5 24.5t25.5 36.5t9.5 45t-9.5 45t-25.5 37
t-37.5 25t-45.5 9z" />
    <glyph glyph-name="uni0432" unicode="&#x432;" horiz-adv-x="475" 
d="M375 280q19 -11 35 -28q14 -15 25 -38t11 -58q0 -39 -15 -68t-41.5 -48.5t-63.5 -29.5t-80 -10h-195v535h175q19 0 53 -3.5t67.5 -19t58.5 -47t25 -88.5q0 -24 -8.5 -42.5t-19.5 -30.5q-12 -14 -27 -24zM189 326h49q5 0 13.5 1t17 5.5t14.5 13t6 22.5q0 16 -7 25
t-16.5 13.5t-20 5.5t-16.5 1h-40v-87zM240 122q4 0 14.5 1.5t21.5 6.5t19 14t8 23q0 16 -7.5 26t-17.5 15t-20.5 7t-17.5 2h-51v-95h51z" />
    <glyph glyph-name="uni0433" unicode="&#x433;" horiz-adv-x="435" 
d="M389 535l36 -125h-231v-410h-140v535h335z" />
    <glyph glyph-name="uni0434" unicode="&#x434;" horiz-adv-x="695" 
d="M658 140v-255h-150v115h-320v-115h-150v255h66q8 8 22 25.5t28 46.5q19 38 31 80.5t18.5 85t9 83t2.5 74.5h385v-1v-394h58zM455 405h-111q-3 -29 -8 -57t-11 -54q-20 -86 -56 -154h186v265z" />
    <glyph glyph-name="uni0435" unicode="&#x435;" horiz-adv-x="605" 
d="M327 124q25 0 48 6t42.5 15t34.5 20t25 20l77 -109q-54 -41 -116.5 -62.5t-119.5 -21.5q-58 0 -109.5 21.5t-89.5 59t-60.5 88.5t-22.5 109t22.5 109t60.5 89t89.5 60t109.5 22q52 0 94 -17.5t73 -42.5t52 -52.5t33 -48.5l-342 -227q41 -38 99 -38zM313 426
q-35 0 -60.5 -12.5t-42 -33.5t-25 -47t-8.5 -53q0 -15 3 -30l217 143q-15 14 -35.5 23.5t-48.5 9.5z" />
    <glyph glyph-name="uni0436" unicode="&#x436;" horiz-adv-x="820" 
d="M638 0l-142 216h-16v-216h-140v216h-16l-142 -216h-174l200 275l-194 260h168l145 -209h13v209h140v-209h13l146 209h167l-194 -260l200 -275h-174v0z" />
    <glyph glyph-name="uni0437" unicode="&#x437;" horiz-adv-x="470" 
d="M212 332l21 1q24 0 39.5 14.5t15.5 35.5t-15.5 36t-39.5 15t-38 -15t-14 -36l-130 11q0 37 15 66t40 49t58.5 30.5t70.5 10.5t70.5 -11t59 -31.5t40.5 -49t15 -63.5q0 -40 -19 -67t-47 -49q34 -20 56.5 -49.5t22.5 -78.5q0 -36 -16 -65t-43 -50t-63 -32.5t-76 -11.5
t-76 12.5t-63 34t-43 50.5t-16 62l136 19q0 -24 16.5 -40.5t43.5 -16.5t45 16.5t18 40.5q0 22 -15.5 38t-40.5 18h-28v106z" />
    <glyph glyph-name="uni0438" unicode="&#x438;" horiz-adv-x="650" 
d="M195 535v-356l240 356h160v-535h-140v351l-236 -351h-164v535h140z" />
    <glyph glyph-name="uni0439" unicode="&#x439;" horiz-adv-x="650" 
d="M195 535v-356l240 356h160v-535h-140v351l-236 -351h-164v535h140zM215 724q1 -21 12 -38q9 -14 29.5 -25.5t58.5 -11.5t57.5 11.5t29.5 25.5q11 17 13 38h75q-3 -42 -22 -75q-17 -29 -52.5 -52t-100.5 -23q-66 0 -101 23t-52 52q-19 33 -22 75h75z" />
    <glyph glyph-name="uni043A" unicode="&#x43a;" horiz-adv-x="550" 
d="M52 0v535h141v-224l175 224h171l-213 -269l201 -266h-168l-166 227v-227h-141z" />
    <glyph glyph-name="uni043B" unicode="&#x43b;" horiz-adv-x="580" 
d="M525 535v-535h-145v405h-123q-3 -37 -6.5 -76.5t-6.5 -73t-5 -57t-2 -28.5q-7 -58 -38 -104t-79 -69q-38 -20 -82 -20h-13v139q11 -4 21 -2.5t18 5.5q14 8 25 24.5t13 38.5q0 4 2 21.5t4.5 43t5.5 57t6 63.5q7 75 15 168h390z" />
    <glyph glyph-name="uni043C" unicode="&#x43c;" horiz-adv-x="650" 
d="M642 0h-142l-31 247l-79 -247h-130l-79 247l-31 -247h-142l81 535h121l115 -341l115 341h122z" />
    <glyph glyph-name="uni043D" unicode="&#x43d;" horiz-adv-x="605" 
d="M402 536h145v-536h-145v213h-200v-213h-145v536h145v-203h200v203v0z" />
    <glyph glyph-name="uni043E" unicode="&#x43e;" horiz-adv-x="660" 
d="M320 547q60 0 112.5 -22t91.5 -60t62 -88.5t23 -108.5t-23 -108.5t-62 -88.5t-91.5 -60t-112.5 -22t-112.5 22t-92 60t-62 88.5t-22.5 108.5t22.5 108.5t62 88.5t92 60t112.5 22zM320 123q30 0 56.5 11t46 30.5t31 45.5t11.5 56t-11.5 56t-31 45.5t-46 31t-56.5 11.5
t-56.5 -11.5t-46 -31t-31 -45.5t-11.5 -56t11.5 -56t31 -45.5t46 -30.5t56.5 -11z" />
    <glyph glyph-name="uni043F" unicode="&#x43f;" horiz-adv-x="639" 
d="M57 536h525v-1v-535h-150v396h-223v-396h-150l-2 536v0z" />
    <glyph glyph-name="uni0440" unicode="&#x440;" 
d="M350 534q58 0 106 -22t82 -60t53 -89t19 -109t-22 -109t-60 -89t-89 -60t-109 -22q-45 0 -79.5 15.5t-60.5 41.5v-191l-140 -31v698l128 28v-88q30 40 72.5 63.5t99.5 23.5zM323 114q30 0 56 11t45.5 30.5t30.5 45.5t11 56t-11 56t-30.5 45.5t-45.5 30.5t-56 11t-56 -11
t-45.5 -30.5t-30.5 -45.5t-11 -56t11 -56t30.5 -45.5t45.5 -30.5t56 -11z" />
    <glyph glyph-name="uni0441" unicode="&#x441;" horiz-adv-x="535" 
d="M511 58q-38 -37 -91 -52.5t-110 -15.5q-58 0 -109 21.5t-89 59t-60 88.5t-22 109t22 109t60 89t89 60t109 22q55 0 102 -13.5t94 -50.5l-78 -107q-20 19 -48 30t-57 11q-31 0 -57.5 -12t-46 -32t-30.5 -47.5t-11 -58.5t11 -58t30.5 -46.5t46 -30.5t57.5 -11q30 0 58.5 10
t48.5 29z" />
    <glyph glyph-name="uni0442" unicode="&#x442;" horiz-adv-x="540" 
d="M492 535v-145h-155v-390h-150v390h-165l40 145h430z" />
    <glyph glyph-name="uni0443" unicode="&#x443;" horiz-adv-x="590" 
d="M220 66l-208 469h148l136 -317l129 317h153l-321 -710h-149z" />
    <glyph glyph-name="uni0444" unicode="&#x444;" horiz-adv-x="780" 
d="M320 0q-60 0 -112.5 21t-92 58t-62 86t-22.5 105t22.5 105t62 86t92 58t112.5 21v161l140 31v-192q60 0 112.5 -21t92 -58t62 -86t22.5 -105t-22.5 -105t-62 -86t-92 -58t-112.5 -21v-137l-140 -31v168zM460 124q30 0 56.5 11.5t46 31.5t31 46t11.5 55t-11.5 55t-31 46
t-46 31.5t-56.5 11.5v-288zM320 412q-30 0 -56.5 -11.5t-46 -31.5t-31 -46t-11.5 -55t11.5 -55t31 -46t46 -31.5t56.5 -11.5v288z" />
    <glyph glyph-name="uni0445" unicode="&#x445;" horiz-adv-x="565" 
d="M387 0l-105 156l-106 -156h-165l191 274l-177 261h155l102 -146l101 146h156l-177 -261l191 -274h-166z" />
    <glyph glyph-name="uni0446" unicode="&#x446;" horiz-adv-x="690" 
d="M650 140v-290h-150v150h-450v535h150v-395h225v395h150v-395h75v0z" />
    <glyph glyph-name="uni0447" unicode="&#x447;" horiz-adv-x="550" 
d="M491 535v-535h-145v206q-20 -23 -53.5 -37t-67.5 -14q-38 0 -70 11t-55 33.5t-36 56.5t-13 79v200h143v-162q0 -33 15 -57.5t58 -24.5q23 0 38.5 7.5t24.5 19.5t12.5 28t3.5 34v155h145z" />
    <glyph glyph-name="uni0448" unicode="&#x448;" horiz-adv-x="865" 
d="M807 535v-535h-750v535h150v-395h150v395h150v-395h150v395h150z" />
    <glyph glyph-name="uni0449" unicode="&#x449;" horiz-adv-x="910" 
d="M880 140v-260h-150v120h-675v535h150v-395h150v395h150v-395h150v395h150v-395h75z" />
    <glyph glyph-name="uni044A" unicode="&#x44a;" horiz-adv-x="615" 
d="M369 337q60 0 100 -13t64 -35.5t34 -53t10 -64.5q0 -39 -15 -70.5t-42 -54t-64 -34.5t-80 -12h-222v410h-104l-36 125h288v-198h67zM371 117q4 0 13.5 2.5t19.5 8.5t17 15.5t7 23.5q0 16 -6.5 26.5t-15.5 17t-19 9t-16 2.5h-69v-105h69z" />
    <glyph glyph-name="uni044B" unicode="&#x44b;" horiz-adv-x="740" 
d="M205 535v-198h67q60 0 100 -13t64 -35.5t34 -53t10 -64.5q0 -39 -15 -70.5t-42 -54t-64 -34.5t-80 -12h-222v535h148zM274 117q4 0 13.5 2.5t19.5 8.5t17 15.5t7 23.5q0 16 -6.5 26.5t-15.5 17t-19 9t-16 2.5h-69v-105h69zM533 0v535h150v-535h-150z" />
    <glyph glyph-name="uni044C" unicode="&#x44c;" horiz-adv-x="515" 
d="M205 535v-198h67q60 0 100 -13t64 -35.5t34 -53t10 -64.5q0 -39 -15 -70.5t-42 -54t-64 -34.5t-80 -12h-222v535h148zM274 117q4 0 13.5 2.5t19.5 8.5t17 15.5t7 23.5q0 16 -6.5 26.5t-15.5 17t-19 9t-16 2.5h-69v-105h69z" />
    <glyph glyph-name="uni044D" unicode="&#x44d;" horiz-adv-x="515" 
d="M213 550q55 0 103.5 -22t84.5 -59.5t57 -88t21 -108.5q0 -61 -21 -112t-57 -88t-84.5 -57.5t-103.5 -20.5q-54 0 -99.5 20t-80.5 55l103 90q32 -26 76 -26q38 0 67.5 20t45.5 54h-151v130h152q-16 34 -46 55.5t-68 21.5q-46 0 -81 -30l-98 91q35 35 80.5 55t99.5 20z" />
    <glyph glyph-name="uni044E" unicode="&#x44e;" horiz-adv-x="860" 
d="M541 548q60 0 112.5 -22t92 -60t62 -88.5t22.5 -108.5t-22.5 -108.5t-62 -88.5t-92 -60t-112.5 -22q-50 0 -95.5 15.5t-82.5 43.5t-63 65.5t-38 82.5h-67v-197h-140v535h140v-197h66q12 45 38.5 83.5t63 66.5t82 44t96.5 16zM541 124q30 0 56.5 11t46 30.5t31 45.5
t11.5 56t-11.5 56t-31 45.5t-46 30.5t-56.5 11t-56.5 -11t-46 -30.5t-31 -45.5t-11.5 -56t11.5 -56t31 -45.5t46 -30.5t56.5 -11z" />
    <glyph glyph-name="uni044F" unicode="&#x44f;" horiz-adv-x="520" 
d="M167 211q-29 12 -51 31q-20 17 -35.5 43t-15.5 66q0 56 20.5 92t51.5 56.5t68.5 28t70.5 7.5h185v-535h-138v187h-24l-111 -187h-166zM200 351q0 -23 9.5 -34.5t23 -16.5t28.5 -5h27h35v115h-35q-10 0 -25 -0.5t-29 -6t-24 -17.5t-10 -35z" />
    <glyph glyph-name="uni0451" unicode="&#x451;" horiz-adv-x="605" 
d="M325 124q25 0 48 6t42.5 15t34.5 20t25 20l77 -109q-54 -41 -116.5 -62.5t-119.5 -21.5q-58 0 -109.5 21.5t-89.5 59t-60.5 88.5t-22.5 109t22.5 109t60.5 89t89.5 60t109.5 22q52 0 94 -17.5t73 -42.5t52 -52.5t33 -48.5l-342 -227q41 -38 99 -38zM311 426
q-35 0 -60.5 -12.5t-42 -33.5t-25 -47t-8.5 -53q0 -15 3 -30l217 143q-15 14 -35.5 23.5t-48.5 9.5zM495 668q0 -31 -22 -53t-53 -22t-53 22t-22 53t22 53t53 22t53 -22t22 -53zM245 668q0 -31 -22 -53t-53 -22t-53 22t-22 53t22 53t53 22t53 -22t22 -53z" />
    <glyph glyph-name="uni0452" unicode="&#x452;" horiz-adv-x="600" 
d="M360 535q88 0 137 -56t49 -169v-361q0 -37 -5 -75t-26.5 -68.5t-67 -49.5t-126.5 -19l-36 126q37 0 60.5 6.5t37 18t18.5 27t5 34.5v351q0 16 -3.5 34t-14 33t-30 25t-50.5 10q-28 0 -51.5 -19t-25.5 -61v-322h-140v562h-62v88h62v34l135 30v-64h155v-88h-155v-95
q21 30 55.5 49t78.5 19z" />
    <glyph glyph-name="uni0453" unicode="&#x453;" horiz-adv-x="435" 
d="M389 535l36 -125h-231v-410h-140v535h335zM376 742l-129 -148h-121l98 148h152z" />
    <glyph glyph-name="uni0454" unicode="&#x454;" horiz-adv-x="515" 
d="M299.013 550q-54.9961 0 -103.493 -22t-84.4951 -59.5t-56.9961 -88q-20.999 -50.5 -20.999 -108.5q0 -61 20.999 -112q20.998 -51 56.9961 -88t84.4951 -57.5t103.493 -20.5q53.9971 0 99.4941 20t80.4951 55l-102.994 90q-31.998 -26 -75.9951 -26
q-37.9971 0 -67.4961 20q-29.498 20 -45.4971 54h150.991v130h-151.991q15.999 34 45.998 55.5q29.998 21.5 67.9951 21.5q45.9971 0 80.9951 -30l97.9941 91q-34.998 35 -80.4951 55t-99.4941 20z" />
    <glyph glyph-name="uni0455" unicode="&#x455;" horiz-adv-x="445" 
d="M327 387q-27 20 -54 27t-48.5 4.5t-35 -13.5t-13.5 -28q0 -15 8 -23.5t22 -14.5t34.5 -10t45.5 -10q46 -11 73.5 -28t42.5 -37t19.5 -42t4.5 -43q0 -53 -19.5 -88t-50 -56t-67.5 -30t-72 -9q-47 0 -80 7.5t-56 18.5t-38.5 23t-27.5 21l74 101q19 -17 38 -27t36 -15
t29.5 -6t17.5 -1q11 0 25 1.5t26 6.5t20.5 15t8.5 27q0 11 -4 19t-15.5 14.5t-31 11.5t-50.5 10t-58.5 15.5t-48.5 29.5t-33 48.5t-12 73.5q0 34 14.5 63.5t40.5 52t61.5 35.5t77.5 13t75 -11.5t56 -25.5q27 -16 48 -36z" />
    <glyph glyph-name="uni0456" unicode="&#x456;" horiz-adv-x="260" 
d="M210 635q0 -33 -23.5 -56.5t-56.5 -23.5t-56.5 23.5t-23.5 56.5t23.5 56.5t56.5 23.5t56.5 -23.5t23.5 -56.5zM202 0v526l-140 -31v-495h140z" />
    <glyph glyph-name="uni0457" unicode="&#x457;" horiz-adv-x="300" 
d="M60 0v495l140 31v-526h-140zM354 668q0 -31 -22 -53t-53 -22t-53 22t-22 53t22 53t53 22t53 -22t22 -53zM104 668q0 -31 -22 -53t-53 -22t-53 22t-22 53t22 53t53 22t53 -22t22 -53z" />
    <glyph glyph-name="uni0458" unicode="&#x458;" horiz-adv-x="270" 
d="M217 635q0 -33 -23.5 -56.5t-56.5 -23.5t-56.5 23.5t-23.5 56.5t23.5 56.5t56.5 23.5t56.5 -23.5t23.5 -56.5zM69 495v-495q0 -19 -5 -34.5t-18.5 -27t-37 -18t-60.5 -6.5l45 -127q77 0 120.5 18t64.5 48t26 68.5t5 78.5v526z" />
    <glyph glyph-name="uni0459" unicode="&#x459;" horiz-adv-x="815" 
d="M582 337q60 0 100 -13t64 -35.5t34 -53t10 -64.5q0 -39 -15 -70.5t-42 -54t-64 -34.5t-80 -12h-219v405h-123q-3 -38 -6.5 -77.5t-6.5 -73t-5 -57t-3 -27.5q-7 -59 -37.5 -105t-78.5 -69q-37 -19 -82 -19h-13v138q11 -3 21 -2t18 5q14 8 25 24.5t13 39.5q0 4 2 21.5
t4.5 43t5.5 57t6 63.5q7 75 15 168h390v-198h67zM584 117q4 0 13.5 2.5t19.5 8.5t17 15.5t7 23.5q0 16 -6.5 26.5t-15.5 17t-19 9t-16 2.5h-69v-105h69z" />
    <glyph glyph-name="uni045A" unicode="&#x45a;" horiz-adv-x="820" 
d="M587 337q60 0 100 -13t64 -35.5t34 -53t10 -64.5q0 -39 -15 -70.5t-42 -54t-64 -34.5t-80 -12h-57h-145v213h-195v-213h-145v536h145v-203h195v203h145v-199h50zM589 117q4 0 13.5 2.5t19.5 8.5t17 15.5t7 23.5q0 16 -6.5 26.5t-15.5 17t-19 9t-16 2.5h-52v-105h52z" />
    <glyph glyph-name="uni045B" unicode="&#x45b;" horiz-adv-x="630" 
d="M397 435q95 0 140.5 -56t45.5 -169v-210h-142v200q0 16 -3.5 34t-13.5 33t-29 25t-50 10q-40 0 -60 -24t-27 -57v-221h-150v475h-115l40 125h81v90l139 20v-110h150v-125h-145v-104q24 29 60.5 46.5t78.5 17.5z" />
    <glyph glyph-name="uni045C" unicode="&#x45c;" horiz-adv-x="550" 
d="M466 742l-129 -148h-121l98 148h152zM52 0v535h141v-224l175 224h171l-213 -269l201 -266h-168l-166 227v-227h-141z" />
    <glyph glyph-name="uni045E" unicode="&#x45e;" horiz-adv-x="590" 
d="M220 66l-208 469h148l136 -317l129 317h153l-321 -710h-149zM195 743q1 -21 12 -38q9 -14 29.5 -25.5t58.5 -11.5t57.5 11.5t29.5 25.5q11 17 13 38h75q-3 -42 -22 -75q-17 -29 -52.5 -52t-100.5 -23q-66 0 -101 23t-52 52q-19 33 -22 75h75z" />
    <glyph glyph-name="uni045F" unicode="&#x45f;" horiz-adv-x="650" 
d="M600 535v-535h-200v-120h-150v120h-200v535h150v-395h250v395h150v0z" />
    <glyph glyph-name="quoteleft" unicode="&#x2018;" horiz-adv-x="315" 
d="M56 700h146l79 -248h-100z" />
    <glyph glyph-name="quoteright" unicode="&#x2019;" horiz-adv-x="310" 
d="M129 452h-100l79 248h146z" />
    <glyph glyph-name="quotedblleft" unicode="&#x201c;" horiz-adv-x="535" 
d="M281 700h146l79 -248h-100zM56 700h146l79 -248h-100z" />
    <glyph glyph-name="quotedblright" unicode="&#x201d;" horiz-adv-x="535" 
d="M129 452h-100l79 248h146l-125 -248v0zM354 452h-100l79 248h146l-125 -248v0z" />
    <glyph glyph-name="bullet" unicode="&#x2022;" horiz-adv-x="475" 
d="M70 444q0 35 13 65.5t35.5 53t53 35.5t65.5 13t65.5 -13t53.5 -35.5t36 -53t13 -65.5t-13 -65.5t-36 -53.5t-53.5 -36t-65.5 -13t-65.5 13t-53 36t-35.5 53.5t-13 65.5z" />
    <glyph glyph-name="ellipsis" unicode="&#x2026;" horiz-adv-x="780" 
d="M220 78q0 -34 -23.5 -57t-56.5 -23t-56.5 23t-23.5 57q0 33 23.5 56.5t56.5 23.5t56.5 -23.5t23.5 -56.5zM470 78q0 -34 -23.5 -57t-56.5 -23t-56.5 23t-23.5 57q0 33 23.5 56.5t56.5 23.5t56.5 -23.5t23.5 -56.5zM720 78q0 -34 -23.5 -57t-56.5 -23t-56.5 23t-23.5 57
q0 33 23.5 56.5t56.5 23.5t56.5 -23.5t23.5 -56.5z" />
    <glyph glyph-name="guilsinglleft" unicode="&#x2039;" horiz-adv-x="313" 
d="M287 473l-124 -173l120 -173h-129l-116 173l120 173h129z" />
    <glyph glyph-name="guilsinglright" unicode="&#x203a;" horiz-adv-x="320" 
d="M169 473l120 -173l-116 -173h-129l120 173l-124 173h129z" />
    <glyph glyph-name="fraction" unicode="&#x2044;" horiz-adv-x="280" 
d="M-27 -13h-86l420 718h86l-420 -718v0z" />
    <glyph glyph-name="Euro" unicode="&#x20ac;" horiz-adv-x="750" 
d="M699 86q-47 -46 -107.5 -72t-129.5 -26q-56 0 -107 16t-93.5 46t-75 72.5t-51.5 95.5h-91l-32 112h101q-1 6 -1 11.5v11.5v13.5t1 13.5h-69l-32 113h127q19 49 51.5 90.5t74.5 71.5t92 46.5t105 16.5q69 0 129.5 -26t106.5 -72l-105 -96q-26 22 -58 34t-67 12
q-55 0 -95.5 -21t-66.5 -56h174l32 -113h-247q-1 -6 -1 -12v-13v-12t1 -13h190l32 -112h-181q26 -36 67 -57t95 -21q33 0 62.5 10.5t53.5 29.5z" />
    <glyph glyph-name="trademark" unicode="&#x2122;" horiz-adv-x="854" 
d="M376 617h-112v-317h-86v317h-116v83h314v-83zM444 700h83l70 -257l71 257h83l68 -400h-88l-32 203l-57 -203h-90l-56 203l-32 -203h-88z" />
    </font>
</defs>
</svg>
